%TF.GenerationSoftware,KiCad,Pcbnew,8.0.1*%
%TF.CreationDate,2024-04-02T05:11:47+03:00*%
%TF.ProjectId,led connectors,6c656420-636f-46e6-9e65-63746f72732e,rev?*%
%TF.SameCoordinates,Original*%
%TF.FileFunction,Copper,L1,Top*%
%TF.FilePolarity,Positive*%
%FSLAX46Y46*%
G04 Gerber Fmt 4.6, Leading zero omitted, Abs format (unit mm)*
G04 Created by KiCad (PCBNEW 8.0.1) date 2024-04-02 05:11:47*
%MOMM*%
%LPD*%
G01*
G04 APERTURE LIST*
G04 Aperture macros list*
%AMRoundRect*
0 Rectangle with rounded corners*
0 $1 Rounding radius*
0 $2 $3 $4 $5 $6 $7 $8 $9 X,Y pos of 4 corners*
0 Add a 4 corners polygon primitive as box body*
4,1,4,$2,$3,$4,$5,$6,$7,$8,$9,$2,$3,0*
0 Add four circle primitives for the rounded corners*
1,1,$1+$1,$2,$3*
1,1,$1+$1,$4,$5*
1,1,$1+$1,$6,$7*
1,1,$1+$1,$8,$9*
0 Add four rect primitives between the rounded corners*
20,1,$1+$1,$2,$3,$4,$5,0*
20,1,$1+$1,$4,$5,$6,$7,0*
20,1,$1+$1,$6,$7,$8,$9,0*
20,1,$1+$1,$8,$9,$2,$3,0*%
G04 Aperture macros list end*
%TA.AperFunction,ComponentPad*%
%ADD10R,1.700000X1.700000*%
%TD*%
%TA.AperFunction,ComponentPad*%
%ADD11RoundRect,0.250000X0.725000X-0.600000X0.725000X0.600000X-0.725000X0.600000X-0.725000X-0.600000X0*%
%TD*%
%TA.AperFunction,ComponentPad*%
%ADD12O,1.950000X1.700000*%
%TD*%
%TA.AperFunction,ViaPad*%
%ADD13C,1.000000*%
%TD*%
%TA.AperFunction,ViaPad*%
%ADD14C,4.000000*%
%TD*%
%TA.AperFunction,Conductor*%
%ADD15C,0.760000*%
%TD*%
%TA.AperFunction,Conductor*%
%ADD16C,3.000000*%
%TD*%
%TA.AperFunction,Conductor*%
%ADD17C,0.200000*%
%TD*%
G04 APERTURE END LIST*
D10*
%TO.P,J48,1,Pin_1*%
%TO.N,GND*%
X31750000Y-29500000D03*
%TD*%
%TO.P,J1,1,Pin_1*%
%TO.N,+5V*%
X31750000Y-23000000D03*
%TD*%
%TO.P,J33,1,Pin_1*%
%TO.N,/F*%
X63500000Y-267000000D03*
%TD*%
D11*
%TO.P,J47,1,Pin_1*%
%TO.N,+5V*%
X72000000Y-321250000D03*
D12*
%TO.P,J47,2,Pin_2*%
%TO.N,/J*%
X72000000Y-318750000D03*
%TO.P,J47,3,Pin_3*%
%TO.N,GND*%
X72000000Y-316250000D03*
%TD*%
D10*
%TO.P,J31,1,Pin_1*%
%TO.N,/D*%
X63500000Y-241000000D03*
%TD*%
%TO.P,J36,1,Pin_1*%
%TO.N,/I*%
X63500000Y-305750000D03*
%TD*%
%TO.P,J13,1,Pin_1*%
%TO.N,/r10*%
X63500000Y-159250000D03*
%TD*%
%TO.P,J34,1,Pin_1*%
%TO.N,/G*%
X63500000Y-279750000D03*
%TD*%
D11*
%TO.P,J16,1,Pin_1*%
%TO.N,+5V*%
X72000000Y-42500000D03*
D12*
%TO.P,J16,2,Pin_2*%
%TO.N,/r1*%
X72000000Y-40000000D03*
%TO.P,J16,3,Pin_3*%
%TO.N,GND*%
X72000000Y-37500000D03*
%TD*%
D11*
%TO.P,J46,1,Pin_1*%
%TO.N,+5V*%
X72000000Y-308250000D03*
D12*
%TO.P,J46,2,Pin_2*%
%TO.N,/I*%
X72000000Y-305750000D03*
%TO.P,J46,3,Pin_3*%
%TO.N,GND*%
X72000000Y-303250000D03*
%TD*%
D11*
%TO.P,J18,1,Pin_1*%
%TO.N,+5V*%
X72000000Y-69000000D03*
D12*
%TO.P,J18,2,Pin_2*%
%TO.N,/r3*%
X72000000Y-66500000D03*
%TO.P,J18,3,Pin_3*%
%TO.N,GND*%
X72000000Y-64000000D03*
%TD*%
D10*
%TO.P,J12,1,Pin_1*%
%TO.N,/r9*%
X63500000Y-145500000D03*
%TD*%
D11*
%TO.P,J19,1,Pin_1*%
%TO.N,+5V*%
X72050000Y-81750000D03*
D12*
%TO.P,J19,2,Pin_2*%
%TO.N,/r4*%
X72050000Y-79250000D03*
%TO.P,J19,3,Pin_3*%
%TO.N,GND*%
X72050000Y-76750000D03*
%TD*%
D11*
%TO.P,J2,1,Pin_1*%
%TO.N,+5V*%
X72000000Y-29500000D03*
D12*
%TO.P,J2,2,Pin_2*%
%TO.N,/r0*%
X72000000Y-27000000D03*
%TO.P,J2,3,Pin_3*%
%TO.N,GND*%
X72000000Y-24500000D03*
%TD*%
D10*
%TO.P,J6,1,Pin_1*%
%TO.N,/r3*%
X63475000Y-66450000D03*
%TD*%
D11*
%TO.P,J41,1,Pin_1*%
%TO.N,+5V*%
X72000000Y-243500000D03*
D12*
%TO.P,J41,2,Pin_2*%
%TO.N,/D*%
X72000000Y-241000000D03*
%TO.P,J41,3,Pin_3*%
%TO.N,GND*%
X72000000Y-238500000D03*
%TD*%
D11*
%TO.P,J21,1,Pin_1*%
%TO.N,+5V*%
X72000000Y-108250000D03*
D12*
%TO.P,J21,2,Pin_2*%
%TO.N,/r6*%
X72000000Y-105750000D03*
%TO.P,J21,3,Pin_3*%
%TO.N,GND*%
X72000000Y-103250000D03*
%TD*%
D11*
%TO.P,J17,1,Pin_1*%
%TO.N,+5V*%
X72000000Y-55750000D03*
D12*
%TO.P,J17,2,Pin_2*%
%TO.N,/r2*%
X72000000Y-53250000D03*
%TO.P,J17,3,Pin_3*%
%TO.N,GND*%
X72000000Y-50750000D03*
%TD*%
D10*
%TO.P,J7,1,Pin_1*%
%TO.N,/r4*%
X63500000Y-79250000D03*
%TD*%
%TO.P,J5,1,Pin_1*%
%TO.N,/r2*%
X63500000Y-53600000D03*
%TD*%
D11*
%TO.P,J22,1,Pin_1*%
%TO.N,+5V*%
X72000000Y-122000000D03*
D12*
%TO.P,J22,2,Pin_2*%
%TO.N,/r7*%
X72000000Y-119500000D03*
%TO.P,J22,3,Pin_3*%
%TO.N,GND*%
X72000000Y-117000000D03*
%TD*%
D10*
%TO.P,J8,1,Pin_1*%
%TO.N,/r5*%
X63500000Y-92350000D03*
%TD*%
%TO.P,J3,1,Pin_1*%
%TO.N,/r0*%
X63500000Y-27000000D03*
%TD*%
D11*
%TO.P,J26,1,Pin_1*%
%TO.N,+5V*%
X72000000Y-174750000D03*
D12*
%TO.P,J26,2,Pin_2*%
%TO.N,/r11*%
X72000000Y-172250000D03*
%TO.P,J26,3,Pin_3*%
%TO.N,GND*%
X72000000Y-169750000D03*
%TD*%
D10*
%TO.P,J28,1,Pin_1*%
%TO.N,/A*%
X63500000Y-202000000D03*
%TD*%
D11*
%TO.P,J25,1,Pin_1*%
%TO.N,+5V*%
X72000000Y-161750000D03*
D12*
%TO.P,J25,2,Pin_2*%
%TO.N,/r10*%
X72000000Y-159250000D03*
%TO.P,J25,3,Pin_3*%
%TO.N,GND*%
X72000000Y-156750000D03*
%TD*%
D11*
%TO.P,J45,1,Pin_1*%
%TO.N,+5V*%
X72000000Y-295500000D03*
D12*
%TO.P,J45,2,Pin_2*%
%TO.N,/H*%
X72000000Y-293000000D03*
%TO.P,J45,3,Pin_3*%
%TO.N,GND*%
X72000000Y-290500000D03*
%TD*%
D11*
%TO.P,J38,1,Pin_1*%
%TO.N,+5V*%
X72000000Y-204500000D03*
D12*
%TO.P,J38,2,Pin_2*%
%TO.N,/A*%
X72000000Y-202000000D03*
%TO.P,J38,3,Pin_3*%
%TO.N,GND*%
X72000000Y-199500000D03*
%TD*%
D10*
%TO.P,J29,1,Pin_1*%
%TO.N,/B*%
X63500000Y-215250000D03*
%TD*%
%TO.P,J32,1,Pin_1*%
%TO.N,/E*%
X63500000Y-254000000D03*
%TD*%
D11*
%TO.P,J39,1,Pin_1*%
%TO.N,+5V*%
X72000000Y-217750000D03*
D12*
%TO.P,J39,2,Pin_2*%
%TO.N,/B*%
X72000000Y-215250000D03*
%TO.P,J39,3,Pin_3*%
%TO.N,GND*%
X72000000Y-212750000D03*
%TD*%
D10*
%TO.P,J35,1,Pin_1*%
%TO.N,/H*%
X63500000Y-293000000D03*
%TD*%
%TO.P,J14,1,Pin_1*%
%TO.N,/r11*%
X63500000Y-172250000D03*
%TD*%
%TO.P,J9,1,Pin_1*%
%TO.N,/r6*%
X63500000Y-105750000D03*
%TD*%
D11*
%TO.P,J44,1,Pin_1*%
%TO.N,+5V*%
X72000000Y-282250000D03*
D12*
%TO.P,J44,2,Pin_2*%
%TO.N,/G*%
X72000000Y-279750000D03*
%TO.P,J44,3,Pin_3*%
%TO.N,GND*%
X72000000Y-277250000D03*
%TD*%
D10*
%TO.P,J10,1,Pin_1*%
%TO.N,/r7*%
X63450000Y-119450000D03*
%TD*%
D11*
%TO.P,J40,1,Pin_1*%
%TO.N,+5V*%
X72000000Y-230750000D03*
D12*
%TO.P,J40,2,Pin_2*%
%TO.N,/C*%
X72000000Y-228250000D03*
%TO.P,J40,3,Pin_3*%
%TO.N,GND*%
X72000000Y-225750000D03*
%TD*%
D11*
%TO.P,J23,1,Pin_1*%
%TO.N,+5V*%
X72000000Y-135250000D03*
D12*
%TO.P,J23,2,Pin_2*%
%TO.N,/r8*%
X72000000Y-132750000D03*
%TO.P,J23,3,Pin_3*%
%TO.N,GND*%
X72000000Y-130250000D03*
%TD*%
D11*
%TO.P,J43,1,Pin_1*%
%TO.N,+5V*%
X72000000Y-269500000D03*
D12*
%TO.P,J43,2,Pin_2*%
%TO.N,/F*%
X72000000Y-267000000D03*
%TO.P,J43,3,Pin_3*%
%TO.N,GND*%
X72000000Y-264500000D03*
%TD*%
D10*
%TO.P,J11,1,Pin_1*%
%TO.N,/r8*%
X63500000Y-132750000D03*
%TD*%
D11*
%TO.P,J24,1,Pin_1*%
%TO.N,+5V*%
X72000000Y-148000000D03*
D12*
%TO.P,J24,2,Pin_2*%
%TO.N,/r9*%
X72000000Y-145500000D03*
%TO.P,J24,3,Pin_3*%
%TO.N,GND*%
X72000000Y-143000000D03*
%TD*%
D10*
%TO.P,J4,1,Pin_1*%
%TO.N,/r1*%
X63500000Y-40000000D03*
%TD*%
D11*
%TO.P,J42,1,Pin_1*%
%TO.N,+5V*%
X72000000Y-256500000D03*
D12*
%TO.P,J42,2,Pin_2*%
%TO.N,/E*%
X72000000Y-254000000D03*
%TO.P,J42,3,Pin_3*%
%TO.N,GND*%
X72000000Y-251500000D03*
%TD*%
D10*
%TO.P,J37,1,Pin_1*%
%TO.N,/J*%
X63500000Y-318750000D03*
%TD*%
%TO.P,J30,1,Pin_1*%
%TO.N,/C*%
X63500000Y-228250000D03*
%TD*%
D11*
%TO.P,J20,1,Pin_1*%
%TO.N,+5V*%
X72000000Y-94750000D03*
D12*
%TO.P,J20,2,Pin_2*%
%TO.N,/r5*%
X72000000Y-92250000D03*
%TO.P,J20,3,Pin_3*%
%TO.N,GND*%
X72000000Y-89750000D03*
%TD*%
D11*
%TO.P,J27,1,Pin_1*%
%TO.N,+5V*%
X72000000Y-187750000D03*
D12*
%TO.P,J27,2,Pin_2*%
%TO.N,/r12*%
X72000000Y-185250000D03*
%TO.P,J27,3,Pin_3*%
%TO.N,GND*%
X72000000Y-182750000D03*
%TD*%
D10*
%TO.P,J15,1,Pin_1*%
%TO.N,/r12*%
X63500000Y-185500000D03*
%TD*%
D13*
%TO.N,GND*%
X76500000Y-316250000D03*
X76500000Y-303250000D03*
X76500000Y-290500000D03*
X76500000Y-277250000D03*
X76500000Y-264500000D03*
X76500000Y-251500000D03*
X76500000Y-238500000D03*
X76500000Y-225750000D03*
X76500000Y-212750000D03*
X76500000Y-199500000D03*
X76500000Y-182750000D03*
X76500000Y-169750000D03*
X76500000Y-156750000D03*
X76500000Y-143000000D03*
X76500000Y-130250000D03*
X76500000Y-117000000D03*
X76500000Y-103250000D03*
X76500000Y-89750000D03*
X76500000Y-76750000D03*
X76500000Y-64000000D03*
X76500000Y-50750000D03*
X76500000Y-37500000D03*
X76500000Y-24500000D03*
D14*
X37500000Y-29500000D03*
%TD*%
D15*
%TO.N,+5V*%
X44250000Y-29500000D02*
X40750000Y-26000000D01*
X72000000Y-29500000D02*
X44250000Y-29500000D01*
X47000000Y-43000000D02*
X42750000Y-38750000D01*
X72000000Y-43000000D02*
X47000000Y-43000000D01*
X48250000Y-55750000D02*
X42750000Y-50250000D01*
X71800000Y-55750000D02*
X48250000Y-55750000D01*
X47750000Y-69000000D02*
X42750000Y-64000000D01*
X71800000Y-69000000D02*
X47750000Y-69000000D01*
X47000000Y-81750000D02*
X42750000Y-77500000D01*
X72050000Y-81750000D02*
X47000000Y-81750000D01*
X48000000Y-94750000D02*
X42750000Y-89500000D01*
X72300000Y-94750000D02*
X48000000Y-94750000D01*
X47500000Y-108250000D02*
X42750000Y-103500000D01*
X72550000Y-108250000D02*
X47500000Y-108250000D01*
X47500000Y-122000000D02*
X42750000Y-117250000D01*
X72750000Y-122000000D02*
X47500000Y-122000000D01*
X47750000Y-135250000D02*
X42750000Y-130250000D01*
X72000000Y-135250000D02*
X47750000Y-135250000D01*
X47750000Y-148000000D02*
X42750000Y-143000000D01*
X72000000Y-148000000D02*
X47750000Y-148000000D01*
X47250000Y-161750000D02*
X42750000Y-157250000D01*
X72000000Y-161750000D02*
X47250000Y-161750000D01*
X48000000Y-174750000D02*
X42750000Y-169500000D01*
X72000000Y-174750000D02*
X48000000Y-174750000D01*
X48000000Y-187750000D02*
X42750000Y-182500000D01*
X72000000Y-187750000D02*
X48000000Y-187750000D01*
X47250000Y-204500000D02*
X42750000Y-200000000D01*
X72000000Y-204500000D02*
X47250000Y-204500000D01*
D16*
X42750000Y-186500000D02*
X42750000Y-319750000D01*
D15*
X47750000Y-217750000D02*
X42750000Y-212750000D01*
X72000000Y-217750000D02*
X47750000Y-217750000D01*
X47500000Y-230750000D02*
X42750000Y-226000000D01*
X72000000Y-230750000D02*
X47500000Y-230750000D01*
X47500000Y-243500000D02*
X42750000Y-238750000D01*
X72000000Y-243500000D02*
X47500000Y-243500000D01*
X72000000Y-256500000D02*
X48000000Y-256500000D01*
X48000000Y-256500000D02*
X42750000Y-251250000D01*
X47250000Y-269500000D02*
X42750000Y-265000000D01*
X72000000Y-269500000D02*
X47250000Y-269500000D01*
X46750000Y-282250000D02*
X42750000Y-278250000D01*
X72000000Y-282250000D02*
X46750000Y-282250000D01*
X46000000Y-295500000D02*
X42750000Y-292250000D01*
X72000000Y-295500000D02*
X46000000Y-295500000D01*
X46250000Y-308250000D02*
X72000000Y-308250000D01*
X42750000Y-304750000D02*
X46250000Y-308250000D01*
%TO.N,GND*%
X76500000Y-316250000D02*
X72000000Y-316250000D01*
X76500000Y-303250000D02*
X72000000Y-303250000D01*
X76500000Y-290500000D02*
X72000000Y-290500000D01*
X76500000Y-277250000D02*
X72000000Y-277250000D01*
X76500000Y-264500000D02*
X72000000Y-264500000D01*
X76500000Y-251500000D02*
X72000000Y-251500000D01*
X76500000Y-238500000D02*
X72000000Y-238500000D01*
X76500000Y-225750000D02*
X72000000Y-225750000D01*
X76500000Y-212750000D02*
X72000000Y-212750000D01*
X76500000Y-199500000D02*
X72000000Y-199500000D01*
X76500000Y-182750000D02*
X72000000Y-182750000D01*
X76500000Y-169750000D02*
X72000000Y-169750000D01*
X76500000Y-156750000D02*
X72000000Y-156750000D01*
X76500000Y-143000000D02*
X72000000Y-143000000D01*
X76500000Y-130250000D02*
X72000000Y-130250000D01*
X76500000Y-117000000D02*
X72000000Y-117000000D01*
X76500000Y-103250000D02*
X72000000Y-103250000D01*
X76500000Y-89750000D02*
X72000000Y-89750000D01*
X76500000Y-76750000D02*
X72000000Y-76750000D01*
X76500000Y-64000000D02*
X72000000Y-64000000D01*
X76500000Y-50750000D02*
X72000000Y-50750000D01*
X76500000Y-37500000D02*
X72000000Y-37500000D01*
X76500000Y-24500000D02*
X72000000Y-24500000D01*
D17*
X76625000Y-24375000D02*
X76500000Y-24500000D01*
D16*
X36500000Y-29500000D02*
X37500000Y-29500000D01*
X35000000Y-29500000D02*
X36500000Y-29500000D01*
X31750000Y-29500000D02*
X35000000Y-29500000D01*
%TO.N,+5V*%
X31750000Y-23000000D02*
X37750000Y-23000000D01*
X37750000Y-23000000D02*
X42750000Y-28000000D01*
X42750000Y-81000000D02*
X42750000Y-93250000D01*
X42750000Y-41750000D02*
X42750000Y-55000000D01*
X42750000Y-134000000D02*
X42750000Y-146500000D01*
D15*
X42750000Y-319750000D02*
X44250000Y-321250000D01*
X44250000Y-321250000D02*
X72000000Y-321250000D01*
D16*
X42750000Y-68250000D02*
X42750000Y-81000000D01*
X42750000Y-28000000D02*
X42750000Y-41750000D01*
X42750000Y-159750000D02*
X42750000Y-172750000D01*
X42750000Y-120750000D02*
X42750000Y-134000000D01*
X42750000Y-93250000D02*
X42750000Y-107000000D01*
X42750000Y-172750000D02*
X42750000Y-186500000D01*
X42750000Y-146500000D02*
X42750000Y-159750000D01*
X42750000Y-55000000D02*
X42750000Y-68250000D01*
X42750000Y-107000000D02*
X42750000Y-120750000D01*
D17*
%TO.N,/r0*%
X72000000Y-27000000D02*
X63500000Y-27000000D01*
%TO.N,/r1*%
X72000000Y-40000000D02*
X63500000Y-40000000D01*
%TO.N,/r2*%
X71800000Y-53250000D02*
X63850000Y-53250000D01*
X63850000Y-53250000D02*
X63500000Y-53600000D01*
%TO.N,/r3*%
X71275000Y-66500000D02*
X63525000Y-66500000D01*
X63525000Y-66500000D02*
X63475000Y-66450000D01*
%TO.N,/r4*%
X72050000Y-79250000D02*
X63500000Y-79250000D01*
%TO.N,/r5*%
X63600000Y-92250000D02*
X63500000Y-92350000D01*
X72050000Y-92250000D02*
X63600000Y-92250000D01*
%TO.N,/r6*%
X65000000Y-105750000D02*
X63500000Y-105750000D01*
X72550000Y-105750000D02*
X65000000Y-105750000D01*
%TO.N,/r7*%
X62900000Y-119500000D02*
X62850000Y-119450000D01*
X72000000Y-119500000D02*
X63500000Y-119500000D01*
%TO.N,/r8*%
X72000000Y-132750000D02*
X63500000Y-132750000D01*
%TO.N,/r9*%
X72000000Y-145500000D02*
X63500000Y-145500000D01*
X64000000Y-145000000D02*
X63500000Y-145500000D01*
%TO.N,/r10*%
X71850000Y-159250000D02*
X64100000Y-159250000D01*
X64100000Y-159850000D02*
X63500000Y-159250000D01*
%TO.N,/r11*%
X72000000Y-172250000D02*
X63100000Y-172250000D01*
X72500000Y-172250000D02*
X72000000Y-171750000D01*
X72750000Y-172250000D02*
X72500000Y-172250000D01*
%TO.N,/r12*%
X63750000Y-185250000D02*
X63500000Y-185500000D01*
X72000000Y-185250000D02*
X63750000Y-185250000D01*
%TO.N,/A*%
X63500000Y-202000000D02*
X72000000Y-202000000D01*
%TO.N,/B*%
X63500000Y-215250000D02*
X72250000Y-215250000D01*
%TO.N,/C*%
X63050000Y-228250000D02*
X72000000Y-228250000D01*
%TO.N,/D*%
X63500000Y-241000000D02*
X72450000Y-241000000D01*
%TO.N,/E*%
X63500000Y-254000000D02*
X72750000Y-254000000D01*
%TO.N,/F*%
X63500000Y-267000000D02*
X72450000Y-267000000D01*
%TO.N,/G*%
X63500000Y-279750000D02*
X72500000Y-279750000D01*
%TO.N,/H*%
X63500000Y-293000000D02*
X72700000Y-293000000D01*
%TO.N,/I*%
X63500000Y-305750000D02*
X72000000Y-305750000D01*
%TO.N,/J*%
X63500000Y-318750000D02*
X72000000Y-318750000D01*
%TD*%
M02*
