%TF.GenerationSoftware,KiCad,Pcbnew,8.0.1*%
%TF.CreationDate,2024-04-02T05:11:47+03:00*%
%TF.ProjectId,led connectors,6c656420-636f-46e6-9e65-63746f72732e,rev?*%
%TF.SameCoordinates,Original*%
%TF.FileFunction,Legend,Top*%
%TF.FilePolarity,Positive*%
%FSLAX46Y46*%
G04 Gerber Fmt 4.6, Leading zero omitted, Abs format (unit mm)*
G04 Created by KiCad (PCBNEW 8.0.1) date 2024-04-02 05:11:47*
%MOMM*%
%LPD*%
G01*
G04 APERTURE LIST*
%ADD10C,0.100000*%
%ADD11C,0.500000*%
%ADD12C,0.200000*%
%ADD13C,0.150000*%
%ADD14C,0.120000*%
G04 APERTURE END LIST*
D10*
X26797931Y-35262475D02*
X26922931Y-34262475D01*
X27227693Y-35372951D02*
X27294359Y-34839617D01*
X27284836Y-34915808D02*
X27327693Y-34877713D01*
X27327693Y-34877713D02*
X27408645Y-34839617D01*
X27408645Y-34839617D02*
X27522931Y-34839617D01*
X27522931Y-34839617D02*
X27594359Y-34877713D01*
X27594359Y-34877713D02*
X27622931Y-34953903D01*
X27622931Y-34953903D02*
X27570550Y-35372951D01*
X27622931Y-34953903D02*
X27670550Y-34877713D01*
X27670550Y-34877713D02*
X27751502Y-34839617D01*
X27751502Y-34839617D02*
X27865788Y-34839617D01*
X27865788Y-34839617D02*
X27937217Y-34877713D01*
X27937217Y-34877713D02*
X27965788Y-34953903D01*
X27965788Y-34953903D02*
X27913407Y-35372951D01*
X28637217Y-35372951D02*
X28689598Y-34953903D01*
X28689598Y-34953903D02*
X28661026Y-34877713D01*
X28661026Y-34877713D02*
X28589598Y-34839617D01*
X28589598Y-34839617D02*
X28437217Y-34839617D01*
X28437217Y-34839617D02*
X28356265Y-34877713D01*
X28641979Y-35334856D02*
X28561026Y-35372951D01*
X28561026Y-35372951D02*
X28370550Y-35372951D01*
X28370550Y-35372951D02*
X28299122Y-35334856D01*
X28299122Y-35334856D02*
X28270550Y-35258665D01*
X28270550Y-35258665D02*
X28280074Y-35182475D01*
X28280074Y-35182475D02*
X28327693Y-35106284D01*
X28327693Y-35106284D02*
X28408646Y-35068189D01*
X28408646Y-35068189D02*
X28599122Y-35068189D01*
X28599122Y-35068189D02*
X28680074Y-35030094D01*
X28941979Y-35372951D02*
X29427694Y-34839617D01*
X29008646Y-34839617D02*
X29361027Y-35372951D01*
X30378884Y-34881522D02*
X30432456Y-34833903D01*
X30432456Y-34833903D02*
X30533646Y-34786284D01*
X30533646Y-34786284D02*
X30712218Y-34881522D01*
X30712218Y-34881522D02*
X30813408Y-34833903D01*
X30813408Y-34833903D02*
X30866980Y-34786284D01*
X31789599Y-34262475D02*
X31313408Y-34262475D01*
X31313408Y-34262475D02*
X31206266Y-34738665D01*
X31206266Y-34738665D02*
X31259837Y-34691046D01*
X31259837Y-34691046D02*
X31361027Y-34643427D01*
X31361027Y-34643427D02*
X31599123Y-34643427D01*
X31599123Y-34643427D02*
X31688408Y-34691046D01*
X31688408Y-34691046D02*
X31730075Y-34738665D01*
X31730075Y-34738665D02*
X31765789Y-34833903D01*
X31765789Y-34833903D02*
X31736027Y-35071998D01*
X31736027Y-35071998D02*
X31676504Y-35167236D01*
X31676504Y-35167236D02*
X31622932Y-35214856D01*
X31622932Y-35214856D02*
X31521742Y-35262475D01*
X31521742Y-35262475D02*
X31283646Y-35262475D01*
X31283646Y-35262475D02*
X31194361Y-35214856D01*
X31194361Y-35214856D02*
X31152694Y-35167236D01*
X32152694Y-35167236D02*
X32194361Y-35214856D01*
X32194361Y-35214856D02*
X32140789Y-35262475D01*
X32140789Y-35262475D02*
X32099123Y-35214856D01*
X32099123Y-35214856D02*
X32152694Y-35167236D01*
X32152694Y-35167236D02*
X32140789Y-35262475D01*
X33218170Y-34262475D02*
X32741979Y-34262475D01*
X32741979Y-34262475D02*
X32634837Y-34738665D01*
X32634837Y-34738665D02*
X32688408Y-34691046D01*
X32688408Y-34691046D02*
X32789598Y-34643427D01*
X32789598Y-34643427D02*
X33027694Y-34643427D01*
X33027694Y-34643427D02*
X33116979Y-34691046D01*
X33116979Y-34691046D02*
X33158646Y-34738665D01*
X33158646Y-34738665D02*
X33194360Y-34833903D01*
X33194360Y-34833903D02*
X33164598Y-35071998D01*
X33164598Y-35071998D02*
X33105075Y-35167236D01*
X33105075Y-35167236D02*
X33051503Y-35214856D01*
X33051503Y-35214856D02*
X32950313Y-35262475D01*
X32950313Y-35262475D02*
X32712217Y-35262475D01*
X32712217Y-35262475D02*
X32622932Y-35214856D01*
X32622932Y-35214856D02*
X32581265Y-35167236D01*
X33557456Y-34976760D02*
X34033646Y-34976760D01*
X33426503Y-35262475D02*
X33884837Y-34262475D01*
X33884837Y-34262475D02*
X34093170Y-35262475D01*
X26797931Y-36872419D02*
X26922931Y-35872419D01*
X27227693Y-36982895D02*
X27294359Y-36449561D01*
X27284836Y-36525752D02*
X27327693Y-36487657D01*
X27327693Y-36487657D02*
X27408645Y-36449561D01*
X27408645Y-36449561D02*
X27522931Y-36449561D01*
X27522931Y-36449561D02*
X27594359Y-36487657D01*
X27594359Y-36487657D02*
X27622931Y-36563847D01*
X27622931Y-36563847D02*
X27570550Y-36982895D01*
X27622931Y-36563847D02*
X27670550Y-36487657D01*
X27670550Y-36487657D02*
X27751502Y-36449561D01*
X27751502Y-36449561D02*
X27865788Y-36449561D01*
X27865788Y-36449561D02*
X27937217Y-36487657D01*
X27937217Y-36487657D02*
X27965788Y-36563847D01*
X27965788Y-36563847D02*
X27913407Y-36982895D01*
X28637217Y-36982895D02*
X28689598Y-36563847D01*
X28689598Y-36563847D02*
X28661026Y-36487657D01*
X28661026Y-36487657D02*
X28589598Y-36449561D01*
X28589598Y-36449561D02*
X28437217Y-36449561D01*
X28437217Y-36449561D02*
X28356265Y-36487657D01*
X28641979Y-36944800D02*
X28561026Y-36982895D01*
X28561026Y-36982895D02*
X28370550Y-36982895D01*
X28370550Y-36982895D02*
X28299122Y-36944800D01*
X28299122Y-36944800D02*
X28270550Y-36868609D01*
X28270550Y-36868609D02*
X28280074Y-36792419D01*
X28280074Y-36792419D02*
X28327693Y-36716228D01*
X28327693Y-36716228D02*
X28408646Y-36678133D01*
X28408646Y-36678133D02*
X28599122Y-36678133D01*
X28599122Y-36678133D02*
X28680074Y-36640038D01*
X28941979Y-36982895D02*
X29427694Y-36449561D01*
X29008646Y-36449561D02*
X29361027Y-36982895D01*
X29665789Y-36982895D02*
X29765789Y-36182895D01*
X29727694Y-36487657D02*
X29808646Y-36449561D01*
X29808646Y-36449561D02*
X29961027Y-36449561D01*
X29961027Y-36449561D02*
X30032455Y-36487657D01*
X30032455Y-36487657D02*
X30065789Y-36525752D01*
X30065789Y-36525752D02*
X30094360Y-36601942D01*
X30094360Y-36601942D02*
X30065789Y-36830514D01*
X30065789Y-36830514D02*
X30018170Y-36906704D01*
X30018170Y-36906704D02*
X29975313Y-36944800D01*
X29975313Y-36944800D02*
X29894360Y-36982895D01*
X29894360Y-36982895D02*
X29741979Y-36982895D01*
X29741979Y-36982895D02*
X29670551Y-36944800D01*
X30389599Y-36982895D02*
X30456265Y-36449561D01*
X30437218Y-36601942D02*
X30484837Y-36525752D01*
X30484837Y-36525752D02*
X30527694Y-36487657D01*
X30527694Y-36487657D02*
X30608646Y-36449561D01*
X30608646Y-36449561D02*
X30684837Y-36449561D01*
X31227694Y-36982895D02*
X31280075Y-36563847D01*
X31280075Y-36563847D02*
X31251503Y-36487657D01*
X31251503Y-36487657D02*
X31180075Y-36449561D01*
X31180075Y-36449561D02*
X31027694Y-36449561D01*
X31027694Y-36449561D02*
X30946742Y-36487657D01*
X31232456Y-36944800D02*
X31151503Y-36982895D01*
X31151503Y-36982895D02*
X30961027Y-36982895D01*
X30961027Y-36982895D02*
X30889599Y-36944800D01*
X30889599Y-36944800D02*
X30861027Y-36868609D01*
X30861027Y-36868609D02*
X30870551Y-36792419D01*
X30870551Y-36792419D02*
X30918170Y-36716228D01*
X30918170Y-36716228D02*
X30999123Y-36678133D01*
X30999123Y-36678133D02*
X31189599Y-36678133D01*
X31189599Y-36678133D02*
X31270551Y-36640038D01*
X31675313Y-36449561D02*
X31608647Y-36982895D01*
X31665790Y-36525752D02*
X31708647Y-36487657D01*
X31708647Y-36487657D02*
X31789599Y-36449561D01*
X31789599Y-36449561D02*
X31903885Y-36449561D01*
X31903885Y-36449561D02*
X31975313Y-36487657D01*
X31975313Y-36487657D02*
X32003885Y-36563847D01*
X32003885Y-36563847D02*
X31951504Y-36982895D01*
X32680076Y-36944800D02*
X32599123Y-36982895D01*
X32599123Y-36982895D02*
X32446743Y-36982895D01*
X32446743Y-36982895D02*
X32375314Y-36944800D01*
X32375314Y-36944800D02*
X32341981Y-36906704D01*
X32341981Y-36906704D02*
X32313409Y-36830514D01*
X32313409Y-36830514D02*
X32341981Y-36601942D01*
X32341981Y-36601942D02*
X32389600Y-36525752D01*
X32389600Y-36525752D02*
X32432457Y-36487657D01*
X32432457Y-36487657D02*
X32513409Y-36449561D01*
X32513409Y-36449561D02*
X32665790Y-36449561D01*
X32665790Y-36449561D02*
X32737219Y-36487657D01*
X33018171Y-36982895D02*
X33118171Y-36182895D01*
X33361028Y-36982895D02*
X33413409Y-36563847D01*
X33413409Y-36563847D02*
X33384837Y-36487657D01*
X33384837Y-36487657D02*
X33313409Y-36449561D01*
X33313409Y-36449561D02*
X33199123Y-36449561D01*
X33199123Y-36449561D02*
X33118171Y-36487657D01*
X33118171Y-36487657D02*
X33075314Y-36525752D01*
X34455076Y-36491466D02*
X34508648Y-36443847D01*
X34508648Y-36443847D02*
X34609838Y-36396228D01*
X34609838Y-36396228D02*
X34788410Y-36491466D01*
X34788410Y-36491466D02*
X34889600Y-36443847D01*
X34889600Y-36443847D02*
X34943172Y-36396228D01*
X35330077Y-35967657D02*
X35383648Y-35920038D01*
X35383648Y-35920038D02*
X35484838Y-35872419D01*
X35484838Y-35872419D02*
X35722934Y-35872419D01*
X35722934Y-35872419D02*
X35812219Y-35920038D01*
X35812219Y-35920038D02*
X35853886Y-35967657D01*
X35853886Y-35967657D02*
X35889600Y-36062895D01*
X35889600Y-36062895D02*
X35877696Y-36158133D01*
X35877696Y-36158133D02*
X35812219Y-36300990D01*
X35812219Y-36300990D02*
X35169362Y-36872419D01*
X35169362Y-36872419D02*
X35788410Y-36872419D01*
X36205077Y-36586704D02*
X36681267Y-36586704D01*
X36074124Y-36872419D02*
X36532458Y-35872419D01*
X36532458Y-35872419D02*
X36740791Y-36872419D01*
X27030074Y-321042587D02*
X27238408Y-322042587D01*
X27238408Y-322042587D02*
X27696741Y-321042587D01*
X27970551Y-321137825D02*
X28024122Y-321090206D01*
X28024122Y-321090206D02*
X28125312Y-321042587D01*
X28125312Y-321042587D02*
X28363408Y-321042587D01*
X28363408Y-321042587D02*
X28452693Y-321090206D01*
X28452693Y-321090206D02*
X28494360Y-321137825D01*
X28494360Y-321137825D02*
X28530074Y-321233063D01*
X28530074Y-321233063D02*
X28518170Y-321328301D01*
X28518170Y-321328301D02*
X28452693Y-321471158D01*
X28452693Y-321471158D02*
X27809836Y-322042587D01*
X27809836Y-322042587D02*
X28428884Y-322042587D01*
X29666979Y-321661634D02*
X30428884Y-321661634D01*
X32047932Y-322042587D02*
X32113408Y-321518777D01*
X32113408Y-321518777D02*
X32077694Y-321423539D01*
X32077694Y-321423539D02*
X31988408Y-321375920D01*
X31988408Y-321375920D02*
X31797932Y-321375920D01*
X31797932Y-321375920D02*
X31696741Y-321423539D01*
X32053884Y-321994968D02*
X31952694Y-322042587D01*
X31952694Y-322042587D02*
X31714598Y-322042587D01*
X31714598Y-322042587D02*
X31625313Y-321994968D01*
X31625313Y-321994968D02*
X31589598Y-321899729D01*
X31589598Y-321899729D02*
X31601503Y-321804491D01*
X31601503Y-321804491D02*
X31661027Y-321709253D01*
X31661027Y-321709253D02*
X31762218Y-321661634D01*
X31762218Y-321661634D02*
X32000313Y-321661634D01*
X32000313Y-321661634D02*
X32101503Y-321614015D01*
X32952694Y-322042587D02*
X33077694Y-321042587D01*
X32958646Y-321994968D02*
X32857456Y-322042587D01*
X32857456Y-322042587D02*
X32666980Y-322042587D01*
X32666980Y-322042587D02*
X32577694Y-321994968D01*
X32577694Y-321994968D02*
X32536027Y-321947348D01*
X32536027Y-321947348D02*
X32500313Y-321852110D01*
X32500313Y-321852110D02*
X32536027Y-321566396D01*
X32536027Y-321566396D02*
X32595551Y-321471158D01*
X32595551Y-321471158D02*
X32649122Y-321423539D01*
X32649122Y-321423539D02*
X32750313Y-321375920D01*
X32750313Y-321375920D02*
X32940789Y-321375920D01*
X32940789Y-321375920D02*
X33030075Y-321423539D01*
X33512218Y-321375920D02*
X33405075Y-322233063D01*
X33405075Y-322233063D02*
X33345551Y-322328301D01*
X33345551Y-322328301D02*
X33244361Y-322375920D01*
X33244361Y-322375920D02*
X33196742Y-322375920D01*
X33553884Y-321042587D02*
X33500313Y-321090206D01*
X33500313Y-321090206D02*
X33541980Y-321137825D01*
X33541980Y-321137825D02*
X33595551Y-321090206D01*
X33595551Y-321090206D02*
X33553884Y-321042587D01*
X33553884Y-321042587D02*
X33541980Y-321137825D01*
X34416979Y-321375920D02*
X34333646Y-322042587D01*
X33988408Y-321375920D02*
X33922932Y-321899729D01*
X33922932Y-321899729D02*
X33958646Y-321994968D01*
X33958646Y-321994968D02*
X34047932Y-322042587D01*
X34047932Y-322042587D02*
X34190789Y-322042587D01*
X34190789Y-322042587D02*
X34291979Y-321994968D01*
X34291979Y-321994968D02*
X34345551Y-321947348D01*
X34768170Y-321994968D02*
X34857455Y-322042587D01*
X34857455Y-322042587D02*
X35047932Y-322042587D01*
X35047932Y-322042587D02*
X35149122Y-321994968D01*
X35149122Y-321994968D02*
X35208646Y-321899729D01*
X35208646Y-321899729D02*
X35214598Y-321852110D01*
X35214598Y-321852110D02*
X35178884Y-321756872D01*
X35178884Y-321756872D02*
X35089598Y-321709253D01*
X35089598Y-321709253D02*
X34946741Y-321709253D01*
X34946741Y-321709253D02*
X34857455Y-321661634D01*
X34857455Y-321661634D02*
X34821741Y-321566396D01*
X34821741Y-321566396D02*
X34827694Y-321518777D01*
X34827694Y-321518777D02*
X34887217Y-321423539D01*
X34887217Y-321423539D02*
X34988408Y-321375920D01*
X34988408Y-321375920D02*
X35131265Y-321375920D01*
X35131265Y-321375920D02*
X35220551Y-321423539D01*
X35559837Y-321375920D02*
X35940789Y-321375920D01*
X35744360Y-321042587D02*
X35637218Y-321899729D01*
X35637218Y-321899729D02*
X35672932Y-321994968D01*
X35672932Y-321994968D02*
X35762218Y-322042587D01*
X35762218Y-322042587D02*
X35857456Y-322042587D01*
X36577694Y-321994968D02*
X36476504Y-322042587D01*
X36476504Y-322042587D02*
X36286027Y-322042587D01*
X36286027Y-322042587D02*
X36196742Y-321994968D01*
X36196742Y-321994968D02*
X36161027Y-321899729D01*
X36161027Y-321899729D02*
X36208647Y-321518777D01*
X36208647Y-321518777D02*
X36268170Y-321423539D01*
X36268170Y-321423539D02*
X36369361Y-321375920D01*
X36369361Y-321375920D02*
X36559837Y-321375920D01*
X36559837Y-321375920D02*
X36649123Y-321423539D01*
X36649123Y-321423539D02*
X36684837Y-321518777D01*
X36684837Y-321518777D02*
X36672932Y-321614015D01*
X36672932Y-321614015D02*
X36184837Y-321709253D01*
X37476504Y-322042587D02*
X37601504Y-321042587D01*
X37482456Y-321994968D02*
X37381266Y-322042587D01*
X37381266Y-322042587D02*
X37190790Y-322042587D01*
X37190790Y-322042587D02*
X37101504Y-321994968D01*
X37101504Y-321994968D02*
X37059837Y-321947348D01*
X37059837Y-321947348D02*
X37024123Y-321852110D01*
X37024123Y-321852110D02*
X37059837Y-321566396D01*
X37059837Y-321566396D02*
X37119361Y-321471158D01*
X37119361Y-321471158D02*
X37172932Y-321423539D01*
X37172932Y-321423539D02*
X37274123Y-321375920D01*
X37274123Y-321375920D02*
X37464599Y-321375920D01*
X37464599Y-321375920D02*
X37553885Y-321423539D01*
X38655076Y-321375920D02*
X39036028Y-321375920D01*
X38839599Y-321042587D02*
X38732457Y-321899729D01*
X38732457Y-321899729D02*
X38768171Y-321994968D01*
X38768171Y-321994968D02*
X38857457Y-322042587D01*
X38857457Y-322042587D02*
X38952695Y-322042587D01*
X39286028Y-322042587D02*
X39369362Y-321375920D01*
X39345552Y-321566396D02*
X39405076Y-321471158D01*
X39405076Y-321471158D02*
X39458647Y-321423539D01*
X39458647Y-321423539D02*
X39559838Y-321375920D01*
X39559838Y-321375920D02*
X39655076Y-321375920D01*
X40333648Y-322042587D02*
X40399124Y-321518777D01*
X40399124Y-321518777D02*
X40363410Y-321423539D01*
X40363410Y-321423539D02*
X40274124Y-321375920D01*
X40274124Y-321375920D02*
X40083648Y-321375920D01*
X40083648Y-321375920D02*
X39982457Y-321423539D01*
X40339600Y-321994968D02*
X40238410Y-322042587D01*
X40238410Y-322042587D02*
X40000314Y-322042587D01*
X40000314Y-322042587D02*
X39911029Y-321994968D01*
X39911029Y-321994968D02*
X39875314Y-321899729D01*
X39875314Y-321899729D02*
X39887219Y-321804491D01*
X39887219Y-321804491D02*
X39946743Y-321709253D01*
X39946743Y-321709253D02*
X40047934Y-321661634D01*
X40047934Y-321661634D02*
X40286029Y-321661634D01*
X40286029Y-321661634D02*
X40387219Y-321614015D01*
X41244362Y-321994968D02*
X41143172Y-322042587D01*
X41143172Y-322042587D02*
X40952696Y-322042587D01*
X40952696Y-322042587D02*
X40863410Y-321994968D01*
X40863410Y-321994968D02*
X40821743Y-321947348D01*
X40821743Y-321947348D02*
X40786029Y-321852110D01*
X40786029Y-321852110D02*
X40821743Y-321566396D01*
X40821743Y-321566396D02*
X40881267Y-321471158D01*
X40881267Y-321471158D02*
X40934838Y-321423539D01*
X40934838Y-321423539D02*
X41036029Y-321375920D01*
X41036029Y-321375920D02*
X41226505Y-321375920D01*
X41226505Y-321375920D02*
X41315791Y-321423539D01*
X41666981Y-322042587D02*
X41791981Y-321042587D01*
X41809839Y-321661634D02*
X42047934Y-322042587D01*
X42131267Y-321375920D02*
X41702696Y-321756872D01*
X43226506Y-321375920D02*
X43333648Y-322042587D01*
X43333648Y-322042587D02*
X43583648Y-321566396D01*
X43583648Y-321566396D02*
X43714601Y-322042587D01*
X43714601Y-322042587D02*
X43988410Y-321375920D01*
X44286029Y-322042587D02*
X44369363Y-321375920D01*
X44411029Y-321042587D02*
X44357458Y-321090206D01*
X44357458Y-321090206D02*
X44399125Y-321137825D01*
X44399125Y-321137825D02*
X44452696Y-321090206D01*
X44452696Y-321090206D02*
X44411029Y-321042587D01*
X44411029Y-321042587D02*
X44399125Y-321137825D01*
X45190791Y-322042587D02*
X45315791Y-321042587D01*
X45196743Y-321994968D02*
X45095553Y-322042587D01*
X45095553Y-322042587D02*
X44905077Y-322042587D01*
X44905077Y-322042587D02*
X44815791Y-321994968D01*
X44815791Y-321994968D02*
X44774124Y-321947348D01*
X44774124Y-321947348D02*
X44738410Y-321852110D01*
X44738410Y-321852110D02*
X44774124Y-321566396D01*
X44774124Y-321566396D02*
X44833648Y-321471158D01*
X44833648Y-321471158D02*
X44887219Y-321423539D01*
X44887219Y-321423539D02*
X44988410Y-321375920D01*
X44988410Y-321375920D02*
X45178886Y-321375920D01*
X45178886Y-321375920D02*
X45268172Y-321423539D01*
X45607458Y-321375920D02*
X45988410Y-321375920D01*
X45791981Y-321042587D02*
X45684839Y-321899729D01*
X45684839Y-321899729D02*
X45720553Y-321994968D01*
X45720553Y-321994968D02*
X45809839Y-322042587D01*
X45809839Y-322042587D02*
X45905077Y-322042587D01*
X46238410Y-322042587D02*
X46363410Y-321042587D01*
X46666982Y-322042587D02*
X46732458Y-321518777D01*
X46732458Y-321518777D02*
X46696744Y-321423539D01*
X46696744Y-321423539D02*
X46607458Y-321375920D01*
X46607458Y-321375920D02*
X46464601Y-321375920D01*
X46464601Y-321375920D02*
X46363410Y-321423539D01*
X46363410Y-321423539D02*
X46309839Y-321471158D01*
X47101506Y-321994968D02*
X47190791Y-322042587D01*
X47190791Y-322042587D02*
X47381268Y-322042587D01*
X47381268Y-322042587D02*
X47482458Y-321994968D01*
X47482458Y-321994968D02*
X47541982Y-321899729D01*
X47541982Y-321899729D02*
X47547934Y-321852110D01*
X47547934Y-321852110D02*
X47512220Y-321756872D01*
X47512220Y-321756872D02*
X47422934Y-321709253D01*
X47422934Y-321709253D02*
X47280077Y-321709253D01*
X47280077Y-321709253D02*
X47190791Y-321661634D01*
X47190791Y-321661634D02*
X47155077Y-321566396D01*
X47155077Y-321566396D02*
X47161030Y-321518777D01*
X47161030Y-321518777D02*
X47220553Y-321423539D01*
X47220553Y-321423539D02*
X47321744Y-321375920D01*
X47321744Y-321375920D02*
X47464601Y-321375920D01*
X47464601Y-321375920D02*
X47553887Y-321423539D01*
X26988408Y-322985864D02*
X27369360Y-322985864D01*
X27047931Y-323652531D02*
X27155074Y-322795388D01*
X27155074Y-322795388D02*
X27214598Y-322700150D01*
X27214598Y-322700150D02*
X27315789Y-322652531D01*
X27315789Y-322652531D02*
X27411027Y-322652531D01*
X27762218Y-323652531D02*
X27672932Y-323604912D01*
X27672932Y-323604912D02*
X27631265Y-323557292D01*
X27631265Y-323557292D02*
X27595551Y-323462054D01*
X27595551Y-323462054D02*
X27631265Y-323176340D01*
X27631265Y-323176340D02*
X27690789Y-323081102D01*
X27690789Y-323081102D02*
X27744360Y-323033483D01*
X27744360Y-323033483D02*
X27845551Y-322985864D01*
X27845551Y-322985864D02*
X27988408Y-322985864D01*
X27988408Y-322985864D02*
X28077694Y-323033483D01*
X28077694Y-323033483D02*
X28119360Y-323081102D01*
X28119360Y-323081102D02*
X28155075Y-323176340D01*
X28155075Y-323176340D02*
X28119360Y-323462054D01*
X28119360Y-323462054D02*
X28059837Y-323557292D01*
X28059837Y-323557292D02*
X28006265Y-323604912D01*
X28006265Y-323604912D02*
X27905075Y-323652531D01*
X27905075Y-323652531D02*
X27762218Y-323652531D01*
X28524122Y-323652531D02*
X28607456Y-322985864D01*
X28583646Y-323176340D02*
X28643170Y-323081102D01*
X28643170Y-323081102D02*
X28696741Y-323033483D01*
X28696741Y-323033483D02*
X28797932Y-322985864D01*
X28797932Y-322985864D02*
X28893170Y-322985864D01*
X29905075Y-323652531D02*
X30030075Y-322652531D01*
X30333647Y-323652531D02*
X30399123Y-323128721D01*
X30399123Y-323128721D02*
X30363409Y-323033483D01*
X30363409Y-323033483D02*
X30274123Y-322985864D01*
X30274123Y-322985864D02*
X30131266Y-322985864D01*
X30131266Y-322985864D02*
X30030075Y-323033483D01*
X30030075Y-323033483D02*
X29976504Y-323081102D01*
X30809837Y-323652531D02*
X30893171Y-322985864D01*
X30934837Y-322652531D02*
X30881266Y-322700150D01*
X30881266Y-322700150D02*
X30922933Y-322747769D01*
X30922933Y-322747769D02*
X30976504Y-322700150D01*
X30976504Y-322700150D02*
X30934837Y-322652531D01*
X30934837Y-322652531D02*
X30922933Y-322747769D01*
X31797932Y-322985864D02*
X31696742Y-323795388D01*
X31696742Y-323795388D02*
X31637218Y-323890626D01*
X31637218Y-323890626D02*
X31583646Y-323938245D01*
X31583646Y-323938245D02*
X31482456Y-323985864D01*
X31482456Y-323985864D02*
X31339599Y-323985864D01*
X31339599Y-323985864D02*
X31250313Y-323938245D01*
X31720551Y-323604912D02*
X31619361Y-323652531D01*
X31619361Y-323652531D02*
X31428885Y-323652531D01*
X31428885Y-323652531D02*
X31339599Y-323604912D01*
X31339599Y-323604912D02*
X31297932Y-323557292D01*
X31297932Y-323557292D02*
X31262218Y-323462054D01*
X31262218Y-323462054D02*
X31297932Y-323176340D01*
X31297932Y-323176340D02*
X31357456Y-323081102D01*
X31357456Y-323081102D02*
X31411027Y-323033483D01*
X31411027Y-323033483D02*
X31512218Y-322985864D01*
X31512218Y-322985864D02*
X31702694Y-322985864D01*
X31702694Y-322985864D02*
X31791980Y-323033483D01*
X32190789Y-323652531D02*
X32315789Y-322652531D01*
X32619361Y-323652531D02*
X32684837Y-323128721D01*
X32684837Y-323128721D02*
X32649123Y-323033483D01*
X32649123Y-323033483D02*
X32559837Y-322985864D01*
X32559837Y-322985864D02*
X32416980Y-322985864D01*
X32416980Y-322985864D02*
X32315789Y-323033483D01*
X32315789Y-323033483D02*
X32262218Y-323081102D01*
X34291980Y-323604912D02*
X34190790Y-323652531D01*
X34190790Y-323652531D02*
X34000314Y-323652531D01*
X34000314Y-323652531D02*
X33911028Y-323604912D01*
X33911028Y-323604912D02*
X33869361Y-323557292D01*
X33869361Y-323557292D02*
X33833647Y-323462054D01*
X33833647Y-323462054D02*
X33869361Y-323176340D01*
X33869361Y-323176340D02*
X33928885Y-323081102D01*
X33928885Y-323081102D02*
X33982456Y-323033483D01*
X33982456Y-323033483D02*
X34083647Y-322985864D01*
X34083647Y-322985864D02*
X34274123Y-322985864D01*
X34274123Y-322985864D02*
X34363409Y-323033483D01*
X35226504Y-322985864D02*
X35143171Y-323652531D01*
X34797933Y-322985864D02*
X34732457Y-323509673D01*
X34732457Y-323509673D02*
X34768171Y-323604912D01*
X34768171Y-323604912D02*
X34857457Y-323652531D01*
X34857457Y-323652531D02*
X35000314Y-323652531D01*
X35000314Y-323652531D02*
X35101504Y-323604912D01*
X35101504Y-323604912D02*
X35155076Y-323557292D01*
X35619361Y-323652531D02*
X35702695Y-322985864D01*
X35678885Y-323176340D02*
X35738409Y-323081102D01*
X35738409Y-323081102D02*
X35791980Y-323033483D01*
X35791980Y-323033483D02*
X35893171Y-322985864D01*
X35893171Y-322985864D02*
X35988409Y-322985864D01*
X36238409Y-323652531D02*
X36321743Y-322985864D01*
X36297933Y-323176340D02*
X36357457Y-323081102D01*
X36357457Y-323081102D02*
X36411028Y-323033483D01*
X36411028Y-323033483D02*
X36512219Y-322985864D01*
X36512219Y-322985864D02*
X36607457Y-322985864D01*
X37244362Y-323604912D02*
X37143172Y-323652531D01*
X37143172Y-323652531D02*
X36952695Y-323652531D01*
X36952695Y-323652531D02*
X36863410Y-323604912D01*
X36863410Y-323604912D02*
X36827695Y-323509673D01*
X36827695Y-323509673D02*
X36875315Y-323128721D01*
X36875315Y-323128721D02*
X36934838Y-323033483D01*
X36934838Y-323033483D02*
X37036029Y-322985864D01*
X37036029Y-322985864D02*
X37226505Y-322985864D01*
X37226505Y-322985864D02*
X37315791Y-323033483D01*
X37315791Y-323033483D02*
X37351505Y-323128721D01*
X37351505Y-323128721D02*
X37339600Y-323223959D01*
X37339600Y-323223959D02*
X36851505Y-323319197D01*
X37797934Y-322985864D02*
X37714600Y-323652531D01*
X37786029Y-323081102D02*
X37839600Y-323033483D01*
X37839600Y-323033483D02*
X37940791Y-322985864D01*
X37940791Y-322985864D02*
X38083648Y-322985864D01*
X38083648Y-322985864D02*
X38172934Y-323033483D01*
X38172934Y-323033483D02*
X38208648Y-323128721D01*
X38208648Y-323128721D02*
X38143172Y-323652531D01*
X38559839Y-322985864D02*
X38940791Y-322985864D01*
X38744362Y-322652531D02*
X38637220Y-323509673D01*
X38637220Y-323509673D02*
X38672934Y-323604912D01*
X38672934Y-323604912D02*
X38762220Y-323652531D01*
X38762220Y-323652531D02*
X38857458Y-323652531D01*
X39149125Y-323604912D02*
X39238410Y-323652531D01*
X39238410Y-323652531D02*
X39428887Y-323652531D01*
X39428887Y-323652531D02*
X39530077Y-323604912D01*
X39530077Y-323604912D02*
X39589601Y-323509673D01*
X39589601Y-323509673D02*
X39595553Y-323462054D01*
X39595553Y-323462054D02*
X39559839Y-323366816D01*
X39559839Y-323366816D02*
X39470553Y-323319197D01*
X39470553Y-323319197D02*
X39327696Y-323319197D01*
X39327696Y-323319197D02*
X39238410Y-323271578D01*
X39238410Y-323271578D02*
X39202696Y-323176340D01*
X39202696Y-323176340D02*
X39208649Y-323128721D01*
X39208649Y-323128721D02*
X39268172Y-323033483D01*
X39268172Y-323033483D02*
X39369363Y-322985864D01*
X39369363Y-322985864D02*
X39512220Y-322985864D01*
X39512220Y-322985864D02*
X39601506Y-323033483D01*
X27446741Y-326348609D02*
X27583646Y-326396228D01*
X27583646Y-326396228D02*
X27625312Y-326443847D01*
X27625312Y-326443847D02*
X27661027Y-326539085D01*
X27661027Y-326539085D02*
X27643169Y-326681942D01*
X27643169Y-326681942D02*
X27583646Y-326777180D01*
X27583646Y-326777180D02*
X27530074Y-326824800D01*
X27530074Y-326824800D02*
X27428884Y-326872419D01*
X27428884Y-326872419D02*
X27047931Y-326872419D01*
X27047931Y-326872419D02*
X27172931Y-325872419D01*
X27172931Y-325872419D02*
X27506265Y-325872419D01*
X27506265Y-325872419D02*
X27595550Y-325920038D01*
X27595550Y-325920038D02*
X27637217Y-325967657D01*
X27637217Y-325967657D02*
X27672931Y-326062895D01*
X27672931Y-326062895D02*
X27661027Y-326158133D01*
X27661027Y-326158133D02*
X27601503Y-326253371D01*
X27601503Y-326253371D02*
X27547931Y-326300990D01*
X27547931Y-326300990D02*
X27446741Y-326348609D01*
X27446741Y-326348609D02*
X27113408Y-326348609D01*
X28036027Y-326205752D02*
X28190789Y-326872419D01*
X28512217Y-326205752D02*
X28190789Y-326872419D01*
X28190789Y-326872419D02*
X28065789Y-327110514D01*
X28065789Y-327110514D02*
X28012217Y-327158133D01*
X28012217Y-327158133D02*
X27911027Y-327205752D01*
X28821741Y-326777180D02*
X28863408Y-326824800D01*
X28863408Y-326824800D02*
X28809836Y-326872419D01*
X28809836Y-326872419D02*
X28768170Y-326824800D01*
X28768170Y-326824800D02*
X28821741Y-326777180D01*
X28821741Y-326777180D02*
X28809836Y-326872419D01*
X28887217Y-326253371D02*
X28928884Y-326300990D01*
X28928884Y-326300990D02*
X28875313Y-326348609D01*
X28875313Y-326348609D02*
X28833646Y-326300990D01*
X28833646Y-326300990D02*
X28887217Y-326253371D01*
X28887217Y-326253371D02*
X28875313Y-326348609D01*
X30297931Y-326396228D02*
X30238408Y-326872419D01*
X30030074Y-325872419D02*
X30297931Y-326396228D01*
X30297931Y-326396228D02*
X30696741Y-325872419D01*
X31047932Y-326872419D02*
X30958646Y-326824800D01*
X30958646Y-326824800D02*
X30916979Y-326777180D01*
X30916979Y-326777180D02*
X30881265Y-326681942D01*
X30881265Y-326681942D02*
X30916979Y-326396228D01*
X30916979Y-326396228D02*
X30976503Y-326300990D01*
X30976503Y-326300990D02*
X31030074Y-326253371D01*
X31030074Y-326253371D02*
X31131265Y-326205752D01*
X31131265Y-326205752D02*
X31274122Y-326205752D01*
X31274122Y-326205752D02*
X31363408Y-326253371D01*
X31363408Y-326253371D02*
X31405074Y-326300990D01*
X31405074Y-326300990D02*
X31440789Y-326396228D01*
X31440789Y-326396228D02*
X31405074Y-326681942D01*
X31405074Y-326681942D02*
X31345551Y-326777180D01*
X31345551Y-326777180D02*
X31291979Y-326824800D01*
X31291979Y-326824800D02*
X31190789Y-326872419D01*
X31190789Y-326872419D02*
X31047932Y-326872419D01*
X32321741Y-326205752D02*
X32238408Y-326872419D01*
X31893170Y-326205752D02*
X31827694Y-326729561D01*
X31827694Y-326729561D02*
X31863408Y-326824800D01*
X31863408Y-326824800D02*
X31952694Y-326872419D01*
X31952694Y-326872419D02*
X32095551Y-326872419D01*
X32095551Y-326872419D02*
X32196741Y-326824800D01*
X32196741Y-326824800D02*
X32250313Y-326777180D01*
X32672932Y-326824800D02*
X32762217Y-326872419D01*
X32762217Y-326872419D02*
X32952694Y-326872419D01*
X32952694Y-326872419D02*
X33053884Y-326824800D01*
X33053884Y-326824800D02*
X33113408Y-326729561D01*
X33113408Y-326729561D02*
X33119360Y-326681942D01*
X33119360Y-326681942D02*
X33083646Y-326586704D01*
X33083646Y-326586704D02*
X32994360Y-326539085D01*
X32994360Y-326539085D02*
X32851503Y-326539085D01*
X32851503Y-326539085D02*
X32762217Y-326491466D01*
X32762217Y-326491466D02*
X32726503Y-326396228D01*
X32726503Y-326396228D02*
X32732456Y-326348609D01*
X32732456Y-326348609D02*
X32791979Y-326253371D01*
X32791979Y-326253371D02*
X32893170Y-326205752D01*
X32893170Y-326205752D02*
X33036027Y-326205752D01*
X33036027Y-326205752D02*
X33125313Y-326253371D01*
X33482456Y-326824800D02*
X33571741Y-326872419D01*
X33571741Y-326872419D02*
X33762218Y-326872419D01*
X33762218Y-326872419D02*
X33863408Y-326824800D01*
X33863408Y-326824800D02*
X33922932Y-326729561D01*
X33922932Y-326729561D02*
X33928884Y-326681942D01*
X33928884Y-326681942D02*
X33893170Y-326586704D01*
X33893170Y-326586704D02*
X33803884Y-326539085D01*
X33803884Y-326539085D02*
X33661027Y-326539085D01*
X33661027Y-326539085D02*
X33571741Y-326491466D01*
X33571741Y-326491466D02*
X33536027Y-326396228D01*
X33536027Y-326396228D02*
X33541980Y-326348609D01*
X33541980Y-326348609D02*
X33601503Y-326253371D01*
X33601503Y-326253371D02*
X33702694Y-326205752D01*
X33702694Y-326205752D02*
X33845551Y-326205752D01*
X33845551Y-326205752D02*
X33934837Y-326253371D01*
X34720551Y-326824800D02*
X34619361Y-326872419D01*
X34619361Y-326872419D02*
X34428884Y-326872419D01*
X34428884Y-326872419D02*
X34339599Y-326824800D01*
X34339599Y-326824800D02*
X34303884Y-326729561D01*
X34303884Y-326729561D02*
X34351504Y-326348609D01*
X34351504Y-326348609D02*
X34411027Y-326253371D01*
X34411027Y-326253371D02*
X34512218Y-326205752D01*
X34512218Y-326205752D02*
X34702694Y-326205752D01*
X34702694Y-326205752D02*
X34791980Y-326253371D01*
X34791980Y-326253371D02*
X34827694Y-326348609D01*
X34827694Y-326348609D02*
X34815789Y-326443847D01*
X34815789Y-326443847D02*
X34327694Y-326539085D01*
X35131266Y-326205752D02*
X35512218Y-326205752D01*
X35190789Y-326872419D02*
X35297932Y-326015276D01*
X35297932Y-326015276D02*
X35357456Y-325920038D01*
X35357456Y-325920038D02*
X35458647Y-325872419D01*
X35458647Y-325872419D02*
X35553885Y-325872419D01*
X36589600Y-326348609D02*
X36922933Y-326348609D01*
X37000314Y-326872419D02*
X36524123Y-326872419D01*
X36524123Y-326872419D02*
X36649123Y-325872419D01*
X36649123Y-325872419D02*
X37125314Y-325872419D01*
X37571743Y-326872419D02*
X37482457Y-326824800D01*
X37482457Y-326824800D02*
X37446743Y-326729561D01*
X37446743Y-326729561D02*
X37553885Y-325872419D01*
X39357458Y-325920038D02*
X39268172Y-325872419D01*
X39268172Y-325872419D02*
X39125315Y-325872419D01*
X39125315Y-325872419D02*
X38976505Y-325920038D01*
X38976505Y-325920038D02*
X38869362Y-326015276D01*
X38869362Y-326015276D02*
X38809838Y-326110514D01*
X38809838Y-326110514D02*
X38738410Y-326300990D01*
X38738410Y-326300990D02*
X38720553Y-326443847D01*
X38720553Y-326443847D02*
X38744362Y-326634323D01*
X38744362Y-326634323D02*
X38780077Y-326729561D01*
X38780077Y-326729561D02*
X38863410Y-326824800D01*
X38863410Y-326824800D02*
X39000315Y-326872419D01*
X39000315Y-326872419D02*
X39095553Y-326872419D01*
X39095553Y-326872419D02*
X39244362Y-326824800D01*
X39244362Y-326824800D02*
X39297934Y-326777180D01*
X39297934Y-326777180D02*
X39339600Y-326443847D01*
X39339600Y-326443847D02*
X39149124Y-326443847D01*
X40101505Y-326824800D02*
X40000315Y-326872419D01*
X40000315Y-326872419D02*
X39809838Y-326872419D01*
X39809838Y-326872419D02*
X39720553Y-326824800D01*
X39720553Y-326824800D02*
X39684838Y-326729561D01*
X39684838Y-326729561D02*
X39732458Y-326348609D01*
X39732458Y-326348609D02*
X39791981Y-326253371D01*
X39791981Y-326253371D02*
X39893172Y-326205752D01*
X39893172Y-326205752D02*
X40083648Y-326205752D01*
X40083648Y-326205752D02*
X40172934Y-326253371D01*
X40172934Y-326253371D02*
X40208648Y-326348609D01*
X40208648Y-326348609D02*
X40196743Y-326443847D01*
X40196743Y-326443847D02*
X39708648Y-326539085D01*
X41000315Y-326872419D02*
X41125315Y-325872419D01*
X41006267Y-326824800D02*
X40905077Y-326872419D01*
X40905077Y-326872419D02*
X40714601Y-326872419D01*
X40714601Y-326872419D02*
X40625315Y-326824800D01*
X40625315Y-326824800D02*
X40583648Y-326777180D01*
X40583648Y-326777180D02*
X40547934Y-326681942D01*
X40547934Y-326681942D02*
X40583648Y-326396228D01*
X40583648Y-326396228D02*
X40643172Y-326300990D01*
X40643172Y-326300990D02*
X40696743Y-326253371D01*
X40696743Y-326253371D02*
X40797934Y-326205752D01*
X40797934Y-326205752D02*
X40988410Y-326205752D01*
X40988410Y-326205752D02*
X41077696Y-326253371D01*
X41905077Y-326872419D02*
X42030077Y-325872419D01*
X41911029Y-326824800D02*
X41809839Y-326872419D01*
X41809839Y-326872419D02*
X41619363Y-326872419D01*
X41619363Y-326872419D02*
X41530077Y-326824800D01*
X41530077Y-326824800D02*
X41488410Y-326777180D01*
X41488410Y-326777180D02*
X41452696Y-326681942D01*
X41452696Y-326681942D02*
X41488410Y-326396228D01*
X41488410Y-326396228D02*
X41547934Y-326300990D01*
X41547934Y-326300990D02*
X41601505Y-326253371D01*
X41601505Y-326253371D02*
X41702696Y-326205752D01*
X41702696Y-326205752D02*
X41893172Y-326205752D01*
X41893172Y-326205752D02*
X41982458Y-326253371D01*
X42809839Y-326872419D02*
X42875315Y-326348609D01*
X42875315Y-326348609D02*
X42839601Y-326253371D01*
X42839601Y-326253371D02*
X42750315Y-326205752D01*
X42750315Y-326205752D02*
X42559839Y-326205752D01*
X42559839Y-326205752D02*
X42458648Y-326253371D01*
X42815791Y-326824800D02*
X42714601Y-326872419D01*
X42714601Y-326872419D02*
X42476505Y-326872419D01*
X42476505Y-326872419D02*
X42387220Y-326824800D01*
X42387220Y-326824800D02*
X42351505Y-326729561D01*
X42351505Y-326729561D02*
X42363410Y-326634323D01*
X42363410Y-326634323D02*
X42422934Y-326539085D01*
X42422934Y-326539085D02*
X42524125Y-326491466D01*
X42524125Y-326491466D02*
X42762220Y-326491466D01*
X42762220Y-326491466D02*
X42863410Y-326443847D01*
X43274125Y-326205752D02*
X43381267Y-326872419D01*
X43381267Y-326872419D02*
X43631267Y-326396228D01*
X43631267Y-326396228D02*
X43762220Y-326872419D01*
X43762220Y-326872419D02*
X44036029Y-326205752D01*
X44321744Y-326205752D02*
X44476506Y-326872419D01*
X44797934Y-326205752D02*
X44476506Y-326872419D01*
X44476506Y-326872419D02*
X44351506Y-327110514D01*
X44351506Y-327110514D02*
X44297934Y-327158133D01*
X44297934Y-327158133D02*
X44196744Y-327205752D01*
X26750000Y-19500000D02*
X45250000Y-19500000D01*
X45250000Y-33500000D01*
X26750000Y-33500000D01*
X26750000Y-19500000D01*
X51750000Y-19500000D02*
X78750000Y-19500000D01*
X78750000Y-191750000D01*
X51750000Y-191750000D01*
X51750000Y-19500000D01*
D11*
X25750000Y-18500000D02*
X81000000Y-18500000D01*
X81000000Y-328750000D01*
X25750000Y-328750000D01*
X25750000Y-18500000D01*
D10*
X51750000Y-194500000D02*
X78750000Y-194500000D01*
X78750000Y-325750000D01*
X51750000Y-325750000D01*
X51750000Y-194500000D01*
D12*
X57869673Y-92367219D02*
X57869673Y-91700552D01*
X57869673Y-91891028D02*
X57917292Y-91795790D01*
X57917292Y-91795790D02*
X57964911Y-91748171D01*
X57964911Y-91748171D02*
X58060149Y-91700552D01*
X58060149Y-91700552D02*
X58155387Y-91700552D01*
X58964911Y-91367219D02*
X58488721Y-91367219D01*
X58488721Y-91367219D02*
X58441102Y-91843409D01*
X58441102Y-91843409D02*
X58488721Y-91795790D01*
X58488721Y-91795790D02*
X58583959Y-91748171D01*
X58583959Y-91748171D02*
X58822054Y-91748171D01*
X58822054Y-91748171D02*
X58917292Y-91795790D01*
X58917292Y-91795790D02*
X58964911Y-91843409D01*
X58964911Y-91843409D02*
X59012530Y-91938647D01*
X59012530Y-91938647D02*
X59012530Y-92176742D01*
X59012530Y-92176742D02*
X58964911Y-92271980D01*
X58964911Y-92271980D02*
X58917292Y-92319600D01*
X58917292Y-92319600D02*
X58822054Y-92367219D01*
X58822054Y-92367219D02*
X58583959Y-92367219D01*
X58583959Y-92367219D02*
X58488721Y-92319600D01*
X58488721Y-92319600D02*
X58441102Y-92271980D01*
X57869673Y-27367219D02*
X57869673Y-26700552D01*
X57869673Y-26891028D02*
X57917292Y-26795790D01*
X57917292Y-26795790D02*
X57964911Y-26748171D01*
X57964911Y-26748171D02*
X58060149Y-26700552D01*
X58060149Y-26700552D02*
X58155387Y-26700552D01*
X58679197Y-26367219D02*
X58774435Y-26367219D01*
X58774435Y-26367219D02*
X58869673Y-26414838D01*
X58869673Y-26414838D02*
X58917292Y-26462457D01*
X58917292Y-26462457D02*
X58964911Y-26557695D01*
X58964911Y-26557695D02*
X59012530Y-26748171D01*
X59012530Y-26748171D02*
X59012530Y-26986266D01*
X59012530Y-26986266D02*
X58964911Y-27176742D01*
X58964911Y-27176742D02*
X58917292Y-27271980D01*
X58917292Y-27271980D02*
X58869673Y-27319600D01*
X58869673Y-27319600D02*
X58774435Y-27367219D01*
X58774435Y-27367219D02*
X58679197Y-27367219D01*
X58679197Y-27367219D02*
X58583959Y-27319600D01*
X58583959Y-27319600D02*
X58536340Y-27271980D01*
X58536340Y-27271980D02*
X58488721Y-27176742D01*
X58488721Y-27176742D02*
X58441102Y-26986266D01*
X58441102Y-26986266D02*
X58441102Y-26748171D01*
X58441102Y-26748171D02*
X58488721Y-26557695D01*
X58488721Y-26557695D02*
X58536340Y-26462457D01*
X58536340Y-26462457D02*
X58583959Y-26414838D01*
X58583959Y-26414838D02*
X58679197Y-26367219D01*
X57869673Y-289867219D02*
X57869673Y-288867219D01*
X57869673Y-289343409D02*
X58441101Y-289343409D01*
X58441101Y-289867219D02*
X58441101Y-288867219D01*
X57822054Y-202081504D02*
X58298244Y-202081504D01*
X57726816Y-202367219D02*
X58060149Y-201367219D01*
X58060149Y-201367219D02*
X58393482Y-202367219D01*
X58441101Y-227271980D02*
X58393482Y-227319600D01*
X58393482Y-227319600D02*
X58250625Y-227367219D01*
X58250625Y-227367219D02*
X58155387Y-227367219D01*
X58155387Y-227367219D02*
X58012530Y-227319600D01*
X58012530Y-227319600D02*
X57917292Y-227224361D01*
X57917292Y-227224361D02*
X57869673Y-227129123D01*
X57869673Y-227129123D02*
X57822054Y-226938647D01*
X57822054Y-226938647D02*
X57822054Y-226795790D01*
X57822054Y-226795790D02*
X57869673Y-226605314D01*
X57869673Y-226605314D02*
X57917292Y-226510076D01*
X57917292Y-226510076D02*
X58012530Y-226414838D01*
X58012530Y-226414838D02*
X58155387Y-226367219D01*
X58155387Y-226367219D02*
X58250625Y-226367219D01*
X58250625Y-226367219D02*
X58393482Y-226414838D01*
X58393482Y-226414838D02*
X58441101Y-226462457D01*
X57869673Y-79117219D02*
X57869673Y-78450552D01*
X57869673Y-78641028D02*
X57917292Y-78545790D01*
X57917292Y-78545790D02*
X57964911Y-78498171D01*
X57964911Y-78498171D02*
X58060149Y-78450552D01*
X58060149Y-78450552D02*
X58155387Y-78450552D01*
X58917292Y-78450552D02*
X58917292Y-79117219D01*
X58679197Y-78069600D02*
X58441102Y-78783885D01*
X58441102Y-78783885D02*
X59060149Y-78783885D01*
X58203006Y-214343409D02*
X58345863Y-214391028D01*
X58345863Y-214391028D02*
X58393482Y-214438647D01*
X58393482Y-214438647D02*
X58441101Y-214533885D01*
X58441101Y-214533885D02*
X58441101Y-214676742D01*
X58441101Y-214676742D02*
X58393482Y-214771980D01*
X58393482Y-214771980D02*
X58345863Y-214819600D01*
X58345863Y-214819600D02*
X58250625Y-214867219D01*
X58250625Y-214867219D02*
X57869673Y-214867219D01*
X57869673Y-214867219D02*
X57869673Y-213867219D01*
X57869673Y-213867219D02*
X58203006Y-213867219D01*
X58203006Y-213867219D02*
X58298244Y-213914838D01*
X58298244Y-213914838D02*
X58345863Y-213962457D01*
X58345863Y-213962457D02*
X58393482Y-214057695D01*
X58393482Y-214057695D02*
X58393482Y-214152933D01*
X58393482Y-214152933D02*
X58345863Y-214248171D01*
X58345863Y-214248171D02*
X58298244Y-214295790D01*
X58298244Y-214295790D02*
X58203006Y-214343409D01*
X58203006Y-214343409D02*
X57869673Y-214343409D01*
X57869673Y-159867219D02*
X57869673Y-159200552D01*
X57869673Y-159391028D02*
X57917292Y-159295790D01*
X57917292Y-159295790D02*
X57964911Y-159248171D01*
X57964911Y-159248171D02*
X58060149Y-159200552D01*
X58060149Y-159200552D02*
X58155387Y-159200552D01*
X59012530Y-159867219D02*
X58441102Y-159867219D01*
X58726816Y-159867219D02*
X58726816Y-158867219D01*
X58726816Y-158867219D02*
X58631578Y-159010076D01*
X58631578Y-159010076D02*
X58536340Y-159105314D01*
X58536340Y-159105314D02*
X58441102Y-159152933D01*
X59631578Y-158867219D02*
X59726816Y-158867219D01*
X59726816Y-158867219D02*
X59822054Y-158914838D01*
X59822054Y-158914838D02*
X59869673Y-158962457D01*
X59869673Y-158962457D02*
X59917292Y-159057695D01*
X59917292Y-159057695D02*
X59964911Y-159248171D01*
X59964911Y-159248171D02*
X59964911Y-159486266D01*
X59964911Y-159486266D02*
X59917292Y-159676742D01*
X59917292Y-159676742D02*
X59869673Y-159771980D01*
X59869673Y-159771980D02*
X59822054Y-159819600D01*
X59822054Y-159819600D02*
X59726816Y-159867219D01*
X59726816Y-159867219D02*
X59631578Y-159867219D01*
X59631578Y-159867219D02*
X59536340Y-159819600D01*
X59536340Y-159819600D02*
X59488721Y-159771980D01*
X59488721Y-159771980D02*
X59441102Y-159676742D01*
X59441102Y-159676742D02*
X59393483Y-159486266D01*
X59393483Y-159486266D02*
X59393483Y-159248171D01*
X59393483Y-159248171D02*
X59441102Y-159057695D01*
X59441102Y-159057695D02*
X59488721Y-158962457D01*
X59488721Y-158962457D02*
X59536340Y-158914838D01*
X59536340Y-158914838D02*
X59631578Y-158867219D01*
X58155387Y-313867219D02*
X58155387Y-314581504D01*
X58155387Y-314581504D02*
X58107768Y-314724361D01*
X58107768Y-314724361D02*
X58012530Y-314819600D01*
X58012530Y-314819600D02*
X57869673Y-314867219D01*
X57869673Y-314867219D02*
X57774435Y-314867219D01*
X28643482Y-40664838D02*
X28548244Y-40617219D01*
X28548244Y-40617219D02*
X28405387Y-40617219D01*
X28405387Y-40617219D02*
X28262530Y-40664838D01*
X28262530Y-40664838D02*
X28167292Y-40760076D01*
X28167292Y-40760076D02*
X28119673Y-40855314D01*
X28119673Y-40855314D02*
X28072054Y-41045790D01*
X28072054Y-41045790D02*
X28072054Y-41188647D01*
X28072054Y-41188647D02*
X28119673Y-41379123D01*
X28119673Y-41379123D02*
X28167292Y-41474361D01*
X28167292Y-41474361D02*
X28262530Y-41569600D01*
X28262530Y-41569600D02*
X28405387Y-41617219D01*
X28405387Y-41617219D02*
X28500625Y-41617219D01*
X28500625Y-41617219D02*
X28643482Y-41569600D01*
X28643482Y-41569600D02*
X28691101Y-41521980D01*
X28691101Y-41521980D02*
X28691101Y-41188647D01*
X28691101Y-41188647D02*
X28500625Y-41188647D01*
X29500625Y-41569600D02*
X29405387Y-41617219D01*
X29405387Y-41617219D02*
X29214911Y-41617219D01*
X29214911Y-41617219D02*
X29119673Y-41569600D01*
X29119673Y-41569600D02*
X29072054Y-41474361D01*
X29072054Y-41474361D02*
X29072054Y-41093409D01*
X29072054Y-41093409D02*
X29119673Y-40998171D01*
X29119673Y-40998171D02*
X29214911Y-40950552D01*
X29214911Y-40950552D02*
X29405387Y-40950552D01*
X29405387Y-40950552D02*
X29500625Y-40998171D01*
X29500625Y-40998171D02*
X29548244Y-41093409D01*
X29548244Y-41093409D02*
X29548244Y-41188647D01*
X29548244Y-41188647D02*
X29072054Y-41283885D01*
X29976816Y-40950552D02*
X29976816Y-41617219D01*
X29976816Y-41045790D02*
X30024435Y-40998171D01*
X30024435Y-40998171D02*
X30119673Y-40950552D01*
X30119673Y-40950552D02*
X30262530Y-40950552D01*
X30262530Y-40950552D02*
X30357768Y-40998171D01*
X30357768Y-40998171D02*
X30405387Y-41093409D01*
X30405387Y-41093409D02*
X30405387Y-41617219D01*
X31262530Y-41569600D02*
X31167292Y-41617219D01*
X31167292Y-41617219D02*
X30976816Y-41617219D01*
X30976816Y-41617219D02*
X30881578Y-41569600D01*
X30881578Y-41569600D02*
X30833959Y-41474361D01*
X30833959Y-41474361D02*
X30833959Y-41093409D01*
X30833959Y-41093409D02*
X30881578Y-40998171D01*
X30881578Y-40998171D02*
X30976816Y-40950552D01*
X30976816Y-40950552D02*
X31167292Y-40950552D01*
X31167292Y-40950552D02*
X31262530Y-40998171D01*
X31262530Y-40998171D02*
X31310149Y-41093409D01*
X31310149Y-41093409D02*
X31310149Y-41188647D01*
X31310149Y-41188647D02*
X30833959Y-41283885D01*
X31738721Y-41617219D02*
X31738721Y-40950552D01*
X31738721Y-41141028D02*
X31786340Y-41045790D01*
X31786340Y-41045790D02*
X31833959Y-40998171D01*
X31833959Y-40998171D02*
X31929197Y-40950552D01*
X31929197Y-40950552D02*
X32024435Y-40950552D01*
X32786340Y-41617219D02*
X32786340Y-41093409D01*
X32786340Y-41093409D02*
X32738721Y-40998171D01*
X32738721Y-40998171D02*
X32643483Y-40950552D01*
X32643483Y-40950552D02*
X32453007Y-40950552D01*
X32453007Y-40950552D02*
X32357769Y-40998171D01*
X32786340Y-41569600D02*
X32691102Y-41617219D01*
X32691102Y-41617219D02*
X32453007Y-41617219D01*
X32453007Y-41617219D02*
X32357769Y-41569600D01*
X32357769Y-41569600D02*
X32310150Y-41474361D01*
X32310150Y-41474361D02*
X32310150Y-41379123D01*
X32310150Y-41379123D02*
X32357769Y-41283885D01*
X32357769Y-41283885D02*
X32453007Y-41236266D01*
X32453007Y-41236266D02*
X32691102Y-41236266D01*
X32691102Y-41236266D02*
X32786340Y-41188647D01*
X33405388Y-41617219D02*
X33310150Y-41569600D01*
X33310150Y-41569600D02*
X33262531Y-41474361D01*
X33262531Y-41474361D02*
X33262531Y-40617219D01*
X34548246Y-41617219D02*
X34548246Y-40617219D01*
X34548246Y-40617219D02*
X34929198Y-40617219D01*
X34929198Y-40617219D02*
X35024436Y-40664838D01*
X35024436Y-40664838D02*
X35072055Y-40712457D01*
X35072055Y-40712457D02*
X35119674Y-40807695D01*
X35119674Y-40807695D02*
X35119674Y-40950552D01*
X35119674Y-40950552D02*
X35072055Y-41045790D01*
X35072055Y-41045790D02*
X35024436Y-41093409D01*
X35024436Y-41093409D02*
X34929198Y-41141028D01*
X34929198Y-41141028D02*
X34548246Y-41141028D01*
X35976817Y-40950552D02*
X35976817Y-41617219D01*
X35548246Y-40950552D02*
X35548246Y-41474361D01*
X35548246Y-41474361D02*
X35595865Y-41569600D01*
X35595865Y-41569600D02*
X35691103Y-41617219D01*
X35691103Y-41617219D02*
X35833960Y-41617219D01*
X35833960Y-41617219D02*
X35929198Y-41569600D01*
X35929198Y-41569600D02*
X35976817Y-41521980D01*
X36453008Y-41617219D02*
X36453008Y-40950552D01*
X36453008Y-41141028D02*
X36500627Y-41045790D01*
X36500627Y-41045790D02*
X36548246Y-40998171D01*
X36548246Y-40998171D02*
X36643484Y-40950552D01*
X36643484Y-40950552D02*
X36738722Y-40950552D01*
X37072056Y-40950552D02*
X37072056Y-41950552D01*
X37072056Y-40998171D02*
X37167294Y-40950552D01*
X37167294Y-40950552D02*
X37357770Y-40950552D01*
X37357770Y-40950552D02*
X37453008Y-40998171D01*
X37453008Y-40998171D02*
X37500627Y-41045790D01*
X37500627Y-41045790D02*
X37548246Y-41141028D01*
X37548246Y-41141028D02*
X37548246Y-41426742D01*
X37548246Y-41426742D02*
X37500627Y-41521980D01*
X37500627Y-41521980D02*
X37453008Y-41569600D01*
X37453008Y-41569600D02*
X37357770Y-41617219D01*
X37357770Y-41617219D02*
X37167294Y-41617219D01*
X37167294Y-41617219D02*
X37072056Y-41569600D01*
X38119675Y-41617219D02*
X38024437Y-41569600D01*
X38024437Y-41569600D02*
X37976818Y-41521980D01*
X37976818Y-41521980D02*
X37929199Y-41426742D01*
X37929199Y-41426742D02*
X37929199Y-41141028D01*
X37929199Y-41141028D02*
X37976818Y-41045790D01*
X37976818Y-41045790D02*
X38024437Y-40998171D01*
X38024437Y-40998171D02*
X38119675Y-40950552D01*
X38119675Y-40950552D02*
X38262532Y-40950552D01*
X38262532Y-40950552D02*
X38357770Y-40998171D01*
X38357770Y-40998171D02*
X38405389Y-41045790D01*
X38405389Y-41045790D02*
X38453008Y-41141028D01*
X38453008Y-41141028D02*
X38453008Y-41426742D01*
X38453008Y-41426742D02*
X38405389Y-41521980D01*
X38405389Y-41521980D02*
X38357770Y-41569600D01*
X38357770Y-41569600D02*
X38262532Y-41617219D01*
X38262532Y-41617219D02*
X38119675Y-41617219D01*
X38833961Y-41569600D02*
X38929199Y-41617219D01*
X38929199Y-41617219D02*
X39119675Y-41617219D01*
X39119675Y-41617219D02*
X39214913Y-41569600D01*
X39214913Y-41569600D02*
X39262532Y-41474361D01*
X39262532Y-41474361D02*
X39262532Y-41426742D01*
X39262532Y-41426742D02*
X39214913Y-41331504D01*
X39214913Y-41331504D02*
X39119675Y-41283885D01*
X39119675Y-41283885D02*
X38976818Y-41283885D01*
X38976818Y-41283885D02*
X38881580Y-41236266D01*
X38881580Y-41236266D02*
X38833961Y-41141028D01*
X38833961Y-41141028D02*
X38833961Y-41093409D01*
X38833961Y-41093409D02*
X38881580Y-40998171D01*
X38881580Y-40998171D02*
X38976818Y-40950552D01*
X38976818Y-40950552D02*
X39119675Y-40950552D01*
X39119675Y-40950552D02*
X39214913Y-40998171D01*
X40072056Y-41569600D02*
X39976818Y-41617219D01*
X39976818Y-41617219D02*
X39786342Y-41617219D01*
X39786342Y-41617219D02*
X39691104Y-41569600D01*
X39691104Y-41569600D02*
X39643485Y-41474361D01*
X39643485Y-41474361D02*
X39643485Y-41093409D01*
X39643485Y-41093409D02*
X39691104Y-40998171D01*
X39691104Y-40998171D02*
X39786342Y-40950552D01*
X39786342Y-40950552D02*
X39976818Y-40950552D01*
X39976818Y-40950552D02*
X40072056Y-40998171D01*
X40072056Y-40998171D02*
X40119675Y-41093409D01*
X40119675Y-41093409D02*
X40119675Y-41188647D01*
X40119675Y-41188647D02*
X39643485Y-41283885D01*
X41881580Y-41617219D02*
X41548247Y-41141028D01*
X41310152Y-41617219D02*
X41310152Y-40617219D01*
X41310152Y-40617219D02*
X41691104Y-40617219D01*
X41691104Y-40617219D02*
X41786342Y-40664838D01*
X41786342Y-40664838D02*
X41833961Y-40712457D01*
X41833961Y-40712457D02*
X41881580Y-40807695D01*
X41881580Y-40807695D02*
X41881580Y-40950552D01*
X41881580Y-40950552D02*
X41833961Y-41045790D01*
X41833961Y-41045790D02*
X41786342Y-41093409D01*
X41786342Y-41093409D02*
X41691104Y-41141028D01*
X41691104Y-41141028D02*
X41310152Y-41141028D01*
X42691104Y-41569600D02*
X42595866Y-41617219D01*
X42595866Y-41617219D02*
X42405390Y-41617219D01*
X42405390Y-41617219D02*
X42310152Y-41569600D01*
X42310152Y-41569600D02*
X42262533Y-41474361D01*
X42262533Y-41474361D02*
X42262533Y-41093409D01*
X42262533Y-41093409D02*
X42310152Y-40998171D01*
X42310152Y-40998171D02*
X42405390Y-40950552D01*
X42405390Y-40950552D02*
X42595866Y-40950552D01*
X42595866Y-40950552D02*
X42691104Y-40998171D01*
X42691104Y-40998171D02*
X42738723Y-41093409D01*
X42738723Y-41093409D02*
X42738723Y-41188647D01*
X42738723Y-41188647D02*
X42262533Y-41283885D01*
X43595866Y-40950552D02*
X43595866Y-41760076D01*
X43595866Y-41760076D02*
X43548247Y-41855314D01*
X43548247Y-41855314D02*
X43500628Y-41902933D01*
X43500628Y-41902933D02*
X43405390Y-41950552D01*
X43405390Y-41950552D02*
X43262533Y-41950552D01*
X43262533Y-41950552D02*
X43167295Y-41902933D01*
X43595866Y-41569600D02*
X43500628Y-41617219D01*
X43500628Y-41617219D02*
X43310152Y-41617219D01*
X43310152Y-41617219D02*
X43214914Y-41569600D01*
X43214914Y-41569600D02*
X43167295Y-41521980D01*
X43167295Y-41521980D02*
X43119676Y-41426742D01*
X43119676Y-41426742D02*
X43119676Y-41141028D01*
X43119676Y-41141028D02*
X43167295Y-41045790D01*
X43167295Y-41045790D02*
X43214914Y-40998171D01*
X43214914Y-40998171D02*
X43310152Y-40950552D01*
X43310152Y-40950552D02*
X43500628Y-40950552D01*
X43500628Y-40950552D02*
X43595866Y-40998171D01*
X44072057Y-41617219D02*
X44072057Y-40950552D01*
X44072057Y-40617219D02*
X44024438Y-40664838D01*
X44024438Y-40664838D02*
X44072057Y-40712457D01*
X44072057Y-40712457D02*
X44119676Y-40664838D01*
X44119676Y-40664838D02*
X44072057Y-40617219D01*
X44072057Y-40617219D02*
X44072057Y-40712457D01*
X44500628Y-41569600D02*
X44595866Y-41617219D01*
X44595866Y-41617219D02*
X44786342Y-41617219D01*
X44786342Y-41617219D02*
X44881580Y-41569600D01*
X44881580Y-41569600D02*
X44929199Y-41474361D01*
X44929199Y-41474361D02*
X44929199Y-41426742D01*
X44929199Y-41426742D02*
X44881580Y-41331504D01*
X44881580Y-41331504D02*
X44786342Y-41283885D01*
X44786342Y-41283885D02*
X44643485Y-41283885D01*
X44643485Y-41283885D02*
X44548247Y-41236266D01*
X44548247Y-41236266D02*
X44500628Y-41141028D01*
X44500628Y-41141028D02*
X44500628Y-41093409D01*
X44500628Y-41093409D02*
X44548247Y-40998171D01*
X44548247Y-40998171D02*
X44643485Y-40950552D01*
X44643485Y-40950552D02*
X44786342Y-40950552D01*
X44786342Y-40950552D02*
X44881580Y-40998171D01*
X45214914Y-40950552D02*
X45595866Y-40950552D01*
X45357771Y-40617219D02*
X45357771Y-41474361D01*
X45357771Y-41474361D02*
X45405390Y-41569600D01*
X45405390Y-41569600D02*
X45500628Y-41617219D01*
X45500628Y-41617219D02*
X45595866Y-41617219D01*
X46310152Y-41569600D02*
X46214914Y-41617219D01*
X46214914Y-41617219D02*
X46024438Y-41617219D01*
X46024438Y-41617219D02*
X45929200Y-41569600D01*
X45929200Y-41569600D02*
X45881581Y-41474361D01*
X45881581Y-41474361D02*
X45881581Y-41093409D01*
X45881581Y-41093409D02*
X45929200Y-40998171D01*
X45929200Y-40998171D02*
X46024438Y-40950552D01*
X46024438Y-40950552D02*
X46214914Y-40950552D01*
X46214914Y-40950552D02*
X46310152Y-40998171D01*
X46310152Y-40998171D02*
X46357771Y-41093409D01*
X46357771Y-41093409D02*
X46357771Y-41188647D01*
X46357771Y-41188647D02*
X45881581Y-41283885D01*
X46786343Y-41617219D02*
X46786343Y-40950552D01*
X46786343Y-41141028D02*
X46833962Y-41045790D01*
X46833962Y-41045790D02*
X46881581Y-40998171D01*
X46881581Y-40998171D02*
X46976819Y-40950552D01*
X46976819Y-40950552D02*
X47072057Y-40950552D01*
X47357772Y-41569600D02*
X47453010Y-41617219D01*
X47453010Y-41617219D02*
X47643486Y-41617219D01*
X47643486Y-41617219D02*
X47738724Y-41569600D01*
X47738724Y-41569600D02*
X47786343Y-41474361D01*
X47786343Y-41474361D02*
X47786343Y-41426742D01*
X47786343Y-41426742D02*
X47738724Y-41331504D01*
X47738724Y-41331504D02*
X47643486Y-41283885D01*
X47643486Y-41283885D02*
X47500629Y-41283885D01*
X47500629Y-41283885D02*
X47405391Y-41236266D01*
X47405391Y-41236266D02*
X47357772Y-41141028D01*
X47357772Y-41141028D02*
X47357772Y-41093409D01*
X47357772Y-41093409D02*
X47405391Y-40998171D01*
X47405391Y-40998171D02*
X47500629Y-40950552D01*
X47500629Y-40950552D02*
X47643486Y-40950552D01*
X47643486Y-40950552D02*
X47738724Y-40998171D01*
X57869673Y-119867219D02*
X57869673Y-119200552D01*
X57869673Y-119391028D02*
X57917292Y-119295790D01*
X57917292Y-119295790D02*
X57964911Y-119248171D01*
X57964911Y-119248171D02*
X58060149Y-119200552D01*
X58060149Y-119200552D02*
X58155387Y-119200552D01*
X58393483Y-118867219D02*
X59060149Y-118867219D01*
X59060149Y-118867219D02*
X58631578Y-119867219D01*
X57869673Y-302367219D02*
X57869673Y-301367219D01*
X45869673Y-20867219D02*
X45869673Y-19867219D01*
X45869673Y-19867219D02*
X46250625Y-19867219D01*
X46250625Y-19867219D02*
X46345863Y-19914838D01*
X46345863Y-19914838D02*
X46393482Y-19962457D01*
X46393482Y-19962457D02*
X46441101Y-20057695D01*
X46441101Y-20057695D02*
X46441101Y-20200552D01*
X46441101Y-20200552D02*
X46393482Y-20295790D01*
X46393482Y-20295790D02*
X46345863Y-20343409D01*
X46345863Y-20343409D02*
X46250625Y-20391028D01*
X46250625Y-20391028D02*
X45869673Y-20391028D01*
X46774435Y-19867219D02*
X47012530Y-20867219D01*
X47012530Y-20867219D02*
X47203006Y-20152933D01*
X47203006Y-20152933D02*
X47393482Y-20867219D01*
X47393482Y-20867219D02*
X47631578Y-19867219D01*
X48583958Y-20867219D02*
X48250625Y-20391028D01*
X48012530Y-20867219D02*
X48012530Y-19867219D01*
X48012530Y-19867219D02*
X48393482Y-19867219D01*
X48393482Y-19867219D02*
X48488720Y-19914838D01*
X48488720Y-19914838D02*
X48536339Y-19962457D01*
X48536339Y-19962457D02*
X48583958Y-20057695D01*
X48583958Y-20057695D02*
X48583958Y-20200552D01*
X48583958Y-20200552D02*
X48536339Y-20295790D01*
X48536339Y-20295790D02*
X48488720Y-20343409D01*
X48488720Y-20343409D02*
X48393482Y-20391028D01*
X48393482Y-20391028D02*
X48012530Y-20391028D01*
X58393482Y-276414838D02*
X58298244Y-276367219D01*
X58298244Y-276367219D02*
X58155387Y-276367219D01*
X58155387Y-276367219D02*
X58012530Y-276414838D01*
X58012530Y-276414838D02*
X57917292Y-276510076D01*
X57917292Y-276510076D02*
X57869673Y-276605314D01*
X57869673Y-276605314D02*
X57822054Y-276795790D01*
X57822054Y-276795790D02*
X57822054Y-276938647D01*
X57822054Y-276938647D02*
X57869673Y-277129123D01*
X57869673Y-277129123D02*
X57917292Y-277224361D01*
X57917292Y-277224361D02*
X58012530Y-277319600D01*
X58012530Y-277319600D02*
X58155387Y-277367219D01*
X58155387Y-277367219D02*
X58250625Y-277367219D01*
X58250625Y-277367219D02*
X58393482Y-277319600D01*
X58393482Y-277319600D02*
X58441101Y-277271980D01*
X58441101Y-277271980D02*
X58441101Y-276938647D01*
X58441101Y-276938647D02*
X58250625Y-276938647D01*
X58203006Y-264343409D02*
X57869673Y-264343409D01*
X57869673Y-264867219D02*
X57869673Y-263867219D01*
X57869673Y-263867219D02*
X58345863Y-263867219D01*
X28119673Y-199867219D02*
X28119673Y-198867219D01*
X28119673Y-198867219D02*
X28453006Y-199581504D01*
X28453006Y-199581504D02*
X28786339Y-198867219D01*
X28786339Y-198867219D02*
X28786339Y-199867219D01*
X29643482Y-199819600D02*
X29548244Y-199867219D01*
X29548244Y-199867219D02*
X29357768Y-199867219D01*
X29357768Y-199867219D02*
X29262530Y-199819600D01*
X29262530Y-199819600D02*
X29214911Y-199724361D01*
X29214911Y-199724361D02*
X29214911Y-199343409D01*
X29214911Y-199343409D02*
X29262530Y-199248171D01*
X29262530Y-199248171D02*
X29357768Y-199200552D01*
X29357768Y-199200552D02*
X29548244Y-199200552D01*
X29548244Y-199200552D02*
X29643482Y-199248171D01*
X29643482Y-199248171D02*
X29691101Y-199343409D01*
X29691101Y-199343409D02*
X29691101Y-199438647D01*
X29691101Y-199438647D02*
X29214911Y-199533885D01*
X30119673Y-199867219D02*
X30119673Y-199200552D01*
X30119673Y-199295790D02*
X30167292Y-199248171D01*
X30167292Y-199248171D02*
X30262530Y-199200552D01*
X30262530Y-199200552D02*
X30405387Y-199200552D01*
X30405387Y-199200552D02*
X30500625Y-199248171D01*
X30500625Y-199248171D02*
X30548244Y-199343409D01*
X30548244Y-199343409D02*
X30548244Y-199867219D01*
X30548244Y-199343409D02*
X30595863Y-199248171D01*
X30595863Y-199248171D02*
X30691101Y-199200552D01*
X30691101Y-199200552D02*
X30833958Y-199200552D01*
X30833958Y-199200552D02*
X30929197Y-199248171D01*
X30929197Y-199248171D02*
X30976816Y-199343409D01*
X30976816Y-199343409D02*
X30976816Y-199867219D01*
X31595863Y-199867219D02*
X31500625Y-199819600D01*
X31500625Y-199819600D02*
X31453006Y-199771980D01*
X31453006Y-199771980D02*
X31405387Y-199676742D01*
X31405387Y-199676742D02*
X31405387Y-199391028D01*
X31405387Y-199391028D02*
X31453006Y-199295790D01*
X31453006Y-199295790D02*
X31500625Y-199248171D01*
X31500625Y-199248171D02*
X31595863Y-199200552D01*
X31595863Y-199200552D02*
X31738720Y-199200552D01*
X31738720Y-199200552D02*
X31833958Y-199248171D01*
X31833958Y-199248171D02*
X31881577Y-199295790D01*
X31881577Y-199295790D02*
X31929196Y-199391028D01*
X31929196Y-199391028D02*
X31929196Y-199676742D01*
X31929196Y-199676742D02*
X31881577Y-199771980D01*
X31881577Y-199771980D02*
X31833958Y-199819600D01*
X31833958Y-199819600D02*
X31738720Y-199867219D01*
X31738720Y-199867219D02*
X31595863Y-199867219D01*
X32357768Y-199867219D02*
X32357768Y-199200552D01*
X32357768Y-199391028D02*
X32405387Y-199295790D01*
X32405387Y-199295790D02*
X32453006Y-199248171D01*
X32453006Y-199248171D02*
X32548244Y-199200552D01*
X32548244Y-199200552D02*
X32643482Y-199200552D01*
X32881578Y-199200552D02*
X33119673Y-199867219D01*
X33357768Y-199200552D02*
X33119673Y-199867219D01*
X33119673Y-199867219D02*
X33024435Y-200105314D01*
X33024435Y-200105314D02*
X32976816Y-200152933D01*
X32976816Y-200152933D02*
X32881578Y-200200552D01*
X34500626Y-199867219D02*
X34500626Y-198867219D01*
X34500626Y-198867219D02*
X34833959Y-199581504D01*
X34833959Y-199581504D02*
X35167292Y-198867219D01*
X35167292Y-198867219D02*
X35167292Y-199867219D01*
X36072054Y-199867219D02*
X36072054Y-199343409D01*
X36072054Y-199343409D02*
X36024435Y-199248171D01*
X36024435Y-199248171D02*
X35929197Y-199200552D01*
X35929197Y-199200552D02*
X35738721Y-199200552D01*
X35738721Y-199200552D02*
X35643483Y-199248171D01*
X36072054Y-199819600D02*
X35976816Y-199867219D01*
X35976816Y-199867219D02*
X35738721Y-199867219D01*
X35738721Y-199867219D02*
X35643483Y-199819600D01*
X35643483Y-199819600D02*
X35595864Y-199724361D01*
X35595864Y-199724361D02*
X35595864Y-199629123D01*
X35595864Y-199629123D02*
X35643483Y-199533885D01*
X35643483Y-199533885D02*
X35738721Y-199486266D01*
X35738721Y-199486266D02*
X35976816Y-199486266D01*
X35976816Y-199486266D02*
X36072054Y-199438647D01*
X36548245Y-199200552D02*
X36548245Y-200200552D01*
X36548245Y-199248171D02*
X36643483Y-199200552D01*
X36643483Y-199200552D02*
X36833959Y-199200552D01*
X36833959Y-199200552D02*
X36929197Y-199248171D01*
X36929197Y-199248171D02*
X36976816Y-199295790D01*
X36976816Y-199295790D02*
X37024435Y-199391028D01*
X37024435Y-199391028D02*
X37024435Y-199676742D01*
X37024435Y-199676742D02*
X36976816Y-199771980D01*
X36976816Y-199771980D02*
X36929197Y-199819600D01*
X36929197Y-199819600D02*
X36833959Y-199867219D01*
X36833959Y-199867219D02*
X36643483Y-199867219D01*
X36643483Y-199867219D02*
X36548245Y-199819600D01*
X37453007Y-199200552D02*
X37453007Y-200200552D01*
X37453007Y-199248171D02*
X37548245Y-199200552D01*
X37548245Y-199200552D02*
X37738721Y-199200552D01*
X37738721Y-199200552D02*
X37833959Y-199248171D01*
X37833959Y-199248171D02*
X37881578Y-199295790D01*
X37881578Y-199295790D02*
X37929197Y-199391028D01*
X37929197Y-199391028D02*
X37929197Y-199676742D01*
X37929197Y-199676742D02*
X37881578Y-199771980D01*
X37881578Y-199771980D02*
X37833959Y-199819600D01*
X37833959Y-199819600D02*
X37738721Y-199867219D01*
X37738721Y-199867219D02*
X37548245Y-199867219D01*
X37548245Y-199867219D02*
X37453007Y-199819600D01*
X38738721Y-199819600D02*
X38643483Y-199867219D01*
X38643483Y-199867219D02*
X38453007Y-199867219D01*
X38453007Y-199867219D02*
X38357769Y-199819600D01*
X38357769Y-199819600D02*
X38310150Y-199724361D01*
X38310150Y-199724361D02*
X38310150Y-199343409D01*
X38310150Y-199343409D02*
X38357769Y-199248171D01*
X38357769Y-199248171D02*
X38453007Y-199200552D01*
X38453007Y-199200552D02*
X38643483Y-199200552D01*
X38643483Y-199200552D02*
X38738721Y-199248171D01*
X38738721Y-199248171D02*
X38786340Y-199343409D01*
X38786340Y-199343409D02*
X38786340Y-199438647D01*
X38786340Y-199438647D02*
X38310150Y-199533885D01*
X39643483Y-199867219D02*
X39643483Y-198867219D01*
X39643483Y-199819600D02*
X39548245Y-199867219D01*
X39548245Y-199867219D02*
X39357769Y-199867219D01*
X39357769Y-199867219D02*
X39262531Y-199819600D01*
X39262531Y-199819600D02*
X39214912Y-199771980D01*
X39214912Y-199771980D02*
X39167293Y-199676742D01*
X39167293Y-199676742D02*
X39167293Y-199391028D01*
X39167293Y-199391028D02*
X39214912Y-199295790D01*
X39214912Y-199295790D02*
X39262531Y-199248171D01*
X39262531Y-199248171D02*
X39357769Y-199200552D01*
X39357769Y-199200552D02*
X39548245Y-199200552D01*
X39548245Y-199200552D02*
X39643483Y-199248171D01*
X41453007Y-199867219D02*
X41119674Y-199391028D01*
X40881579Y-199867219D02*
X40881579Y-198867219D01*
X40881579Y-198867219D02*
X41262531Y-198867219D01*
X41262531Y-198867219D02*
X41357769Y-198914838D01*
X41357769Y-198914838D02*
X41405388Y-198962457D01*
X41405388Y-198962457D02*
X41453007Y-199057695D01*
X41453007Y-199057695D02*
X41453007Y-199200552D01*
X41453007Y-199200552D02*
X41405388Y-199295790D01*
X41405388Y-199295790D02*
X41357769Y-199343409D01*
X41357769Y-199343409D02*
X41262531Y-199391028D01*
X41262531Y-199391028D02*
X40881579Y-199391028D01*
X42262531Y-199819600D02*
X42167293Y-199867219D01*
X42167293Y-199867219D02*
X41976817Y-199867219D01*
X41976817Y-199867219D02*
X41881579Y-199819600D01*
X41881579Y-199819600D02*
X41833960Y-199724361D01*
X41833960Y-199724361D02*
X41833960Y-199343409D01*
X41833960Y-199343409D02*
X41881579Y-199248171D01*
X41881579Y-199248171D02*
X41976817Y-199200552D01*
X41976817Y-199200552D02*
X42167293Y-199200552D01*
X42167293Y-199200552D02*
X42262531Y-199248171D01*
X42262531Y-199248171D02*
X42310150Y-199343409D01*
X42310150Y-199343409D02*
X42310150Y-199438647D01*
X42310150Y-199438647D02*
X41833960Y-199533885D01*
X43167293Y-199200552D02*
X43167293Y-200010076D01*
X43167293Y-200010076D02*
X43119674Y-200105314D01*
X43119674Y-200105314D02*
X43072055Y-200152933D01*
X43072055Y-200152933D02*
X42976817Y-200200552D01*
X42976817Y-200200552D02*
X42833960Y-200200552D01*
X42833960Y-200200552D02*
X42738722Y-200152933D01*
X43167293Y-199819600D02*
X43072055Y-199867219D01*
X43072055Y-199867219D02*
X42881579Y-199867219D01*
X42881579Y-199867219D02*
X42786341Y-199819600D01*
X42786341Y-199819600D02*
X42738722Y-199771980D01*
X42738722Y-199771980D02*
X42691103Y-199676742D01*
X42691103Y-199676742D02*
X42691103Y-199391028D01*
X42691103Y-199391028D02*
X42738722Y-199295790D01*
X42738722Y-199295790D02*
X42786341Y-199248171D01*
X42786341Y-199248171D02*
X42881579Y-199200552D01*
X42881579Y-199200552D02*
X43072055Y-199200552D01*
X43072055Y-199200552D02*
X43167293Y-199248171D01*
X43643484Y-199867219D02*
X43643484Y-199200552D01*
X43643484Y-198867219D02*
X43595865Y-198914838D01*
X43595865Y-198914838D02*
X43643484Y-198962457D01*
X43643484Y-198962457D02*
X43691103Y-198914838D01*
X43691103Y-198914838D02*
X43643484Y-198867219D01*
X43643484Y-198867219D02*
X43643484Y-198962457D01*
X44072055Y-199819600D02*
X44167293Y-199867219D01*
X44167293Y-199867219D02*
X44357769Y-199867219D01*
X44357769Y-199867219D02*
X44453007Y-199819600D01*
X44453007Y-199819600D02*
X44500626Y-199724361D01*
X44500626Y-199724361D02*
X44500626Y-199676742D01*
X44500626Y-199676742D02*
X44453007Y-199581504D01*
X44453007Y-199581504D02*
X44357769Y-199533885D01*
X44357769Y-199533885D02*
X44214912Y-199533885D01*
X44214912Y-199533885D02*
X44119674Y-199486266D01*
X44119674Y-199486266D02*
X44072055Y-199391028D01*
X44072055Y-199391028D02*
X44072055Y-199343409D01*
X44072055Y-199343409D02*
X44119674Y-199248171D01*
X44119674Y-199248171D02*
X44214912Y-199200552D01*
X44214912Y-199200552D02*
X44357769Y-199200552D01*
X44357769Y-199200552D02*
X44453007Y-199248171D01*
X44786341Y-199200552D02*
X45167293Y-199200552D01*
X44929198Y-198867219D02*
X44929198Y-199724361D01*
X44929198Y-199724361D02*
X44976817Y-199819600D01*
X44976817Y-199819600D02*
X45072055Y-199867219D01*
X45072055Y-199867219D02*
X45167293Y-199867219D01*
X45881579Y-199819600D02*
X45786341Y-199867219D01*
X45786341Y-199867219D02*
X45595865Y-199867219D01*
X45595865Y-199867219D02*
X45500627Y-199819600D01*
X45500627Y-199819600D02*
X45453008Y-199724361D01*
X45453008Y-199724361D02*
X45453008Y-199343409D01*
X45453008Y-199343409D02*
X45500627Y-199248171D01*
X45500627Y-199248171D02*
X45595865Y-199200552D01*
X45595865Y-199200552D02*
X45786341Y-199200552D01*
X45786341Y-199200552D02*
X45881579Y-199248171D01*
X45881579Y-199248171D02*
X45929198Y-199343409D01*
X45929198Y-199343409D02*
X45929198Y-199438647D01*
X45929198Y-199438647D02*
X45453008Y-199533885D01*
X46357770Y-199867219D02*
X46357770Y-199200552D01*
X46357770Y-199391028D02*
X46405389Y-199295790D01*
X46405389Y-199295790D02*
X46453008Y-199248171D01*
X46453008Y-199248171D02*
X46548246Y-199200552D01*
X46548246Y-199200552D02*
X46643484Y-199200552D01*
X46929199Y-199819600D02*
X47024437Y-199867219D01*
X47024437Y-199867219D02*
X47214913Y-199867219D01*
X47214913Y-199867219D02*
X47310151Y-199819600D01*
X47310151Y-199819600D02*
X47357770Y-199724361D01*
X47357770Y-199724361D02*
X47357770Y-199676742D01*
X47357770Y-199676742D02*
X47310151Y-199581504D01*
X47310151Y-199581504D02*
X47214913Y-199533885D01*
X47214913Y-199533885D02*
X47072056Y-199533885D01*
X47072056Y-199533885D02*
X46976818Y-199486266D01*
X46976818Y-199486266D02*
X46929199Y-199391028D01*
X46929199Y-199391028D02*
X46929199Y-199343409D01*
X46929199Y-199343409D02*
X46976818Y-199248171D01*
X46976818Y-199248171D02*
X47072056Y-199200552D01*
X47072056Y-199200552D02*
X47214913Y-199200552D01*
X47214913Y-199200552D02*
X47310151Y-199248171D01*
X57869673Y-66617219D02*
X57869673Y-65950552D01*
X57869673Y-66141028D02*
X57917292Y-66045790D01*
X57917292Y-66045790D02*
X57964911Y-65998171D01*
X57964911Y-65998171D02*
X58060149Y-65950552D01*
X58060149Y-65950552D02*
X58155387Y-65950552D01*
X58393483Y-65617219D02*
X59012530Y-65617219D01*
X59012530Y-65617219D02*
X58679197Y-65998171D01*
X58679197Y-65998171D02*
X58822054Y-65998171D01*
X58822054Y-65998171D02*
X58917292Y-66045790D01*
X58917292Y-66045790D02*
X58964911Y-66093409D01*
X58964911Y-66093409D02*
X59012530Y-66188647D01*
X59012530Y-66188647D02*
X59012530Y-66426742D01*
X59012530Y-66426742D02*
X58964911Y-66521980D01*
X58964911Y-66521980D02*
X58917292Y-66569600D01*
X58917292Y-66569600D02*
X58822054Y-66617219D01*
X58822054Y-66617219D02*
X58536340Y-66617219D01*
X58536340Y-66617219D02*
X58441102Y-66569600D01*
X58441102Y-66569600D02*
X58393483Y-66521980D01*
D10*
X27577693Y-28920038D02*
X27482455Y-28872419D01*
X27482455Y-28872419D02*
X27339598Y-28872419D01*
X27339598Y-28872419D02*
X27196741Y-28920038D01*
X27196741Y-28920038D02*
X27101503Y-29015276D01*
X27101503Y-29015276D02*
X27053884Y-29110514D01*
X27053884Y-29110514D02*
X27006265Y-29300990D01*
X27006265Y-29300990D02*
X27006265Y-29443847D01*
X27006265Y-29443847D02*
X27053884Y-29634323D01*
X27053884Y-29634323D02*
X27101503Y-29729561D01*
X27101503Y-29729561D02*
X27196741Y-29824800D01*
X27196741Y-29824800D02*
X27339598Y-29872419D01*
X27339598Y-29872419D02*
X27434836Y-29872419D01*
X27434836Y-29872419D02*
X27577693Y-29824800D01*
X27577693Y-29824800D02*
X27625312Y-29777180D01*
X27625312Y-29777180D02*
X27625312Y-29443847D01*
X27625312Y-29443847D02*
X27434836Y-29443847D01*
X28053884Y-29872419D02*
X28053884Y-28872419D01*
X28053884Y-28872419D02*
X28625312Y-29872419D01*
X28625312Y-29872419D02*
X28625312Y-28872419D01*
X29101503Y-29872419D02*
X29101503Y-28872419D01*
X29101503Y-28872419D02*
X29339598Y-28872419D01*
X29339598Y-28872419D02*
X29482455Y-28920038D01*
X29482455Y-28920038D02*
X29577693Y-29015276D01*
X29577693Y-29015276D02*
X29625312Y-29110514D01*
X29625312Y-29110514D02*
X29672931Y-29300990D01*
X29672931Y-29300990D02*
X29672931Y-29443847D01*
X29672931Y-29443847D02*
X29625312Y-29634323D01*
X29625312Y-29634323D02*
X29577693Y-29729561D01*
X29577693Y-29729561D02*
X29482455Y-29824800D01*
X29482455Y-29824800D02*
X29339598Y-29872419D01*
X29339598Y-29872419D02*
X29101503Y-29872419D01*
D12*
X57869673Y-144867219D02*
X57869673Y-144200552D01*
X57869673Y-144391028D02*
X57917292Y-144295790D01*
X57917292Y-144295790D02*
X57964911Y-144248171D01*
X57964911Y-144248171D02*
X58060149Y-144200552D01*
X58060149Y-144200552D02*
X58155387Y-144200552D01*
X58536340Y-144867219D02*
X58726816Y-144867219D01*
X58726816Y-144867219D02*
X58822054Y-144819600D01*
X58822054Y-144819600D02*
X58869673Y-144771980D01*
X58869673Y-144771980D02*
X58964911Y-144629123D01*
X58964911Y-144629123D02*
X59012530Y-144438647D01*
X59012530Y-144438647D02*
X59012530Y-144057695D01*
X59012530Y-144057695D02*
X58964911Y-143962457D01*
X58964911Y-143962457D02*
X58917292Y-143914838D01*
X58917292Y-143914838D02*
X58822054Y-143867219D01*
X58822054Y-143867219D02*
X58631578Y-143867219D01*
X58631578Y-143867219D02*
X58536340Y-143914838D01*
X58536340Y-143914838D02*
X58488721Y-143962457D01*
X58488721Y-143962457D02*
X58441102Y-144057695D01*
X58441102Y-144057695D02*
X58441102Y-144295790D01*
X58441102Y-144295790D02*
X58488721Y-144391028D01*
X58488721Y-144391028D02*
X58536340Y-144438647D01*
X58536340Y-144438647D02*
X58631578Y-144486266D01*
X58631578Y-144486266D02*
X58822054Y-144486266D01*
X58822054Y-144486266D02*
X58917292Y-144438647D01*
X58917292Y-144438647D02*
X58964911Y-144391028D01*
X58964911Y-144391028D02*
X59012530Y-144295790D01*
X57869673Y-54117219D02*
X57869673Y-53450552D01*
X57869673Y-53641028D02*
X57917292Y-53545790D01*
X57917292Y-53545790D02*
X57964911Y-53498171D01*
X57964911Y-53498171D02*
X58060149Y-53450552D01*
X58060149Y-53450552D02*
X58155387Y-53450552D01*
X58441102Y-53212457D02*
X58488721Y-53164838D01*
X58488721Y-53164838D02*
X58583959Y-53117219D01*
X58583959Y-53117219D02*
X58822054Y-53117219D01*
X58822054Y-53117219D02*
X58917292Y-53164838D01*
X58917292Y-53164838D02*
X58964911Y-53212457D01*
X58964911Y-53212457D02*
X59012530Y-53307695D01*
X59012530Y-53307695D02*
X59012530Y-53402933D01*
X59012530Y-53402933D02*
X58964911Y-53545790D01*
X58964911Y-53545790D02*
X58393483Y-54117219D01*
X58393483Y-54117219D02*
X59012530Y-54117219D01*
X57869673Y-39867219D02*
X57869673Y-39200552D01*
X57869673Y-39391028D02*
X57917292Y-39295790D01*
X57917292Y-39295790D02*
X57964911Y-39248171D01*
X57964911Y-39248171D02*
X58060149Y-39200552D01*
X58060149Y-39200552D02*
X58155387Y-39200552D01*
X59012530Y-39867219D02*
X58441102Y-39867219D01*
X58726816Y-39867219D02*
X58726816Y-38867219D01*
X58726816Y-38867219D02*
X58631578Y-39010076D01*
X58631578Y-39010076D02*
X58536340Y-39105314D01*
X58536340Y-39105314D02*
X58441102Y-39152933D01*
X57869673Y-239867219D02*
X57869673Y-238867219D01*
X57869673Y-238867219D02*
X58107768Y-238867219D01*
X58107768Y-238867219D02*
X58250625Y-238914838D01*
X58250625Y-238914838D02*
X58345863Y-239010076D01*
X58345863Y-239010076D02*
X58393482Y-239105314D01*
X58393482Y-239105314D02*
X58441101Y-239295790D01*
X58441101Y-239295790D02*
X58441101Y-239438647D01*
X58441101Y-239438647D02*
X58393482Y-239629123D01*
X58393482Y-239629123D02*
X58345863Y-239724361D01*
X58345863Y-239724361D02*
X58250625Y-239819600D01*
X58250625Y-239819600D02*
X58107768Y-239867219D01*
X58107768Y-239867219D02*
X57869673Y-239867219D01*
X57869673Y-172367219D02*
X57869673Y-171700552D01*
X57869673Y-171891028D02*
X57917292Y-171795790D01*
X57917292Y-171795790D02*
X57964911Y-171748171D01*
X57964911Y-171748171D02*
X58060149Y-171700552D01*
X58060149Y-171700552D02*
X58155387Y-171700552D01*
X59012530Y-172367219D02*
X58441102Y-172367219D01*
X58726816Y-172367219D02*
X58726816Y-171367219D01*
X58726816Y-171367219D02*
X58631578Y-171510076D01*
X58631578Y-171510076D02*
X58536340Y-171605314D01*
X58536340Y-171605314D02*
X58441102Y-171652933D01*
X59964911Y-172367219D02*
X59393483Y-172367219D01*
X59679197Y-172367219D02*
X59679197Y-171367219D01*
X59679197Y-171367219D02*
X59583959Y-171510076D01*
X59583959Y-171510076D02*
X59488721Y-171605314D01*
X59488721Y-171605314D02*
X59393483Y-171652933D01*
X57869673Y-132367219D02*
X57869673Y-131700552D01*
X57869673Y-131891028D02*
X57917292Y-131795790D01*
X57917292Y-131795790D02*
X57964911Y-131748171D01*
X57964911Y-131748171D02*
X58060149Y-131700552D01*
X58060149Y-131700552D02*
X58155387Y-131700552D01*
X58631578Y-131795790D02*
X58536340Y-131748171D01*
X58536340Y-131748171D02*
X58488721Y-131700552D01*
X58488721Y-131700552D02*
X58441102Y-131605314D01*
X58441102Y-131605314D02*
X58441102Y-131557695D01*
X58441102Y-131557695D02*
X58488721Y-131462457D01*
X58488721Y-131462457D02*
X58536340Y-131414838D01*
X58536340Y-131414838D02*
X58631578Y-131367219D01*
X58631578Y-131367219D02*
X58822054Y-131367219D01*
X58822054Y-131367219D02*
X58917292Y-131414838D01*
X58917292Y-131414838D02*
X58964911Y-131462457D01*
X58964911Y-131462457D02*
X59012530Y-131557695D01*
X59012530Y-131557695D02*
X59012530Y-131605314D01*
X59012530Y-131605314D02*
X58964911Y-131700552D01*
X58964911Y-131700552D02*
X58917292Y-131748171D01*
X58917292Y-131748171D02*
X58822054Y-131795790D01*
X58822054Y-131795790D02*
X58631578Y-131795790D01*
X58631578Y-131795790D02*
X58536340Y-131843409D01*
X58536340Y-131843409D02*
X58488721Y-131891028D01*
X58488721Y-131891028D02*
X58441102Y-131986266D01*
X58441102Y-131986266D02*
X58441102Y-132176742D01*
X58441102Y-132176742D02*
X58488721Y-132271980D01*
X58488721Y-132271980D02*
X58536340Y-132319600D01*
X58536340Y-132319600D02*
X58631578Y-132367219D01*
X58631578Y-132367219D02*
X58822054Y-132367219D01*
X58822054Y-132367219D02*
X58917292Y-132319600D01*
X58917292Y-132319600D02*
X58964911Y-132271980D01*
X58964911Y-132271980D02*
X59012530Y-132176742D01*
X59012530Y-132176742D02*
X59012530Y-131986266D01*
X59012530Y-131986266D02*
X58964911Y-131891028D01*
X58964911Y-131891028D02*
X58917292Y-131843409D01*
X58917292Y-131843409D02*
X58822054Y-131795790D01*
X57869673Y-184867219D02*
X57869673Y-184200552D01*
X57869673Y-184391028D02*
X57917292Y-184295790D01*
X57917292Y-184295790D02*
X57964911Y-184248171D01*
X57964911Y-184248171D02*
X58060149Y-184200552D01*
X58060149Y-184200552D02*
X58155387Y-184200552D01*
X59012530Y-184867219D02*
X58441102Y-184867219D01*
X58726816Y-184867219D02*
X58726816Y-183867219D01*
X58726816Y-183867219D02*
X58631578Y-184010076D01*
X58631578Y-184010076D02*
X58536340Y-184105314D01*
X58536340Y-184105314D02*
X58441102Y-184152933D01*
X59393483Y-183962457D02*
X59441102Y-183914838D01*
X59441102Y-183914838D02*
X59536340Y-183867219D01*
X59536340Y-183867219D02*
X59774435Y-183867219D01*
X59774435Y-183867219D02*
X59869673Y-183914838D01*
X59869673Y-183914838D02*
X59917292Y-183962457D01*
X59917292Y-183962457D02*
X59964911Y-184057695D01*
X59964911Y-184057695D02*
X59964911Y-184152933D01*
X59964911Y-184152933D02*
X59917292Y-184295790D01*
X59917292Y-184295790D02*
X59345864Y-184867219D01*
X59345864Y-184867219D02*
X59964911Y-184867219D01*
X57869673Y-251843409D02*
X58203006Y-251843409D01*
X58345863Y-252367219D02*
X57869673Y-252367219D01*
X57869673Y-252367219D02*
X57869673Y-251367219D01*
X57869673Y-251367219D02*
X58345863Y-251367219D01*
D10*
X28530074Y-22122419D02*
X28053884Y-22122419D01*
X28053884Y-22122419D02*
X28006265Y-22598609D01*
X28006265Y-22598609D02*
X28053884Y-22550990D01*
X28053884Y-22550990D02*
X28149122Y-22503371D01*
X28149122Y-22503371D02*
X28387217Y-22503371D01*
X28387217Y-22503371D02*
X28482455Y-22550990D01*
X28482455Y-22550990D02*
X28530074Y-22598609D01*
X28530074Y-22598609D02*
X28577693Y-22693847D01*
X28577693Y-22693847D02*
X28577693Y-22931942D01*
X28577693Y-22931942D02*
X28530074Y-23027180D01*
X28530074Y-23027180D02*
X28482455Y-23074800D01*
X28482455Y-23074800D02*
X28387217Y-23122419D01*
X28387217Y-23122419D02*
X28149122Y-23122419D01*
X28149122Y-23122419D02*
X28053884Y-23074800D01*
X28053884Y-23074800D02*
X28006265Y-23027180D01*
X28863408Y-22122419D02*
X29196741Y-23122419D01*
X29196741Y-23122419D02*
X29530074Y-22122419D01*
D12*
X57869673Y-107367219D02*
X57869673Y-106700552D01*
X57869673Y-106891028D02*
X57917292Y-106795790D01*
X57917292Y-106795790D02*
X57964911Y-106748171D01*
X57964911Y-106748171D02*
X58060149Y-106700552D01*
X58060149Y-106700552D02*
X58155387Y-106700552D01*
X58917292Y-106367219D02*
X58726816Y-106367219D01*
X58726816Y-106367219D02*
X58631578Y-106414838D01*
X58631578Y-106414838D02*
X58583959Y-106462457D01*
X58583959Y-106462457D02*
X58488721Y-106605314D01*
X58488721Y-106605314D02*
X58441102Y-106795790D01*
X58441102Y-106795790D02*
X58441102Y-107176742D01*
X58441102Y-107176742D02*
X58488721Y-107271980D01*
X58488721Y-107271980D02*
X58536340Y-107319600D01*
X58536340Y-107319600D02*
X58631578Y-107367219D01*
X58631578Y-107367219D02*
X58822054Y-107367219D01*
X58822054Y-107367219D02*
X58917292Y-107319600D01*
X58917292Y-107319600D02*
X58964911Y-107271980D01*
X58964911Y-107271980D02*
X59012530Y-107176742D01*
X59012530Y-107176742D02*
X59012530Y-106938647D01*
X59012530Y-106938647D02*
X58964911Y-106843409D01*
X58964911Y-106843409D02*
X58917292Y-106795790D01*
X58917292Y-106795790D02*
X58822054Y-106748171D01*
X58822054Y-106748171D02*
X58631578Y-106748171D01*
X58631578Y-106748171D02*
X58536340Y-106795790D01*
X58536340Y-106795790D02*
X58488721Y-106843409D01*
X58488721Y-106843409D02*
X58441102Y-106938647D01*
D13*
X30940476Y-26624819D02*
X30940476Y-27339104D01*
X30940476Y-27339104D02*
X30892857Y-27481961D01*
X30892857Y-27481961D02*
X30797619Y-27577200D01*
X30797619Y-27577200D02*
X30654762Y-27624819D01*
X30654762Y-27624819D02*
X30559524Y-27624819D01*
X31845238Y-26958152D02*
X31845238Y-27624819D01*
X31607143Y-26577200D02*
X31369048Y-27291485D01*
X31369048Y-27291485D02*
X31988095Y-27291485D01*
X32511905Y-27053390D02*
X32416667Y-27005771D01*
X32416667Y-27005771D02*
X32369048Y-26958152D01*
X32369048Y-26958152D02*
X32321429Y-26862914D01*
X32321429Y-26862914D02*
X32321429Y-26815295D01*
X32321429Y-26815295D02*
X32369048Y-26720057D01*
X32369048Y-26720057D02*
X32416667Y-26672438D01*
X32416667Y-26672438D02*
X32511905Y-26624819D01*
X32511905Y-26624819D02*
X32702381Y-26624819D01*
X32702381Y-26624819D02*
X32797619Y-26672438D01*
X32797619Y-26672438D02*
X32845238Y-26720057D01*
X32845238Y-26720057D02*
X32892857Y-26815295D01*
X32892857Y-26815295D02*
X32892857Y-26862914D01*
X32892857Y-26862914D02*
X32845238Y-26958152D01*
X32845238Y-26958152D02*
X32797619Y-27005771D01*
X32797619Y-27005771D02*
X32702381Y-27053390D01*
X32702381Y-27053390D02*
X32511905Y-27053390D01*
X32511905Y-27053390D02*
X32416667Y-27101009D01*
X32416667Y-27101009D02*
X32369048Y-27148628D01*
X32369048Y-27148628D02*
X32321429Y-27243866D01*
X32321429Y-27243866D02*
X32321429Y-27434342D01*
X32321429Y-27434342D02*
X32369048Y-27529580D01*
X32369048Y-27529580D02*
X32416667Y-27577200D01*
X32416667Y-27577200D02*
X32511905Y-27624819D01*
X32511905Y-27624819D02*
X32702381Y-27624819D01*
X32702381Y-27624819D02*
X32797619Y-27577200D01*
X32797619Y-27577200D02*
X32845238Y-27529580D01*
X32845238Y-27529580D02*
X32892857Y-27434342D01*
X32892857Y-27434342D02*
X32892857Y-27243866D01*
X32892857Y-27243866D02*
X32845238Y-27148628D01*
X32845238Y-27148628D02*
X32797619Y-27101009D01*
X32797619Y-27101009D02*
X32702381Y-27053390D01*
X31416666Y-20124819D02*
X31416666Y-20839104D01*
X31416666Y-20839104D02*
X31369047Y-20981961D01*
X31369047Y-20981961D02*
X31273809Y-21077200D01*
X31273809Y-21077200D02*
X31130952Y-21124819D01*
X31130952Y-21124819D02*
X31035714Y-21124819D01*
X32416666Y-21124819D02*
X31845238Y-21124819D01*
X32130952Y-21124819D02*
X32130952Y-20124819D01*
X32130952Y-20124819D02*
X32035714Y-20267676D01*
X32035714Y-20267676D02*
X31940476Y-20362914D01*
X31940476Y-20362914D02*
X31845238Y-20410533D01*
X62690476Y-268784819D02*
X62690476Y-269499104D01*
X62690476Y-269499104D02*
X62642857Y-269641961D01*
X62642857Y-269641961D02*
X62547619Y-269737200D01*
X62547619Y-269737200D02*
X62404762Y-269784819D01*
X62404762Y-269784819D02*
X62309524Y-269784819D01*
X63071429Y-268784819D02*
X63690476Y-268784819D01*
X63690476Y-268784819D02*
X63357143Y-269165771D01*
X63357143Y-269165771D02*
X63500000Y-269165771D01*
X63500000Y-269165771D02*
X63595238Y-269213390D01*
X63595238Y-269213390D02*
X63642857Y-269261009D01*
X63642857Y-269261009D02*
X63690476Y-269356247D01*
X63690476Y-269356247D02*
X63690476Y-269594342D01*
X63690476Y-269594342D02*
X63642857Y-269689580D01*
X63642857Y-269689580D02*
X63595238Y-269737200D01*
X63595238Y-269737200D02*
X63500000Y-269784819D01*
X63500000Y-269784819D02*
X63214286Y-269784819D01*
X63214286Y-269784819D02*
X63119048Y-269737200D01*
X63119048Y-269737200D02*
X63071429Y-269689580D01*
X64023810Y-268784819D02*
X64642857Y-268784819D01*
X64642857Y-268784819D02*
X64309524Y-269165771D01*
X64309524Y-269165771D02*
X64452381Y-269165771D01*
X64452381Y-269165771D02*
X64547619Y-269213390D01*
X64547619Y-269213390D02*
X64595238Y-269261009D01*
X64595238Y-269261009D02*
X64642857Y-269356247D01*
X64642857Y-269356247D02*
X64642857Y-269594342D01*
X64642857Y-269594342D02*
X64595238Y-269689580D01*
X64595238Y-269689580D02*
X64547619Y-269737200D01*
X64547619Y-269737200D02*
X64452381Y-269784819D01*
X64452381Y-269784819D02*
X64166667Y-269784819D01*
X64166667Y-269784819D02*
X64071429Y-269737200D01*
X64071429Y-269737200D02*
X64023810Y-269689580D01*
X67904819Y-319559523D02*
X68619104Y-319559523D01*
X68619104Y-319559523D02*
X68761961Y-319607142D01*
X68761961Y-319607142D02*
X68857200Y-319702380D01*
X68857200Y-319702380D02*
X68904819Y-319845237D01*
X68904819Y-319845237D02*
X68904819Y-319940475D01*
X68238152Y-318654761D02*
X68904819Y-318654761D01*
X67857200Y-318892856D02*
X68571485Y-319130951D01*
X68571485Y-319130951D02*
X68571485Y-318511904D01*
X67904819Y-318226189D02*
X67904819Y-317559523D01*
X67904819Y-317559523D02*
X68904819Y-317988094D01*
X62690476Y-242784819D02*
X62690476Y-243499104D01*
X62690476Y-243499104D02*
X62642857Y-243641961D01*
X62642857Y-243641961D02*
X62547619Y-243737200D01*
X62547619Y-243737200D02*
X62404762Y-243784819D01*
X62404762Y-243784819D02*
X62309524Y-243784819D01*
X63071429Y-242784819D02*
X63690476Y-242784819D01*
X63690476Y-242784819D02*
X63357143Y-243165771D01*
X63357143Y-243165771D02*
X63500000Y-243165771D01*
X63500000Y-243165771D02*
X63595238Y-243213390D01*
X63595238Y-243213390D02*
X63642857Y-243261009D01*
X63642857Y-243261009D02*
X63690476Y-243356247D01*
X63690476Y-243356247D02*
X63690476Y-243594342D01*
X63690476Y-243594342D02*
X63642857Y-243689580D01*
X63642857Y-243689580D02*
X63595238Y-243737200D01*
X63595238Y-243737200D02*
X63500000Y-243784819D01*
X63500000Y-243784819D02*
X63214286Y-243784819D01*
X63214286Y-243784819D02*
X63119048Y-243737200D01*
X63119048Y-243737200D02*
X63071429Y-243689580D01*
X64642857Y-243784819D02*
X64071429Y-243784819D01*
X64357143Y-243784819D02*
X64357143Y-242784819D01*
X64357143Y-242784819D02*
X64261905Y-242927676D01*
X64261905Y-242927676D02*
X64166667Y-243022914D01*
X64166667Y-243022914D02*
X64071429Y-243070533D01*
X62690476Y-307534819D02*
X62690476Y-308249104D01*
X62690476Y-308249104D02*
X62642857Y-308391961D01*
X62642857Y-308391961D02*
X62547619Y-308487200D01*
X62547619Y-308487200D02*
X62404762Y-308534819D01*
X62404762Y-308534819D02*
X62309524Y-308534819D01*
X63071429Y-307534819D02*
X63690476Y-307534819D01*
X63690476Y-307534819D02*
X63357143Y-307915771D01*
X63357143Y-307915771D02*
X63500000Y-307915771D01*
X63500000Y-307915771D02*
X63595238Y-307963390D01*
X63595238Y-307963390D02*
X63642857Y-308011009D01*
X63642857Y-308011009D02*
X63690476Y-308106247D01*
X63690476Y-308106247D02*
X63690476Y-308344342D01*
X63690476Y-308344342D02*
X63642857Y-308439580D01*
X63642857Y-308439580D02*
X63595238Y-308487200D01*
X63595238Y-308487200D02*
X63500000Y-308534819D01*
X63500000Y-308534819D02*
X63214286Y-308534819D01*
X63214286Y-308534819D02*
X63119048Y-308487200D01*
X63119048Y-308487200D02*
X63071429Y-308439580D01*
X64547619Y-307534819D02*
X64357143Y-307534819D01*
X64357143Y-307534819D02*
X64261905Y-307582438D01*
X64261905Y-307582438D02*
X64214286Y-307630057D01*
X64214286Y-307630057D02*
X64119048Y-307772914D01*
X64119048Y-307772914D02*
X64071429Y-307963390D01*
X64071429Y-307963390D02*
X64071429Y-308344342D01*
X64071429Y-308344342D02*
X64119048Y-308439580D01*
X64119048Y-308439580D02*
X64166667Y-308487200D01*
X64166667Y-308487200D02*
X64261905Y-308534819D01*
X64261905Y-308534819D02*
X64452381Y-308534819D01*
X64452381Y-308534819D02*
X64547619Y-308487200D01*
X64547619Y-308487200D02*
X64595238Y-308439580D01*
X64595238Y-308439580D02*
X64642857Y-308344342D01*
X64642857Y-308344342D02*
X64642857Y-308106247D01*
X64642857Y-308106247D02*
X64595238Y-308011009D01*
X64595238Y-308011009D02*
X64547619Y-307963390D01*
X64547619Y-307963390D02*
X64452381Y-307915771D01*
X64452381Y-307915771D02*
X64261905Y-307915771D01*
X64261905Y-307915771D02*
X64166667Y-307963390D01*
X64166667Y-307963390D02*
X64119048Y-308011009D01*
X64119048Y-308011009D02*
X64071429Y-308106247D01*
X62690476Y-156374819D02*
X62690476Y-157089104D01*
X62690476Y-157089104D02*
X62642857Y-157231961D01*
X62642857Y-157231961D02*
X62547619Y-157327200D01*
X62547619Y-157327200D02*
X62404762Y-157374819D01*
X62404762Y-157374819D02*
X62309524Y-157374819D01*
X63690476Y-157374819D02*
X63119048Y-157374819D01*
X63404762Y-157374819D02*
X63404762Y-156374819D01*
X63404762Y-156374819D02*
X63309524Y-156517676D01*
X63309524Y-156517676D02*
X63214286Y-156612914D01*
X63214286Y-156612914D02*
X63119048Y-156660533D01*
X64023810Y-156374819D02*
X64642857Y-156374819D01*
X64642857Y-156374819D02*
X64309524Y-156755771D01*
X64309524Y-156755771D02*
X64452381Y-156755771D01*
X64452381Y-156755771D02*
X64547619Y-156803390D01*
X64547619Y-156803390D02*
X64595238Y-156851009D01*
X64595238Y-156851009D02*
X64642857Y-156946247D01*
X64642857Y-156946247D02*
X64642857Y-157184342D01*
X64642857Y-157184342D02*
X64595238Y-157279580D01*
X64595238Y-157279580D02*
X64547619Y-157327200D01*
X64547619Y-157327200D02*
X64452381Y-157374819D01*
X64452381Y-157374819D02*
X64166667Y-157374819D01*
X64166667Y-157374819D02*
X64071429Y-157327200D01*
X64071429Y-157327200D02*
X64023810Y-157279580D01*
X62690476Y-281534819D02*
X62690476Y-282249104D01*
X62690476Y-282249104D02*
X62642857Y-282391961D01*
X62642857Y-282391961D02*
X62547619Y-282487200D01*
X62547619Y-282487200D02*
X62404762Y-282534819D01*
X62404762Y-282534819D02*
X62309524Y-282534819D01*
X63071429Y-281534819D02*
X63690476Y-281534819D01*
X63690476Y-281534819D02*
X63357143Y-281915771D01*
X63357143Y-281915771D02*
X63500000Y-281915771D01*
X63500000Y-281915771D02*
X63595238Y-281963390D01*
X63595238Y-281963390D02*
X63642857Y-282011009D01*
X63642857Y-282011009D02*
X63690476Y-282106247D01*
X63690476Y-282106247D02*
X63690476Y-282344342D01*
X63690476Y-282344342D02*
X63642857Y-282439580D01*
X63642857Y-282439580D02*
X63595238Y-282487200D01*
X63595238Y-282487200D02*
X63500000Y-282534819D01*
X63500000Y-282534819D02*
X63214286Y-282534819D01*
X63214286Y-282534819D02*
X63119048Y-282487200D01*
X63119048Y-282487200D02*
X63071429Y-282439580D01*
X64547619Y-281868152D02*
X64547619Y-282534819D01*
X64309524Y-281487200D02*
X64071429Y-282201485D01*
X64071429Y-282201485D02*
X64690476Y-282201485D01*
X67904819Y-40809523D02*
X68619104Y-40809523D01*
X68619104Y-40809523D02*
X68761961Y-40857142D01*
X68761961Y-40857142D02*
X68857200Y-40952380D01*
X68857200Y-40952380D02*
X68904819Y-41095237D01*
X68904819Y-41095237D02*
X68904819Y-41190475D01*
X68904819Y-39809523D02*
X68904819Y-40380951D01*
X68904819Y-40095237D02*
X67904819Y-40095237D01*
X67904819Y-40095237D02*
X68047676Y-40190475D01*
X68047676Y-40190475D02*
X68142914Y-40285713D01*
X68142914Y-40285713D02*
X68190533Y-40380951D01*
X67904819Y-38952380D02*
X67904819Y-39142856D01*
X67904819Y-39142856D02*
X67952438Y-39238094D01*
X67952438Y-39238094D02*
X68000057Y-39285713D01*
X68000057Y-39285713D02*
X68142914Y-39380951D01*
X68142914Y-39380951D02*
X68333390Y-39428570D01*
X68333390Y-39428570D02*
X68714342Y-39428570D01*
X68714342Y-39428570D02*
X68809580Y-39380951D01*
X68809580Y-39380951D02*
X68857200Y-39333332D01*
X68857200Y-39333332D02*
X68904819Y-39238094D01*
X68904819Y-39238094D02*
X68904819Y-39047618D01*
X68904819Y-39047618D02*
X68857200Y-38952380D01*
X68857200Y-38952380D02*
X68809580Y-38904761D01*
X68809580Y-38904761D02*
X68714342Y-38857142D01*
X68714342Y-38857142D02*
X68476247Y-38857142D01*
X68476247Y-38857142D02*
X68381009Y-38904761D01*
X68381009Y-38904761D02*
X68333390Y-38952380D01*
X68333390Y-38952380D02*
X68285771Y-39047618D01*
X68285771Y-39047618D02*
X68285771Y-39238094D01*
X68285771Y-39238094D02*
X68333390Y-39333332D01*
X68333390Y-39333332D02*
X68381009Y-39380951D01*
X68381009Y-39380951D02*
X68476247Y-39428570D01*
X67904819Y-306559523D02*
X68619104Y-306559523D01*
X68619104Y-306559523D02*
X68761961Y-306607142D01*
X68761961Y-306607142D02*
X68857200Y-306702380D01*
X68857200Y-306702380D02*
X68904819Y-306845237D01*
X68904819Y-306845237D02*
X68904819Y-306940475D01*
X68238152Y-305654761D02*
X68904819Y-305654761D01*
X67857200Y-305892856D02*
X68571485Y-306130951D01*
X68571485Y-306130951D02*
X68571485Y-305511904D01*
X67904819Y-304702380D02*
X67904819Y-304892856D01*
X67904819Y-304892856D02*
X67952438Y-304988094D01*
X67952438Y-304988094D02*
X68000057Y-305035713D01*
X68000057Y-305035713D02*
X68142914Y-305130951D01*
X68142914Y-305130951D02*
X68333390Y-305178570D01*
X68333390Y-305178570D02*
X68714342Y-305178570D01*
X68714342Y-305178570D02*
X68809580Y-305130951D01*
X68809580Y-305130951D02*
X68857200Y-305083332D01*
X68857200Y-305083332D02*
X68904819Y-304988094D01*
X68904819Y-304988094D02*
X68904819Y-304797618D01*
X68904819Y-304797618D02*
X68857200Y-304702380D01*
X68857200Y-304702380D02*
X68809580Y-304654761D01*
X68809580Y-304654761D02*
X68714342Y-304607142D01*
X68714342Y-304607142D02*
X68476247Y-304607142D01*
X68476247Y-304607142D02*
X68381009Y-304654761D01*
X68381009Y-304654761D02*
X68333390Y-304702380D01*
X68333390Y-304702380D02*
X68285771Y-304797618D01*
X68285771Y-304797618D02*
X68285771Y-304988094D01*
X68285771Y-304988094D02*
X68333390Y-305083332D01*
X68333390Y-305083332D02*
X68381009Y-305130951D01*
X68381009Y-305130951D02*
X68476247Y-305178570D01*
X67904819Y-67309523D02*
X68619104Y-67309523D01*
X68619104Y-67309523D02*
X68761961Y-67357142D01*
X68761961Y-67357142D02*
X68857200Y-67452380D01*
X68857200Y-67452380D02*
X68904819Y-67595237D01*
X68904819Y-67595237D02*
X68904819Y-67690475D01*
X68904819Y-66309523D02*
X68904819Y-66880951D01*
X68904819Y-66595237D02*
X67904819Y-66595237D01*
X67904819Y-66595237D02*
X68047676Y-66690475D01*
X68047676Y-66690475D02*
X68142914Y-66785713D01*
X68142914Y-66785713D02*
X68190533Y-66880951D01*
X68333390Y-65738094D02*
X68285771Y-65833332D01*
X68285771Y-65833332D02*
X68238152Y-65880951D01*
X68238152Y-65880951D02*
X68142914Y-65928570D01*
X68142914Y-65928570D02*
X68095295Y-65928570D01*
X68095295Y-65928570D02*
X68000057Y-65880951D01*
X68000057Y-65880951D02*
X67952438Y-65833332D01*
X67952438Y-65833332D02*
X67904819Y-65738094D01*
X67904819Y-65738094D02*
X67904819Y-65547618D01*
X67904819Y-65547618D02*
X67952438Y-65452380D01*
X67952438Y-65452380D02*
X68000057Y-65404761D01*
X68000057Y-65404761D02*
X68095295Y-65357142D01*
X68095295Y-65357142D02*
X68142914Y-65357142D01*
X68142914Y-65357142D02*
X68238152Y-65404761D01*
X68238152Y-65404761D02*
X68285771Y-65452380D01*
X68285771Y-65452380D02*
X68333390Y-65547618D01*
X68333390Y-65547618D02*
X68333390Y-65738094D01*
X68333390Y-65738094D02*
X68381009Y-65833332D01*
X68381009Y-65833332D02*
X68428628Y-65880951D01*
X68428628Y-65880951D02*
X68523866Y-65928570D01*
X68523866Y-65928570D02*
X68714342Y-65928570D01*
X68714342Y-65928570D02*
X68809580Y-65880951D01*
X68809580Y-65880951D02*
X68857200Y-65833332D01*
X68857200Y-65833332D02*
X68904819Y-65738094D01*
X68904819Y-65738094D02*
X68904819Y-65547618D01*
X68904819Y-65547618D02*
X68857200Y-65452380D01*
X68857200Y-65452380D02*
X68809580Y-65404761D01*
X68809580Y-65404761D02*
X68714342Y-65357142D01*
X68714342Y-65357142D02*
X68523866Y-65357142D01*
X68523866Y-65357142D02*
X68428628Y-65404761D01*
X68428628Y-65404761D02*
X68381009Y-65452380D01*
X68381009Y-65452380D02*
X68333390Y-65547618D01*
X62690476Y-142624819D02*
X62690476Y-143339104D01*
X62690476Y-143339104D02*
X62642857Y-143481961D01*
X62642857Y-143481961D02*
X62547619Y-143577200D01*
X62547619Y-143577200D02*
X62404762Y-143624819D01*
X62404762Y-143624819D02*
X62309524Y-143624819D01*
X63690476Y-143624819D02*
X63119048Y-143624819D01*
X63404762Y-143624819D02*
X63404762Y-142624819D01*
X63404762Y-142624819D02*
X63309524Y-142767676D01*
X63309524Y-142767676D02*
X63214286Y-142862914D01*
X63214286Y-142862914D02*
X63119048Y-142910533D01*
X64071429Y-142720057D02*
X64119048Y-142672438D01*
X64119048Y-142672438D02*
X64214286Y-142624819D01*
X64214286Y-142624819D02*
X64452381Y-142624819D01*
X64452381Y-142624819D02*
X64547619Y-142672438D01*
X64547619Y-142672438D02*
X64595238Y-142720057D01*
X64595238Y-142720057D02*
X64642857Y-142815295D01*
X64642857Y-142815295D02*
X64642857Y-142910533D01*
X64642857Y-142910533D02*
X64595238Y-143053390D01*
X64595238Y-143053390D02*
X64023810Y-143624819D01*
X64023810Y-143624819D02*
X64642857Y-143624819D01*
X67954819Y-80059523D02*
X68669104Y-80059523D01*
X68669104Y-80059523D02*
X68811961Y-80107142D01*
X68811961Y-80107142D02*
X68907200Y-80202380D01*
X68907200Y-80202380D02*
X68954819Y-80345237D01*
X68954819Y-80345237D02*
X68954819Y-80440475D01*
X68954819Y-79059523D02*
X68954819Y-79630951D01*
X68954819Y-79345237D02*
X67954819Y-79345237D01*
X67954819Y-79345237D02*
X68097676Y-79440475D01*
X68097676Y-79440475D02*
X68192914Y-79535713D01*
X68192914Y-79535713D02*
X68240533Y-79630951D01*
X68954819Y-78583332D02*
X68954819Y-78392856D01*
X68954819Y-78392856D02*
X68907200Y-78297618D01*
X68907200Y-78297618D02*
X68859580Y-78249999D01*
X68859580Y-78249999D02*
X68716723Y-78154761D01*
X68716723Y-78154761D02*
X68526247Y-78107142D01*
X68526247Y-78107142D02*
X68145295Y-78107142D01*
X68145295Y-78107142D02*
X68050057Y-78154761D01*
X68050057Y-78154761D02*
X68002438Y-78202380D01*
X68002438Y-78202380D02*
X67954819Y-78297618D01*
X67954819Y-78297618D02*
X67954819Y-78488094D01*
X67954819Y-78488094D02*
X68002438Y-78583332D01*
X68002438Y-78583332D02*
X68050057Y-78630951D01*
X68050057Y-78630951D02*
X68145295Y-78678570D01*
X68145295Y-78678570D02*
X68383390Y-78678570D01*
X68383390Y-78678570D02*
X68478628Y-78630951D01*
X68478628Y-78630951D02*
X68526247Y-78583332D01*
X68526247Y-78583332D02*
X68573866Y-78488094D01*
X68573866Y-78488094D02*
X68573866Y-78297618D01*
X68573866Y-78297618D02*
X68526247Y-78202380D01*
X68526247Y-78202380D02*
X68478628Y-78154761D01*
X68478628Y-78154761D02*
X68383390Y-78107142D01*
X67904819Y-27333333D02*
X68619104Y-27333333D01*
X68619104Y-27333333D02*
X68761961Y-27380952D01*
X68761961Y-27380952D02*
X68857200Y-27476190D01*
X68857200Y-27476190D02*
X68904819Y-27619047D01*
X68904819Y-27619047D02*
X68904819Y-27714285D01*
X68000057Y-26904761D02*
X67952438Y-26857142D01*
X67952438Y-26857142D02*
X67904819Y-26761904D01*
X67904819Y-26761904D02*
X67904819Y-26523809D01*
X67904819Y-26523809D02*
X67952438Y-26428571D01*
X67952438Y-26428571D02*
X68000057Y-26380952D01*
X68000057Y-26380952D02*
X68095295Y-26333333D01*
X68095295Y-26333333D02*
X68190533Y-26333333D01*
X68190533Y-26333333D02*
X68333390Y-26380952D01*
X68333390Y-26380952D02*
X68904819Y-26952380D01*
X68904819Y-26952380D02*
X68904819Y-26333333D01*
X63141666Y-63574819D02*
X63141666Y-64289104D01*
X63141666Y-64289104D02*
X63094047Y-64431961D01*
X63094047Y-64431961D02*
X62998809Y-64527200D01*
X62998809Y-64527200D02*
X62855952Y-64574819D01*
X62855952Y-64574819D02*
X62760714Y-64574819D01*
X64046428Y-63574819D02*
X63855952Y-63574819D01*
X63855952Y-63574819D02*
X63760714Y-63622438D01*
X63760714Y-63622438D02*
X63713095Y-63670057D01*
X63713095Y-63670057D02*
X63617857Y-63812914D01*
X63617857Y-63812914D02*
X63570238Y-64003390D01*
X63570238Y-64003390D02*
X63570238Y-64384342D01*
X63570238Y-64384342D02*
X63617857Y-64479580D01*
X63617857Y-64479580D02*
X63665476Y-64527200D01*
X63665476Y-64527200D02*
X63760714Y-64574819D01*
X63760714Y-64574819D02*
X63951190Y-64574819D01*
X63951190Y-64574819D02*
X64046428Y-64527200D01*
X64046428Y-64527200D02*
X64094047Y-64479580D01*
X64094047Y-64479580D02*
X64141666Y-64384342D01*
X64141666Y-64384342D02*
X64141666Y-64146247D01*
X64141666Y-64146247D02*
X64094047Y-64051009D01*
X64094047Y-64051009D02*
X64046428Y-64003390D01*
X64046428Y-64003390D02*
X63951190Y-63955771D01*
X63951190Y-63955771D02*
X63760714Y-63955771D01*
X63760714Y-63955771D02*
X63665476Y-64003390D01*
X63665476Y-64003390D02*
X63617857Y-64051009D01*
X63617857Y-64051009D02*
X63570238Y-64146247D01*
X67904819Y-241809523D02*
X68619104Y-241809523D01*
X68619104Y-241809523D02*
X68761961Y-241857142D01*
X68761961Y-241857142D02*
X68857200Y-241952380D01*
X68857200Y-241952380D02*
X68904819Y-242095237D01*
X68904819Y-242095237D02*
X68904819Y-242190475D01*
X68238152Y-240904761D02*
X68904819Y-240904761D01*
X67857200Y-241142856D02*
X68571485Y-241380951D01*
X68571485Y-241380951D02*
X68571485Y-240761904D01*
X68904819Y-239857142D02*
X68904819Y-240428570D01*
X68904819Y-240142856D02*
X67904819Y-240142856D01*
X67904819Y-240142856D02*
X68047676Y-240238094D01*
X68047676Y-240238094D02*
X68142914Y-240333332D01*
X68142914Y-240333332D02*
X68190533Y-240428570D01*
X67904819Y-106559523D02*
X68619104Y-106559523D01*
X68619104Y-106559523D02*
X68761961Y-106607142D01*
X68761961Y-106607142D02*
X68857200Y-106702380D01*
X68857200Y-106702380D02*
X68904819Y-106845237D01*
X68904819Y-106845237D02*
X68904819Y-106940475D01*
X68000057Y-106130951D02*
X67952438Y-106083332D01*
X67952438Y-106083332D02*
X67904819Y-105988094D01*
X67904819Y-105988094D02*
X67904819Y-105749999D01*
X67904819Y-105749999D02*
X67952438Y-105654761D01*
X67952438Y-105654761D02*
X68000057Y-105607142D01*
X68000057Y-105607142D02*
X68095295Y-105559523D01*
X68095295Y-105559523D02*
X68190533Y-105559523D01*
X68190533Y-105559523D02*
X68333390Y-105607142D01*
X68333390Y-105607142D02*
X68904819Y-106178570D01*
X68904819Y-106178570D02*
X68904819Y-105559523D01*
X68904819Y-104607142D02*
X68904819Y-105178570D01*
X68904819Y-104892856D02*
X67904819Y-104892856D01*
X67904819Y-104892856D02*
X68047676Y-104988094D01*
X68047676Y-104988094D02*
X68142914Y-105083332D01*
X68142914Y-105083332D02*
X68190533Y-105178570D01*
X67904819Y-54059523D02*
X68619104Y-54059523D01*
X68619104Y-54059523D02*
X68761961Y-54107142D01*
X68761961Y-54107142D02*
X68857200Y-54202380D01*
X68857200Y-54202380D02*
X68904819Y-54345237D01*
X68904819Y-54345237D02*
X68904819Y-54440475D01*
X68904819Y-53059523D02*
X68904819Y-53630951D01*
X68904819Y-53345237D02*
X67904819Y-53345237D01*
X67904819Y-53345237D02*
X68047676Y-53440475D01*
X68047676Y-53440475D02*
X68142914Y-53535713D01*
X68142914Y-53535713D02*
X68190533Y-53630951D01*
X67904819Y-52726189D02*
X67904819Y-52059523D01*
X67904819Y-52059523D02*
X68904819Y-52488094D01*
X63166666Y-76374819D02*
X63166666Y-77089104D01*
X63166666Y-77089104D02*
X63119047Y-77231961D01*
X63119047Y-77231961D02*
X63023809Y-77327200D01*
X63023809Y-77327200D02*
X62880952Y-77374819D01*
X62880952Y-77374819D02*
X62785714Y-77374819D01*
X63547619Y-76374819D02*
X64214285Y-76374819D01*
X64214285Y-76374819D02*
X63785714Y-77374819D01*
X63166666Y-50724819D02*
X63166666Y-51439104D01*
X63166666Y-51439104D02*
X63119047Y-51581961D01*
X63119047Y-51581961D02*
X63023809Y-51677200D01*
X63023809Y-51677200D02*
X62880952Y-51724819D01*
X62880952Y-51724819D02*
X62785714Y-51724819D01*
X64119047Y-50724819D02*
X63642857Y-50724819D01*
X63642857Y-50724819D02*
X63595238Y-51201009D01*
X63595238Y-51201009D02*
X63642857Y-51153390D01*
X63642857Y-51153390D02*
X63738095Y-51105771D01*
X63738095Y-51105771D02*
X63976190Y-51105771D01*
X63976190Y-51105771D02*
X64071428Y-51153390D01*
X64071428Y-51153390D02*
X64119047Y-51201009D01*
X64119047Y-51201009D02*
X64166666Y-51296247D01*
X64166666Y-51296247D02*
X64166666Y-51534342D01*
X64166666Y-51534342D02*
X64119047Y-51629580D01*
X64119047Y-51629580D02*
X64071428Y-51677200D01*
X64071428Y-51677200D02*
X63976190Y-51724819D01*
X63976190Y-51724819D02*
X63738095Y-51724819D01*
X63738095Y-51724819D02*
X63642857Y-51677200D01*
X63642857Y-51677200D02*
X63595238Y-51629580D01*
X67904819Y-120309523D02*
X68619104Y-120309523D01*
X68619104Y-120309523D02*
X68761961Y-120357142D01*
X68761961Y-120357142D02*
X68857200Y-120452380D01*
X68857200Y-120452380D02*
X68904819Y-120595237D01*
X68904819Y-120595237D02*
X68904819Y-120690475D01*
X68000057Y-119880951D02*
X67952438Y-119833332D01*
X67952438Y-119833332D02*
X67904819Y-119738094D01*
X67904819Y-119738094D02*
X67904819Y-119499999D01*
X67904819Y-119499999D02*
X67952438Y-119404761D01*
X67952438Y-119404761D02*
X68000057Y-119357142D01*
X68000057Y-119357142D02*
X68095295Y-119309523D01*
X68095295Y-119309523D02*
X68190533Y-119309523D01*
X68190533Y-119309523D02*
X68333390Y-119357142D01*
X68333390Y-119357142D02*
X68904819Y-119928570D01*
X68904819Y-119928570D02*
X68904819Y-119309523D01*
X68000057Y-118928570D02*
X67952438Y-118880951D01*
X67952438Y-118880951D02*
X67904819Y-118785713D01*
X67904819Y-118785713D02*
X67904819Y-118547618D01*
X67904819Y-118547618D02*
X67952438Y-118452380D01*
X67952438Y-118452380D02*
X68000057Y-118404761D01*
X68000057Y-118404761D02*
X68095295Y-118357142D01*
X68095295Y-118357142D02*
X68190533Y-118357142D01*
X68190533Y-118357142D02*
X68333390Y-118404761D01*
X68333390Y-118404761D02*
X68904819Y-118976189D01*
X68904819Y-118976189D02*
X68904819Y-118357142D01*
X63166666Y-89474819D02*
X63166666Y-90189104D01*
X63166666Y-90189104D02*
X63119047Y-90331961D01*
X63119047Y-90331961D02*
X63023809Y-90427200D01*
X63023809Y-90427200D02*
X62880952Y-90474819D01*
X62880952Y-90474819D02*
X62785714Y-90474819D01*
X63785714Y-89903390D02*
X63690476Y-89855771D01*
X63690476Y-89855771D02*
X63642857Y-89808152D01*
X63642857Y-89808152D02*
X63595238Y-89712914D01*
X63595238Y-89712914D02*
X63595238Y-89665295D01*
X63595238Y-89665295D02*
X63642857Y-89570057D01*
X63642857Y-89570057D02*
X63690476Y-89522438D01*
X63690476Y-89522438D02*
X63785714Y-89474819D01*
X63785714Y-89474819D02*
X63976190Y-89474819D01*
X63976190Y-89474819D02*
X64071428Y-89522438D01*
X64071428Y-89522438D02*
X64119047Y-89570057D01*
X64119047Y-89570057D02*
X64166666Y-89665295D01*
X64166666Y-89665295D02*
X64166666Y-89712914D01*
X64166666Y-89712914D02*
X64119047Y-89808152D01*
X64119047Y-89808152D02*
X64071428Y-89855771D01*
X64071428Y-89855771D02*
X63976190Y-89903390D01*
X63976190Y-89903390D02*
X63785714Y-89903390D01*
X63785714Y-89903390D02*
X63690476Y-89951009D01*
X63690476Y-89951009D02*
X63642857Y-89998628D01*
X63642857Y-89998628D02*
X63595238Y-90093866D01*
X63595238Y-90093866D02*
X63595238Y-90284342D01*
X63595238Y-90284342D02*
X63642857Y-90379580D01*
X63642857Y-90379580D02*
X63690476Y-90427200D01*
X63690476Y-90427200D02*
X63785714Y-90474819D01*
X63785714Y-90474819D02*
X63976190Y-90474819D01*
X63976190Y-90474819D02*
X64071428Y-90427200D01*
X64071428Y-90427200D02*
X64119047Y-90379580D01*
X64119047Y-90379580D02*
X64166666Y-90284342D01*
X64166666Y-90284342D02*
X64166666Y-90093866D01*
X64166666Y-90093866D02*
X64119047Y-89998628D01*
X64119047Y-89998628D02*
X64071428Y-89951009D01*
X64071428Y-89951009D02*
X63976190Y-89903390D01*
X63166666Y-24124819D02*
X63166666Y-24839104D01*
X63166666Y-24839104D02*
X63119047Y-24981961D01*
X63119047Y-24981961D02*
X63023809Y-25077200D01*
X63023809Y-25077200D02*
X62880952Y-25124819D01*
X62880952Y-25124819D02*
X62785714Y-25124819D01*
X63547619Y-24124819D02*
X64166666Y-24124819D01*
X64166666Y-24124819D02*
X63833333Y-24505771D01*
X63833333Y-24505771D02*
X63976190Y-24505771D01*
X63976190Y-24505771D02*
X64071428Y-24553390D01*
X64071428Y-24553390D02*
X64119047Y-24601009D01*
X64119047Y-24601009D02*
X64166666Y-24696247D01*
X64166666Y-24696247D02*
X64166666Y-24934342D01*
X64166666Y-24934342D02*
X64119047Y-25029580D01*
X64119047Y-25029580D02*
X64071428Y-25077200D01*
X64071428Y-25077200D02*
X63976190Y-25124819D01*
X63976190Y-25124819D02*
X63690476Y-25124819D01*
X63690476Y-25124819D02*
X63595238Y-25077200D01*
X63595238Y-25077200D02*
X63547619Y-25029580D01*
X67904819Y-173059523D02*
X68619104Y-173059523D01*
X68619104Y-173059523D02*
X68761961Y-173107142D01*
X68761961Y-173107142D02*
X68857200Y-173202380D01*
X68857200Y-173202380D02*
X68904819Y-173345237D01*
X68904819Y-173345237D02*
X68904819Y-173440475D01*
X68000057Y-172630951D02*
X67952438Y-172583332D01*
X67952438Y-172583332D02*
X67904819Y-172488094D01*
X67904819Y-172488094D02*
X67904819Y-172249999D01*
X67904819Y-172249999D02*
X67952438Y-172154761D01*
X67952438Y-172154761D02*
X68000057Y-172107142D01*
X68000057Y-172107142D02*
X68095295Y-172059523D01*
X68095295Y-172059523D02*
X68190533Y-172059523D01*
X68190533Y-172059523D02*
X68333390Y-172107142D01*
X68333390Y-172107142D02*
X68904819Y-172678570D01*
X68904819Y-172678570D02*
X68904819Y-172059523D01*
X67904819Y-171202380D02*
X67904819Y-171392856D01*
X67904819Y-171392856D02*
X67952438Y-171488094D01*
X67952438Y-171488094D02*
X68000057Y-171535713D01*
X68000057Y-171535713D02*
X68142914Y-171630951D01*
X68142914Y-171630951D02*
X68333390Y-171678570D01*
X68333390Y-171678570D02*
X68714342Y-171678570D01*
X68714342Y-171678570D02*
X68809580Y-171630951D01*
X68809580Y-171630951D02*
X68857200Y-171583332D01*
X68857200Y-171583332D02*
X68904819Y-171488094D01*
X68904819Y-171488094D02*
X68904819Y-171297618D01*
X68904819Y-171297618D02*
X68857200Y-171202380D01*
X68857200Y-171202380D02*
X68809580Y-171154761D01*
X68809580Y-171154761D02*
X68714342Y-171107142D01*
X68714342Y-171107142D02*
X68476247Y-171107142D01*
X68476247Y-171107142D02*
X68381009Y-171154761D01*
X68381009Y-171154761D02*
X68333390Y-171202380D01*
X68333390Y-171202380D02*
X68285771Y-171297618D01*
X68285771Y-171297618D02*
X68285771Y-171488094D01*
X68285771Y-171488094D02*
X68333390Y-171583332D01*
X68333390Y-171583332D02*
X68381009Y-171630951D01*
X68381009Y-171630951D02*
X68476247Y-171678570D01*
X62690476Y-203784819D02*
X62690476Y-204499104D01*
X62690476Y-204499104D02*
X62642857Y-204641961D01*
X62642857Y-204641961D02*
X62547619Y-204737200D01*
X62547619Y-204737200D02*
X62404762Y-204784819D01*
X62404762Y-204784819D02*
X62309524Y-204784819D01*
X63119048Y-203880057D02*
X63166667Y-203832438D01*
X63166667Y-203832438D02*
X63261905Y-203784819D01*
X63261905Y-203784819D02*
X63500000Y-203784819D01*
X63500000Y-203784819D02*
X63595238Y-203832438D01*
X63595238Y-203832438D02*
X63642857Y-203880057D01*
X63642857Y-203880057D02*
X63690476Y-203975295D01*
X63690476Y-203975295D02*
X63690476Y-204070533D01*
X63690476Y-204070533D02*
X63642857Y-204213390D01*
X63642857Y-204213390D02*
X63071429Y-204784819D01*
X63071429Y-204784819D02*
X63690476Y-204784819D01*
X64261905Y-204213390D02*
X64166667Y-204165771D01*
X64166667Y-204165771D02*
X64119048Y-204118152D01*
X64119048Y-204118152D02*
X64071429Y-204022914D01*
X64071429Y-204022914D02*
X64071429Y-203975295D01*
X64071429Y-203975295D02*
X64119048Y-203880057D01*
X64119048Y-203880057D02*
X64166667Y-203832438D01*
X64166667Y-203832438D02*
X64261905Y-203784819D01*
X64261905Y-203784819D02*
X64452381Y-203784819D01*
X64452381Y-203784819D02*
X64547619Y-203832438D01*
X64547619Y-203832438D02*
X64595238Y-203880057D01*
X64595238Y-203880057D02*
X64642857Y-203975295D01*
X64642857Y-203975295D02*
X64642857Y-204022914D01*
X64642857Y-204022914D02*
X64595238Y-204118152D01*
X64595238Y-204118152D02*
X64547619Y-204165771D01*
X64547619Y-204165771D02*
X64452381Y-204213390D01*
X64452381Y-204213390D02*
X64261905Y-204213390D01*
X64261905Y-204213390D02*
X64166667Y-204261009D01*
X64166667Y-204261009D02*
X64119048Y-204308628D01*
X64119048Y-204308628D02*
X64071429Y-204403866D01*
X64071429Y-204403866D02*
X64071429Y-204594342D01*
X64071429Y-204594342D02*
X64119048Y-204689580D01*
X64119048Y-204689580D02*
X64166667Y-204737200D01*
X64166667Y-204737200D02*
X64261905Y-204784819D01*
X64261905Y-204784819D02*
X64452381Y-204784819D01*
X64452381Y-204784819D02*
X64547619Y-204737200D01*
X64547619Y-204737200D02*
X64595238Y-204689580D01*
X64595238Y-204689580D02*
X64642857Y-204594342D01*
X64642857Y-204594342D02*
X64642857Y-204403866D01*
X64642857Y-204403866D02*
X64595238Y-204308628D01*
X64595238Y-204308628D02*
X64547619Y-204261009D01*
X64547619Y-204261009D02*
X64452381Y-204213390D01*
X67904819Y-160059523D02*
X68619104Y-160059523D01*
X68619104Y-160059523D02*
X68761961Y-160107142D01*
X68761961Y-160107142D02*
X68857200Y-160202380D01*
X68857200Y-160202380D02*
X68904819Y-160345237D01*
X68904819Y-160345237D02*
X68904819Y-160440475D01*
X68000057Y-159630951D02*
X67952438Y-159583332D01*
X67952438Y-159583332D02*
X67904819Y-159488094D01*
X67904819Y-159488094D02*
X67904819Y-159249999D01*
X67904819Y-159249999D02*
X67952438Y-159154761D01*
X67952438Y-159154761D02*
X68000057Y-159107142D01*
X68000057Y-159107142D02*
X68095295Y-159059523D01*
X68095295Y-159059523D02*
X68190533Y-159059523D01*
X68190533Y-159059523D02*
X68333390Y-159107142D01*
X68333390Y-159107142D02*
X68904819Y-159678570D01*
X68904819Y-159678570D02*
X68904819Y-159059523D01*
X67904819Y-158154761D02*
X67904819Y-158630951D01*
X67904819Y-158630951D02*
X68381009Y-158678570D01*
X68381009Y-158678570D02*
X68333390Y-158630951D01*
X68333390Y-158630951D02*
X68285771Y-158535713D01*
X68285771Y-158535713D02*
X68285771Y-158297618D01*
X68285771Y-158297618D02*
X68333390Y-158202380D01*
X68333390Y-158202380D02*
X68381009Y-158154761D01*
X68381009Y-158154761D02*
X68476247Y-158107142D01*
X68476247Y-158107142D02*
X68714342Y-158107142D01*
X68714342Y-158107142D02*
X68809580Y-158154761D01*
X68809580Y-158154761D02*
X68857200Y-158202380D01*
X68857200Y-158202380D02*
X68904819Y-158297618D01*
X68904819Y-158297618D02*
X68904819Y-158535713D01*
X68904819Y-158535713D02*
X68857200Y-158630951D01*
X68857200Y-158630951D02*
X68809580Y-158678570D01*
X67904819Y-293809523D02*
X68619104Y-293809523D01*
X68619104Y-293809523D02*
X68761961Y-293857142D01*
X68761961Y-293857142D02*
X68857200Y-293952380D01*
X68857200Y-293952380D02*
X68904819Y-294095237D01*
X68904819Y-294095237D02*
X68904819Y-294190475D01*
X68238152Y-292904761D02*
X68904819Y-292904761D01*
X67857200Y-293142856D02*
X68571485Y-293380951D01*
X68571485Y-293380951D02*
X68571485Y-292761904D01*
X67904819Y-291904761D02*
X67904819Y-292380951D01*
X67904819Y-292380951D02*
X68381009Y-292428570D01*
X68381009Y-292428570D02*
X68333390Y-292380951D01*
X68333390Y-292380951D02*
X68285771Y-292285713D01*
X68285771Y-292285713D02*
X68285771Y-292047618D01*
X68285771Y-292047618D02*
X68333390Y-291952380D01*
X68333390Y-291952380D02*
X68381009Y-291904761D01*
X68381009Y-291904761D02*
X68476247Y-291857142D01*
X68476247Y-291857142D02*
X68714342Y-291857142D01*
X68714342Y-291857142D02*
X68809580Y-291904761D01*
X68809580Y-291904761D02*
X68857200Y-291952380D01*
X68857200Y-291952380D02*
X68904819Y-292047618D01*
X68904819Y-292047618D02*
X68904819Y-292285713D01*
X68904819Y-292285713D02*
X68857200Y-292380951D01*
X68857200Y-292380951D02*
X68809580Y-292428570D01*
X67904819Y-202809523D02*
X68619104Y-202809523D01*
X68619104Y-202809523D02*
X68761961Y-202857142D01*
X68761961Y-202857142D02*
X68857200Y-202952380D01*
X68857200Y-202952380D02*
X68904819Y-203095237D01*
X68904819Y-203095237D02*
X68904819Y-203190475D01*
X67904819Y-202428570D02*
X67904819Y-201809523D01*
X67904819Y-201809523D02*
X68285771Y-202142856D01*
X68285771Y-202142856D02*
X68285771Y-201999999D01*
X68285771Y-201999999D02*
X68333390Y-201904761D01*
X68333390Y-201904761D02*
X68381009Y-201857142D01*
X68381009Y-201857142D02*
X68476247Y-201809523D01*
X68476247Y-201809523D02*
X68714342Y-201809523D01*
X68714342Y-201809523D02*
X68809580Y-201857142D01*
X68809580Y-201857142D02*
X68857200Y-201904761D01*
X68857200Y-201904761D02*
X68904819Y-201999999D01*
X68904819Y-201999999D02*
X68904819Y-202285713D01*
X68904819Y-202285713D02*
X68857200Y-202380951D01*
X68857200Y-202380951D02*
X68809580Y-202428570D01*
X68333390Y-201238094D02*
X68285771Y-201333332D01*
X68285771Y-201333332D02*
X68238152Y-201380951D01*
X68238152Y-201380951D02*
X68142914Y-201428570D01*
X68142914Y-201428570D02*
X68095295Y-201428570D01*
X68095295Y-201428570D02*
X68000057Y-201380951D01*
X68000057Y-201380951D02*
X67952438Y-201333332D01*
X67952438Y-201333332D02*
X67904819Y-201238094D01*
X67904819Y-201238094D02*
X67904819Y-201047618D01*
X67904819Y-201047618D02*
X67952438Y-200952380D01*
X67952438Y-200952380D02*
X68000057Y-200904761D01*
X68000057Y-200904761D02*
X68095295Y-200857142D01*
X68095295Y-200857142D02*
X68142914Y-200857142D01*
X68142914Y-200857142D02*
X68238152Y-200904761D01*
X68238152Y-200904761D02*
X68285771Y-200952380D01*
X68285771Y-200952380D02*
X68333390Y-201047618D01*
X68333390Y-201047618D02*
X68333390Y-201238094D01*
X68333390Y-201238094D02*
X68381009Y-201333332D01*
X68381009Y-201333332D02*
X68428628Y-201380951D01*
X68428628Y-201380951D02*
X68523866Y-201428570D01*
X68523866Y-201428570D02*
X68714342Y-201428570D01*
X68714342Y-201428570D02*
X68809580Y-201380951D01*
X68809580Y-201380951D02*
X68857200Y-201333332D01*
X68857200Y-201333332D02*
X68904819Y-201238094D01*
X68904819Y-201238094D02*
X68904819Y-201047618D01*
X68904819Y-201047618D02*
X68857200Y-200952380D01*
X68857200Y-200952380D02*
X68809580Y-200904761D01*
X68809580Y-200904761D02*
X68714342Y-200857142D01*
X68714342Y-200857142D02*
X68523866Y-200857142D01*
X68523866Y-200857142D02*
X68428628Y-200904761D01*
X68428628Y-200904761D02*
X68381009Y-200952380D01*
X68381009Y-200952380D02*
X68333390Y-201047618D01*
X62690476Y-217034819D02*
X62690476Y-217749104D01*
X62690476Y-217749104D02*
X62642857Y-217891961D01*
X62642857Y-217891961D02*
X62547619Y-217987200D01*
X62547619Y-217987200D02*
X62404762Y-218034819D01*
X62404762Y-218034819D02*
X62309524Y-218034819D01*
X63119048Y-217130057D02*
X63166667Y-217082438D01*
X63166667Y-217082438D02*
X63261905Y-217034819D01*
X63261905Y-217034819D02*
X63500000Y-217034819D01*
X63500000Y-217034819D02*
X63595238Y-217082438D01*
X63595238Y-217082438D02*
X63642857Y-217130057D01*
X63642857Y-217130057D02*
X63690476Y-217225295D01*
X63690476Y-217225295D02*
X63690476Y-217320533D01*
X63690476Y-217320533D02*
X63642857Y-217463390D01*
X63642857Y-217463390D02*
X63071429Y-218034819D01*
X63071429Y-218034819D02*
X63690476Y-218034819D01*
X64166667Y-218034819D02*
X64357143Y-218034819D01*
X64357143Y-218034819D02*
X64452381Y-217987200D01*
X64452381Y-217987200D02*
X64500000Y-217939580D01*
X64500000Y-217939580D02*
X64595238Y-217796723D01*
X64595238Y-217796723D02*
X64642857Y-217606247D01*
X64642857Y-217606247D02*
X64642857Y-217225295D01*
X64642857Y-217225295D02*
X64595238Y-217130057D01*
X64595238Y-217130057D02*
X64547619Y-217082438D01*
X64547619Y-217082438D02*
X64452381Y-217034819D01*
X64452381Y-217034819D02*
X64261905Y-217034819D01*
X64261905Y-217034819D02*
X64166667Y-217082438D01*
X64166667Y-217082438D02*
X64119048Y-217130057D01*
X64119048Y-217130057D02*
X64071429Y-217225295D01*
X64071429Y-217225295D02*
X64071429Y-217463390D01*
X64071429Y-217463390D02*
X64119048Y-217558628D01*
X64119048Y-217558628D02*
X64166667Y-217606247D01*
X64166667Y-217606247D02*
X64261905Y-217653866D01*
X64261905Y-217653866D02*
X64452381Y-217653866D01*
X64452381Y-217653866D02*
X64547619Y-217606247D01*
X64547619Y-217606247D02*
X64595238Y-217558628D01*
X64595238Y-217558628D02*
X64642857Y-217463390D01*
X62690476Y-255784819D02*
X62690476Y-256499104D01*
X62690476Y-256499104D02*
X62642857Y-256641961D01*
X62642857Y-256641961D02*
X62547619Y-256737200D01*
X62547619Y-256737200D02*
X62404762Y-256784819D01*
X62404762Y-256784819D02*
X62309524Y-256784819D01*
X63071429Y-255784819D02*
X63690476Y-255784819D01*
X63690476Y-255784819D02*
X63357143Y-256165771D01*
X63357143Y-256165771D02*
X63500000Y-256165771D01*
X63500000Y-256165771D02*
X63595238Y-256213390D01*
X63595238Y-256213390D02*
X63642857Y-256261009D01*
X63642857Y-256261009D02*
X63690476Y-256356247D01*
X63690476Y-256356247D02*
X63690476Y-256594342D01*
X63690476Y-256594342D02*
X63642857Y-256689580D01*
X63642857Y-256689580D02*
X63595238Y-256737200D01*
X63595238Y-256737200D02*
X63500000Y-256784819D01*
X63500000Y-256784819D02*
X63214286Y-256784819D01*
X63214286Y-256784819D02*
X63119048Y-256737200D01*
X63119048Y-256737200D02*
X63071429Y-256689580D01*
X64071429Y-255880057D02*
X64119048Y-255832438D01*
X64119048Y-255832438D02*
X64214286Y-255784819D01*
X64214286Y-255784819D02*
X64452381Y-255784819D01*
X64452381Y-255784819D02*
X64547619Y-255832438D01*
X64547619Y-255832438D02*
X64595238Y-255880057D01*
X64595238Y-255880057D02*
X64642857Y-255975295D01*
X64642857Y-255975295D02*
X64642857Y-256070533D01*
X64642857Y-256070533D02*
X64595238Y-256213390D01*
X64595238Y-256213390D02*
X64023810Y-256784819D01*
X64023810Y-256784819D02*
X64642857Y-256784819D01*
X67904819Y-216059523D02*
X68619104Y-216059523D01*
X68619104Y-216059523D02*
X68761961Y-216107142D01*
X68761961Y-216107142D02*
X68857200Y-216202380D01*
X68857200Y-216202380D02*
X68904819Y-216345237D01*
X68904819Y-216345237D02*
X68904819Y-216440475D01*
X67904819Y-215678570D02*
X67904819Y-215059523D01*
X67904819Y-215059523D02*
X68285771Y-215392856D01*
X68285771Y-215392856D02*
X68285771Y-215249999D01*
X68285771Y-215249999D02*
X68333390Y-215154761D01*
X68333390Y-215154761D02*
X68381009Y-215107142D01*
X68381009Y-215107142D02*
X68476247Y-215059523D01*
X68476247Y-215059523D02*
X68714342Y-215059523D01*
X68714342Y-215059523D02*
X68809580Y-215107142D01*
X68809580Y-215107142D02*
X68857200Y-215154761D01*
X68857200Y-215154761D02*
X68904819Y-215249999D01*
X68904819Y-215249999D02*
X68904819Y-215535713D01*
X68904819Y-215535713D02*
X68857200Y-215630951D01*
X68857200Y-215630951D02*
X68809580Y-215678570D01*
X68904819Y-214583332D02*
X68904819Y-214392856D01*
X68904819Y-214392856D02*
X68857200Y-214297618D01*
X68857200Y-214297618D02*
X68809580Y-214249999D01*
X68809580Y-214249999D02*
X68666723Y-214154761D01*
X68666723Y-214154761D02*
X68476247Y-214107142D01*
X68476247Y-214107142D02*
X68095295Y-214107142D01*
X68095295Y-214107142D02*
X68000057Y-214154761D01*
X68000057Y-214154761D02*
X67952438Y-214202380D01*
X67952438Y-214202380D02*
X67904819Y-214297618D01*
X67904819Y-214297618D02*
X67904819Y-214488094D01*
X67904819Y-214488094D02*
X67952438Y-214583332D01*
X67952438Y-214583332D02*
X68000057Y-214630951D01*
X68000057Y-214630951D02*
X68095295Y-214678570D01*
X68095295Y-214678570D02*
X68333390Y-214678570D01*
X68333390Y-214678570D02*
X68428628Y-214630951D01*
X68428628Y-214630951D02*
X68476247Y-214583332D01*
X68476247Y-214583332D02*
X68523866Y-214488094D01*
X68523866Y-214488094D02*
X68523866Y-214297618D01*
X68523866Y-214297618D02*
X68476247Y-214202380D01*
X68476247Y-214202380D02*
X68428628Y-214154761D01*
X68428628Y-214154761D02*
X68333390Y-214107142D01*
X62690476Y-294784819D02*
X62690476Y-295499104D01*
X62690476Y-295499104D02*
X62642857Y-295641961D01*
X62642857Y-295641961D02*
X62547619Y-295737200D01*
X62547619Y-295737200D02*
X62404762Y-295784819D01*
X62404762Y-295784819D02*
X62309524Y-295784819D01*
X63071429Y-294784819D02*
X63690476Y-294784819D01*
X63690476Y-294784819D02*
X63357143Y-295165771D01*
X63357143Y-295165771D02*
X63500000Y-295165771D01*
X63500000Y-295165771D02*
X63595238Y-295213390D01*
X63595238Y-295213390D02*
X63642857Y-295261009D01*
X63642857Y-295261009D02*
X63690476Y-295356247D01*
X63690476Y-295356247D02*
X63690476Y-295594342D01*
X63690476Y-295594342D02*
X63642857Y-295689580D01*
X63642857Y-295689580D02*
X63595238Y-295737200D01*
X63595238Y-295737200D02*
X63500000Y-295784819D01*
X63500000Y-295784819D02*
X63214286Y-295784819D01*
X63214286Y-295784819D02*
X63119048Y-295737200D01*
X63119048Y-295737200D02*
X63071429Y-295689580D01*
X64595238Y-294784819D02*
X64119048Y-294784819D01*
X64119048Y-294784819D02*
X64071429Y-295261009D01*
X64071429Y-295261009D02*
X64119048Y-295213390D01*
X64119048Y-295213390D02*
X64214286Y-295165771D01*
X64214286Y-295165771D02*
X64452381Y-295165771D01*
X64452381Y-295165771D02*
X64547619Y-295213390D01*
X64547619Y-295213390D02*
X64595238Y-295261009D01*
X64595238Y-295261009D02*
X64642857Y-295356247D01*
X64642857Y-295356247D02*
X64642857Y-295594342D01*
X64642857Y-295594342D02*
X64595238Y-295689580D01*
X64595238Y-295689580D02*
X64547619Y-295737200D01*
X64547619Y-295737200D02*
X64452381Y-295784819D01*
X64452381Y-295784819D02*
X64214286Y-295784819D01*
X64214286Y-295784819D02*
X64119048Y-295737200D01*
X64119048Y-295737200D02*
X64071429Y-295689580D01*
X62690476Y-169374819D02*
X62690476Y-170089104D01*
X62690476Y-170089104D02*
X62642857Y-170231961D01*
X62642857Y-170231961D02*
X62547619Y-170327200D01*
X62547619Y-170327200D02*
X62404762Y-170374819D01*
X62404762Y-170374819D02*
X62309524Y-170374819D01*
X63690476Y-170374819D02*
X63119048Y-170374819D01*
X63404762Y-170374819D02*
X63404762Y-169374819D01*
X63404762Y-169374819D02*
X63309524Y-169517676D01*
X63309524Y-169517676D02*
X63214286Y-169612914D01*
X63214286Y-169612914D02*
X63119048Y-169660533D01*
X64547619Y-169708152D02*
X64547619Y-170374819D01*
X64309524Y-169327200D02*
X64071429Y-170041485D01*
X64071429Y-170041485D02*
X64690476Y-170041485D01*
X63166666Y-102874819D02*
X63166666Y-103589104D01*
X63166666Y-103589104D02*
X63119047Y-103731961D01*
X63119047Y-103731961D02*
X63023809Y-103827200D01*
X63023809Y-103827200D02*
X62880952Y-103874819D01*
X62880952Y-103874819D02*
X62785714Y-103874819D01*
X63690476Y-103874819D02*
X63880952Y-103874819D01*
X63880952Y-103874819D02*
X63976190Y-103827200D01*
X63976190Y-103827200D02*
X64023809Y-103779580D01*
X64023809Y-103779580D02*
X64119047Y-103636723D01*
X64119047Y-103636723D02*
X64166666Y-103446247D01*
X64166666Y-103446247D02*
X64166666Y-103065295D01*
X64166666Y-103065295D02*
X64119047Y-102970057D01*
X64119047Y-102970057D02*
X64071428Y-102922438D01*
X64071428Y-102922438D02*
X63976190Y-102874819D01*
X63976190Y-102874819D02*
X63785714Y-102874819D01*
X63785714Y-102874819D02*
X63690476Y-102922438D01*
X63690476Y-102922438D02*
X63642857Y-102970057D01*
X63642857Y-102970057D02*
X63595238Y-103065295D01*
X63595238Y-103065295D02*
X63595238Y-103303390D01*
X63595238Y-103303390D02*
X63642857Y-103398628D01*
X63642857Y-103398628D02*
X63690476Y-103446247D01*
X63690476Y-103446247D02*
X63785714Y-103493866D01*
X63785714Y-103493866D02*
X63976190Y-103493866D01*
X63976190Y-103493866D02*
X64071428Y-103446247D01*
X64071428Y-103446247D02*
X64119047Y-103398628D01*
X64119047Y-103398628D02*
X64166666Y-103303390D01*
X67904819Y-280559523D02*
X68619104Y-280559523D01*
X68619104Y-280559523D02*
X68761961Y-280607142D01*
X68761961Y-280607142D02*
X68857200Y-280702380D01*
X68857200Y-280702380D02*
X68904819Y-280845237D01*
X68904819Y-280845237D02*
X68904819Y-280940475D01*
X68238152Y-279654761D02*
X68904819Y-279654761D01*
X67857200Y-279892856D02*
X68571485Y-280130951D01*
X68571485Y-280130951D02*
X68571485Y-279511904D01*
X68238152Y-278702380D02*
X68904819Y-278702380D01*
X67857200Y-278940475D02*
X68571485Y-279178570D01*
X68571485Y-279178570D02*
X68571485Y-278559523D01*
X62640476Y-116574819D02*
X62640476Y-117289104D01*
X62640476Y-117289104D02*
X62592857Y-117431961D01*
X62592857Y-117431961D02*
X62497619Y-117527200D01*
X62497619Y-117527200D02*
X62354762Y-117574819D01*
X62354762Y-117574819D02*
X62259524Y-117574819D01*
X63640476Y-117574819D02*
X63069048Y-117574819D01*
X63354762Y-117574819D02*
X63354762Y-116574819D01*
X63354762Y-116574819D02*
X63259524Y-116717676D01*
X63259524Y-116717676D02*
X63164286Y-116812914D01*
X63164286Y-116812914D02*
X63069048Y-116860533D01*
X64259524Y-116574819D02*
X64354762Y-116574819D01*
X64354762Y-116574819D02*
X64450000Y-116622438D01*
X64450000Y-116622438D02*
X64497619Y-116670057D01*
X64497619Y-116670057D02*
X64545238Y-116765295D01*
X64545238Y-116765295D02*
X64592857Y-116955771D01*
X64592857Y-116955771D02*
X64592857Y-117193866D01*
X64592857Y-117193866D02*
X64545238Y-117384342D01*
X64545238Y-117384342D02*
X64497619Y-117479580D01*
X64497619Y-117479580D02*
X64450000Y-117527200D01*
X64450000Y-117527200D02*
X64354762Y-117574819D01*
X64354762Y-117574819D02*
X64259524Y-117574819D01*
X64259524Y-117574819D02*
X64164286Y-117527200D01*
X64164286Y-117527200D02*
X64116667Y-117479580D01*
X64116667Y-117479580D02*
X64069048Y-117384342D01*
X64069048Y-117384342D02*
X64021429Y-117193866D01*
X64021429Y-117193866D02*
X64021429Y-116955771D01*
X64021429Y-116955771D02*
X64069048Y-116765295D01*
X64069048Y-116765295D02*
X64116667Y-116670057D01*
X64116667Y-116670057D02*
X64164286Y-116622438D01*
X64164286Y-116622438D02*
X64259524Y-116574819D01*
X67904819Y-229059523D02*
X68619104Y-229059523D01*
X68619104Y-229059523D02*
X68761961Y-229107142D01*
X68761961Y-229107142D02*
X68857200Y-229202380D01*
X68857200Y-229202380D02*
X68904819Y-229345237D01*
X68904819Y-229345237D02*
X68904819Y-229440475D01*
X68238152Y-228154761D02*
X68904819Y-228154761D01*
X67857200Y-228392856D02*
X68571485Y-228630951D01*
X68571485Y-228630951D02*
X68571485Y-228011904D01*
X67904819Y-227440475D02*
X67904819Y-227345237D01*
X67904819Y-227345237D02*
X67952438Y-227249999D01*
X67952438Y-227249999D02*
X68000057Y-227202380D01*
X68000057Y-227202380D02*
X68095295Y-227154761D01*
X68095295Y-227154761D02*
X68285771Y-227107142D01*
X68285771Y-227107142D02*
X68523866Y-227107142D01*
X68523866Y-227107142D02*
X68714342Y-227154761D01*
X68714342Y-227154761D02*
X68809580Y-227202380D01*
X68809580Y-227202380D02*
X68857200Y-227249999D01*
X68857200Y-227249999D02*
X68904819Y-227345237D01*
X68904819Y-227345237D02*
X68904819Y-227440475D01*
X68904819Y-227440475D02*
X68857200Y-227535713D01*
X68857200Y-227535713D02*
X68809580Y-227583332D01*
X68809580Y-227583332D02*
X68714342Y-227630951D01*
X68714342Y-227630951D02*
X68523866Y-227678570D01*
X68523866Y-227678570D02*
X68285771Y-227678570D01*
X68285771Y-227678570D02*
X68095295Y-227630951D01*
X68095295Y-227630951D02*
X68000057Y-227583332D01*
X68000057Y-227583332D02*
X67952438Y-227535713D01*
X67952438Y-227535713D02*
X67904819Y-227440475D01*
X67904819Y-133559523D02*
X68619104Y-133559523D01*
X68619104Y-133559523D02*
X68761961Y-133607142D01*
X68761961Y-133607142D02*
X68857200Y-133702380D01*
X68857200Y-133702380D02*
X68904819Y-133845237D01*
X68904819Y-133845237D02*
X68904819Y-133940475D01*
X68000057Y-133130951D02*
X67952438Y-133083332D01*
X67952438Y-133083332D02*
X67904819Y-132988094D01*
X67904819Y-132988094D02*
X67904819Y-132749999D01*
X67904819Y-132749999D02*
X67952438Y-132654761D01*
X67952438Y-132654761D02*
X68000057Y-132607142D01*
X68000057Y-132607142D02*
X68095295Y-132559523D01*
X68095295Y-132559523D02*
X68190533Y-132559523D01*
X68190533Y-132559523D02*
X68333390Y-132607142D01*
X68333390Y-132607142D02*
X68904819Y-133178570D01*
X68904819Y-133178570D02*
X68904819Y-132559523D01*
X67904819Y-132226189D02*
X67904819Y-131607142D01*
X67904819Y-131607142D02*
X68285771Y-131940475D01*
X68285771Y-131940475D02*
X68285771Y-131797618D01*
X68285771Y-131797618D02*
X68333390Y-131702380D01*
X68333390Y-131702380D02*
X68381009Y-131654761D01*
X68381009Y-131654761D02*
X68476247Y-131607142D01*
X68476247Y-131607142D02*
X68714342Y-131607142D01*
X68714342Y-131607142D02*
X68809580Y-131654761D01*
X68809580Y-131654761D02*
X68857200Y-131702380D01*
X68857200Y-131702380D02*
X68904819Y-131797618D01*
X68904819Y-131797618D02*
X68904819Y-132083332D01*
X68904819Y-132083332D02*
X68857200Y-132178570D01*
X68857200Y-132178570D02*
X68809580Y-132226189D01*
X67904819Y-267809523D02*
X68619104Y-267809523D01*
X68619104Y-267809523D02*
X68761961Y-267857142D01*
X68761961Y-267857142D02*
X68857200Y-267952380D01*
X68857200Y-267952380D02*
X68904819Y-268095237D01*
X68904819Y-268095237D02*
X68904819Y-268190475D01*
X68238152Y-266904761D02*
X68904819Y-266904761D01*
X67857200Y-267142856D02*
X68571485Y-267380951D01*
X68571485Y-267380951D02*
X68571485Y-266761904D01*
X67904819Y-266476189D02*
X67904819Y-265857142D01*
X67904819Y-265857142D02*
X68285771Y-266190475D01*
X68285771Y-266190475D02*
X68285771Y-266047618D01*
X68285771Y-266047618D02*
X68333390Y-265952380D01*
X68333390Y-265952380D02*
X68381009Y-265904761D01*
X68381009Y-265904761D02*
X68476247Y-265857142D01*
X68476247Y-265857142D02*
X68714342Y-265857142D01*
X68714342Y-265857142D02*
X68809580Y-265904761D01*
X68809580Y-265904761D02*
X68857200Y-265952380D01*
X68857200Y-265952380D02*
X68904819Y-266047618D01*
X68904819Y-266047618D02*
X68904819Y-266333332D01*
X68904819Y-266333332D02*
X68857200Y-266428570D01*
X68857200Y-266428570D02*
X68809580Y-266476189D01*
X62690476Y-129874819D02*
X62690476Y-130589104D01*
X62690476Y-130589104D02*
X62642857Y-130731961D01*
X62642857Y-130731961D02*
X62547619Y-130827200D01*
X62547619Y-130827200D02*
X62404762Y-130874819D01*
X62404762Y-130874819D02*
X62309524Y-130874819D01*
X63690476Y-130874819D02*
X63119048Y-130874819D01*
X63404762Y-130874819D02*
X63404762Y-129874819D01*
X63404762Y-129874819D02*
X63309524Y-130017676D01*
X63309524Y-130017676D02*
X63214286Y-130112914D01*
X63214286Y-130112914D02*
X63119048Y-130160533D01*
X64642857Y-130874819D02*
X64071429Y-130874819D01*
X64357143Y-130874819D02*
X64357143Y-129874819D01*
X64357143Y-129874819D02*
X64261905Y-130017676D01*
X64261905Y-130017676D02*
X64166667Y-130112914D01*
X64166667Y-130112914D02*
X64071429Y-130160533D01*
X67904819Y-146309523D02*
X68619104Y-146309523D01*
X68619104Y-146309523D02*
X68761961Y-146357142D01*
X68761961Y-146357142D02*
X68857200Y-146452380D01*
X68857200Y-146452380D02*
X68904819Y-146595237D01*
X68904819Y-146595237D02*
X68904819Y-146690475D01*
X68000057Y-145880951D02*
X67952438Y-145833332D01*
X67952438Y-145833332D02*
X67904819Y-145738094D01*
X67904819Y-145738094D02*
X67904819Y-145499999D01*
X67904819Y-145499999D02*
X67952438Y-145404761D01*
X67952438Y-145404761D02*
X68000057Y-145357142D01*
X68000057Y-145357142D02*
X68095295Y-145309523D01*
X68095295Y-145309523D02*
X68190533Y-145309523D01*
X68190533Y-145309523D02*
X68333390Y-145357142D01*
X68333390Y-145357142D02*
X68904819Y-145928570D01*
X68904819Y-145928570D02*
X68904819Y-145309523D01*
X68238152Y-144452380D02*
X68904819Y-144452380D01*
X67857200Y-144690475D02*
X68571485Y-144928570D01*
X68571485Y-144928570D02*
X68571485Y-144309523D01*
X63166666Y-37124819D02*
X63166666Y-37839104D01*
X63166666Y-37839104D02*
X63119047Y-37981961D01*
X63119047Y-37981961D02*
X63023809Y-38077200D01*
X63023809Y-38077200D02*
X62880952Y-38124819D01*
X62880952Y-38124819D02*
X62785714Y-38124819D01*
X64071428Y-37458152D02*
X64071428Y-38124819D01*
X63833333Y-37077200D02*
X63595238Y-37791485D01*
X63595238Y-37791485D02*
X64214285Y-37791485D01*
X67904819Y-254809523D02*
X68619104Y-254809523D01*
X68619104Y-254809523D02*
X68761961Y-254857142D01*
X68761961Y-254857142D02*
X68857200Y-254952380D01*
X68857200Y-254952380D02*
X68904819Y-255095237D01*
X68904819Y-255095237D02*
X68904819Y-255190475D01*
X68238152Y-253904761D02*
X68904819Y-253904761D01*
X67857200Y-254142856D02*
X68571485Y-254380951D01*
X68571485Y-254380951D02*
X68571485Y-253761904D01*
X68000057Y-253428570D02*
X67952438Y-253380951D01*
X67952438Y-253380951D02*
X67904819Y-253285713D01*
X67904819Y-253285713D02*
X67904819Y-253047618D01*
X67904819Y-253047618D02*
X67952438Y-252952380D01*
X67952438Y-252952380D02*
X68000057Y-252904761D01*
X68000057Y-252904761D02*
X68095295Y-252857142D01*
X68095295Y-252857142D02*
X68190533Y-252857142D01*
X68190533Y-252857142D02*
X68333390Y-252904761D01*
X68333390Y-252904761D02*
X68904819Y-253476189D01*
X68904819Y-253476189D02*
X68904819Y-252857142D01*
X62690476Y-320534819D02*
X62690476Y-321249104D01*
X62690476Y-321249104D02*
X62642857Y-321391961D01*
X62642857Y-321391961D02*
X62547619Y-321487200D01*
X62547619Y-321487200D02*
X62404762Y-321534819D01*
X62404762Y-321534819D02*
X62309524Y-321534819D01*
X63071429Y-320534819D02*
X63690476Y-320534819D01*
X63690476Y-320534819D02*
X63357143Y-320915771D01*
X63357143Y-320915771D02*
X63500000Y-320915771D01*
X63500000Y-320915771D02*
X63595238Y-320963390D01*
X63595238Y-320963390D02*
X63642857Y-321011009D01*
X63642857Y-321011009D02*
X63690476Y-321106247D01*
X63690476Y-321106247D02*
X63690476Y-321344342D01*
X63690476Y-321344342D02*
X63642857Y-321439580D01*
X63642857Y-321439580D02*
X63595238Y-321487200D01*
X63595238Y-321487200D02*
X63500000Y-321534819D01*
X63500000Y-321534819D02*
X63214286Y-321534819D01*
X63214286Y-321534819D02*
X63119048Y-321487200D01*
X63119048Y-321487200D02*
X63071429Y-321439580D01*
X64023810Y-320534819D02*
X64690476Y-320534819D01*
X64690476Y-320534819D02*
X64261905Y-321534819D01*
X62690476Y-230034819D02*
X62690476Y-230749104D01*
X62690476Y-230749104D02*
X62642857Y-230891961D01*
X62642857Y-230891961D02*
X62547619Y-230987200D01*
X62547619Y-230987200D02*
X62404762Y-231034819D01*
X62404762Y-231034819D02*
X62309524Y-231034819D01*
X63071429Y-230034819D02*
X63690476Y-230034819D01*
X63690476Y-230034819D02*
X63357143Y-230415771D01*
X63357143Y-230415771D02*
X63500000Y-230415771D01*
X63500000Y-230415771D02*
X63595238Y-230463390D01*
X63595238Y-230463390D02*
X63642857Y-230511009D01*
X63642857Y-230511009D02*
X63690476Y-230606247D01*
X63690476Y-230606247D02*
X63690476Y-230844342D01*
X63690476Y-230844342D02*
X63642857Y-230939580D01*
X63642857Y-230939580D02*
X63595238Y-230987200D01*
X63595238Y-230987200D02*
X63500000Y-231034819D01*
X63500000Y-231034819D02*
X63214286Y-231034819D01*
X63214286Y-231034819D02*
X63119048Y-230987200D01*
X63119048Y-230987200D02*
X63071429Y-230939580D01*
X64309524Y-230034819D02*
X64404762Y-230034819D01*
X64404762Y-230034819D02*
X64500000Y-230082438D01*
X64500000Y-230082438D02*
X64547619Y-230130057D01*
X64547619Y-230130057D02*
X64595238Y-230225295D01*
X64595238Y-230225295D02*
X64642857Y-230415771D01*
X64642857Y-230415771D02*
X64642857Y-230653866D01*
X64642857Y-230653866D02*
X64595238Y-230844342D01*
X64595238Y-230844342D02*
X64547619Y-230939580D01*
X64547619Y-230939580D02*
X64500000Y-230987200D01*
X64500000Y-230987200D02*
X64404762Y-231034819D01*
X64404762Y-231034819D02*
X64309524Y-231034819D01*
X64309524Y-231034819D02*
X64214286Y-230987200D01*
X64214286Y-230987200D02*
X64166667Y-230939580D01*
X64166667Y-230939580D02*
X64119048Y-230844342D01*
X64119048Y-230844342D02*
X64071429Y-230653866D01*
X64071429Y-230653866D02*
X64071429Y-230415771D01*
X64071429Y-230415771D02*
X64119048Y-230225295D01*
X64119048Y-230225295D02*
X64166667Y-230130057D01*
X64166667Y-230130057D02*
X64214286Y-230082438D01*
X64214286Y-230082438D02*
X64309524Y-230034819D01*
X67904819Y-93059523D02*
X68619104Y-93059523D01*
X68619104Y-93059523D02*
X68761961Y-93107142D01*
X68761961Y-93107142D02*
X68857200Y-93202380D01*
X68857200Y-93202380D02*
X68904819Y-93345237D01*
X68904819Y-93345237D02*
X68904819Y-93440475D01*
X68000057Y-92630951D02*
X67952438Y-92583332D01*
X67952438Y-92583332D02*
X67904819Y-92488094D01*
X67904819Y-92488094D02*
X67904819Y-92249999D01*
X67904819Y-92249999D02*
X67952438Y-92154761D01*
X67952438Y-92154761D02*
X68000057Y-92107142D01*
X68000057Y-92107142D02*
X68095295Y-92059523D01*
X68095295Y-92059523D02*
X68190533Y-92059523D01*
X68190533Y-92059523D02*
X68333390Y-92107142D01*
X68333390Y-92107142D02*
X68904819Y-92678570D01*
X68904819Y-92678570D02*
X68904819Y-92059523D01*
X67904819Y-91440475D02*
X67904819Y-91345237D01*
X67904819Y-91345237D02*
X67952438Y-91249999D01*
X67952438Y-91249999D02*
X68000057Y-91202380D01*
X68000057Y-91202380D02*
X68095295Y-91154761D01*
X68095295Y-91154761D02*
X68285771Y-91107142D01*
X68285771Y-91107142D02*
X68523866Y-91107142D01*
X68523866Y-91107142D02*
X68714342Y-91154761D01*
X68714342Y-91154761D02*
X68809580Y-91202380D01*
X68809580Y-91202380D02*
X68857200Y-91249999D01*
X68857200Y-91249999D02*
X68904819Y-91345237D01*
X68904819Y-91345237D02*
X68904819Y-91440475D01*
X68904819Y-91440475D02*
X68857200Y-91535713D01*
X68857200Y-91535713D02*
X68809580Y-91583332D01*
X68809580Y-91583332D02*
X68714342Y-91630951D01*
X68714342Y-91630951D02*
X68523866Y-91678570D01*
X68523866Y-91678570D02*
X68285771Y-91678570D01*
X68285771Y-91678570D02*
X68095295Y-91630951D01*
X68095295Y-91630951D02*
X68000057Y-91583332D01*
X68000057Y-91583332D02*
X67952438Y-91535713D01*
X67952438Y-91535713D02*
X67904819Y-91440475D01*
X67904819Y-186059523D02*
X68619104Y-186059523D01*
X68619104Y-186059523D02*
X68761961Y-186107142D01*
X68761961Y-186107142D02*
X68857200Y-186202380D01*
X68857200Y-186202380D02*
X68904819Y-186345237D01*
X68904819Y-186345237D02*
X68904819Y-186440475D01*
X68000057Y-185630951D02*
X67952438Y-185583332D01*
X67952438Y-185583332D02*
X67904819Y-185488094D01*
X67904819Y-185488094D02*
X67904819Y-185249999D01*
X67904819Y-185249999D02*
X67952438Y-185154761D01*
X67952438Y-185154761D02*
X68000057Y-185107142D01*
X68000057Y-185107142D02*
X68095295Y-185059523D01*
X68095295Y-185059523D02*
X68190533Y-185059523D01*
X68190533Y-185059523D02*
X68333390Y-185107142D01*
X68333390Y-185107142D02*
X68904819Y-185678570D01*
X68904819Y-185678570D02*
X68904819Y-185059523D01*
X67904819Y-184726189D02*
X67904819Y-184059523D01*
X67904819Y-184059523D02*
X68904819Y-184488094D01*
X62690476Y-182624819D02*
X62690476Y-183339104D01*
X62690476Y-183339104D02*
X62642857Y-183481961D01*
X62642857Y-183481961D02*
X62547619Y-183577200D01*
X62547619Y-183577200D02*
X62404762Y-183624819D01*
X62404762Y-183624819D02*
X62309524Y-183624819D01*
X63690476Y-183624819D02*
X63119048Y-183624819D01*
X63404762Y-183624819D02*
X63404762Y-182624819D01*
X63404762Y-182624819D02*
X63309524Y-182767676D01*
X63309524Y-182767676D02*
X63214286Y-182862914D01*
X63214286Y-182862914D02*
X63119048Y-182910533D01*
X64595238Y-182624819D02*
X64119048Y-182624819D01*
X64119048Y-182624819D02*
X64071429Y-183101009D01*
X64071429Y-183101009D02*
X64119048Y-183053390D01*
X64119048Y-183053390D02*
X64214286Y-183005771D01*
X64214286Y-183005771D02*
X64452381Y-183005771D01*
X64452381Y-183005771D02*
X64547619Y-183053390D01*
X64547619Y-183053390D02*
X64595238Y-183101009D01*
X64595238Y-183101009D02*
X64642857Y-183196247D01*
X64642857Y-183196247D02*
X64642857Y-183434342D01*
X64642857Y-183434342D02*
X64595238Y-183529580D01*
X64595238Y-183529580D02*
X64547619Y-183577200D01*
X64547619Y-183577200D02*
X64452381Y-183624819D01*
X64452381Y-183624819D02*
X64214286Y-183624819D01*
X64214286Y-183624819D02*
X64119048Y-183577200D01*
X64119048Y-183577200D02*
X64071429Y-183529580D01*
D14*
%TO.C,J48*%
X30420000Y-28170000D02*
X31750000Y-28170000D01*
X30420000Y-29500000D02*
X30420000Y-28170000D01*
X30420000Y-30770000D02*
X30420000Y-30830000D01*
X30420000Y-30770000D02*
X33080000Y-30770000D01*
X30420000Y-30830000D02*
X33080000Y-30830000D01*
X33080000Y-30770000D02*
X33080000Y-30830000D01*
%TO.C,J1*%
X30420000Y-21670000D02*
X31750000Y-21670000D01*
X30420000Y-23000000D02*
X30420000Y-21670000D01*
X30420000Y-24270000D02*
X30420000Y-24330000D01*
X30420000Y-24270000D02*
X33080000Y-24270000D01*
X30420000Y-24330000D02*
X33080000Y-24330000D01*
X33080000Y-24270000D02*
X33080000Y-24330000D01*
%TO.C,J33*%
X62170000Y-265730000D02*
X62170000Y-265670000D01*
X64830000Y-265670000D02*
X62170000Y-265670000D01*
X64830000Y-265730000D02*
X62170000Y-265730000D01*
X64830000Y-265730000D02*
X64830000Y-265670000D01*
X64830000Y-267000000D02*
X64830000Y-268330000D01*
X64830000Y-268330000D02*
X63500000Y-268330000D01*
%TO.C,J47*%
X69250000Y-322850000D02*
X69250000Y-324100000D01*
X69250000Y-324100000D02*
X70500000Y-324100000D01*
X69540000Y-313690000D02*
X69540000Y-323810000D01*
X69540000Y-323810000D02*
X75510000Y-323810000D01*
X69550000Y-313700000D02*
X69550000Y-315500000D01*
X69550000Y-315500000D02*
X70300000Y-315500000D01*
X69550000Y-317000000D02*
X69550000Y-320500000D01*
X69550000Y-320500000D02*
X70300000Y-320500000D01*
X69550000Y-322000000D02*
X69550000Y-323800000D01*
X69550000Y-323800000D02*
X70300000Y-323800000D01*
X70300000Y-313700000D02*
X69550000Y-313700000D01*
X70300000Y-315500000D02*
X70300000Y-313700000D01*
X70300000Y-317000000D02*
X69550000Y-317000000D01*
X70300000Y-320500000D02*
X70300000Y-317000000D01*
X70300000Y-322000000D02*
X69550000Y-322000000D01*
X70300000Y-323800000D02*
X70300000Y-322000000D01*
X71800000Y-313700000D02*
X71800000Y-314450000D01*
X71800000Y-314450000D02*
X74750000Y-314450000D01*
X71800000Y-323050000D02*
X74750000Y-323050000D01*
X71800000Y-323800000D02*
X71800000Y-323050000D01*
X74750000Y-314450000D02*
X74750000Y-318750000D01*
X74750000Y-323050000D02*
X74750000Y-318750000D01*
X75510000Y-313690000D02*
X69540000Y-313690000D01*
X75510000Y-323810000D02*
X75510000Y-313690000D01*
%TO.C,J31*%
X62170000Y-239730000D02*
X62170000Y-239670000D01*
X64830000Y-239670000D02*
X62170000Y-239670000D01*
X64830000Y-239730000D02*
X62170000Y-239730000D01*
X64830000Y-239730000D02*
X64830000Y-239670000D01*
X64830000Y-241000000D02*
X64830000Y-242330000D01*
X64830000Y-242330000D02*
X63500000Y-242330000D01*
%TO.C,J36*%
X62170000Y-304480000D02*
X62170000Y-304420000D01*
X64830000Y-304420000D02*
X62170000Y-304420000D01*
X64830000Y-304480000D02*
X62170000Y-304480000D01*
X64830000Y-304480000D02*
X64830000Y-304420000D01*
X64830000Y-305750000D02*
X64830000Y-307080000D01*
X64830000Y-307080000D02*
X63500000Y-307080000D01*
%TO.C,J13*%
X62170000Y-157920000D02*
X63500000Y-157920000D01*
X62170000Y-159250000D02*
X62170000Y-157920000D01*
X62170000Y-160520000D02*
X62170000Y-160580000D01*
X62170000Y-160520000D02*
X64830000Y-160520000D01*
X62170000Y-160580000D02*
X64830000Y-160580000D01*
X64830000Y-160520000D02*
X64830000Y-160580000D01*
%TO.C,J34*%
X62170000Y-278480000D02*
X62170000Y-278420000D01*
X64830000Y-278420000D02*
X62170000Y-278420000D01*
X64830000Y-278480000D02*
X62170000Y-278480000D01*
X64830000Y-278480000D02*
X64830000Y-278420000D01*
X64830000Y-279750000D02*
X64830000Y-281080000D01*
X64830000Y-281080000D02*
X63500000Y-281080000D01*
%TO.C,J16*%
X69250000Y-44100000D02*
X69250000Y-45350000D01*
X69250000Y-45350000D02*
X70500000Y-45350000D01*
X69540000Y-34940000D02*
X69540000Y-45060000D01*
X69540000Y-45060000D02*
X75510000Y-45060000D01*
X69550000Y-34950000D02*
X69550000Y-36750000D01*
X69550000Y-36750000D02*
X70300000Y-36750000D01*
X69550000Y-38250000D02*
X69550000Y-41750000D01*
X69550000Y-41750000D02*
X70300000Y-41750000D01*
X69550000Y-43250000D02*
X69550000Y-45050000D01*
X69550000Y-45050000D02*
X70300000Y-45050000D01*
X70300000Y-34950000D02*
X69550000Y-34950000D01*
X70300000Y-36750000D02*
X70300000Y-34950000D01*
X70300000Y-38250000D02*
X69550000Y-38250000D01*
X70300000Y-41750000D02*
X70300000Y-38250000D01*
X70300000Y-43250000D02*
X69550000Y-43250000D01*
X70300000Y-45050000D02*
X70300000Y-43250000D01*
X71800000Y-34950000D02*
X71800000Y-35700000D01*
X71800000Y-35700000D02*
X74750000Y-35700000D01*
X71800000Y-44300000D02*
X74750000Y-44300000D01*
X71800000Y-45050000D02*
X71800000Y-44300000D01*
X74750000Y-35700000D02*
X74750000Y-40000000D01*
X74750000Y-44300000D02*
X74750000Y-40000000D01*
X75510000Y-34940000D02*
X69540000Y-34940000D01*
X75510000Y-45060000D02*
X75510000Y-34940000D01*
%TO.C,J46*%
X69250000Y-309850000D02*
X69250000Y-311100000D01*
X69250000Y-311100000D02*
X70500000Y-311100000D01*
X69540000Y-300690000D02*
X69540000Y-310810000D01*
X69540000Y-310810000D02*
X75510000Y-310810000D01*
X69550000Y-300700000D02*
X69550000Y-302500000D01*
X69550000Y-302500000D02*
X70300000Y-302500000D01*
X69550000Y-304000000D02*
X69550000Y-307500000D01*
X69550000Y-307500000D02*
X70300000Y-307500000D01*
X69550000Y-309000000D02*
X69550000Y-310800000D01*
X69550000Y-310800000D02*
X70300000Y-310800000D01*
X70300000Y-300700000D02*
X69550000Y-300700000D01*
X70300000Y-302500000D02*
X70300000Y-300700000D01*
X70300000Y-304000000D02*
X69550000Y-304000000D01*
X70300000Y-307500000D02*
X70300000Y-304000000D01*
X70300000Y-309000000D02*
X69550000Y-309000000D01*
X70300000Y-310800000D02*
X70300000Y-309000000D01*
X71800000Y-300700000D02*
X71800000Y-301450000D01*
X71800000Y-301450000D02*
X74750000Y-301450000D01*
X71800000Y-310050000D02*
X74750000Y-310050000D01*
X71800000Y-310800000D02*
X71800000Y-310050000D01*
X74750000Y-301450000D02*
X74750000Y-305750000D01*
X74750000Y-310050000D02*
X74750000Y-305750000D01*
X75510000Y-300690000D02*
X69540000Y-300690000D01*
X75510000Y-310810000D02*
X75510000Y-300690000D01*
%TO.C,J18*%
X69250000Y-70600000D02*
X69250000Y-71850000D01*
X69250000Y-71850000D02*
X70500000Y-71850000D01*
X69540000Y-61440000D02*
X69540000Y-71560000D01*
X69540000Y-71560000D02*
X75510000Y-71560000D01*
X69550000Y-61450000D02*
X69550000Y-63250000D01*
X69550000Y-63250000D02*
X70300000Y-63250000D01*
X69550000Y-64750000D02*
X69550000Y-68250000D01*
X69550000Y-68250000D02*
X70300000Y-68250000D01*
X69550000Y-69750000D02*
X69550000Y-71550000D01*
X69550000Y-71550000D02*
X70300000Y-71550000D01*
X70300000Y-61450000D02*
X69550000Y-61450000D01*
X70300000Y-63250000D02*
X70300000Y-61450000D01*
X70300000Y-64750000D02*
X69550000Y-64750000D01*
X70300000Y-68250000D02*
X70300000Y-64750000D01*
X70300000Y-69750000D02*
X69550000Y-69750000D01*
X70300000Y-71550000D02*
X70300000Y-69750000D01*
X71800000Y-61450000D02*
X71800000Y-62200000D01*
X71800000Y-62200000D02*
X74750000Y-62200000D01*
X71800000Y-70800000D02*
X74750000Y-70800000D01*
X71800000Y-71550000D02*
X71800000Y-70800000D01*
X74750000Y-62200000D02*
X74750000Y-66500000D01*
X74750000Y-70800000D02*
X74750000Y-66500000D01*
X75510000Y-61440000D02*
X69540000Y-61440000D01*
X75510000Y-71560000D02*
X75510000Y-61440000D01*
%TO.C,J12*%
X62170000Y-144170000D02*
X63500000Y-144170000D01*
X62170000Y-145500000D02*
X62170000Y-144170000D01*
X62170000Y-146770000D02*
X62170000Y-146830000D01*
X62170000Y-146770000D02*
X64830000Y-146770000D01*
X62170000Y-146830000D02*
X64830000Y-146830000D01*
X64830000Y-146770000D02*
X64830000Y-146830000D01*
%TO.C,J19*%
X69300000Y-83350000D02*
X69300000Y-84600000D01*
X69300000Y-84600000D02*
X70550000Y-84600000D01*
X69590000Y-74190000D02*
X69590000Y-84310000D01*
X69590000Y-84310000D02*
X75560000Y-84310000D01*
X69600000Y-74200000D02*
X69600000Y-76000000D01*
X69600000Y-76000000D02*
X70350000Y-76000000D01*
X69600000Y-77500000D02*
X69600000Y-81000000D01*
X69600000Y-81000000D02*
X70350000Y-81000000D01*
X69600000Y-82500000D02*
X69600000Y-84300000D01*
X69600000Y-84300000D02*
X70350000Y-84300000D01*
X70350000Y-74200000D02*
X69600000Y-74200000D01*
X70350000Y-76000000D02*
X70350000Y-74200000D01*
X70350000Y-77500000D02*
X69600000Y-77500000D01*
X70350000Y-81000000D02*
X70350000Y-77500000D01*
X70350000Y-82500000D02*
X69600000Y-82500000D01*
X70350000Y-84300000D02*
X70350000Y-82500000D01*
X71850000Y-74200000D02*
X71850000Y-74950000D01*
X71850000Y-74950000D02*
X74800000Y-74950000D01*
X71850000Y-83550000D02*
X74800000Y-83550000D01*
X71850000Y-84300000D02*
X71850000Y-83550000D01*
X74800000Y-74950000D02*
X74800000Y-79250000D01*
X74800000Y-83550000D02*
X74800000Y-79250000D01*
X75560000Y-74190000D02*
X69590000Y-74190000D01*
X75560000Y-84310000D02*
X75560000Y-74190000D01*
%TO.C,J2*%
X69250000Y-31100000D02*
X69250000Y-32350000D01*
X69250000Y-32350000D02*
X70500000Y-32350000D01*
X69540000Y-21940000D02*
X69540000Y-32060000D01*
X69540000Y-32060000D02*
X75510000Y-32060000D01*
X69550000Y-21950000D02*
X69550000Y-23750000D01*
X69550000Y-23750000D02*
X70300000Y-23750000D01*
X69550000Y-25250000D02*
X69550000Y-28750000D01*
X69550000Y-28750000D02*
X70300000Y-28750000D01*
X69550000Y-30250000D02*
X69550000Y-32050000D01*
X69550000Y-32050000D02*
X70300000Y-32050000D01*
X70300000Y-21950000D02*
X69550000Y-21950000D01*
X70300000Y-23750000D02*
X70300000Y-21950000D01*
X70300000Y-25250000D02*
X69550000Y-25250000D01*
X70300000Y-28750000D02*
X70300000Y-25250000D01*
X70300000Y-30250000D02*
X69550000Y-30250000D01*
X70300000Y-32050000D02*
X70300000Y-30250000D01*
X71800000Y-21950000D02*
X71800000Y-22700000D01*
X71800000Y-22700000D02*
X74750000Y-22700000D01*
X71800000Y-31300000D02*
X74750000Y-31300000D01*
X71800000Y-32050000D02*
X71800000Y-31300000D01*
X74750000Y-22700000D02*
X74750000Y-27000000D01*
X74750000Y-31300000D02*
X74750000Y-27000000D01*
X75510000Y-21940000D02*
X69540000Y-21940000D01*
X75510000Y-32060000D02*
X75510000Y-21940000D01*
%TO.C,J6*%
X62145000Y-65120000D02*
X63475000Y-65120000D01*
X62145000Y-66450000D02*
X62145000Y-65120000D01*
X62145000Y-67720000D02*
X62145000Y-67780000D01*
X62145000Y-67720000D02*
X64805000Y-67720000D01*
X62145000Y-67780000D02*
X64805000Y-67780000D01*
X64805000Y-67720000D02*
X64805000Y-67780000D01*
%TO.C,J41*%
X69250000Y-245100000D02*
X69250000Y-246350000D01*
X69250000Y-246350000D02*
X70500000Y-246350000D01*
X69540000Y-235940000D02*
X69540000Y-246060000D01*
X69540000Y-246060000D02*
X75510000Y-246060000D01*
X69550000Y-235950000D02*
X69550000Y-237750000D01*
X69550000Y-237750000D02*
X70300000Y-237750000D01*
X69550000Y-239250000D02*
X69550000Y-242750000D01*
X69550000Y-242750000D02*
X70300000Y-242750000D01*
X69550000Y-244250000D02*
X69550000Y-246050000D01*
X69550000Y-246050000D02*
X70300000Y-246050000D01*
X70300000Y-235950000D02*
X69550000Y-235950000D01*
X70300000Y-237750000D02*
X70300000Y-235950000D01*
X70300000Y-239250000D02*
X69550000Y-239250000D01*
X70300000Y-242750000D02*
X70300000Y-239250000D01*
X70300000Y-244250000D02*
X69550000Y-244250000D01*
X70300000Y-246050000D02*
X70300000Y-244250000D01*
X71800000Y-235950000D02*
X71800000Y-236700000D01*
X71800000Y-236700000D02*
X74750000Y-236700000D01*
X71800000Y-245300000D02*
X74750000Y-245300000D01*
X71800000Y-246050000D02*
X71800000Y-245300000D01*
X74750000Y-236700000D02*
X74750000Y-241000000D01*
X74750000Y-245300000D02*
X74750000Y-241000000D01*
X75510000Y-235940000D02*
X69540000Y-235940000D01*
X75510000Y-246060000D02*
X75510000Y-235940000D01*
%TO.C,J21*%
X69250000Y-109850000D02*
X69250000Y-111100000D01*
X69250000Y-111100000D02*
X70500000Y-111100000D01*
X69540000Y-100690000D02*
X69540000Y-110810000D01*
X69540000Y-110810000D02*
X75510000Y-110810000D01*
X69550000Y-100700000D02*
X69550000Y-102500000D01*
X69550000Y-102500000D02*
X70300000Y-102500000D01*
X69550000Y-104000000D02*
X69550000Y-107500000D01*
X69550000Y-107500000D02*
X70300000Y-107500000D01*
X69550000Y-109000000D02*
X69550000Y-110800000D01*
X69550000Y-110800000D02*
X70300000Y-110800000D01*
X70300000Y-100700000D02*
X69550000Y-100700000D01*
X70300000Y-102500000D02*
X70300000Y-100700000D01*
X70300000Y-104000000D02*
X69550000Y-104000000D01*
X70300000Y-107500000D02*
X70300000Y-104000000D01*
X70300000Y-109000000D02*
X69550000Y-109000000D01*
X70300000Y-110800000D02*
X70300000Y-109000000D01*
X71800000Y-100700000D02*
X71800000Y-101450000D01*
X71800000Y-101450000D02*
X74750000Y-101450000D01*
X71800000Y-110050000D02*
X74750000Y-110050000D01*
X71800000Y-110800000D02*
X71800000Y-110050000D01*
X74750000Y-101450000D02*
X74750000Y-105750000D01*
X74750000Y-110050000D02*
X74750000Y-105750000D01*
X75510000Y-100690000D02*
X69540000Y-100690000D01*
X75510000Y-110810000D02*
X75510000Y-100690000D01*
%TO.C,J17*%
X69250000Y-57350000D02*
X69250000Y-58600000D01*
X69250000Y-58600000D02*
X70500000Y-58600000D01*
X69540000Y-48190000D02*
X69540000Y-58310000D01*
X69540000Y-58310000D02*
X75510000Y-58310000D01*
X69550000Y-48200000D02*
X69550000Y-50000000D01*
X69550000Y-50000000D02*
X70300000Y-50000000D01*
X69550000Y-51500000D02*
X69550000Y-55000000D01*
X69550000Y-55000000D02*
X70300000Y-55000000D01*
X69550000Y-56500000D02*
X69550000Y-58300000D01*
X69550000Y-58300000D02*
X70300000Y-58300000D01*
X70300000Y-48200000D02*
X69550000Y-48200000D01*
X70300000Y-50000000D02*
X70300000Y-48200000D01*
X70300000Y-51500000D02*
X69550000Y-51500000D01*
X70300000Y-55000000D02*
X70300000Y-51500000D01*
X70300000Y-56500000D02*
X69550000Y-56500000D01*
X70300000Y-58300000D02*
X70300000Y-56500000D01*
X71800000Y-48200000D02*
X71800000Y-48950000D01*
X71800000Y-48950000D02*
X74750000Y-48950000D01*
X71800000Y-57550000D02*
X74750000Y-57550000D01*
X71800000Y-58300000D02*
X71800000Y-57550000D01*
X74750000Y-48950000D02*
X74750000Y-53250000D01*
X74750000Y-57550000D02*
X74750000Y-53250000D01*
X75510000Y-48190000D02*
X69540000Y-48190000D01*
X75510000Y-58310000D02*
X75510000Y-48190000D01*
%TO.C,J7*%
X62170000Y-77920000D02*
X63500000Y-77920000D01*
X62170000Y-79250000D02*
X62170000Y-77920000D01*
X62170000Y-80520000D02*
X62170000Y-80580000D01*
X62170000Y-80520000D02*
X64830000Y-80520000D01*
X62170000Y-80580000D02*
X64830000Y-80580000D01*
X64830000Y-80520000D02*
X64830000Y-80580000D01*
%TO.C,J5*%
X62170000Y-52270000D02*
X63500000Y-52270000D01*
X62170000Y-53600000D02*
X62170000Y-52270000D01*
X62170000Y-54870000D02*
X62170000Y-54930000D01*
X62170000Y-54870000D02*
X64830000Y-54870000D01*
X62170000Y-54930000D02*
X64830000Y-54930000D01*
X64830000Y-54870000D02*
X64830000Y-54930000D01*
%TO.C,J22*%
X69250000Y-123600000D02*
X69250000Y-124850000D01*
X69250000Y-124850000D02*
X70500000Y-124850000D01*
X69540000Y-114440000D02*
X69540000Y-124560000D01*
X69540000Y-124560000D02*
X75510000Y-124560000D01*
X69550000Y-114450000D02*
X69550000Y-116250000D01*
X69550000Y-116250000D02*
X70300000Y-116250000D01*
X69550000Y-117750000D02*
X69550000Y-121250000D01*
X69550000Y-121250000D02*
X70300000Y-121250000D01*
X69550000Y-122750000D02*
X69550000Y-124550000D01*
X69550000Y-124550000D02*
X70300000Y-124550000D01*
X70300000Y-114450000D02*
X69550000Y-114450000D01*
X70300000Y-116250000D02*
X70300000Y-114450000D01*
X70300000Y-117750000D02*
X69550000Y-117750000D01*
X70300000Y-121250000D02*
X70300000Y-117750000D01*
X70300000Y-122750000D02*
X69550000Y-122750000D01*
X70300000Y-124550000D02*
X70300000Y-122750000D01*
X71800000Y-114450000D02*
X71800000Y-115200000D01*
X71800000Y-115200000D02*
X74750000Y-115200000D01*
X71800000Y-123800000D02*
X74750000Y-123800000D01*
X71800000Y-124550000D02*
X71800000Y-123800000D01*
X74750000Y-115200000D02*
X74750000Y-119500000D01*
X74750000Y-123800000D02*
X74750000Y-119500000D01*
X75510000Y-114440000D02*
X69540000Y-114440000D01*
X75510000Y-124560000D02*
X75510000Y-114440000D01*
%TO.C,J8*%
X62170000Y-91020000D02*
X63500000Y-91020000D01*
X62170000Y-92350000D02*
X62170000Y-91020000D01*
X62170000Y-93620000D02*
X62170000Y-93680000D01*
X62170000Y-93620000D02*
X64830000Y-93620000D01*
X62170000Y-93680000D02*
X64830000Y-93680000D01*
X64830000Y-93620000D02*
X64830000Y-93680000D01*
%TO.C,J3*%
X62170000Y-25670000D02*
X63500000Y-25670000D01*
X62170000Y-27000000D02*
X62170000Y-25670000D01*
X62170000Y-28270000D02*
X62170000Y-28330000D01*
X62170000Y-28270000D02*
X64830000Y-28270000D01*
X62170000Y-28330000D02*
X64830000Y-28330000D01*
X64830000Y-28270000D02*
X64830000Y-28330000D01*
%TO.C,J26*%
X69250000Y-176350000D02*
X69250000Y-177600000D01*
X69250000Y-177600000D02*
X70500000Y-177600000D01*
X69540000Y-167190000D02*
X69540000Y-177310000D01*
X69540000Y-177310000D02*
X75510000Y-177310000D01*
X69550000Y-167200000D02*
X69550000Y-169000000D01*
X69550000Y-169000000D02*
X70300000Y-169000000D01*
X69550000Y-170500000D02*
X69550000Y-174000000D01*
X69550000Y-174000000D02*
X70300000Y-174000000D01*
X69550000Y-175500000D02*
X69550000Y-177300000D01*
X69550000Y-177300000D02*
X70300000Y-177300000D01*
X70300000Y-167200000D02*
X69550000Y-167200000D01*
X70300000Y-169000000D02*
X70300000Y-167200000D01*
X70300000Y-170500000D02*
X69550000Y-170500000D01*
X70300000Y-174000000D02*
X70300000Y-170500000D01*
X70300000Y-175500000D02*
X69550000Y-175500000D01*
X70300000Y-177300000D02*
X70300000Y-175500000D01*
X71800000Y-167200000D02*
X71800000Y-167950000D01*
X71800000Y-167950000D02*
X74750000Y-167950000D01*
X71800000Y-176550000D02*
X74750000Y-176550000D01*
X71800000Y-177300000D02*
X71800000Y-176550000D01*
X74750000Y-167950000D02*
X74750000Y-172250000D01*
X74750000Y-176550000D02*
X74750000Y-172250000D01*
X75510000Y-167190000D02*
X69540000Y-167190000D01*
X75510000Y-177310000D02*
X75510000Y-167190000D01*
%TO.C,J28*%
X62170000Y-200730000D02*
X62170000Y-200670000D01*
X64830000Y-200670000D02*
X62170000Y-200670000D01*
X64830000Y-200730000D02*
X62170000Y-200730000D01*
X64830000Y-200730000D02*
X64830000Y-200670000D01*
X64830000Y-202000000D02*
X64830000Y-203330000D01*
X64830000Y-203330000D02*
X63500000Y-203330000D01*
%TO.C,J25*%
X69250000Y-163350000D02*
X69250000Y-164600000D01*
X69250000Y-164600000D02*
X70500000Y-164600000D01*
X69540000Y-154190000D02*
X69540000Y-164310000D01*
X69540000Y-164310000D02*
X75510000Y-164310000D01*
X69550000Y-154200000D02*
X69550000Y-156000000D01*
X69550000Y-156000000D02*
X70300000Y-156000000D01*
X69550000Y-157500000D02*
X69550000Y-161000000D01*
X69550000Y-161000000D02*
X70300000Y-161000000D01*
X69550000Y-162500000D02*
X69550000Y-164300000D01*
X69550000Y-164300000D02*
X70300000Y-164300000D01*
X70300000Y-154200000D02*
X69550000Y-154200000D01*
X70300000Y-156000000D02*
X70300000Y-154200000D01*
X70300000Y-157500000D02*
X69550000Y-157500000D01*
X70300000Y-161000000D02*
X70300000Y-157500000D01*
X70300000Y-162500000D02*
X69550000Y-162500000D01*
X70300000Y-164300000D02*
X70300000Y-162500000D01*
X71800000Y-154200000D02*
X71800000Y-154950000D01*
X71800000Y-154950000D02*
X74750000Y-154950000D01*
X71800000Y-163550000D02*
X74750000Y-163550000D01*
X71800000Y-164300000D02*
X71800000Y-163550000D01*
X74750000Y-154950000D02*
X74750000Y-159250000D01*
X74750000Y-163550000D02*
X74750000Y-159250000D01*
X75510000Y-154190000D02*
X69540000Y-154190000D01*
X75510000Y-164310000D02*
X75510000Y-154190000D01*
%TO.C,J45*%
X69250000Y-297100000D02*
X69250000Y-298350000D01*
X69250000Y-298350000D02*
X70500000Y-298350000D01*
X69540000Y-287940000D02*
X69540000Y-298060000D01*
X69540000Y-298060000D02*
X75510000Y-298060000D01*
X69550000Y-287950000D02*
X69550000Y-289750000D01*
X69550000Y-289750000D02*
X70300000Y-289750000D01*
X69550000Y-291250000D02*
X69550000Y-294750000D01*
X69550000Y-294750000D02*
X70300000Y-294750000D01*
X69550000Y-296250000D02*
X69550000Y-298050000D01*
X69550000Y-298050000D02*
X70300000Y-298050000D01*
X70300000Y-287950000D02*
X69550000Y-287950000D01*
X70300000Y-289750000D02*
X70300000Y-287950000D01*
X70300000Y-291250000D02*
X69550000Y-291250000D01*
X70300000Y-294750000D02*
X70300000Y-291250000D01*
X70300000Y-296250000D02*
X69550000Y-296250000D01*
X70300000Y-298050000D02*
X70300000Y-296250000D01*
X71800000Y-287950000D02*
X71800000Y-288700000D01*
X71800000Y-288700000D02*
X74750000Y-288700000D01*
X71800000Y-297300000D02*
X74750000Y-297300000D01*
X71800000Y-298050000D02*
X71800000Y-297300000D01*
X74750000Y-288700000D02*
X74750000Y-293000000D01*
X74750000Y-297300000D02*
X74750000Y-293000000D01*
X75510000Y-287940000D02*
X69540000Y-287940000D01*
X75510000Y-298060000D02*
X75510000Y-287940000D01*
%TO.C,J38*%
X69250000Y-206100000D02*
X69250000Y-207350000D01*
X69250000Y-207350000D02*
X70500000Y-207350000D01*
X69540000Y-196940000D02*
X69540000Y-207060000D01*
X69540000Y-207060000D02*
X75510000Y-207060000D01*
X69550000Y-196950000D02*
X69550000Y-198750000D01*
X69550000Y-198750000D02*
X70300000Y-198750000D01*
X69550000Y-200250000D02*
X69550000Y-203750000D01*
X69550000Y-203750000D02*
X70300000Y-203750000D01*
X69550000Y-205250000D02*
X69550000Y-207050000D01*
X69550000Y-207050000D02*
X70300000Y-207050000D01*
X70300000Y-196950000D02*
X69550000Y-196950000D01*
X70300000Y-198750000D02*
X70300000Y-196950000D01*
X70300000Y-200250000D02*
X69550000Y-200250000D01*
X70300000Y-203750000D02*
X70300000Y-200250000D01*
X70300000Y-205250000D02*
X69550000Y-205250000D01*
X70300000Y-207050000D02*
X70300000Y-205250000D01*
X71800000Y-196950000D02*
X71800000Y-197700000D01*
X71800000Y-197700000D02*
X74750000Y-197700000D01*
X71800000Y-206300000D02*
X74750000Y-206300000D01*
X71800000Y-207050000D02*
X71800000Y-206300000D01*
X74750000Y-197700000D02*
X74750000Y-202000000D01*
X74750000Y-206300000D02*
X74750000Y-202000000D01*
X75510000Y-196940000D02*
X69540000Y-196940000D01*
X75510000Y-207060000D02*
X75510000Y-196940000D01*
%TO.C,J29*%
X62170000Y-213980000D02*
X62170000Y-213920000D01*
X64830000Y-213920000D02*
X62170000Y-213920000D01*
X64830000Y-213980000D02*
X62170000Y-213980000D01*
X64830000Y-213980000D02*
X64830000Y-213920000D01*
X64830000Y-215250000D02*
X64830000Y-216580000D01*
X64830000Y-216580000D02*
X63500000Y-216580000D01*
%TO.C,J32*%
X62170000Y-252730000D02*
X62170000Y-252670000D01*
X64830000Y-252670000D02*
X62170000Y-252670000D01*
X64830000Y-252730000D02*
X62170000Y-252730000D01*
X64830000Y-252730000D02*
X64830000Y-252670000D01*
X64830000Y-254000000D02*
X64830000Y-255330000D01*
X64830000Y-255330000D02*
X63500000Y-255330000D01*
%TO.C,J39*%
X69250000Y-219350000D02*
X69250000Y-220600000D01*
X69250000Y-220600000D02*
X70500000Y-220600000D01*
X69540000Y-210190000D02*
X69540000Y-220310000D01*
X69540000Y-220310000D02*
X75510000Y-220310000D01*
X69550000Y-210200000D02*
X69550000Y-212000000D01*
X69550000Y-212000000D02*
X70300000Y-212000000D01*
X69550000Y-213500000D02*
X69550000Y-217000000D01*
X69550000Y-217000000D02*
X70300000Y-217000000D01*
X69550000Y-218500000D02*
X69550000Y-220300000D01*
X69550000Y-220300000D02*
X70300000Y-220300000D01*
X70300000Y-210200000D02*
X69550000Y-210200000D01*
X70300000Y-212000000D02*
X70300000Y-210200000D01*
X70300000Y-213500000D02*
X69550000Y-213500000D01*
X70300000Y-217000000D02*
X70300000Y-213500000D01*
X70300000Y-218500000D02*
X69550000Y-218500000D01*
X70300000Y-220300000D02*
X70300000Y-218500000D01*
X71800000Y-210200000D02*
X71800000Y-210950000D01*
X71800000Y-210950000D02*
X74750000Y-210950000D01*
X71800000Y-219550000D02*
X74750000Y-219550000D01*
X71800000Y-220300000D02*
X71800000Y-219550000D01*
X74750000Y-210950000D02*
X74750000Y-215250000D01*
X74750000Y-219550000D02*
X74750000Y-215250000D01*
X75510000Y-210190000D02*
X69540000Y-210190000D01*
X75510000Y-220310000D02*
X75510000Y-210190000D01*
%TO.C,J35*%
X62170000Y-291730000D02*
X62170000Y-291670000D01*
X64830000Y-291670000D02*
X62170000Y-291670000D01*
X64830000Y-291730000D02*
X62170000Y-291730000D01*
X64830000Y-291730000D02*
X64830000Y-291670000D01*
X64830000Y-293000000D02*
X64830000Y-294330000D01*
X64830000Y-294330000D02*
X63500000Y-294330000D01*
%TO.C,J14*%
X62170000Y-170920000D02*
X63500000Y-170920000D01*
X62170000Y-172250000D02*
X62170000Y-170920000D01*
X62170000Y-173520000D02*
X62170000Y-173580000D01*
X62170000Y-173520000D02*
X64830000Y-173520000D01*
X62170000Y-173580000D02*
X64830000Y-173580000D01*
X64830000Y-173520000D02*
X64830000Y-173580000D01*
%TO.C,J9*%
X62170000Y-104420000D02*
X63500000Y-104420000D01*
X62170000Y-105750000D02*
X62170000Y-104420000D01*
X62170000Y-107020000D02*
X62170000Y-107080000D01*
X62170000Y-107020000D02*
X64830000Y-107020000D01*
X62170000Y-107080000D02*
X64830000Y-107080000D01*
X64830000Y-107020000D02*
X64830000Y-107080000D01*
%TO.C,J44*%
X69250000Y-283850000D02*
X69250000Y-285100000D01*
X69250000Y-285100000D02*
X70500000Y-285100000D01*
X69540000Y-274690000D02*
X69540000Y-284810000D01*
X69540000Y-284810000D02*
X75510000Y-284810000D01*
X69550000Y-274700000D02*
X69550000Y-276500000D01*
X69550000Y-276500000D02*
X70300000Y-276500000D01*
X69550000Y-278000000D02*
X69550000Y-281500000D01*
X69550000Y-281500000D02*
X70300000Y-281500000D01*
X69550000Y-283000000D02*
X69550000Y-284800000D01*
X69550000Y-284800000D02*
X70300000Y-284800000D01*
X70300000Y-274700000D02*
X69550000Y-274700000D01*
X70300000Y-276500000D02*
X70300000Y-274700000D01*
X70300000Y-278000000D02*
X69550000Y-278000000D01*
X70300000Y-281500000D02*
X70300000Y-278000000D01*
X70300000Y-283000000D02*
X69550000Y-283000000D01*
X70300000Y-284800000D02*
X70300000Y-283000000D01*
X71800000Y-274700000D02*
X71800000Y-275450000D01*
X71800000Y-275450000D02*
X74750000Y-275450000D01*
X71800000Y-284050000D02*
X74750000Y-284050000D01*
X71800000Y-284800000D02*
X71800000Y-284050000D01*
X74750000Y-275450000D02*
X74750000Y-279750000D01*
X74750000Y-284050000D02*
X74750000Y-279750000D01*
X75510000Y-274690000D02*
X69540000Y-274690000D01*
X75510000Y-284810000D02*
X75510000Y-274690000D01*
%TO.C,J10*%
X62120000Y-118120000D02*
X63450000Y-118120000D01*
X62120000Y-119450000D02*
X62120000Y-118120000D01*
X62120000Y-120720000D02*
X62120000Y-120780000D01*
X62120000Y-120720000D02*
X64780000Y-120720000D01*
X62120000Y-120780000D02*
X64780000Y-120780000D01*
X64780000Y-120720000D02*
X64780000Y-120780000D01*
%TO.C,J40*%
X69250000Y-232350000D02*
X69250000Y-233600000D01*
X69250000Y-233600000D02*
X70500000Y-233600000D01*
X69540000Y-223190000D02*
X69540000Y-233310000D01*
X69540000Y-233310000D02*
X75510000Y-233310000D01*
X69550000Y-223200000D02*
X69550000Y-225000000D01*
X69550000Y-225000000D02*
X70300000Y-225000000D01*
X69550000Y-226500000D02*
X69550000Y-230000000D01*
X69550000Y-230000000D02*
X70300000Y-230000000D01*
X69550000Y-231500000D02*
X69550000Y-233300000D01*
X69550000Y-233300000D02*
X70300000Y-233300000D01*
X70300000Y-223200000D02*
X69550000Y-223200000D01*
X70300000Y-225000000D02*
X70300000Y-223200000D01*
X70300000Y-226500000D02*
X69550000Y-226500000D01*
X70300000Y-230000000D02*
X70300000Y-226500000D01*
X70300000Y-231500000D02*
X69550000Y-231500000D01*
X70300000Y-233300000D02*
X70300000Y-231500000D01*
X71800000Y-223200000D02*
X71800000Y-223950000D01*
X71800000Y-223950000D02*
X74750000Y-223950000D01*
X71800000Y-232550000D02*
X74750000Y-232550000D01*
X71800000Y-233300000D02*
X71800000Y-232550000D01*
X74750000Y-223950000D02*
X74750000Y-228250000D01*
X74750000Y-232550000D02*
X74750000Y-228250000D01*
X75510000Y-223190000D02*
X69540000Y-223190000D01*
X75510000Y-233310000D02*
X75510000Y-223190000D01*
%TO.C,J23*%
X69250000Y-136850000D02*
X69250000Y-138100000D01*
X69250000Y-138100000D02*
X70500000Y-138100000D01*
X69540000Y-127690000D02*
X69540000Y-137810000D01*
X69540000Y-137810000D02*
X75510000Y-137810000D01*
X69550000Y-127700000D02*
X69550000Y-129500000D01*
X69550000Y-129500000D02*
X70300000Y-129500000D01*
X69550000Y-131000000D02*
X69550000Y-134500000D01*
X69550000Y-134500000D02*
X70300000Y-134500000D01*
X69550000Y-136000000D02*
X69550000Y-137800000D01*
X69550000Y-137800000D02*
X70300000Y-137800000D01*
X70300000Y-127700000D02*
X69550000Y-127700000D01*
X70300000Y-129500000D02*
X70300000Y-127700000D01*
X70300000Y-131000000D02*
X69550000Y-131000000D01*
X70300000Y-134500000D02*
X70300000Y-131000000D01*
X70300000Y-136000000D02*
X69550000Y-136000000D01*
X70300000Y-137800000D02*
X70300000Y-136000000D01*
X71800000Y-127700000D02*
X71800000Y-128450000D01*
X71800000Y-128450000D02*
X74750000Y-128450000D01*
X71800000Y-137050000D02*
X74750000Y-137050000D01*
X71800000Y-137800000D02*
X71800000Y-137050000D01*
X74750000Y-128450000D02*
X74750000Y-132750000D01*
X74750000Y-137050000D02*
X74750000Y-132750000D01*
X75510000Y-127690000D02*
X69540000Y-127690000D01*
X75510000Y-137810000D02*
X75510000Y-127690000D01*
%TO.C,J43*%
X69250000Y-271100000D02*
X69250000Y-272350000D01*
X69250000Y-272350000D02*
X70500000Y-272350000D01*
X69540000Y-261940000D02*
X69540000Y-272060000D01*
X69540000Y-272060000D02*
X75510000Y-272060000D01*
X69550000Y-261950000D02*
X69550000Y-263750000D01*
X69550000Y-263750000D02*
X70300000Y-263750000D01*
X69550000Y-265250000D02*
X69550000Y-268750000D01*
X69550000Y-268750000D02*
X70300000Y-268750000D01*
X69550000Y-270250000D02*
X69550000Y-272050000D01*
X69550000Y-272050000D02*
X70300000Y-272050000D01*
X70300000Y-261950000D02*
X69550000Y-261950000D01*
X70300000Y-263750000D02*
X70300000Y-261950000D01*
X70300000Y-265250000D02*
X69550000Y-265250000D01*
X70300000Y-268750000D02*
X70300000Y-265250000D01*
X70300000Y-270250000D02*
X69550000Y-270250000D01*
X70300000Y-272050000D02*
X70300000Y-270250000D01*
X71800000Y-261950000D02*
X71800000Y-262700000D01*
X71800000Y-262700000D02*
X74750000Y-262700000D01*
X71800000Y-271300000D02*
X74750000Y-271300000D01*
X71800000Y-272050000D02*
X71800000Y-271300000D01*
X74750000Y-262700000D02*
X74750000Y-267000000D01*
X74750000Y-271300000D02*
X74750000Y-267000000D01*
X75510000Y-261940000D02*
X69540000Y-261940000D01*
X75510000Y-272060000D02*
X75510000Y-261940000D01*
%TO.C,J11*%
X62170000Y-131420000D02*
X63500000Y-131420000D01*
X62170000Y-132750000D02*
X62170000Y-131420000D01*
X62170000Y-134020000D02*
X62170000Y-134080000D01*
X62170000Y-134020000D02*
X64830000Y-134020000D01*
X62170000Y-134080000D02*
X64830000Y-134080000D01*
X64830000Y-134020000D02*
X64830000Y-134080000D01*
%TO.C,J24*%
X69250000Y-149600000D02*
X69250000Y-150850000D01*
X69250000Y-150850000D02*
X70500000Y-150850000D01*
X69540000Y-140440000D02*
X69540000Y-150560000D01*
X69540000Y-150560000D02*
X75510000Y-150560000D01*
X69550000Y-140450000D02*
X69550000Y-142250000D01*
X69550000Y-142250000D02*
X70300000Y-142250000D01*
X69550000Y-143750000D02*
X69550000Y-147250000D01*
X69550000Y-147250000D02*
X70300000Y-147250000D01*
X69550000Y-148750000D02*
X69550000Y-150550000D01*
X69550000Y-150550000D02*
X70300000Y-150550000D01*
X70300000Y-140450000D02*
X69550000Y-140450000D01*
X70300000Y-142250000D02*
X70300000Y-140450000D01*
X70300000Y-143750000D02*
X69550000Y-143750000D01*
X70300000Y-147250000D02*
X70300000Y-143750000D01*
X70300000Y-148750000D02*
X69550000Y-148750000D01*
X70300000Y-150550000D02*
X70300000Y-148750000D01*
X71800000Y-140450000D02*
X71800000Y-141200000D01*
X71800000Y-141200000D02*
X74750000Y-141200000D01*
X71800000Y-149800000D02*
X74750000Y-149800000D01*
X71800000Y-150550000D02*
X71800000Y-149800000D01*
X74750000Y-141200000D02*
X74750000Y-145500000D01*
X74750000Y-149800000D02*
X74750000Y-145500000D01*
X75510000Y-140440000D02*
X69540000Y-140440000D01*
X75510000Y-150560000D02*
X75510000Y-140440000D01*
%TO.C,J4*%
X62170000Y-38670000D02*
X63500000Y-38670000D01*
X62170000Y-40000000D02*
X62170000Y-38670000D01*
X62170000Y-41270000D02*
X62170000Y-41330000D01*
X62170000Y-41270000D02*
X64830000Y-41270000D01*
X62170000Y-41330000D02*
X64830000Y-41330000D01*
X64830000Y-41270000D02*
X64830000Y-41330000D01*
%TO.C,J42*%
X69250000Y-258100000D02*
X69250000Y-259350000D01*
X69250000Y-259350000D02*
X70500000Y-259350000D01*
X69540000Y-248940000D02*
X69540000Y-259060000D01*
X69540000Y-259060000D02*
X75510000Y-259060000D01*
X69550000Y-248950000D02*
X69550000Y-250750000D01*
X69550000Y-250750000D02*
X70300000Y-250750000D01*
X69550000Y-252250000D02*
X69550000Y-255750000D01*
X69550000Y-255750000D02*
X70300000Y-255750000D01*
X69550000Y-257250000D02*
X69550000Y-259050000D01*
X69550000Y-259050000D02*
X70300000Y-259050000D01*
X70300000Y-248950000D02*
X69550000Y-248950000D01*
X70300000Y-250750000D02*
X70300000Y-248950000D01*
X70300000Y-252250000D02*
X69550000Y-252250000D01*
X70300000Y-255750000D02*
X70300000Y-252250000D01*
X70300000Y-257250000D02*
X69550000Y-257250000D01*
X70300000Y-259050000D02*
X70300000Y-257250000D01*
X71800000Y-248950000D02*
X71800000Y-249700000D01*
X71800000Y-249700000D02*
X74750000Y-249700000D01*
X71800000Y-258300000D02*
X74750000Y-258300000D01*
X71800000Y-259050000D02*
X71800000Y-258300000D01*
X74750000Y-249700000D02*
X74750000Y-254000000D01*
X74750000Y-258300000D02*
X74750000Y-254000000D01*
X75510000Y-248940000D02*
X69540000Y-248940000D01*
X75510000Y-259060000D02*
X75510000Y-248940000D01*
%TO.C,J37*%
X62170000Y-317480000D02*
X62170000Y-317420000D01*
X64830000Y-317420000D02*
X62170000Y-317420000D01*
X64830000Y-317480000D02*
X62170000Y-317480000D01*
X64830000Y-317480000D02*
X64830000Y-317420000D01*
X64830000Y-318750000D02*
X64830000Y-320080000D01*
X64830000Y-320080000D02*
X63500000Y-320080000D01*
%TO.C,J30*%
X62170000Y-226980000D02*
X62170000Y-226920000D01*
X64830000Y-226920000D02*
X62170000Y-226920000D01*
X64830000Y-226980000D02*
X62170000Y-226980000D01*
X64830000Y-226980000D02*
X64830000Y-226920000D01*
X64830000Y-228250000D02*
X64830000Y-229580000D01*
X64830000Y-229580000D02*
X63500000Y-229580000D01*
%TO.C,J20*%
X69250000Y-96350000D02*
X69250000Y-97600000D01*
X69250000Y-97600000D02*
X70500000Y-97600000D01*
X69540000Y-87190000D02*
X69540000Y-97310000D01*
X69540000Y-97310000D02*
X75510000Y-97310000D01*
X69550000Y-87200000D02*
X69550000Y-89000000D01*
X69550000Y-89000000D02*
X70300000Y-89000000D01*
X69550000Y-90500000D02*
X69550000Y-94000000D01*
X69550000Y-94000000D02*
X70300000Y-94000000D01*
X69550000Y-95500000D02*
X69550000Y-97300000D01*
X69550000Y-97300000D02*
X70300000Y-97300000D01*
X70300000Y-87200000D02*
X69550000Y-87200000D01*
X70300000Y-89000000D02*
X70300000Y-87200000D01*
X70300000Y-90500000D02*
X69550000Y-90500000D01*
X70300000Y-94000000D02*
X70300000Y-90500000D01*
X70300000Y-95500000D02*
X69550000Y-95500000D01*
X70300000Y-97300000D02*
X70300000Y-95500000D01*
X71800000Y-87200000D02*
X71800000Y-87950000D01*
X71800000Y-87950000D02*
X74750000Y-87950000D01*
X71800000Y-96550000D02*
X74750000Y-96550000D01*
X71800000Y-97300000D02*
X71800000Y-96550000D01*
X74750000Y-87950000D02*
X74750000Y-92250000D01*
X74750000Y-96550000D02*
X74750000Y-92250000D01*
X75510000Y-87190000D02*
X69540000Y-87190000D01*
X75510000Y-97310000D02*
X75510000Y-87190000D01*
%TO.C,J27*%
X69250000Y-189350000D02*
X69250000Y-190600000D01*
X69250000Y-190600000D02*
X70500000Y-190600000D01*
X69540000Y-180190000D02*
X69540000Y-190310000D01*
X69540000Y-190310000D02*
X75510000Y-190310000D01*
X69550000Y-180200000D02*
X69550000Y-182000000D01*
X69550000Y-182000000D02*
X70300000Y-182000000D01*
X69550000Y-183500000D02*
X69550000Y-187000000D01*
X69550000Y-187000000D02*
X70300000Y-187000000D01*
X69550000Y-188500000D02*
X69550000Y-190300000D01*
X69550000Y-190300000D02*
X70300000Y-190300000D01*
X70300000Y-180200000D02*
X69550000Y-180200000D01*
X70300000Y-182000000D02*
X70300000Y-180200000D01*
X70300000Y-183500000D02*
X69550000Y-183500000D01*
X70300000Y-187000000D02*
X70300000Y-183500000D01*
X70300000Y-188500000D02*
X69550000Y-188500000D01*
X70300000Y-190300000D02*
X70300000Y-188500000D01*
X71800000Y-180200000D02*
X71800000Y-180950000D01*
X71800000Y-180950000D02*
X74750000Y-180950000D01*
X71800000Y-189550000D02*
X74750000Y-189550000D01*
X71800000Y-190300000D02*
X71800000Y-189550000D01*
X74750000Y-180950000D02*
X74750000Y-185250000D01*
X74750000Y-189550000D02*
X74750000Y-185250000D01*
X75510000Y-180190000D02*
X69540000Y-180190000D01*
X75510000Y-190310000D02*
X75510000Y-180190000D01*
%TO.C,J15*%
X62170000Y-184170000D02*
X63500000Y-184170000D01*
X62170000Y-185500000D02*
X62170000Y-184170000D01*
X62170000Y-186770000D02*
X62170000Y-186830000D01*
X62170000Y-186770000D02*
X64830000Y-186770000D01*
X62170000Y-186830000D02*
X64830000Y-186830000D01*
X64830000Y-186770000D02*
X64830000Y-186830000D01*
%TD*%
M02*
