%TF.GenerationSoftware,KiCad,Pcbnew,8.0.1*%
%TF.CreationDate,2024-04-02T05:11:47+03:00*%
%TF.ProjectId,led connectors,6c656420-636f-46e6-9e65-63746f72732e,rev?*%
%TF.SameCoordinates,Original*%
%TF.FileFunction,Copper,L2,Bot*%
%TF.FilePolarity,Positive*%
%FSLAX46Y46*%
G04 Gerber Fmt 4.6, Leading zero omitted, Abs format (unit mm)*
G04 Created by KiCad (PCBNEW 8.0.1) date 2024-04-02 05:11:47*
%MOMM*%
%LPD*%
G01*
G04 APERTURE LIST*
G04 Aperture macros list*
%AMRoundRect*
0 Rectangle with rounded corners*
0 $1 Rounding radius*
0 $2 $3 $4 $5 $6 $7 $8 $9 X,Y pos of 4 corners*
0 Add a 4 corners polygon primitive as box body*
4,1,4,$2,$3,$4,$5,$6,$7,$8,$9,$2,$3,0*
0 Add four circle primitives for the rounded corners*
1,1,$1+$1,$2,$3*
1,1,$1+$1,$4,$5*
1,1,$1+$1,$6,$7*
1,1,$1+$1,$8,$9*
0 Add four rect primitives between the rounded corners*
20,1,$1+$1,$2,$3,$4,$5,0*
20,1,$1+$1,$4,$5,$6,$7,0*
20,1,$1+$1,$6,$7,$8,$9,0*
20,1,$1+$1,$8,$9,$2,$3,0*%
G04 Aperture macros list end*
%TA.AperFunction,ComponentPad*%
%ADD10R,1.700000X1.700000*%
%TD*%
%TA.AperFunction,ComponentPad*%
%ADD11RoundRect,0.250000X0.725000X-0.600000X0.725000X0.600000X-0.725000X0.600000X-0.725000X-0.600000X0*%
%TD*%
%TA.AperFunction,ComponentPad*%
%ADD12O,1.950000X1.700000*%
%TD*%
%TA.AperFunction,ViaPad*%
%ADD13C,1.000000*%
%TD*%
%TA.AperFunction,ViaPad*%
%ADD14C,4.000000*%
%TD*%
G04 APERTURE END LIST*
D10*
%TO.P,J48,1,Pin_1*%
%TO.N,GND*%
X31750000Y-29500000D03*
%TD*%
%TO.P,J1,1,Pin_1*%
%TO.N,+5V*%
X31750000Y-23000000D03*
%TD*%
%TO.P,J33,1,Pin_1*%
%TO.N,/F*%
X63500000Y-267000000D03*
%TD*%
D11*
%TO.P,J47,1,Pin_1*%
%TO.N,+5V*%
X72000000Y-321250000D03*
D12*
%TO.P,J47,2,Pin_2*%
%TO.N,/J*%
X72000000Y-318750000D03*
%TO.P,J47,3,Pin_3*%
%TO.N,GND*%
X72000000Y-316250000D03*
%TD*%
D10*
%TO.P,J31,1,Pin_1*%
%TO.N,/D*%
X63500000Y-241000000D03*
%TD*%
%TO.P,J36,1,Pin_1*%
%TO.N,/I*%
X63500000Y-305750000D03*
%TD*%
%TO.P,J13,1,Pin_1*%
%TO.N,/r10*%
X63500000Y-159250000D03*
%TD*%
%TO.P,J34,1,Pin_1*%
%TO.N,/G*%
X63500000Y-279750000D03*
%TD*%
D11*
%TO.P,J16,1,Pin_1*%
%TO.N,+5V*%
X72000000Y-42500000D03*
D12*
%TO.P,J16,2,Pin_2*%
%TO.N,/r1*%
X72000000Y-40000000D03*
%TO.P,J16,3,Pin_3*%
%TO.N,GND*%
X72000000Y-37500000D03*
%TD*%
D11*
%TO.P,J46,1,Pin_1*%
%TO.N,+5V*%
X72000000Y-308250000D03*
D12*
%TO.P,J46,2,Pin_2*%
%TO.N,/I*%
X72000000Y-305750000D03*
%TO.P,J46,3,Pin_3*%
%TO.N,GND*%
X72000000Y-303250000D03*
%TD*%
D11*
%TO.P,J18,1,Pin_1*%
%TO.N,+5V*%
X72000000Y-69000000D03*
D12*
%TO.P,J18,2,Pin_2*%
%TO.N,/r3*%
X72000000Y-66500000D03*
%TO.P,J18,3,Pin_3*%
%TO.N,GND*%
X72000000Y-64000000D03*
%TD*%
D10*
%TO.P,J12,1,Pin_1*%
%TO.N,/r9*%
X63500000Y-145500000D03*
%TD*%
D11*
%TO.P,J19,1,Pin_1*%
%TO.N,+5V*%
X72050000Y-81750000D03*
D12*
%TO.P,J19,2,Pin_2*%
%TO.N,/r4*%
X72050000Y-79250000D03*
%TO.P,J19,3,Pin_3*%
%TO.N,GND*%
X72050000Y-76750000D03*
%TD*%
D11*
%TO.P,J2,1,Pin_1*%
%TO.N,+5V*%
X72000000Y-29500000D03*
D12*
%TO.P,J2,2,Pin_2*%
%TO.N,/r0*%
X72000000Y-27000000D03*
%TO.P,J2,3,Pin_3*%
%TO.N,GND*%
X72000000Y-24500000D03*
%TD*%
D10*
%TO.P,J6,1,Pin_1*%
%TO.N,/r3*%
X63475000Y-66450000D03*
%TD*%
D11*
%TO.P,J41,1,Pin_1*%
%TO.N,+5V*%
X72000000Y-243500000D03*
D12*
%TO.P,J41,2,Pin_2*%
%TO.N,/D*%
X72000000Y-241000000D03*
%TO.P,J41,3,Pin_3*%
%TO.N,GND*%
X72000000Y-238500000D03*
%TD*%
D11*
%TO.P,J21,1,Pin_1*%
%TO.N,+5V*%
X72000000Y-108250000D03*
D12*
%TO.P,J21,2,Pin_2*%
%TO.N,/r6*%
X72000000Y-105750000D03*
%TO.P,J21,3,Pin_3*%
%TO.N,GND*%
X72000000Y-103250000D03*
%TD*%
D11*
%TO.P,J17,1,Pin_1*%
%TO.N,+5V*%
X72000000Y-55750000D03*
D12*
%TO.P,J17,2,Pin_2*%
%TO.N,/r2*%
X72000000Y-53250000D03*
%TO.P,J17,3,Pin_3*%
%TO.N,GND*%
X72000000Y-50750000D03*
%TD*%
D10*
%TO.P,J7,1,Pin_1*%
%TO.N,/r4*%
X63500000Y-79250000D03*
%TD*%
%TO.P,J5,1,Pin_1*%
%TO.N,/r2*%
X63500000Y-53600000D03*
%TD*%
D11*
%TO.P,J22,1,Pin_1*%
%TO.N,+5V*%
X72000000Y-122000000D03*
D12*
%TO.P,J22,2,Pin_2*%
%TO.N,/r7*%
X72000000Y-119500000D03*
%TO.P,J22,3,Pin_3*%
%TO.N,GND*%
X72000000Y-117000000D03*
%TD*%
D10*
%TO.P,J8,1,Pin_1*%
%TO.N,/r5*%
X63500000Y-92350000D03*
%TD*%
%TO.P,J3,1,Pin_1*%
%TO.N,/r0*%
X63500000Y-27000000D03*
%TD*%
D11*
%TO.P,J26,1,Pin_1*%
%TO.N,+5V*%
X72000000Y-174750000D03*
D12*
%TO.P,J26,2,Pin_2*%
%TO.N,/r11*%
X72000000Y-172250000D03*
%TO.P,J26,3,Pin_3*%
%TO.N,GND*%
X72000000Y-169750000D03*
%TD*%
D10*
%TO.P,J28,1,Pin_1*%
%TO.N,/A*%
X63500000Y-202000000D03*
%TD*%
D11*
%TO.P,J25,1,Pin_1*%
%TO.N,+5V*%
X72000000Y-161750000D03*
D12*
%TO.P,J25,2,Pin_2*%
%TO.N,/r10*%
X72000000Y-159250000D03*
%TO.P,J25,3,Pin_3*%
%TO.N,GND*%
X72000000Y-156750000D03*
%TD*%
D11*
%TO.P,J45,1,Pin_1*%
%TO.N,+5V*%
X72000000Y-295500000D03*
D12*
%TO.P,J45,2,Pin_2*%
%TO.N,/H*%
X72000000Y-293000000D03*
%TO.P,J45,3,Pin_3*%
%TO.N,GND*%
X72000000Y-290500000D03*
%TD*%
D11*
%TO.P,J38,1,Pin_1*%
%TO.N,+5V*%
X72000000Y-204500000D03*
D12*
%TO.P,J38,2,Pin_2*%
%TO.N,/A*%
X72000000Y-202000000D03*
%TO.P,J38,3,Pin_3*%
%TO.N,GND*%
X72000000Y-199500000D03*
%TD*%
D10*
%TO.P,J29,1,Pin_1*%
%TO.N,/B*%
X63500000Y-215250000D03*
%TD*%
%TO.P,J32,1,Pin_1*%
%TO.N,/E*%
X63500000Y-254000000D03*
%TD*%
D11*
%TO.P,J39,1,Pin_1*%
%TO.N,+5V*%
X72000000Y-217750000D03*
D12*
%TO.P,J39,2,Pin_2*%
%TO.N,/B*%
X72000000Y-215250000D03*
%TO.P,J39,3,Pin_3*%
%TO.N,GND*%
X72000000Y-212750000D03*
%TD*%
D10*
%TO.P,J35,1,Pin_1*%
%TO.N,/H*%
X63500000Y-293000000D03*
%TD*%
%TO.P,J14,1,Pin_1*%
%TO.N,/r11*%
X63500000Y-172250000D03*
%TD*%
%TO.P,J9,1,Pin_1*%
%TO.N,/r6*%
X63500000Y-105750000D03*
%TD*%
D11*
%TO.P,J44,1,Pin_1*%
%TO.N,+5V*%
X72000000Y-282250000D03*
D12*
%TO.P,J44,2,Pin_2*%
%TO.N,/G*%
X72000000Y-279750000D03*
%TO.P,J44,3,Pin_3*%
%TO.N,GND*%
X72000000Y-277250000D03*
%TD*%
D10*
%TO.P,J10,1,Pin_1*%
%TO.N,/r7*%
X63450000Y-119450000D03*
%TD*%
D11*
%TO.P,J40,1,Pin_1*%
%TO.N,+5V*%
X72000000Y-230750000D03*
D12*
%TO.P,J40,2,Pin_2*%
%TO.N,/C*%
X72000000Y-228250000D03*
%TO.P,J40,3,Pin_3*%
%TO.N,GND*%
X72000000Y-225750000D03*
%TD*%
D11*
%TO.P,J23,1,Pin_1*%
%TO.N,+5V*%
X72000000Y-135250000D03*
D12*
%TO.P,J23,2,Pin_2*%
%TO.N,/r8*%
X72000000Y-132750000D03*
%TO.P,J23,3,Pin_3*%
%TO.N,GND*%
X72000000Y-130250000D03*
%TD*%
D11*
%TO.P,J43,1,Pin_1*%
%TO.N,+5V*%
X72000000Y-269500000D03*
D12*
%TO.P,J43,2,Pin_2*%
%TO.N,/F*%
X72000000Y-267000000D03*
%TO.P,J43,3,Pin_3*%
%TO.N,GND*%
X72000000Y-264500000D03*
%TD*%
D10*
%TO.P,J11,1,Pin_1*%
%TO.N,/r8*%
X63500000Y-132750000D03*
%TD*%
D11*
%TO.P,J24,1,Pin_1*%
%TO.N,+5V*%
X72000000Y-148000000D03*
D12*
%TO.P,J24,2,Pin_2*%
%TO.N,/r9*%
X72000000Y-145500000D03*
%TO.P,J24,3,Pin_3*%
%TO.N,GND*%
X72000000Y-143000000D03*
%TD*%
D10*
%TO.P,J4,1,Pin_1*%
%TO.N,/r1*%
X63500000Y-40000000D03*
%TD*%
D11*
%TO.P,J42,1,Pin_1*%
%TO.N,+5V*%
X72000000Y-256500000D03*
D12*
%TO.P,J42,2,Pin_2*%
%TO.N,/E*%
X72000000Y-254000000D03*
%TO.P,J42,3,Pin_3*%
%TO.N,GND*%
X72000000Y-251500000D03*
%TD*%
D10*
%TO.P,J37,1,Pin_1*%
%TO.N,/J*%
X63500000Y-318750000D03*
%TD*%
%TO.P,J30,1,Pin_1*%
%TO.N,/C*%
X63500000Y-228250000D03*
%TD*%
D11*
%TO.P,J20,1,Pin_1*%
%TO.N,+5V*%
X72000000Y-94750000D03*
D12*
%TO.P,J20,2,Pin_2*%
%TO.N,/r5*%
X72000000Y-92250000D03*
%TO.P,J20,3,Pin_3*%
%TO.N,GND*%
X72000000Y-89750000D03*
%TD*%
D11*
%TO.P,J27,1,Pin_1*%
%TO.N,+5V*%
X72000000Y-187750000D03*
D12*
%TO.P,J27,2,Pin_2*%
%TO.N,/r12*%
X72000000Y-185250000D03*
%TO.P,J27,3,Pin_3*%
%TO.N,GND*%
X72000000Y-182750000D03*
%TD*%
D10*
%TO.P,J15,1,Pin_1*%
%TO.N,/r12*%
X63500000Y-185500000D03*
%TD*%
D13*
%TO.N,GND*%
X76500000Y-316250000D03*
X76500000Y-303250000D03*
X76500000Y-290500000D03*
X76500000Y-277250000D03*
X76500000Y-264500000D03*
X76500000Y-251500000D03*
X76500000Y-238500000D03*
X76500000Y-225750000D03*
X76500000Y-212750000D03*
X76500000Y-199500000D03*
X76500000Y-182750000D03*
X76500000Y-169750000D03*
X76500000Y-156750000D03*
X76500000Y-143000000D03*
X76500000Y-130250000D03*
X76500000Y-117000000D03*
X76500000Y-103250000D03*
X76500000Y-89750000D03*
X76500000Y-76750000D03*
X76500000Y-64000000D03*
X76500000Y-50750000D03*
X76500000Y-37500000D03*
X76500000Y-24500000D03*
D14*
X37500000Y-29500000D03*
%TD*%
%TA.AperFunction,Conductor*%
%TO.N,GND*%
G36*
X80193039Y-19019685D02*
G01*
X80238794Y-19072489D01*
X80250000Y-19124000D01*
X80250000Y-328126000D01*
X80230315Y-328193039D01*
X80177511Y-328238794D01*
X80126000Y-328250000D01*
X26624000Y-328250000D01*
X26556961Y-328230315D01*
X26511206Y-328177511D01*
X26500000Y-328126000D01*
X26500000Y-321900001D01*
X70524500Y-321900001D01*
X70524501Y-321900018D01*
X70535000Y-322002796D01*
X70535001Y-322002799D01*
X70590185Y-322169331D01*
X70590186Y-322169334D01*
X70682288Y-322318656D01*
X70806344Y-322442712D01*
X70955666Y-322534814D01*
X71122203Y-322589999D01*
X71224991Y-322600500D01*
X72775008Y-322600499D01*
X72877797Y-322589999D01*
X73044334Y-322534814D01*
X73193656Y-322442712D01*
X73317712Y-322318656D01*
X73409814Y-322169334D01*
X73464999Y-322002797D01*
X73475500Y-321900009D01*
X73475499Y-320599992D01*
X73464999Y-320497203D01*
X73409814Y-320330666D01*
X73317712Y-320181344D01*
X73193656Y-320057288D01*
X73044334Y-319965186D01*
X73044333Y-319965185D01*
X73038878Y-319961821D01*
X72992154Y-319909873D01*
X72980931Y-319840910D01*
X73008775Y-319776828D01*
X73016272Y-319768623D01*
X73155104Y-319629792D01*
X73280051Y-319457816D01*
X73376557Y-319268412D01*
X73442246Y-319066243D01*
X73475500Y-318856287D01*
X73475500Y-318643713D01*
X73442246Y-318433757D01*
X73376557Y-318231588D01*
X73280051Y-318042184D01*
X73280049Y-318042181D01*
X73280048Y-318042179D01*
X73155109Y-317870213D01*
X73004790Y-317719894D01*
X73004785Y-317719890D01*
X72839781Y-317600008D01*
X72797115Y-317544678D01*
X72791136Y-317475065D01*
X72823741Y-317413270D01*
X72839781Y-317399371D01*
X73004466Y-317279721D01*
X73154723Y-317129464D01*
X73154727Y-317129459D01*
X73279620Y-316957557D01*
X73376095Y-316768217D01*
X73441757Y-316566129D01*
X73441757Y-316566126D01*
X73452231Y-316500000D01*
X72404146Y-316500000D01*
X72442630Y-316433343D01*
X72475000Y-316312535D01*
X72475000Y-316187465D01*
X72442630Y-316066657D01*
X72404146Y-316000000D01*
X73452231Y-316000000D01*
X73441757Y-315933873D01*
X73441757Y-315933870D01*
X73376095Y-315731782D01*
X73279620Y-315542442D01*
X73154727Y-315370540D01*
X73154723Y-315370535D01*
X73004464Y-315220276D01*
X73004459Y-315220272D01*
X72832557Y-315095379D01*
X72643217Y-314998904D01*
X72441128Y-314933242D01*
X72250000Y-314902969D01*
X72250000Y-315845854D01*
X72183343Y-315807370D01*
X72062535Y-315775000D01*
X71937465Y-315775000D01*
X71816657Y-315807370D01*
X71750000Y-315845854D01*
X71750000Y-314902969D01*
X71558872Y-314933242D01*
X71558869Y-314933242D01*
X71356782Y-314998904D01*
X71167442Y-315095379D01*
X70995540Y-315220272D01*
X70995535Y-315220276D01*
X70845276Y-315370535D01*
X70845272Y-315370540D01*
X70720379Y-315542442D01*
X70623904Y-315731782D01*
X70558242Y-315933870D01*
X70558242Y-315933873D01*
X70547769Y-316000000D01*
X71595854Y-316000000D01*
X71557370Y-316066657D01*
X71525000Y-316187465D01*
X71525000Y-316312535D01*
X71557370Y-316433343D01*
X71595854Y-316500000D01*
X70547769Y-316500000D01*
X70558242Y-316566126D01*
X70558242Y-316566129D01*
X70623904Y-316768217D01*
X70720379Y-316957557D01*
X70845272Y-317129459D01*
X70845276Y-317129464D01*
X70995535Y-317279723D01*
X70995540Y-317279727D01*
X71160218Y-317399372D01*
X71202884Y-317454701D01*
X71208863Y-317524315D01*
X71176258Y-317586110D01*
X71160218Y-317600008D01*
X70995214Y-317719890D01*
X70995209Y-317719894D01*
X70844890Y-317870213D01*
X70719951Y-318042179D01*
X70623444Y-318231585D01*
X70557753Y-318433760D01*
X70524500Y-318643713D01*
X70524500Y-318856286D01*
X70557753Y-319066239D01*
X70623444Y-319268414D01*
X70719951Y-319457820D01*
X70844890Y-319629786D01*
X70983705Y-319768601D01*
X71017190Y-319829924D01*
X71012206Y-319899616D01*
X70970334Y-319955549D01*
X70961121Y-319961821D01*
X70806342Y-320057289D01*
X70682289Y-320181342D01*
X70590187Y-320330663D01*
X70590186Y-320330666D01*
X70535001Y-320497203D01*
X70535001Y-320497204D01*
X70535000Y-320497204D01*
X70524500Y-320599983D01*
X70524500Y-321900001D01*
X26500000Y-321900001D01*
X26500000Y-319647870D01*
X62149500Y-319647870D01*
X62149501Y-319647876D01*
X62155908Y-319707483D01*
X62206202Y-319842328D01*
X62206206Y-319842335D01*
X62292452Y-319957544D01*
X62292455Y-319957547D01*
X62407664Y-320043793D01*
X62407671Y-320043797D01*
X62542517Y-320094091D01*
X62542516Y-320094091D01*
X62549444Y-320094835D01*
X62602127Y-320100500D01*
X64397872Y-320100499D01*
X64457483Y-320094091D01*
X64592331Y-320043796D01*
X64707546Y-319957546D01*
X64793796Y-319842331D01*
X64844091Y-319707483D01*
X64850500Y-319647873D01*
X64850499Y-317852128D01*
X64844091Y-317792517D01*
X64817004Y-317719894D01*
X64793797Y-317657671D01*
X64793793Y-317657664D01*
X64707547Y-317542455D01*
X64707544Y-317542452D01*
X64592335Y-317456206D01*
X64592328Y-317456202D01*
X64457482Y-317405908D01*
X64457483Y-317405908D01*
X64397883Y-317399501D01*
X64397881Y-317399500D01*
X64397873Y-317399500D01*
X64397864Y-317399500D01*
X62602129Y-317399500D01*
X62602123Y-317399501D01*
X62542516Y-317405908D01*
X62407671Y-317456202D01*
X62407664Y-317456206D01*
X62292455Y-317542452D01*
X62292452Y-317542455D01*
X62206206Y-317657664D01*
X62206202Y-317657671D01*
X62155908Y-317792517D01*
X62149501Y-317852116D01*
X62149501Y-317852123D01*
X62149500Y-317852135D01*
X62149500Y-319647870D01*
X26500000Y-319647870D01*
X26500000Y-308900001D01*
X70524500Y-308900001D01*
X70524501Y-308900018D01*
X70535000Y-309002796D01*
X70535001Y-309002799D01*
X70590185Y-309169331D01*
X70590186Y-309169334D01*
X70682288Y-309318656D01*
X70806344Y-309442712D01*
X70955666Y-309534814D01*
X71122203Y-309589999D01*
X71224991Y-309600500D01*
X72775008Y-309600499D01*
X72877797Y-309589999D01*
X73044334Y-309534814D01*
X73193656Y-309442712D01*
X73317712Y-309318656D01*
X73409814Y-309169334D01*
X73464999Y-309002797D01*
X73475500Y-308900009D01*
X73475499Y-307599992D01*
X73464999Y-307497203D01*
X73409814Y-307330666D01*
X73317712Y-307181344D01*
X73193656Y-307057288D01*
X73044334Y-306965186D01*
X73044333Y-306965185D01*
X73038878Y-306961821D01*
X72992154Y-306909873D01*
X72980931Y-306840910D01*
X73008775Y-306776828D01*
X73016272Y-306768623D01*
X73155104Y-306629792D01*
X73280051Y-306457816D01*
X73376557Y-306268412D01*
X73442246Y-306066243D01*
X73475500Y-305856287D01*
X73475500Y-305643713D01*
X73442246Y-305433757D01*
X73376557Y-305231588D01*
X73280051Y-305042184D01*
X73280049Y-305042181D01*
X73280048Y-305042179D01*
X73155109Y-304870213D01*
X73004790Y-304719894D01*
X73004785Y-304719890D01*
X72839781Y-304600008D01*
X72797115Y-304544678D01*
X72791136Y-304475065D01*
X72823741Y-304413270D01*
X72839781Y-304399371D01*
X73004466Y-304279721D01*
X73154723Y-304129464D01*
X73154727Y-304129459D01*
X73279620Y-303957557D01*
X73376095Y-303768217D01*
X73441757Y-303566129D01*
X73441757Y-303566126D01*
X73452231Y-303500000D01*
X72404146Y-303500000D01*
X72442630Y-303433343D01*
X72475000Y-303312535D01*
X72475000Y-303187465D01*
X72442630Y-303066657D01*
X72404146Y-303000000D01*
X73452231Y-303000000D01*
X73441757Y-302933873D01*
X73441757Y-302933870D01*
X73376095Y-302731782D01*
X73279620Y-302542442D01*
X73154727Y-302370540D01*
X73154723Y-302370535D01*
X73004464Y-302220276D01*
X73004459Y-302220272D01*
X72832557Y-302095379D01*
X72643217Y-301998904D01*
X72441128Y-301933242D01*
X72250000Y-301902969D01*
X72250000Y-302845854D01*
X72183343Y-302807370D01*
X72062535Y-302775000D01*
X71937465Y-302775000D01*
X71816657Y-302807370D01*
X71750000Y-302845854D01*
X71750000Y-301902969D01*
X71558872Y-301933242D01*
X71558869Y-301933242D01*
X71356782Y-301998904D01*
X71167442Y-302095379D01*
X70995540Y-302220272D01*
X70995535Y-302220276D01*
X70845276Y-302370535D01*
X70845272Y-302370540D01*
X70720379Y-302542442D01*
X70623904Y-302731782D01*
X70558242Y-302933870D01*
X70558242Y-302933873D01*
X70547769Y-303000000D01*
X71595854Y-303000000D01*
X71557370Y-303066657D01*
X71525000Y-303187465D01*
X71525000Y-303312535D01*
X71557370Y-303433343D01*
X71595854Y-303500000D01*
X70547769Y-303500000D01*
X70558242Y-303566126D01*
X70558242Y-303566129D01*
X70623904Y-303768217D01*
X70720379Y-303957557D01*
X70845272Y-304129459D01*
X70845276Y-304129464D01*
X70995535Y-304279723D01*
X70995540Y-304279727D01*
X71160218Y-304399372D01*
X71202884Y-304454701D01*
X71208863Y-304524315D01*
X71176258Y-304586110D01*
X71160218Y-304600008D01*
X70995214Y-304719890D01*
X70995209Y-304719894D01*
X70844890Y-304870213D01*
X70719951Y-305042179D01*
X70623444Y-305231585D01*
X70557753Y-305433760D01*
X70524500Y-305643713D01*
X70524500Y-305856286D01*
X70557753Y-306066239D01*
X70623444Y-306268414D01*
X70719951Y-306457820D01*
X70844890Y-306629786D01*
X70983705Y-306768601D01*
X71017190Y-306829924D01*
X71012206Y-306899616D01*
X70970334Y-306955549D01*
X70961121Y-306961821D01*
X70806342Y-307057289D01*
X70682289Y-307181342D01*
X70590187Y-307330663D01*
X70590186Y-307330666D01*
X70535001Y-307497203D01*
X70535001Y-307497204D01*
X70535000Y-307497204D01*
X70524500Y-307599983D01*
X70524500Y-308900001D01*
X26500000Y-308900001D01*
X26500000Y-306647870D01*
X62149500Y-306647870D01*
X62149501Y-306647876D01*
X62155908Y-306707483D01*
X62206202Y-306842328D01*
X62206206Y-306842335D01*
X62292452Y-306957544D01*
X62292455Y-306957547D01*
X62407664Y-307043793D01*
X62407671Y-307043797D01*
X62542517Y-307094091D01*
X62542516Y-307094091D01*
X62549444Y-307094835D01*
X62602127Y-307100500D01*
X64397872Y-307100499D01*
X64457483Y-307094091D01*
X64592331Y-307043796D01*
X64707546Y-306957546D01*
X64793796Y-306842331D01*
X64844091Y-306707483D01*
X64850500Y-306647873D01*
X64850499Y-304852128D01*
X64844091Y-304792517D01*
X64817004Y-304719894D01*
X64793797Y-304657671D01*
X64793793Y-304657664D01*
X64707547Y-304542455D01*
X64707544Y-304542452D01*
X64592335Y-304456206D01*
X64592328Y-304456202D01*
X64457482Y-304405908D01*
X64457483Y-304405908D01*
X64397883Y-304399501D01*
X64397881Y-304399500D01*
X64397873Y-304399500D01*
X64397864Y-304399500D01*
X62602129Y-304399500D01*
X62602123Y-304399501D01*
X62542516Y-304405908D01*
X62407671Y-304456202D01*
X62407664Y-304456206D01*
X62292455Y-304542452D01*
X62292452Y-304542455D01*
X62206206Y-304657664D01*
X62206202Y-304657671D01*
X62155908Y-304792517D01*
X62149501Y-304852116D01*
X62149501Y-304852123D01*
X62149500Y-304852135D01*
X62149500Y-306647870D01*
X26500000Y-306647870D01*
X26500000Y-296150001D01*
X70524500Y-296150001D01*
X70524501Y-296150018D01*
X70535000Y-296252796D01*
X70535001Y-296252799D01*
X70590185Y-296419331D01*
X70590186Y-296419334D01*
X70682288Y-296568656D01*
X70806344Y-296692712D01*
X70955666Y-296784814D01*
X71122203Y-296839999D01*
X71224991Y-296850500D01*
X72775008Y-296850499D01*
X72877797Y-296839999D01*
X73044334Y-296784814D01*
X73193656Y-296692712D01*
X73317712Y-296568656D01*
X73409814Y-296419334D01*
X73464999Y-296252797D01*
X73475500Y-296150009D01*
X73475499Y-294849992D01*
X73464999Y-294747203D01*
X73409814Y-294580666D01*
X73317712Y-294431344D01*
X73193656Y-294307288D01*
X73044334Y-294215186D01*
X73044333Y-294215185D01*
X73038878Y-294211821D01*
X72992154Y-294159873D01*
X72980931Y-294090910D01*
X73008775Y-294026828D01*
X73016272Y-294018623D01*
X73155104Y-293879792D01*
X73280051Y-293707816D01*
X73376557Y-293518412D01*
X73442246Y-293316243D01*
X73475500Y-293106287D01*
X73475500Y-292893713D01*
X73442246Y-292683757D01*
X73376557Y-292481588D01*
X73280051Y-292292184D01*
X73280049Y-292292181D01*
X73280048Y-292292179D01*
X73155109Y-292120213D01*
X73004790Y-291969894D01*
X73004785Y-291969890D01*
X72839781Y-291850008D01*
X72797115Y-291794678D01*
X72791136Y-291725065D01*
X72823741Y-291663270D01*
X72839781Y-291649371D01*
X73004466Y-291529721D01*
X73154723Y-291379464D01*
X73154727Y-291379459D01*
X73279620Y-291207557D01*
X73376095Y-291018217D01*
X73441757Y-290816129D01*
X73441757Y-290816126D01*
X73452231Y-290750000D01*
X72404146Y-290750000D01*
X72442630Y-290683343D01*
X72475000Y-290562535D01*
X72475000Y-290437465D01*
X72442630Y-290316657D01*
X72404146Y-290250000D01*
X73452231Y-290250000D01*
X73441757Y-290183873D01*
X73441757Y-290183870D01*
X73376095Y-289981782D01*
X73279620Y-289792442D01*
X73154727Y-289620540D01*
X73154723Y-289620535D01*
X73004464Y-289470276D01*
X73004459Y-289470272D01*
X72832557Y-289345379D01*
X72643217Y-289248904D01*
X72441128Y-289183242D01*
X72250000Y-289152969D01*
X72250000Y-290095854D01*
X72183343Y-290057370D01*
X72062535Y-290025000D01*
X71937465Y-290025000D01*
X71816657Y-290057370D01*
X71750000Y-290095854D01*
X71750000Y-289152969D01*
X71558872Y-289183242D01*
X71558869Y-289183242D01*
X71356782Y-289248904D01*
X71167442Y-289345379D01*
X70995540Y-289470272D01*
X70995535Y-289470276D01*
X70845276Y-289620535D01*
X70845272Y-289620540D01*
X70720379Y-289792442D01*
X70623904Y-289981782D01*
X70558242Y-290183870D01*
X70558242Y-290183873D01*
X70547769Y-290250000D01*
X71595854Y-290250000D01*
X71557370Y-290316657D01*
X71525000Y-290437465D01*
X71525000Y-290562535D01*
X71557370Y-290683343D01*
X71595854Y-290750000D01*
X70547769Y-290750000D01*
X70558242Y-290816126D01*
X70558242Y-290816129D01*
X70623904Y-291018217D01*
X70720379Y-291207557D01*
X70845272Y-291379459D01*
X70845276Y-291379464D01*
X70995535Y-291529723D01*
X70995540Y-291529727D01*
X71160218Y-291649372D01*
X71202884Y-291704701D01*
X71208863Y-291774315D01*
X71176258Y-291836110D01*
X71160218Y-291850008D01*
X70995214Y-291969890D01*
X70995209Y-291969894D01*
X70844890Y-292120213D01*
X70719951Y-292292179D01*
X70623444Y-292481585D01*
X70557753Y-292683760D01*
X70524500Y-292893713D01*
X70524500Y-293106286D01*
X70557753Y-293316239D01*
X70623444Y-293518414D01*
X70719951Y-293707820D01*
X70844890Y-293879786D01*
X70983705Y-294018601D01*
X71017190Y-294079924D01*
X71012206Y-294149616D01*
X70970334Y-294205549D01*
X70961121Y-294211821D01*
X70806342Y-294307289D01*
X70682289Y-294431342D01*
X70590187Y-294580663D01*
X70590186Y-294580666D01*
X70535001Y-294747203D01*
X70535001Y-294747204D01*
X70535000Y-294747204D01*
X70524500Y-294849983D01*
X70524500Y-296150001D01*
X26500000Y-296150001D01*
X26500000Y-293897870D01*
X62149500Y-293897870D01*
X62149501Y-293897876D01*
X62155908Y-293957483D01*
X62206202Y-294092328D01*
X62206206Y-294092335D01*
X62292452Y-294207544D01*
X62292455Y-294207547D01*
X62407664Y-294293793D01*
X62407671Y-294293797D01*
X62542517Y-294344091D01*
X62542516Y-294344091D01*
X62549444Y-294344835D01*
X62602127Y-294350500D01*
X64397872Y-294350499D01*
X64457483Y-294344091D01*
X64592331Y-294293796D01*
X64707546Y-294207546D01*
X64793796Y-294092331D01*
X64844091Y-293957483D01*
X64850500Y-293897873D01*
X64850499Y-292102128D01*
X64844091Y-292042517D01*
X64817004Y-291969894D01*
X64793797Y-291907671D01*
X64793793Y-291907664D01*
X64707547Y-291792455D01*
X64707544Y-291792452D01*
X64592335Y-291706206D01*
X64592328Y-291706202D01*
X64457482Y-291655908D01*
X64457483Y-291655908D01*
X64397883Y-291649501D01*
X64397881Y-291649500D01*
X64397873Y-291649500D01*
X64397864Y-291649500D01*
X62602129Y-291649500D01*
X62602123Y-291649501D01*
X62542516Y-291655908D01*
X62407671Y-291706202D01*
X62407664Y-291706206D01*
X62292455Y-291792452D01*
X62292452Y-291792455D01*
X62206206Y-291907664D01*
X62206202Y-291907671D01*
X62155908Y-292042517D01*
X62149501Y-292102116D01*
X62149501Y-292102123D01*
X62149500Y-292102135D01*
X62149500Y-293897870D01*
X26500000Y-293897870D01*
X26500000Y-282900001D01*
X70524500Y-282900001D01*
X70524501Y-282900018D01*
X70535000Y-283002796D01*
X70535001Y-283002799D01*
X70590185Y-283169331D01*
X70590186Y-283169334D01*
X70682288Y-283318656D01*
X70806344Y-283442712D01*
X70955666Y-283534814D01*
X71122203Y-283589999D01*
X71224991Y-283600500D01*
X72775008Y-283600499D01*
X72877797Y-283589999D01*
X73044334Y-283534814D01*
X73193656Y-283442712D01*
X73317712Y-283318656D01*
X73409814Y-283169334D01*
X73464999Y-283002797D01*
X73475500Y-282900009D01*
X73475499Y-281599992D01*
X73464999Y-281497203D01*
X73409814Y-281330666D01*
X73317712Y-281181344D01*
X73193656Y-281057288D01*
X73044334Y-280965186D01*
X73044333Y-280965185D01*
X73038878Y-280961821D01*
X72992154Y-280909873D01*
X72980931Y-280840910D01*
X73008775Y-280776828D01*
X73016272Y-280768623D01*
X73155104Y-280629792D01*
X73280051Y-280457816D01*
X73376557Y-280268412D01*
X73442246Y-280066243D01*
X73475500Y-279856287D01*
X73475500Y-279643713D01*
X73442246Y-279433757D01*
X73376557Y-279231588D01*
X73280051Y-279042184D01*
X73280049Y-279042181D01*
X73280048Y-279042179D01*
X73155109Y-278870213D01*
X73004790Y-278719894D01*
X73004785Y-278719890D01*
X72839781Y-278600008D01*
X72797115Y-278544678D01*
X72791136Y-278475065D01*
X72823741Y-278413270D01*
X72839781Y-278399371D01*
X73004466Y-278279721D01*
X73154723Y-278129464D01*
X73154727Y-278129459D01*
X73279620Y-277957557D01*
X73376095Y-277768217D01*
X73441757Y-277566129D01*
X73441757Y-277566126D01*
X73452231Y-277500000D01*
X72404146Y-277500000D01*
X72442630Y-277433343D01*
X72475000Y-277312535D01*
X72475000Y-277187465D01*
X72442630Y-277066657D01*
X72404146Y-277000000D01*
X73452231Y-277000000D01*
X73441757Y-276933873D01*
X73441757Y-276933870D01*
X73376095Y-276731782D01*
X73279620Y-276542442D01*
X73154727Y-276370540D01*
X73154723Y-276370535D01*
X73004464Y-276220276D01*
X73004459Y-276220272D01*
X72832557Y-276095379D01*
X72643217Y-275998904D01*
X72441128Y-275933242D01*
X72250000Y-275902969D01*
X72250000Y-276845854D01*
X72183343Y-276807370D01*
X72062535Y-276775000D01*
X71937465Y-276775000D01*
X71816657Y-276807370D01*
X71750000Y-276845854D01*
X71750000Y-275902969D01*
X71558872Y-275933242D01*
X71558869Y-275933242D01*
X71356782Y-275998904D01*
X71167442Y-276095379D01*
X70995540Y-276220272D01*
X70995535Y-276220276D01*
X70845276Y-276370535D01*
X70845272Y-276370540D01*
X70720379Y-276542442D01*
X70623904Y-276731782D01*
X70558242Y-276933870D01*
X70558242Y-276933873D01*
X70547769Y-277000000D01*
X71595854Y-277000000D01*
X71557370Y-277066657D01*
X71525000Y-277187465D01*
X71525000Y-277312535D01*
X71557370Y-277433343D01*
X71595854Y-277500000D01*
X70547769Y-277500000D01*
X70558242Y-277566126D01*
X70558242Y-277566129D01*
X70623904Y-277768217D01*
X70720379Y-277957557D01*
X70845272Y-278129459D01*
X70845276Y-278129464D01*
X70995535Y-278279723D01*
X70995540Y-278279727D01*
X71160218Y-278399372D01*
X71202884Y-278454701D01*
X71208863Y-278524315D01*
X71176258Y-278586110D01*
X71160218Y-278600008D01*
X70995214Y-278719890D01*
X70995209Y-278719894D01*
X70844890Y-278870213D01*
X70719951Y-279042179D01*
X70623444Y-279231585D01*
X70557753Y-279433760D01*
X70524500Y-279643713D01*
X70524500Y-279856286D01*
X70557753Y-280066239D01*
X70623444Y-280268414D01*
X70719951Y-280457820D01*
X70844890Y-280629786D01*
X70983705Y-280768601D01*
X71017190Y-280829924D01*
X71012206Y-280899616D01*
X70970334Y-280955549D01*
X70961121Y-280961821D01*
X70806342Y-281057289D01*
X70682289Y-281181342D01*
X70590187Y-281330663D01*
X70590186Y-281330666D01*
X70535001Y-281497203D01*
X70535001Y-281497204D01*
X70535000Y-281497204D01*
X70524500Y-281599983D01*
X70524500Y-282900001D01*
X26500000Y-282900001D01*
X26500000Y-280647870D01*
X62149500Y-280647870D01*
X62149501Y-280647876D01*
X62155908Y-280707483D01*
X62206202Y-280842328D01*
X62206206Y-280842335D01*
X62292452Y-280957544D01*
X62292455Y-280957547D01*
X62407664Y-281043793D01*
X62407671Y-281043797D01*
X62542517Y-281094091D01*
X62542516Y-281094091D01*
X62549444Y-281094835D01*
X62602127Y-281100500D01*
X64397872Y-281100499D01*
X64457483Y-281094091D01*
X64592331Y-281043796D01*
X64707546Y-280957546D01*
X64793796Y-280842331D01*
X64844091Y-280707483D01*
X64850500Y-280647873D01*
X64850499Y-278852128D01*
X64844091Y-278792517D01*
X64817004Y-278719894D01*
X64793797Y-278657671D01*
X64793793Y-278657664D01*
X64707547Y-278542455D01*
X64707544Y-278542452D01*
X64592335Y-278456206D01*
X64592328Y-278456202D01*
X64457482Y-278405908D01*
X64457483Y-278405908D01*
X64397883Y-278399501D01*
X64397881Y-278399500D01*
X64397873Y-278399500D01*
X64397864Y-278399500D01*
X62602129Y-278399500D01*
X62602123Y-278399501D01*
X62542516Y-278405908D01*
X62407671Y-278456202D01*
X62407664Y-278456206D01*
X62292455Y-278542452D01*
X62292452Y-278542455D01*
X62206206Y-278657664D01*
X62206202Y-278657671D01*
X62155908Y-278792517D01*
X62149501Y-278852116D01*
X62149501Y-278852123D01*
X62149500Y-278852135D01*
X62149500Y-280647870D01*
X26500000Y-280647870D01*
X26500000Y-270150001D01*
X70524500Y-270150001D01*
X70524501Y-270150018D01*
X70535000Y-270252796D01*
X70535001Y-270252799D01*
X70590185Y-270419331D01*
X70590186Y-270419334D01*
X70682288Y-270568656D01*
X70806344Y-270692712D01*
X70955666Y-270784814D01*
X71122203Y-270839999D01*
X71224991Y-270850500D01*
X72775008Y-270850499D01*
X72877797Y-270839999D01*
X73044334Y-270784814D01*
X73193656Y-270692712D01*
X73317712Y-270568656D01*
X73409814Y-270419334D01*
X73464999Y-270252797D01*
X73475500Y-270150009D01*
X73475499Y-268849992D01*
X73464999Y-268747203D01*
X73409814Y-268580666D01*
X73317712Y-268431344D01*
X73193656Y-268307288D01*
X73044334Y-268215186D01*
X73044333Y-268215185D01*
X73038878Y-268211821D01*
X72992154Y-268159873D01*
X72980931Y-268090910D01*
X73008775Y-268026828D01*
X73016272Y-268018623D01*
X73155104Y-267879792D01*
X73280051Y-267707816D01*
X73376557Y-267518412D01*
X73442246Y-267316243D01*
X73475500Y-267106287D01*
X73475500Y-266893713D01*
X73442246Y-266683757D01*
X73376557Y-266481588D01*
X73280051Y-266292184D01*
X73280049Y-266292181D01*
X73280048Y-266292179D01*
X73155109Y-266120213D01*
X73004790Y-265969894D01*
X73004785Y-265969890D01*
X72839781Y-265850008D01*
X72797115Y-265794678D01*
X72791136Y-265725065D01*
X72823741Y-265663270D01*
X72839781Y-265649371D01*
X73004466Y-265529721D01*
X73154723Y-265379464D01*
X73154727Y-265379459D01*
X73279620Y-265207557D01*
X73376095Y-265018217D01*
X73441757Y-264816129D01*
X73441757Y-264816126D01*
X73452231Y-264750000D01*
X72404146Y-264750000D01*
X72442630Y-264683343D01*
X72475000Y-264562535D01*
X72475000Y-264437465D01*
X72442630Y-264316657D01*
X72404146Y-264250000D01*
X73452231Y-264250000D01*
X73441757Y-264183873D01*
X73441757Y-264183870D01*
X73376095Y-263981782D01*
X73279620Y-263792442D01*
X73154727Y-263620540D01*
X73154723Y-263620535D01*
X73004464Y-263470276D01*
X73004459Y-263470272D01*
X72832557Y-263345379D01*
X72643217Y-263248904D01*
X72441128Y-263183242D01*
X72250000Y-263152969D01*
X72250000Y-264095854D01*
X72183343Y-264057370D01*
X72062535Y-264025000D01*
X71937465Y-264025000D01*
X71816657Y-264057370D01*
X71750000Y-264095854D01*
X71750000Y-263152969D01*
X71558872Y-263183242D01*
X71558869Y-263183242D01*
X71356782Y-263248904D01*
X71167442Y-263345379D01*
X70995540Y-263470272D01*
X70995535Y-263470276D01*
X70845276Y-263620535D01*
X70845272Y-263620540D01*
X70720379Y-263792442D01*
X70623904Y-263981782D01*
X70558242Y-264183870D01*
X70558242Y-264183873D01*
X70547769Y-264250000D01*
X71595854Y-264250000D01*
X71557370Y-264316657D01*
X71525000Y-264437465D01*
X71525000Y-264562535D01*
X71557370Y-264683343D01*
X71595854Y-264750000D01*
X70547769Y-264750000D01*
X70558242Y-264816126D01*
X70558242Y-264816129D01*
X70623904Y-265018217D01*
X70720379Y-265207557D01*
X70845272Y-265379459D01*
X70845276Y-265379464D01*
X70995535Y-265529723D01*
X70995540Y-265529727D01*
X71160218Y-265649372D01*
X71202884Y-265704701D01*
X71208863Y-265774315D01*
X71176258Y-265836110D01*
X71160218Y-265850008D01*
X70995214Y-265969890D01*
X70995209Y-265969894D01*
X70844890Y-266120213D01*
X70719951Y-266292179D01*
X70623444Y-266481585D01*
X70557753Y-266683760D01*
X70524500Y-266893713D01*
X70524500Y-267106286D01*
X70557753Y-267316239D01*
X70623444Y-267518414D01*
X70719951Y-267707820D01*
X70844890Y-267879786D01*
X70983705Y-268018601D01*
X71017190Y-268079924D01*
X71012206Y-268149616D01*
X70970334Y-268205549D01*
X70961121Y-268211821D01*
X70806342Y-268307289D01*
X70682289Y-268431342D01*
X70590187Y-268580663D01*
X70590186Y-268580666D01*
X70535001Y-268747203D01*
X70535001Y-268747204D01*
X70535000Y-268747204D01*
X70524500Y-268849983D01*
X70524500Y-270150001D01*
X26500000Y-270150001D01*
X26500000Y-267897870D01*
X62149500Y-267897870D01*
X62149501Y-267897876D01*
X62155908Y-267957483D01*
X62206202Y-268092328D01*
X62206206Y-268092335D01*
X62292452Y-268207544D01*
X62292455Y-268207547D01*
X62407664Y-268293793D01*
X62407671Y-268293797D01*
X62542517Y-268344091D01*
X62542516Y-268344091D01*
X62549444Y-268344835D01*
X62602127Y-268350500D01*
X64397872Y-268350499D01*
X64457483Y-268344091D01*
X64592331Y-268293796D01*
X64707546Y-268207546D01*
X64793796Y-268092331D01*
X64844091Y-267957483D01*
X64850500Y-267897873D01*
X64850499Y-266102128D01*
X64844091Y-266042517D01*
X64817004Y-265969894D01*
X64793797Y-265907671D01*
X64793793Y-265907664D01*
X64707547Y-265792455D01*
X64707544Y-265792452D01*
X64592335Y-265706206D01*
X64592328Y-265706202D01*
X64457482Y-265655908D01*
X64457483Y-265655908D01*
X64397883Y-265649501D01*
X64397881Y-265649500D01*
X64397873Y-265649500D01*
X64397864Y-265649500D01*
X62602129Y-265649500D01*
X62602123Y-265649501D01*
X62542516Y-265655908D01*
X62407671Y-265706202D01*
X62407664Y-265706206D01*
X62292455Y-265792452D01*
X62292452Y-265792455D01*
X62206206Y-265907664D01*
X62206202Y-265907671D01*
X62155908Y-266042517D01*
X62149501Y-266102116D01*
X62149501Y-266102123D01*
X62149500Y-266102135D01*
X62149500Y-267897870D01*
X26500000Y-267897870D01*
X26500000Y-257150001D01*
X70524500Y-257150001D01*
X70524501Y-257150018D01*
X70535000Y-257252796D01*
X70535001Y-257252799D01*
X70590185Y-257419331D01*
X70590186Y-257419334D01*
X70682288Y-257568656D01*
X70806344Y-257692712D01*
X70955666Y-257784814D01*
X71122203Y-257839999D01*
X71224991Y-257850500D01*
X72775008Y-257850499D01*
X72877797Y-257839999D01*
X73044334Y-257784814D01*
X73193656Y-257692712D01*
X73317712Y-257568656D01*
X73409814Y-257419334D01*
X73464999Y-257252797D01*
X73475500Y-257150009D01*
X73475499Y-255849992D01*
X73464999Y-255747203D01*
X73409814Y-255580666D01*
X73317712Y-255431344D01*
X73193656Y-255307288D01*
X73044334Y-255215186D01*
X73044333Y-255215185D01*
X73038878Y-255211821D01*
X72992154Y-255159873D01*
X72980931Y-255090910D01*
X73008775Y-255026828D01*
X73016272Y-255018623D01*
X73155104Y-254879792D01*
X73280051Y-254707816D01*
X73376557Y-254518412D01*
X73442246Y-254316243D01*
X73475500Y-254106287D01*
X73475500Y-253893713D01*
X73442246Y-253683757D01*
X73376557Y-253481588D01*
X73280051Y-253292184D01*
X73280049Y-253292181D01*
X73280048Y-253292179D01*
X73155109Y-253120213D01*
X73004790Y-252969894D01*
X73004785Y-252969890D01*
X72839781Y-252850008D01*
X72797115Y-252794678D01*
X72791136Y-252725065D01*
X72823741Y-252663270D01*
X72839781Y-252649371D01*
X73004466Y-252529721D01*
X73154723Y-252379464D01*
X73154727Y-252379459D01*
X73279620Y-252207557D01*
X73376095Y-252018217D01*
X73441757Y-251816129D01*
X73441757Y-251816126D01*
X73452231Y-251750000D01*
X72404146Y-251750000D01*
X72442630Y-251683343D01*
X72475000Y-251562535D01*
X72475000Y-251437465D01*
X72442630Y-251316657D01*
X72404146Y-251250000D01*
X73452231Y-251250000D01*
X73441757Y-251183873D01*
X73441757Y-251183870D01*
X73376095Y-250981782D01*
X73279620Y-250792442D01*
X73154727Y-250620540D01*
X73154723Y-250620535D01*
X73004464Y-250470276D01*
X73004459Y-250470272D01*
X72832557Y-250345379D01*
X72643217Y-250248904D01*
X72441128Y-250183242D01*
X72250000Y-250152969D01*
X72250000Y-251095854D01*
X72183343Y-251057370D01*
X72062535Y-251025000D01*
X71937465Y-251025000D01*
X71816657Y-251057370D01*
X71750000Y-251095854D01*
X71750000Y-250152969D01*
X71558872Y-250183242D01*
X71558869Y-250183242D01*
X71356782Y-250248904D01*
X71167442Y-250345379D01*
X70995540Y-250470272D01*
X70995535Y-250470276D01*
X70845276Y-250620535D01*
X70845272Y-250620540D01*
X70720379Y-250792442D01*
X70623904Y-250981782D01*
X70558242Y-251183870D01*
X70558242Y-251183873D01*
X70547769Y-251250000D01*
X71595854Y-251250000D01*
X71557370Y-251316657D01*
X71525000Y-251437465D01*
X71525000Y-251562535D01*
X71557370Y-251683343D01*
X71595854Y-251750000D01*
X70547769Y-251750000D01*
X70558242Y-251816126D01*
X70558242Y-251816129D01*
X70623904Y-252018217D01*
X70720379Y-252207557D01*
X70845272Y-252379459D01*
X70845276Y-252379464D01*
X70995535Y-252529723D01*
X70995540Y-252529727D01*
X71160218Y-252649372D01*
X71202884Y-252704701D01*
X71208863Y-252774315D01*
X71176258Y-252836110D01*
X71160218Y-252850008D01*
X70995214Y-252969890D01*
X70995209Y-252969894D01*
X70844890Y-253120213D01*
X70719951Y-253292179D01*
X70623444Y-253481585D01*
X70557753Y-253683760D01*
X70524500Y-253893713D01*
X70524500Y-254106286D01*
X70557753Y-254316239D01*
X70623444Y-254518414D01*
X70719951Y-254707820D01*
X70844890Y-254879786D01*
X70983705Y-255018601D01*
X71017190Y-255079924D01*
X71012206Y-255149616D01*
X70970334Y-255205549D01*
X70961121Y-255211821D01*
X70806342Y-255307289D01*
X70682289Y-255431342D01*
X70590187Y-255580663D01*
X70590186Y-255580666D01*
X70535001Y-255747203D01*
X70535001Y-255747204D01*
X70535000Y-255747204D01*
X70524500Y-255849983D01*
X70524500Y-257150001D01*
X26500000Y-257150001D01*
X26500000Y-254897870D01*
X62149500Y-254897870D01*
X62149501Y-254897876D01*
X62155908Y-254957483D01*
X62206202Y-255092328D01*
X62206206Y-255092335D01*
X62292452Y-255207544D01*
X62292455Y-255207547D01*
X62407664Y-255293793D01*
X62407671Y-255293797D01*
X62542517Y-255344091D01*
X62542516Y-255344091D01*
X62549444Y-255344835D01*
X62602127Y-255350500D01*
X64397872Y-255350499D01*
X64457483Y-255344091D01*
X64592331Y-255293796D01*
X64707546Y-255207546D01*
X64793796Y-255092331D01*
X64844091Y-254957483D01*
X64850500Y-254897873D01*
X64850499Y-253102128D01*
X64844091Y-253042517D01*
X64817004Y-252969894D01*
X64793797Y-252907671D01*
X64793793Y-252907664D01*
X64707547Y-252792455D01*
X64707544Y-252792452D01*
X64592335Y-252706206D01*
X64592328Y-252706202D01*
X64457482Y-252655908D01*
X64457483Y-252655908D01*
X64397883Y-252649501D01*
X64397881Y-252649500D01*
X64397873Y-252649500D01*
X64397864Y-252649500D01*
X62602129Y-252649500D01*
X62602123Y-252649501D01*
X62542516Y-252655908D01*
X62407671Y-252706202D01*
X62407664Y-252706206D01*
X62292455Y-252792452D01*
X62292452Y-252792455D01*
X62206206Y-252907664D01*
X62206202Y-252907671D01*
X62155908Y-253042517D01*
X62149501Y-253102116D01*
X62149501Y-253102123D01*
X62149500Y-253102135D01*
X62149500Y-254897870D01*
X26500000Y-254897870D01*
X26500000Y-244150001D01*
X70524500Y-244150001D01*
X70524501Y-244150018D01*
X70535000Y-244252796D01*
X70535001Y-244252799D01*
X70590185Y-244419331D01*
X70590186Y-244419334D01*
X70682288Y-244568656D01*
X70806344Y-244692712D01*
X70955666Y-244784814D01*
X71122203Y-244839999D01*
X71224991Y-244850500D01*
X72775008Y-244850499D01*
X72877797Y-244839999D01*
X73044334Y-244784814D01*
X73193656Y-244692712D01*
X73317712Y-244568656D01*
X73409814Y-244419334D01*
X73464999Y-244252797D01*
X73475500Y-244150009D01*
X73475499Y-242849992D01*
X73464999Y-242747203D01*
X73409814Y-242580666D01*
X73317712Y-242431344D01*
X73193656Y-242307288D01*
X73044334Y-242215186D01*
X73044333Y-242215185D01*
X73038878Y-242211821D01*
X72992154Y-242159873D01*
X72980931Y-242090910D01*
X73008775Y-242026828D01*
X73016272Y-242018623D01*
X73155104Y-241879792D01*
X73280051Y-241707816D01*
X73376557Y-241518412D01*
X73442246Y-241316243D01*
X73475500Y-241106287D01*
X73475500Y-240893713D01*
X73442246Y-240683757D01*
X73376557Y-240481588D01*
X73280051Y-240292184D01*
X73280049Y-240292181D01*
X73280048Y-240292179D01*
X73155109Y-240120213D01*
X73004790Y-239969894D01*
X73004785Y-239969890D01*
X72839781Y-239850008D01*
X72797115Y-239794678D01*
X72791136Y-239725065D01*
X72823741Y-239663270D01*
X72839781Y-239649371D01*
X73004466Y-239529721D01*
X73154723Y-239379464D01*
X73154727Y-239379459D01*
X73279620Y-239207557D01*
X73376095Y-239018217D01*
X73441757Y-238816129D01*
X73441757Y-238816126D01*
X73452231Y-238750000D01*
X72404146Y-238750000D01*
X72442630Y-238683343D01*
X72475000Y-238562535D01*
X72475000Y-238437465D01*
X72442630Y-238316657D01*
X72404146Y-238250000D01*
X73452231Y-238250000D01*
X73441757Y-238183873D01*
X73441757Y-238183870D01*
X73376095Y-237981782D01*
X73279620Y-237792442D01*
X73154727Y-237620540D01*
X73154723Y-237620535D01*
X73004464Y-237470276D01*
X73004459Y-237470272D01*
X72832557Y-237345379D01*
X72643217Y-237248904D01*
X72441128Y-237183242D01*
X72250000Y-237152969D01*
X72250000Y-238095854D01*
X72183343Y-238057370D01*
X72062535Y-238025000D01*
X71937465Y-238025000D01*
X71816657Y-238057370D01*
X71750000Y-238095854D01*
X71750000Y-237152969D01*
X71558872Y-237183242D01*
X71558869Y-237183242D01*
X71356782Y-237248904D01*
X71167442Y-237345379D01*
X70995540Y-237470272D01*
X70995535Y-237470276D01*
X70845276Y-237620535D01*
X70845272Y-237620540D01*
X70720379Y-237792442D01*
X70623904Y-237981782D01*
X70558242Y-238183870D01*
X70558242Y-238183873D01*
X70547769Y-238250000D01*
X71595854Y-238250000D01*
X71557370Y-238316657D01*
X71525000Y-238437465D01*
X71525000Y-238562535D01*
X71557370Y-238683343D01*
X71595854Y-238750000D01*
X70547769Y-238750000D01*
X70558242Y-238816126D01*
X70558242Y-238816129D01*
X70623904Y-239018217D01*
X70720379Y-239207557D01*
X70845272Y-239379459D01*
X70845276Y-239379464D01*
X70995535Y-239529723D01*
X70995540Y-239529727D01*
X71160218Y-239649372D01*
X71202884Y-239704701D01*
X71208863Y-239774315D01*
X71176258Y-239836110D01*
X71160218Y-239850008D01*
X70995214Y-239969890D01*
X70995209Y-239969894D01*
X70844890Y-240120213D01*
X70719951Y-240292179D01*
X70623444Y-240481585D01*
X70557753Y-240683760D01*
X70524500Y-240893713D01*
X70524500Y-241106286D01*
X70557753Y-241316239D01*
X70623444Y-241518414D01*
X70719951Y-241707820D01*
X70844890Y-241879786D01*
X70983705Y-242018601D01*
X71017190Y-242079924D01*
X71012206Y-242149616D01*
X70970334Y-242205549D01*
X70961121Y-242211821D01*
X70806342Y-242307289D01*
X70682289Y-242431342D01*
X70590187Y-242580663D01*
X70590186Y-242580666D01*
X70535001Y-242747203D01*
X70535001Y-242747204D01*
X70535000Y-242747204D01*
X70524500Y-242849983D01*
X70524500Y-244150001D01*
X26500000Y-244150001D01*
X26500000Y-241897870D01*
X62149500Y-241897870D01*
X62149501Y-241897876D01*
X62155908Y-241957483D01*
X62206202Y-242092328D01*
X62206206Y-242092335D01*
X62292452Y-242207544D01*
X62292455Y-242207547D01*
X62407664Y-242293793D01*
X62407671Y-242293797D01*
X62542517Y-242344091D01*
X62542516Y-242344091D01*
X62549444Y-242344835D01*
X62602127Y-242350500D01*
X64397872Y-242350499D01*
X64457483Y-242344091D01*
X64592331Y-242293796D01*
X64707546Y-242207546D01*
X64793796Y-242092331D01*
X64844091Y-241957483D01*
X64850500Y-241897873D01*
X64850499Y-240102128D01*
X64844091Y-240042517D01*
X64817004Y-239969894D01*
X64793797Y-239907671D01*
X64793793Y-239907664D01*
X64707547Y-239792455D01*
X64707544Y-239792452D01*
X64592335Y-239706206D01*
X64592328Y-239706202D01*
X64457482Y-239655908D01*
X64457483Y-239655908D01*
X64397883Y-239649501D01*
X64397881Y-239649500D01*
X64397873Y-239649500D01*
X64397864Y-239649500D01*
X62602129Y-239649500D01*
X62602123Y-239649501D01*
X62542516Y-239655908D01*
X62407671Y-239706202D01*
X62407664Y-239706206D01*
X62292455Y-239792452D01*
X62292452Y-239792455D01*
X62206206Y-239907664D01*
X62206202Y-239907671D01*
X62155908Y-240042517D01*
X62149501Y-240102116D01*
X62149501Y-240102123D01*
X62149500Y-240102135D01*
X62149500Y-241897870D01*
X26500000Y-241897870D01*
X26500000Y-231400001D01*
X70524500Y-231400001D01*
X70524501Y-231400018D01*
X70535000Y-231502796D01*
X70535001Y-231502799D01*
X70590185Y-231669331D01*
X70590186Y-231669334D01*
X70682288Y-231818656D01*
X70806344Y-231942712D01*
X70955666Y-232034814D01*
X71122203Y-232089999D01*
X71224991Y-232100500D01*
X72775008Y-232100499D01*
X72877797Y-232089999D01*
X73044334Y-232034814D01*
X73193656Y-231942712D01*
X73317712Y-231818656D01*
X73409814Y-231669334D01*
X73464999Y-231502797D01*
X73475500Y-231400009D01*
X73475499Y-230099992D01*
X73464999Y-229997203D01*
X73409814Y-229830666D01*
X73317712Y-229681344D01*
X73193656Y-229557288D01*
X73044334Y-229465186D01*
X73044333Y-229465185D01*
X73038878Y-229461821D01*
X72992154Y-229409873D01*
X72980931Y-229340910D01*
X73008775Y-229276828D01*
X73016272Y-229268623D01*
X73155104Y-229129792D01*
X73280051Y-228957816D01*
X73376557Y-228768412D01*
X73442246Y-228566243D01*
X73475500Y-228356287D01*
X73475500Y-228143713D01*
X73442246Y-227933757D01*
X73376557Y-227731588D01*
X73280051Y-227542184D01*
X73280049Y-227542181D01*
X73280048Y-227542179D01*
X73155109Y-227370213D01*
X73004790Y-227219894D01*
X73004785Y-227219890D01*
X72839781Y-227100008D01*
X72797115Y-227044678D01*
X72791136Y-226975065D01*
X72823741Y-226913270D01*
X72839781Y-226899371D01*
X73004466Y-226779721D01*
X73154723Y-226629464D01*
X73154727Y-226629459D01*
X73279620Y-226457557D01*
X73376095Y-226268217D01*
X73441757Y-226066129D01*
X73441757Y-226066126D01*
X73452231Y-226000000D01*
X72404146Y-226000000D01*
X72442630Y-225933343D01*
X72475000Y-225812535D01*
X72475000Y-225687465D01*
X72442630Y-225566657D01*
X72404146Y-225500000D01*
X73452231Y-225500000D01*
X73441757Y-225433873D01*
X73441757Y-225433870D01*
X73376095Y-225231782D01*
X73279620Y-225042442D01*
X73154727Y-224870540D01*
X73154723Y-224870535D01*
X73004464Y-224720276D01*
X73004459Y-224720272D01*
X72832557Y-224595379D01*
X72643217Y-224498904D01*
X72441128Y-224433242D01*
X72250000Y-224402969D01*
X72250000Y-225345854D01*
X72183343Y-225307370D01*
X72062535Y-225275000D01*
X71937465Y-225275000D01*
X71816657Y-225307370D01*
X71750000Y-225345854D01*
X71750000Y-224402969D01*
X71558872Y-224433242D01*
X71558869Y-224433242D01*
X71356782Y-224498904D01*
X71167442Y-224595379D01*
X70995540Y-224720272D01*
X70995535Y-224720276D01*
X70845276Y-224870535D01*
X70845272Y-224870540D01*
X70720379Y-225042442D01*
X70623904Y-225231782D01*
X70558242Y-225433870D01*
X70558242Y-225433873D01*
X70547769Y-225500000D01*
X71595854Y-225500000D01*
X71557370Y-225566657D01*
X71525000Y-225687465D01*
X71525000Y-225812535D01*
X71557370Y-225933343D01*
X71595854Y-226000000D01*
X70547769Y-226000000D01*
X70558242Y-226066126D01*
X70558242Y-226066129D01*
X70623904Y-226268217D01*
X70720379Y-226457557D01*
X70845272Y-226629459D01*
X70845276Y-226629464D01*
X70995535Y-226779723D01*
X70995540Y-226779727D01*
X71160218Y-226899372D01*
X71202884Y-226954701D01*
X71208863Y-227024315D01*
X71176258Y-227086110D01*
X71160218Y-227100008D01*
X70995214Y-227219890D01*
X70995209Y-227219894D01*
X70844890Y-227370213D01*
X70719951Y-227542179D01*
X70623444Y-227731585D01*
X70557753Y-227933760D01*
X70524500Y-228143713D01*
X70524500Y-228356286D01*
X70557753Y-228566239D01*
X70623444Y-228768414D01*
X70719951Y-228957820D01*
X70844890Y-229129786D01*
X70983705Y-229268601D01*
X71017190Y-229329924D01*
X71012206Y-229399616D01*
X70970334Y-229455549D01*
X70961121Y-229461821D01*
X70806342Y-229557289D01*
X70682289Y-229681342D01*
X70590187Y-229830663D01*
X70590186Y-229830666D01*
X70535001Y-229997203D01*
X70535001Y-229997204D01*
X70535000Y-229997204D01*
X70524500Y-230099983D01*
X70524500Y-231400001D01*
X26500000Y-231400001D01*
X26500000Y-229147870D01*
X62149500Y-229147870D01*
X62149501Y-229147876D01*
X62155908Y-229207483D01*
X62206202Y-229342328D01*
X62206206Y-229342335D01*
X62292452Y-229457544D01*
X62292455Y-229457547D01*
X62407664Y-229543793D01*
X62407671Y-229543797D01*
X62542517Y-229594091D01*
X62542516Y-229594091D01*
X62549444Y-229594835D01*
X62602127Y-229600500D01*
X64397872Y-229600499D01*
X64457483Y-229594091D01*
X64592331Y-229543796D01*
X64707546Y-229457546D01*
X64793796Y-229342331D01*
X64844091Y-229207483D01*
X64850500Y-229147873D01*
X64850499Y-227352128D01*
X64844091Y-227292517D01*
X64817004Y-227219894D01*
X64793797Y-227157671D01*
X64793793Y-227157664D01*
X64707547Y-227042455D01*
X64707544Y-227042452D01*
X64592335Y-226956206D01*
X64592328Y-226956202D01*
X64457482Y-226905908D01*
X64457483Y-226905908D01*
X64397883Y-226899501D01*
X64397881Y-226899500D01*
X64397873Y-226899500D01*
X64397864Y-226899500D01*
X62602129Y-226899500D01*
X62602123Y-226899501D01*
X62542516Y-226905908D01*
X62407671Y-226956202D01*
X62407664Y-226956206D01*
X62292455Y-227042452D01*
X62292452Y-227042455D01*
X62206206Y-227157664D01*
X62206202Y-227157671D01*
X62155908Y-227292517D01*
X62149501Y-227352116D01*
X62149501Y-227352123D01*
X62149500Y-227352135D01*
X62149500Y-229147870D01*
X26500000Y-229147870D01*
X26500000Y-218400001D01*
X70524500Y-218400001D01*
X70524501Y-218400018D01*
X70535000Y-218502796D01*
X70535001Y-218502799D01*
X70590185Y-218669331D01*
X70590186Y-218669334D01*
X70682288Y-218818656D01*
X70806344Y-218942712D01*
X70955666Y-219034814D01*
X71122203Y-219089999D01*
X71224991Y-219100500D01*
X72775008Y-219100499D01*
X72877797Y-219089999D01*
X73044334Y-219034814D01*
X73193656Y-218942712D01*
X73317712Y-218818656D01*
X73409814Y-218669334D01*
X73464999Y-218502797D01*
X73475500Y-218400009D01*
X73475499Y-217099992D01*
X73464999Y-216997203D01*
X73409814Y-216830666D01*
X73317712Y-216681344D01*
X73193656Y-216557288D01*
X73044334Y-216465186D01*
X73044333Y-216465185D01*
X73038878Y-216461821D01*
X72992154Y-216409873D01*
X72980931Y-216340910D01*
X73008775Y-216276828D01*
X73016272Y-216268623D01*
X73155104Y-216129792D01*
X73280051Y-215957816D01*
X73376557Y-215768412D01*
X73442246Y-215566243D01*
X73475500Y-215356287D01*
X73475500Y-215143713D01*
X73442246Y-214933757D01*
X73376557Y-214731588D01*
X73280051Y-214542184D01*
X73280049Y-214542181D01*
X73280048Y-214542179D01*
X73155109Y-214370213D01*
X73004790Y-214219894D01*
X73004785Y-214219890D01*
X72839781Y-214100008D01*
X72797115Y-214044678D01*
X72791136Y-213975065D01*
X72823741Y-213913270D01*
X72839781Y-213899371D01*
X73004466Y-213779721D01*
X73154723Y-213629464D01*
X73154727Y-213629459D01*
X73279620Y-213457557D01*
X73376095Y-213268217D01*
X73441757Y-213066129D01*
X73441757Y-213066126D01*
X73452231Y-213000000D01*
X72404146Y-213000000D01*
X72442630Y-212933343D01*
X72475000Y-212812535D01*
X72475000Y-212687465D01*
X72442630Y-212566657D01*
X72404146Y-212500000D01*
X73452231Y-212500000D01*
X73441757Y-212433873D01*
X73441757Y-212433870D01*
X73376095Y-212231782D01*
X73279620Y-212042442D01*
X73154727Y-211870540D01*
X73154723Y-211870535D01*
X73004464Y-211720276D01*
X73004459Y-211720272D01*
X72832557Y-211595379D01*
X72643217Y-211498904D01*
X72441128Y-211433242D01*
X72250000Y-211402969D01*
X72250000Y-212345854D01*
X72183343Y-212307370D01*
X72062535Y-212275000D01*
X71937465Y-212275000D01*
X71816657Y-212307370D01*
X71750000Y-212345854D01*
X71750000Y-211402969D01*
X71558872Y-211433242D01*
X71558869Y-211433242D01*
X71356782Y-211498904D01*
X71167442Y-211595379D01*
X70995540Y-211720272D01*
X70995535Y-211720276D01*
X70845276Y-211870535D01*
X70845272Y-211870540D01*
X70720379Y-212042442D01*
X70623904Y-212231782D01*
X70558242Y-212433870D01*
X70558242Y-212433873D01*
X70547769Y-212500000D01*
X71595854Y-212500000D01*
X71557370Y-212566657D01*
X71525000Y-212687465D01*
X71525000Y-212812535D01*
X71557370Y-212933343D01*
X71595854Y-213000000D01*
X70547769Y-213000000D01*
X70558242Y-213066126D01*
X70558242Y-213066129D01*
X70623904Y-213268217D01*
X70720379Y-213457557D01*
X70845272Y-213629459D01*
X70845276Y-213629464D01*
X70995535Y-213779723D01*
X70995540Y-213779727D01*
X71160218Y-213899372D01*
X71202884Y-213954701D01*
X71208863Y-214024315D01*
X71176258Y-214086110D01*
X71160218Y-214100008D01*
X70995214Y-214219890D01*
X70995209Y-214219894D01*
X70844890Y-214370213D01*
X70719951Y-214542179D01*
X70623444Y-214731585D01*
X70557753Y-214933760D01*
X70524500Y-215143713D01*
X70524500Y-215356286D01*
X70557753Y-215566239D01*
X70623444Y-215768414D01*
X70719951Y-215957820D01*
X70844890Y-216129786D01*
X70983705Y-216268601D01*
X71017190Y-216329924D01*
X71012206Y-216399616D01*
X70970334Y-216455549D01*
X70961121Y-216461821D01*
X70806342Y-216557289D01*
X70682289Y-216681342D01*
X70590187Y-216830663D01*
X70590186Y-216830666D01*
X70535001Y-216997203D01*
X70535001Y-216997204D01*
X70535000Y-216997204D01*
X70524500Y-217099983D01*
X70524500Y-218400001D01*
X26500000Y-218400001D01*
X26500000Y-216147870D01*
X62149500Y-216147870D01*
X62149501Y-216147876D01*
X62155908Y-216207483D01*
X62206202Y-216342328D01*
X62206206Y-216342335D01*
X62292452Y-216457544D01*
X62292455Y-216457547D01*
X62407664Y-216543793D01*
X62407671Y-216543797D01*
X62542517Y-216594091D01*
X62542516Y-216594091D01*
X62549444Y-216594835D01*
X62602127Y-216600500D01*
X64397872Y-216600499D01*
X64457483Y-216594091D01*
X64592331Y-216543796D01*
X64707546Y-216457546D01*
X64793796Y-216342331D01*
X64844091Y-216207483D01*
X64850500Y-216147873D01*
X64850499Y-214352128D01*
X64844091Y-214292517D01*
X64817004Y-214219894D01*
X64793797Y-214157671D01*
X64793793Y-214157664D01*
X64707547Y-214042455D01*
X64707544Y-214042452D01*
X64592335Y-213956206D01*
X64592328Y-213956202D01*
X64457482Y-213905908D01*
X64457483Y-213905908D01*
X64397883Y-213899501D01*
X64397881Y-213899500D01*
X64397873Y-213899500D01*
X64397864Y-213899500D01*
X62602129Y-213899500D01*
X62602123Y-213899501D01*
X62542516Y-213905908D01*
X62407671Y-213956202D01*
X62407664Y-213956206D01*
X62292455Y-214042452D01*
X62292452Y-214042455D01*
X62206206Y-214157664D01*
X62206202Y-214157671D01*
X62155908Y-214292517D01*
X62149501Y-214352116D01*
X62149501Y-214352123D01*
X62149500Y-214352135D01*
X62149500Y-216147870D01*
X26500000Y-216147870D01*
X26500000Y-205150001D01*
X70524500Y-205150001D01*
X70524501Y-205150018D01*
X70535000Y-205252796D01*
X70535001Y-205252799D01*
X70590185Y-205419331D01*
X70590186Y-205419334D01*
X70682288Y-205568656D01*
X70806344Y-205692712D01*
X70955666Y-205784814D01*
X71122203Y-205839999D01*
X71224991Y-205850500D01*
X72775008Y-205850499D01*
X72877797Y-205839999D01*
X73044334Y-205784814D01*
X73193656Y-205692712D01*
X73317712Y-205568656D01*
X73409814Y-205419334D01*
X73464999Y-205252797D01*
X73475500Y-205150009D01*
X73475499Y-203849992D01*
X73464999Y-203747203D01*
X73409814Y-203580666D01*
X73317712Y-203431344D01*
X73193656Y-203307288D01*
X73044334Y-203215186D01*
X73044333Y-203215185D01*
X73038878Y-203211821D01*
X72992154Y-203159873D01*
X72980931Y-203090910D01*
X73008775Y-203026828D01*
X73016272Y-203018623D01*
X73155104Y-202879792D01*
X73280051Y-202707816D01*
X73376557Y-202518412D01*
X73442246Y-202316243D01*
X73475500Y-202106287D01*
X73475500Y-201893713D01*
X73442246Y-201683757D01*
X73376557Y-201481588D01*
X73280051Y-201292184D01*
X73280049Y-201292181D01*
X73280048Y-201292179D01*
X73155109Y-201120213D01*
X73004790Y-200969894D01*
X73004785Y-200969890D01*
X72839781Y-200850008D01*
X72797115Y-200794678D01*
X72791136Y-200725065D01*
X72823741Y-200663270D01*
X72839781Y-200649371D01*
X73004466Y-200529721D01*
X73154723Y-200379464D01*
X73154727Y-200379459D01*
X73279620Y-200207557D01*
X73376095Y-200018217D01*
X73441757Y-199816129D01*
X73441757Y-199816126D01*
X73452231Y-199750000D01*
X72404146Y-199750000D01*
X72442630Y-199683343D01*
X72475000Y-199562535D01*
X72475000Y-199437465D01*
X72442630Y-199316657D01*
X72404146Y-199250000D01*
X73452231Y-199250000D01*
X73441757Y-199183873D01*
X73441757Y-199183870D01*
X73376095Y-198981782D01*
X73279620Y-198792442D01*
X73154727Y-198620540D01*
X73154723Y-198620535D01*
X73004464Y-198470276D01*
X73004459Y-198470272D01*
X72832557Y-198345379D01*
X72643217Y-198248904D01*
X72441128Y-198183242D01*
X72250000Y-198152969D01*
X72250000Y-199095854D01*
X72183343Y-199057370D01*
X72062535Y-199025000D01*
X71937465Y-199025000D01*
X71816657Y-199057370D01*
X71750000Y-199095854D01*
X71750000Y-198152969D01*
X71558872Y-198183242D01*
X71558869Y-198183242D01*
X71356782Y-198248904D01*
X71167442Y-198345379D01*
X70995540Y-198470272D01*
X70995535Y-198470276D01*
X70845276Y-198620535D01*
X70845272Y-198620540D01*
X70720379Y-198792442D01*
X70623904Y-198981782D01*
X70558242Y-199183870D01*
X70558242Y-199183873D01*
X70547769Y-199250000D01*
X71595854Y-199250000D01*
X71557370Y-199316657D01*
X71525000Y-199437465D01*
X71525000Y-199562535D01*
X71557370Y-199683343D01*
X71595854Y-199750000D01*
X70547769Y-199750000D01*
X70558242Y-199816126D01*
X70558242Y-199816129D01*
X70623904Y-200018217D01*
X70720379Y-200207557D01*
X70845272Y-200379459D01*
X70845276Y-200379464D01*
X70995535Y-200529723D01*
X70995540Y-200529727D01*
X71160218Y-200649372D01*
X71202884Y-200704701D01*
X71208863Y-200774315D01*
X71176258Y-200836110D01*
X71160218Y-200850008D01*
X70995214Y-200969890D01*
X70995209Y-200969894D01*
X70844890Y-201120213D01*
X70719951Y-201292179D01*
X70623444Y-201481585D01*
X70557753Y-201683760D01*
X70524500Y-201893713D01*
X70524500Y-202106286D01*
X70557753Y-202316239D01*
X70623444Y-202518414D01*
X70719951Y-202707820D01*
X70844890Y-202879786D01*
X70983705Y-203018601D01*
X71017190Y-203079924D01*
X71012206Y-203149616D01*
X70970334Y-203205549D01*
X70961121Y-203211821D01*
X70806342Y-203307289D01*
X70682289Y-203431342D01*
X70590187Y-203580663D01*
X70590186Y-203580666D01*
X70535001Y-203747203D01*
X70535001Y-203747204D01*
X70535000Y-203747204D01*
X70524500Y-203849983D01*
X70524500Y-205150001D01*
X26500000Y-205150001D01*
X26500000Y-202897870D01*
X62149500Y-202897870D01*
X62149501Y-202897876D01*
X62155908Y-202957483D01*
X62206202Y-203092328D01*
X62206206Y-203092335D01*
X62292452Y-203207544D01*
X62292455Y-203207547D01*
X62407664Y-203293793D01*
X62407671Y-203293797D01*
X62542517Y-203344091D01*
X62542516Y-203344091D01*
X62549444Y-203344835D01*
X62602127Y-203350500D01*
X64397872Y-203350499D01*
X64457483Y-203344091D01*
X64592331Y-203293796D01*
X64707546Y-203207546D01*
X64793796Y-203092331D01*
X64844091Y-202957483D01*
X64850500Y-202897873D01*
X64850499Y-201102128D01*
X64844091Y-201042517D01*
X64817004Y-200969894D01*
X64793797Y-200907671D01*
X64793793Y-200907664D01*
X64707547Y-200792455D01*
X64707544Y-200792452D01*
X64592335Y-200706206D01*
X64592328Y-200706202D01*
X64457482Y-200655908D01*
X64457483Y-200655908D01*
X64397883Y-200649501D01*
X64397881Y-200649500D01*
X64397873Y-200649500D01*
X64397864Y-200649500D01*
X62602129Y-200649500D01*
X62602123Y-200649501D01*
X62542516Y-200655908D01*
X62407671Y-200706202D01*
X62407664Y-200706206D01*
X62292455Y-200792452D01*
X62292452Y-200792455D01*
X62206206Y-200907664D01*
X62206202Y-200907671D01*
X62155908Y-201042517D01*
X62149501Y-201102116D01*
X62149501Y-201102123D01*
X62149500Y-201102135D01*
X62149500Y-202897870D01*
X26500000Y-202897870D01*
X26500000Y-188400001D01*
X70524500Y-188400001D01*
X70524501Y-188400018D01*
X70535000Y-188502796D01*
X70535001Y-188502799D01*
X70590185Y-188669331D01*
X70590186Y-188669334D01*
X70682288Y-188818656D01*
X70806344Y-188942712D01*
X70955666Y-189034814D01*
X71122203Y-189089999D01*
X71224991Y-189100500D01*
X72775008Y-189100499D01*
X72877797Y-189089999D01*
X73044334Y-189034814D01*
X73193656Y-188942712D01*
X73317712Y-188818656D01*
X73409814Y-188669334D01*
X73464999Y-188502797D01*
X73475500Y-188400009D01*
X73475499Y-187099992D01*
X73464999Y-186997203D01*
X73409814Y-186830666D01*
X73317712Y-186681344D01*
X73193656Y-186557288D01*
X73044334Y-186465186D01*
X73044333Y-186465185D01*
X73038878Y-186461821D01*
X72992154Y-186409873D01*
X72980931Y-186340910D01*
X73008775Y-186276828D01*
X73016272Y-186268623D01*
X73155104Y-186129792D01*
X73280051Y-185957816D01*
X73376557Y-185768412D01*
X73442246Y-185566243D01*
X73475500Y-185356287D01*
X73475500Y-185143713D01*
X73442246Y-184933757D01*
X73376557Y-184731588D01*
X73280051Y-184542184D01*
X73280049Y-184542181D01*
X73280048Y-184542179D01*
X73155109Y-184370213D01*
X73004790Y-184219894D01*
X73004785Y-184219890D01*
X72839781Y-184100008D01*
X72797115Y-184044678D01*
X72791136Y-183975065D01*
X72823741Y-183913270D01*
X72839781Y-183899371D01*
X73004466Y-183779721D01*
X73154723Y-183629464D01*
X73154727Y-183629459D01*
X73279620Y-183457557D01*
X73376095Y-183268217D01*
X73441757Y-183066129D01*
X73441757Y-183066126D01*
X73452231Y-183000000D01*
X72404146Y-183000000D01*
X72442630Y-182933343D01*
X72475000Y-182812535D01*
X72475000Y-182687465D01*
X72442630Y-182566657D01*
X72404146Y-182500000D01*
X73452231Y-182500000D01*
X73441757Y-182433873D01*
X73441757Y-182433870D01*
X73376095Y-182231782D01*
X73279620Y-182042442D01*
X73154727Y-181870540D01*
X73154723Y-181870535D01*
X73004464Y-181720276D01*
X73004459Y-181720272D01*
X72832557Y-181595379D01*
X72643217Y-181498904D01*
X72441128Y-181433242D01*
X72250000Y-181402969D01*
X72250000Y-182345854D01*
X72183343Y-182307370D01*
X72062535Y-182275000D01*
X71937465Y-182275000D01*
X71816657Y-182307370D01*
X71750000Y-182345854D01*
X71750000Y-181402969D01*
X71558872Y-181433242D01*
X71558869Y-181433242D01*
X71356782Y-181498904D01*
X71167442Y-181595379D01*
X70995540Y-181720272D01*
X70995535Y-181720276D01*
X70845276Y-181870535D01*
X70845272Y-181870540D01*
X70720379Y-182042442D01*
X70623904Y-182231782D01*
X70558242Y-182433870D01*
X70558242Y-182433873D01*
X70547769Y-182500000D01*
X71595854Y-182500000D01*
X71557370Y-182566657D01*
X71525000Y-182687465D01*
X71525000Y-182812535D01*
X71557370Y-182933343D01*
X71595854Y-183000000D01*
X70547769Y-183000000D01*
X70558242Y-183066126D01*
X70558242Y-183066129D01*
X70623904Y-183268217D01*
X70720379Y-183457557D01*
X70845272Y-183629459D01*
X70845276Y-183629464D01*
X70995535Y-183779723D01*
X70995540Y-183779727D01*
X71160218Y-183899372D01*
X71202884Y-183954701D01*
X71208863Y-184024315D01*
X71176258Y-184086110D01*
X71160218Y-184100008D01*
X70995214Y-184219890D01*
X70995209Y-184219894D01*
X70844890Y-184370213D01*
X70719951Y-184542179D01*
X70623444Y-184731585D01*
X70557753Y-184933760D01*
X70524500Y-185143713D01*
X70524500Y-185356286D01*
X70557753Y-185566239D01*
X70623444Y-185768414D01*
X70719951Y-185957820D01*
X70844890Y-186129786D01*
X70983705Y-186268601D01*
X71017190Y-186329924D01*
X71012206Y-186399616D01*
X70970334Y-186455549D01*
X70961121Y-186461821D01*
X70806342Y-186557289D01*
X70682289Y-186681342D01*
X70590187Y-186830663D01*
X70590185Y-186830668D01*
X70562349Y-186914670D01*
X70535001Y-186997203D01*
X70535001Y-186997204D01*
X70535000Y-186997204D01*
X70524500Y-187099983D01*
X70524500Y-188400001D01*
X26500000Y-188400001D01*
X26500000Y-186397870D01*
X62149500Y-186397870D01*
X62149501Y-186397876D01*
X62155908Y-186457483D01*
X62206202Y-186592328D01*
X62206206Y-186592335D01*
X62292452Y-186707544D01*
X62292455Y-186707547D01*
X62407664Y-186793793D01*
X62407671Y-186793797D01*
X62542517Y-186844091D01*
X62542516Y-186844091D01*
X62549444Y-186844835D01*
X62602127Y-186850500D01*
X64397872Y-186850499D01*
X64457483Y-186844091D01*
X64592331Y-186793796D01*
X64707546Y-186707546D01*
X64793796Y-186592331D01*
X64844091Y-186457483D01*
X64850500Y-186397873D01*
X64850499Y-184602128D01*
X64844091Y-184542517D01*
X64793796Y-184407669D01*
X64793795Y-184407668D01*
X64793793Y-184407664D01*
X64707547Y-184292455D01*
X64707544Y-184292452D01*
X64592335Y-184206206D01*
X64592328Y-184206202D01*
X64457482Y-184155908D01*
X64457483Y-184155908D01*
X64397883Y-184149501D01*
X64397881Y-184149500D01*
X64397873Y-184149500D01*
X64397864Y-184149500D01*
X62602129Y-184149500D01*
X62602123Y-184149501D01*
X62542516Y-184155908D01*
X62407671Y-184206202D01*
X62407664Y-184206206D01*
X62292455Y-184292452D01*
X62292452Y-184292455D01*
X62206206Y-184407664D01*
X62206202Y-184407671D01*
X62155908Y-184542517D01*
X62149501Y-184602116D01*
X62149501Y-184602123D01*
X62149500Y-184602135D01*
X62149500Y-186397870D01*
X26500000Y-186397870D01*
X26500000Y-175400001D01*
X70524500Y-175400001D01*
X70524501Y-175400018D01*
X70535000Y-175502796D01*
X70535001Y-175502799D01*
X70590185Y-175669331D01*
X70590186Y-175669334D01*
X70682288Y-175818656D01*
X70806344Y-175942712D01*
X70955666Y-176034814D01*
X71122203Y-176089999D01*
X71224991Y-176100500D01*
X72775008Y-176100499D01*
X72877797Y-176089999D01*
X73044334Y-176034814D01*
X73193656Y-175942712D01*
X73317712Y-175818656D01*
X73409814Y-175669334D01*
X73464999Y-175502797D01*
X73475500Y-175400009D01*
X73475499Y-174099992D01*
X73464999Y-173997203D01*
X73409814Y-173830666D01*
X73317712Y-173681344D01*
X73193656Y-173557288D01*
X73044334Y-173465186D01*
X73044333Y-173465185D01*
X73038878Y-173461821D01*
X72992154Y-173409873D01*
X72980931Y-173340910D01*
X73008775Y-173276828D01*
X73016272Y-173268623D01*
X73155104Y-173129792D01*
X73280051Y-172957816D01*
X73376557Y-172768412D01*
X73442246Y-172566243D01*
X73475500Y-172356287D01*
X73475500Y-172143713D01*
X73442246Y-171933757D01*
X73376557Y-171731588D01*
X73280051Y-171542184D01*
X73280049Y-171542181D01*
X73280048Y-171542179D01*
X73155109Y-171370213D01*
X73004790Y-171219894D01*
X73004785Y-171219890D01*
X72839781Y-171100008D01*
X72797115Y-171044678D01*
X72791136Y-170975065D01*
X72823741Y-170913270D01*
X72839781Y-170899371D01*
X73004466Y-170779721D01*
X73154723Y-170629464D01*
X73154727Y-170629459D01*
X73279620Y-170457557D01*
X73376095Y-170268217D01*
X73441757Y-170066129D01*
X73441757Y-170066126D01*
X73452231Y-170000000D01*
X72404146Y-170000000D01*
X72442630Y-169933343D01*
X72475000Y-169812535D01*
X72475000Y-169687465D01*
X72442630Y-169566657D01*
X72404146Y-169500000D01*
X73452231Y-169500000D01*
X73441757Y-169433873D01*
X73441757Y-169433870D01*
X73376095Y-169231782D01*
X73279620Y-169042442D01*
X73154727Y-168870540D01*
X73154723Y-168870535D01*
X73004464Y-168720276D01*
X73004459Y-168720272D01*
X72832557Y-168595379D01*
X72643217Y-168498904D01*
X72441128Y-168433242D01*
X72250000Y-168402969D01*
X72250000Y-169345854D01*
X72183343Y-169307370D01*
X72062535Y-169275000D01*
X71937465Y-169275000D01*
X71816657Y-169307370D01*
X71750000Y-169345854D01*
X71750000Y-168402969D01*
X71558872Y-168433242D01*
X71558869Y-168433242D01*
X71356782Y-168498904D01*
X71167442Y-168595379D01*
X70995540Y-168720272D01*
X70995535Y-168720276D01*
X70845276Y-168870535D01*
X70845272Y-168870540D01*
X70720379Y-169042442D01*
X70623904Y-169231782D01*
X70558242Y-169433870D01*
X70558242Y-169433873D01*
X70547769Y-169500000D01*
X71595854Y-169500000D01*
X71557370Y-169566657D01*
X71525000Y-169687465D01*
X71525000Y-169812535D01*
X71557370Y-169933343D01*
X71595854Y-170000000D01*
X70547769Y-170000000D01*
X70558242Y-170066126D01*
X70558242Y-170066129D01*
X70623904Y-170268217D01*
X70720379Y-170457557D01*
X70845272Y-170629459D01*
X70845276Y-170629464D01*
X70995535Y-170779723D01*
X70995540Y-170779727D01*
X71160218Y-170899372D01*
X71202884Y-170954701D01*
X71208863Y-171024315D01*
X71176258Y-171086110D01*
X71160218Y-171100008D01*
X70995214Y-171219890D01*
X70995209Y-171219894D01*
X70844890Y-171370213D01*
X70719951Y-171542179D01*
X70623444Y-171731585D01*
X70557753Y-171933760D01*
X70524500Y-172143713D01*
X70524500Y-172356286D01*
X70557753Y-172566239D01*
X70623444Y-172768414D01*
X70719951Y-172957820D01*
X70844890Y-173129786D01*
X70983705Y-173268601D01*
X71017190Y-173329924D01*
X71012206Y-173399616D01*
X70970334Y-173455549D01*
X70961121Y-173461821D01*
X70806342Y-173557289D01*
X70682289Y-173681342D01*
X70590187Y-173830663D01*
X70590186Y-173830666D01*
X70535001Y-173997203D01*
X70535001Y-173997204D01*
X70535000Y-173997204D01*
X70524500Y-174099983D01*
X70524500Y-175400001D01*
X26500000Y-175400001D01*
X26500000Y-173147870D01*
X62149500Y-173147870D01*
X62149501Y-173147876D01*
X62155908Y-173207483D01*
X62206202Y-173342328D01*
X62206206Y-173342335D01*
X62292452Y-173457544D01*
X62292455Y-173457547D01*
X62407664Y-173543793D01*
X62407671Y-173543797D01*
X62542517Y-173594091D01*
X62542516Y-173594091D01*
X62549444Y-173594835D01*
X62602127Y-173600500D01*
X64397872Y-173600499D01*
X64457483Y-173594091D01*
X64592331Y-173543796D01*
X64707546Y-173457546D01*
X64793796Y-173342331D01*
X64844091Y-173207483D01*
X64850500Y-173147873D01*
X64850499Y-171352128D01*
X64844091Y-171292517D01*
X64817004Y-171219894D01*
X64793797Y-171157671D01*
X64793793Y-171157664D01*
X64707547Y-171042455D01*
X64707544Y-171042452D01*
X64592335Y-170956206D01*
X64592328Y-170956202D01*
X64457482Y-170905908D01*
X64457483Y-170905908D01*
X64397883Y-170899501D01*
X64397881Y-170899500D01*
X64397873Y-170899500D01*
X64397864Y-170899500D01*
X62602129Y-170899500D01*
X62602123Y-170899501D01*
X62542516Y-170905908D01*
X62407671Y-170956202D01*
X62407664Y-170956206D01*
X62292455Y-171042452D01*
X62292452Y-171042455D01*
X62206206Y-171157664D01*
X62206202Y-171157671D01*
X62155908Y-171292517D01*
X62149501Y-171352116D01*
X62149501Y-171352123D01*
X62149500Y-171352135D01*
X62149500Y-173147870D01*
X26500000Y-173147870D01*
X26500000Y-162400001D01*
X70524500Y-162400001D01*
X70524501Y-162400018D01*
X70535000Y-162502796D01*
X70535001Y-162502799D01*
X70590185Y-162669331D01*
X70590186Y-162669334D01*
X70682288Y-162818656D01*
X70806344Y-162942712D01*
X70955666Y-163034814D01*
X71122203Y-163089999D01*
X71224991Y-163100500D01*
X72775008Y-163100499D01*
X72877797Y-163089999D01*
X73044334Y-163034814D01*
X73193656Y-162942712D01*
X73317712Y-162818656D01*
X73409814Y-162669334D01*
X73464999Y-162502797D01*
X73475500Y-162400009D01*
X73475499Y-161099992D01*
X73464999Y-160997203D01*
X73409814Y-160830666D01*
X73317712Y-160681344D01*
X73193656Y-160557288D01*
X73044334Y-160465186D01*
X73044333Y-160465185D01*
X73038878Y-160461821D01*
X72992154Y-160409873D01*
X72980931Y-160340910D01*
X73008775Y-160276828D01*
X73016272Y-160268623D01*
X73155104Y-160129792D01*
X73280051Y-159957816D01*
X73376557Y-159768412D01*
X73442246Y-159566243D01*
X73475500Y-159356287D01*
X73475500Y-159143713D01*
X73442246Y-158933757D01*
X73376557Y-158731588D01*
X73280051Y-158542184D01*
X73280049Y-158542181D01*
X73280048Y-158542179D01*
X73155109Y-158370213D01*
X73004790Y-158219894D01*
X73004785Y-158219890D01*
X72839781Y-158100008D01*
X72797115Y-158044678D01*
X72791136Y-157975065D01*
X72823741Y-157913270D01*
X72839781Y-157899371D01*
X73004466Y-157779721D01*
X73154723Y-157629464D01*
X73154727Y-157629459D01*
X73279620Y-157457557D01*
X73376095Y-157268217D01*
X73441757Y-157066129D01*
X73441757Y-157066126D01*
X73452231Y-157000000D01*
X72404146Y-157000000D01*
X72442630Y-156933343D01*
X72475000Y-156812535D01*
X72475000Y-156687465D01*
X72442630Y-156566657D01*
X72404146Y-156500000D01*
X73452231Y-156500000D01*
X73441757Y-156433873D01*
X73441757Y-156433870D01*
X73376095Y-156231782D01*
X73279620Y-156042442D01*
X73154727Y-155870540D01*
X73154723Y-155870535D01*
X73004464Y-155720276D01*
X73004459Y-155720272D01*
X72832557Y-155595379D01*
X72643217Y-155498904D01*
X72441128Y-155433242D01*
X72250000Y-155402969D01*
X72250000Y-156345854D01*
X72183343Y-156307370D01*
X72062535Y-156275000D01*
X71937465Y-156275000D01*
X71816657Y-156307370D01*
X71750000Y-156345854D01*
X71750000Y-155402969D01*
X71558872Y-155433242D01*
X71558869Y-155433242D01*
X71356782Y-155498904D01*
X71167442Y-155595379D01*
X70995540Y-155720272D01*
X70995535Y-155720276D01*
X70845276Y-155870535D01*
X70845272Y-155870540D01*
X70720379Y-156042442D01*
X70623904Y-156231782D01*
X70558242Y-156433870D01*
X70558242Y-156433873D01*
X70547769Y-156500000D01*
X71595854Y-156500000D01*
X71557370Y-156566657D01*
X71525000Y-156687465D01*
X71525000Y-156812535D01*
X71557370Y-156933343D01*
X71595854Y-157000000D01*
X70547769Y-157000000D01*
X70558242Y-157066126D01*
X70558242Y-157066129D01*
X70623904Y-157268217D01*
X70720379Y-157457557D01*
X70845272Y-157629459D01*
X70845276Y-157629464D01*
X70995535Y-157779723D01*
X70995540Y-157779727D01*
X71160218Y-157899372D01*
X71202884Y-157954701D01*
X71208863Y-158024315D01*
X71176258Y-158086110D01*
X71160218Y-158100008D01*
X70995214Y-158219890D01*
X70995209Y-158219894D01*
X70844890Y-158370213D01*
X70719951Y-158542179D01*
X70623444Y-158731585D01*
X70557753Y-158933760D01*
X70524500Y-159143713D01*
X70524500Y-159356286D01*
X70557753Y-159566239D01*
X70623444Y-159768414D01*
X70719951Y-159957820D01*
X70844890Y-160129786D01*
X70983705Y-160268601D01*
X71017190Y-160329924D01*
X71012206Y-160399616D01*
X70970334Y-160455549D01*
X70961121Y-160461821D01*
X70806342Y-160557289D01*
X70682289Y-160681342D01*
X70590187Y-160830663D01*
X70590186Y-160830666D01*
X70535001Y-160997203D01*
X70535001Y-160997204D01*
X70535000Y-160997204D01*
X70524500Y-161099983D01*
X70524500Y-162400001D01*
X26500000Y-162400001D01*
X26500000Y-160147870D01*
X62149500Y-160147870D01*
X62149501Y-160147876D01*
X62155908Y-160207483D01*
X62206202Y-160342328D01*
X62206206Y-160342335D01*
X62292452Y-160457544D01*
X62292455Y-160457547D01*
X62407664Y-160543793D01*
X62407671Y-160543797D01*
X62542517Y-160594091D01*
X62542516Y-160594091D01*
X62549444Y-160594835D01*
X62602127Y-160600500D01*
X64397872Y-160600499D01*
X64457483Y-160594091D01*
X64592331Y-160543796D01*
X64707546Y-160457546D01*
X64793796Y-160342331D01*
X64844091Y-160207483D01*
X64850500Y-160147873D01*
X64850499Y-158352128D01*
X64844091Y-158292517D01*
X64817004Y-158219894D01*
X64793797Y-158157671D01*
X64793793Y-158157664D01*
X64707547Y-158042455D01*
X64707544Y-158042452D01*
X64592335Y-157956206D01*
X64592328Y-157956202D01*
X64457482Y-157905908D01*
X64457483Y-157905908D01*
X64397883Y-157899501D01*
X64397881Y-157899500D01*
X64397873Y-157899500D01*
X64397864Y-157899500D01*
X62602129Y-157899500D01*
X62602123Y-157899501D01*
X62542516Y-157905908D01*
X62407671Y-157956202D01*
X62407664Y-157956206D01*
X62292455Y-158042452D01*
X62292452Y-158042455D01*
X62206206Y-158157664D01*
X62206202Y-158157671D01*
X62155908Y-158292517D01*
X62149501Y-158352116D01*
X62149501Y-158352123D01*
X62149500Y-158352135D01*
X62149500Y-160147870D01*
X26500000Y-160147870D01*
X26500000Y-148650001D01*
X70524500Y-148650001D01*
X70524501Y-148650018D01*
X70535000Y-148752796D01*
X70535001Y-148752799D01*
X70590185Y-148919331D01*
X70590186Y-148919334D01*
X70682288Y-149068656D01*
X70806344Y-149192712D01*
X70955666Y-149284814D01*
X71122203Y-149339999D01*
X71224991Y-149350500D01*
X72775008Y-149350499D01*
X72877797Y-149339999D01*
X73044334Y-149284814D01*
X73193656Y-149192712D01*
X73317712Y-149068656D01*
X73409814Y-148919334D01*
X73464999Y-148752797D01*
X73475500Y-148650009D01*
X73475499Y-147349992D01*
X73464999Y-147247203D01*
X73409814Y-147080666D01*
X73317712Y-146931344D01*
X73193656Y-146807288D01*
X73044334Y-146715186D01*
X73044333Y-146715185D01*
X73038878Y-146711821D01*
X72992154Y-146659873D01*
X72980931Y-146590910D01*
X73008775Y-146526828D01*
X73016272Y-146518623D01*
X73155104Y-146379792D01*
X73280051Y-146207816D01*
X73376557Y-146018412D01*
X73442246Y-145816243D01*
X73475500Y-145606287D01*
X73475500Y-145393713D01*
X73442246Y-145183757D01*
X73376557Y-144981588D01*
X73280051Y-144792184D01*
X73280049Y-144792181D01*
X73280048Y-144792179D01*
X73155109Y-144620213D01*
X73004790Y-144469894D01*
X73004785Y-144469890D01*
X72839781Y-144350008D01*
X72797115Y-144294678D01*
X72791136Y-144225065D01*
X72823741Y-144163270D01*
X72839781Y-144149371D01*
X73004466Y-144029721D01*
X73154723Y-143879464D01*
X73154727Y-143879459D01*
X73279620Y-143707557D01*
X73376095Y-143518217D01*
X73441757Y-143316129D01*
X73441757Y-143316126D01*
X73452231Y-143250000D01*
X72404146Y-143250000D01*
X72442630Y-143183343D01*
X72475000Y-143062535D01*
X72475000Y-142937465D01*
X72442630Y-142816657D01*
X72404146Y-142750000D01*
X73452231Y-142750000D01*
X73441757Y-142683873D01*
X73441757Y-142683870D01*
X73376095Y-142481782D01*
X73279620Y-142292442D01*
X73154727Y-142120540D01*
X73154723Y-142120535D01*
X73004464Y-141970276D01*
X73004459Y-141970272D01*
X72832557Y-141845379D01*
X72643217Y-141748904D01*
X72441128Y-141683242D01*
X72250000Y-141652969D01*
X72250000Y-142595854D01*
X72183343Y-142557370D01*
X72062535Y-142525000D01*
X71937465Y-142525000D01*
X71816657Y-142557370D01*
X71750000Y-142595854D01*
X71750000Y-141652969D01*
X71558872Y-141683242D01*
X71558869Y-141683242D01*
X71356782Y-141748904D01*
X71167442Y-141845379D01*
X70995540Y-141970272D01*
X70995535Y-141970276D01*
X70845276Y-142120535D01*
X70845272Y-142120540D01*
X70720379Y-142292442D01*
X70623904Y-142481782D01*
X70558242Y-142683870D01*
X70558242Y-142683873D01*
X70547769Y-142750000D01*
X71595854Y-142750000D01*
X71557370Y-142816657D01*
X71525000Y-142937465D01*
X71525000Y-143062535D01*
X71557370Y-143183343D01*
X71595854Y-143250000D01*
X70547769Y-143250000D01*
X70558242Y-143316126D01*
X70558242Y-143316129D01*
X70623904Y-143518217D01*
X70720379Y-143707557D01*
X70845272Y-143879459D01*
X70845276Y-143879464D01*
X70995535Y-144029723D01*
X70995540Y-144029727D01*
X71160218Y-144149372D01*
X71202884Y-144204701D01*
X71208863Y-144274315D01*
X71176258Y-144336110D01*
X71160218Y-144350008D01*
X70995214Y-144469890D01*
X70995209Y-144469894D01*
X70844890Y-144620213D01*
X70719951Y-144792179D01*
X70623444Y-144981585D01*
X70557753Y-145183760D01*
X70524500Y-145393713D01*
X70524500Y-145606286D01*
X70557753Y-145816239D01*
X70623444Y-146018414D01*
X70719951Y-146207820D01*
X70844890Y-146379786D01*
X70983705Y-146518601D01*
X71017190Y-146579924D01*
X71012206Y-146649616D01*
X70970334Y-146705549D01*
X70961121Y-146711821D01*
X70806342Y-146807289D01*
X70682289Y-146931342D01*
X70590187Y-147080663D01*
X70590186Y-147080666D01*
X70535001Y-147247203D01*
X70535001Y-147247204D01*
X70535000Y-147247204D01*
X70524500Y-147349983D01*
X70524500Y-148650001D01*
X26500000Y-148650001D01*
X26500000Y-146397870D01*
X62149500Y-146397870D01*
X62149501Y-146397876D01*
X62155908Y-146457483D01*
X62206202Y-146592328D01*
X62206206Y-146592335D01*
X62292452Y-146707544D01*
X62292455Y-146707547D01*
X62407664Y-146793793D01*
X62407671Y-146793797D01*
X62542517Y-146844091D01*
X62542516Y-146844091D01*
X62549444Y-146844835D01*
X62602127Y-146850500D01*
X64397872Y-146850499D01*
X64457483Y-146844091D01*
X64592331Y-146793796D01*
X64707546Y-146707546D01*
X64793796Y-146592331D01*
X64844091Y-146457483D01*
X64850500Y-146397873D01*
X64850499Y-144602128D01*
X64844091Y-144542517D01*
X64817004Y-144469894D01*
X64793797Y-144407671D01*
X64793793Y-144407664D01*
X64707547Y-144292455D01*
X64707544Y-144292452D01*
X64592335Y-144206206D01*
X64592328Y-144206202D01*
X64457482Y-144155908D01*
X64457483Y-144155908D01*
X64397883Y-144149501D01*
X64397881Y-144149500D01*
X64397873Y-144149500D01*
X64397864Y-144149500D01*
X62602129Y-144149500D01*
X62602123Y-144149501D01*
X62542516Y-144155908D01*
X62407671Y-144206202D01*
X62407664Y-144206206D01*
X62292455Y-144292452D01*
X62292452Y-144292455D01*
X62206206Y-144407664D01*
X62206202Y-144407671D01*
X62155908Y-144542517D01*
X62149501Y-144602116D01*
X62149501Y-144602123D01*
X62149500Y-144602135D01*
X62149500Y-146397870D01*
X26500000Y-146397870D01*
X26500000Y-135900001D01*
X70524500Y-135900001D01*
X70524501Y-135900018D01*
X70535000Y-136002796D01*
X70535001Y-136002799D01*
X70590185Y-136169331D01*
X70590186Y-136169334D01*
X70682288Y-136318656D01*
X70806344Y-136442712D01*
X70955666Y-136534814D01*
X71122203Y-136589999D01*
X71224991Y-136600500D01*
X72775008Y-136600499D01*
X72877797Y-136589999D01*
X73044334Y-136534814D01*
X73193656Y-136442712D01*
X73317712Y-136318656D01*
X73409814Y-136169334D01*
X73464999Y-136002797D01*
X73475500Y-135900009D01*
X73475499Y-134599992D01*
X73464999Y-134497203D01*
X73409814Y-134330666D01*
X73317712Y-134181344D01*
X73193656Y-134057288D01*
X73044334Y-133965186D01*
X73044333Y-133965185D01*
X73038878Y-133961821D01*
X72992154Y-133909873D01*
X72980931Y-133840910D01*
X73008775Y-133776828D01*
X73016272Y-133768623D01*
X73155104Y-133629792D01*
X73280051Y-133457816D01*
X73376557Y-133268412D01*
X73442246Y-133066243D01*
X73475500Y-132856287D01*
X73475500Y-132643713D01*
X73442246Y-132433757D01*
X73376557Y-132231588D01*
X73280051Y-132042184D01*
X73280049Y-132042181D01*
X73280048Y-132042179D01*
X73155109Y-131870213D01*
X73004790Y-131719894D01*
X73004785Y-131719890D01*
X72839781Y-131600008D01*
X72797115Y-131544678D01*
X72791136Y-131475065D01*
X72823741Y-131413270D01*
X72839781Y-131399371D01*
X73004466Y-131279721D01*
X73154723Y-131129464D01*
X73154727Y-131129459D01*
X73279620Y-130957557D01*
X73376095Y-130768217D01*
X73441757Y-130566129D01*
X73441757Y-130566126D01*
X73452231Y-130500000D01*
X72404146Y-130500000D01*
X72442630Y-130433343D01*
X72475000Y-130312535D01*
X72475000Y-130187465D01*
X72442630Y-130066657D01*
X72404146Y-130000000D01*
X73452231Y-130000000D01*
X73441757Y-129933873D01*
X73441757Y-129933870D01*
X73376095Y-129731782D01*
X73279620Y-129542442D01*
X73154727Y-129370540D01*
X73154723Y-129370535D01*
X73004464Y-129220276D01*
X73004459Y-129220272D01*
X72832557Y-129095379D01*
X72643217Y-128998904D01*
X72441128Y-128933242D01*
X72250000Y-128902969D01*
X72250000Y-129845854D01*
X72183343Y-129807370D01*
X72062535Y-129775000D01*
X71937465Y-129775000D01*
X71816657Y-129807370D01*
X71750000Y-129845854D01*
X71750000Y-128902969D01*
X71558872Y-128933242D01*
X71558869Y-128933242D01*
X71356782Y-128998904D01*
X71167442Y-129095379D01*
X70995540Y-129220272D01*
X70995535Y-129220276D01*
X70845276Y-129370535D01*
X70845272Y-129370540D01*
X70720379Y-129542442D01*
X70623904Y-129731782D01*
X70558242Y-129933870D01*
X70558242Y-129933873D01*
X70547769Y-130000000D01*
X71595854Y-130000000D01*
X71557370Y-130066657D01*
X71525000Y-130187465D01*
X71525000Y-130312535D01*
X71557370Y-130433343D01*
X71595854Y-130500000D01*
X70547769Y-130500000D01*
X70558242Y-130566126D01*
X70558242Y-130566129D01*
X70623904Y-130768217D01*
X70720379Y-130957557D01*
X70845272Y-131129459D01*
X70845276Y-131129464D01*
X70995535Y-131279723D01*
X70995540Y-131279727D01*
X71160218Y-131399372D01*
X71202884Y-131454701D01*
X71208863Y-131524315D01*
X71176258Y-131586110D01*
X71160218Y-131600008D01*
X70995214Y-131719890D01*
X70995209Y-131719894D01*
X70844890Y-131870213D01*
X70719951Y-132042179D01*
X70623444Y-132231585D01*
X70557753Y-132433760D01*
X70524500Y-132643713D01*
X70524500Y-132856286D01*
X70557753Y-133066239D01*
X70623444Y-133268414D01*
X70719951Y-133457820D01*
X70844890Y-133629786D01*
X70983705Y-133768601D01*
X71017190Y-133829924D01*
X71012206Y-133899616D01*
X70970334Y-133955549D01*
X70961121Y-133961821D01*
X70806342Y-134057289D01*
X70682289Y-134181342D01*
X70590187Y-134330663D01*
X70590186Y-134330666D01*
X70535001Y-134497203D01*
X70535001Y-134497204D01*
X70535000Y-134497204D01*
X70524500Y-134599983D01*
X70524500Y-135900001D01*
X26500000Y-135900001D01*
X26500000Y-133647870D01*
X62149500Y-133647870D01*
X62149501Y-133647876D01*
X62155908Y-133707483D01*
X62206202Y-133842328D01*
X62206206Y-133842335D01*
X62292452Y-133957544D01*
X62292455Y-133957547D01*
X62407664Y-134043793D01*
X62407671Y-134043797D01*
X62542517Y-134094091D01*
X62542516Y-134094091D01*
X62549444Y-134094835D01*
X62602127Y-134100500D01*
X64397872Y-134100499D01*
X64457483Y-134094091D01*
X64592331Y-134043796D01*
X64707546Y-133957546D01*
X64793796Y-133842331D01*
X64844091Y-133707483D01*
X64850500Y-133647873D01*
X64850499Y-131852128D01*
X64844091Y-131792517D01*
X64817004Y-131719894D01*
X64793797Y-131657671D01*
X64793793Y-131657664D01*
X64707547Y-131542455D01*
X64707544Y-131542452D01*
X64592335Y-131456206D01*
X64592328Y-131456202D01*
X64457482Y-131405908D01*
X64457483Y-131405908D01*
X64397883Y-131399501D01*
X64397881Y-131399500D01*
X64397873Y-131399500D01*
X64397864Y-131399500D01*
X62602129Y-131399500D01*
X62602123Y-131399501D01*
X62542516Y-131405908D01*
X62407671Y-131456202D01*
X62407664Y-131456206D01*
X62292455Y-131542452D01*
X62292452Y-131542455D01*
X62206206Y-131657664D01*
X62206202Y-131657671D01*
X62155908Y-131792517D01*
X62149501Y-131852116D01*
X62149501Y-131852123D01*
X62149500Y-131852135D01*
X62149500Y-133647870D01*
X26500000Y-133647870D01*
X26500000Y-122650001D01*
X70524500Y-122650001D01*
X70524501Y-122650018D01*
X70535000Y-122752796D01*
X70535001Y-122752799D01*
X70590185Y-122919331D01*
X70590186Y-122919334D01*
X70682288Y-123068656D01*
X70806344Y-123192712D01*
X70955666Y-123284814D01*
X71122203Y-123339999D01*
X71224991Y-123350500D01*
X72775008Y-123350499D01*
X72877797Y-123339999D01*
X73044334Y-123284814D01*
X73193656Y-123192712D01*
X73317712Y-123068656D01*
X73409814Y-122919334D01*
X73464999Y-122752797D01*
X73475500Y-122650009D01*
X73475499Y-121349992D01*
X73464999Y-121247203D01*
X73409814Y-121080666D01*
X73317712Y-120931344D01*
X73193656Y-120807288D01*
X73044334Y-120715186D01*
X73044333Y-120715185D01*
X73038878Y-120711821D01*
X72992154Y-120659873D01*
X72980931Y-120590910D01*
X73008775Y-120526828D01*
X73016272Y-120518623D01*
X73155104Y-120379792D01*
X73280051Y-120207816D01*
X73376557Y-120018412D01*
X73442246Y-119816243D01*
X73475500Y-119606287D01*
X73475500Y-119393713D01*
X73442246Y-119183757D01*
X73376557Y-118981588D01*
X73280051Y-118792184D01*
X73280049Y-118792181D01*
X73280048Y-118792179D01*
X73155109Y-118620213D01*
X73004790Y-118469894D01*
X73004785Y-118469890D01*
X72839781Y-118350008D01*
X72797115Y-118294678D01*
X72791136Y-118225065D01*
X72823741Y-118163270D01*
X72839781Y-118149371D01*
X73004466Y-118029721D01*
X73154723Y-117879464D01*
X73154727Y-117879459D01*
X73279620Y-117707557D01*
X73376095Y-117518217D01*
X73441757Y-117316129D01*
X73441757Y-117316126D01*
X73452231Y-117250000D01*
X72404146Y-117250000D01*
X72442630Y-117183343D01*
X72475000Y-117062535D01*
X72475000Y-116937465D01*
X72442630Y-116816657D01*
X72404146Y-116750000D01*
X73452231Y-116750000D01*
X73441757Y-116683873D01*
X73441757Y-116683870D01*
X73376095Y-116481782D01*
X73279620Y-116292442D01*
X73154727Y-116120540D01*
X73154723Y-116120535D01*
X73004464Y-115970276D01*
X73004459Y-115970272D01*
X72832557Y-115845379D01*
X72643217Y-115748904D01*
X72441128Y-115683242D01*
X72250000Y-115652969D01*
X72250000Y-116595854D01*
X72183343Y-116557370D01*
X72062535Y-116525000D01*
X71937465Y-116525000D01*
X71816657Y-116557370D01*
X71750000Y-116595854D01*
X71750000Y-115652969D01*
X71558872Y-115683242D01*
X71558869Y-115683242D01*
X71356782Y-115748904D01*
X71167442Y-115845379D01*
X70995540Y-115970272D01*
X70995535Y-115970276D01*
X70845276Y-116120535D01*
X70845272Y-116120540D01*
X70720379Y-116292442D01*
X70623904Y-116481782D01*
X70558242Y-116683870D01*
X70558242Y-116683873D01*
X70547769Y-116750000D01*
X71595854Y-116750000D01*
X71557370Y-116816657D01*
X71525000Y-116937465D01*
X71525000Y-117062535D01*
X71557370Y-117183343D01*
X71595854Y-117250000D01*
X70547769Y-117250000D01*
X70558242Y-117316126D01*
X70558242Y-117316129D01*
X70623904Y-117518217D01*
X70720379Y-117707557D01*
X70845272Y-117879459D01*
X70845276Y-117879464D01*
X70995535Y-118029723D01*
X70995540Y-118029727D01*
X71160218Y-118149372D01*
X71202884Y-118204701D01*
X71208863Y-118274315D01*
X71176258Y-118336110D01*
X71160218Y-118350008D01*
X70995214Y-118469890D01*
X70995209Y-118469894D01*
X70844890Y-118620213D01*
X70719951Y-118792179D01*
X70623444Y-118981585D01*
X70557753Y-119183760D01*
X70524500Y-119393713D01*
X70524500Y-119606286D01*
X70557753Y-119816239D01*
X70623444Y-120018414D01*
X70719951Y-120207820D01*
X70844890Y-120379786D01*
X70983705Y-120518601D01*
X71017190Y-120579924D01*
X71012206Y-120649616D01*
X70970334Y-120705549D01*
X70961121Y-120711821D01*
X70806342Y-120807289D01*
X70682289Y-120931342D01*
X70590187Y-121080663D01*
X70590186Y-121080666D01*
X70535001Y-121247203D01*
X70535001Y-121247204D01*
X70535000Y-121247204D01*
X70524500Y-121349983D01*
X70524500Y-122650001D01*
X26500000Y-122650001D01*
X26500000Y-120347870D01*
X62099500Y-120347870D01*
X62099501Y-120347876D01*
X62105908Y-120407483D01*
X62156202Y-120542328D01*
X62156206Y-120542335D01*
X62242452Y-120657544D01*
X62242455Y-120657547D01*
X62357664Y-120743793D01*
X62357671Y-120743797D01*
X62492517Y-120794091D01*
X62492516Y-120794091D01*
X62499444Y-120794835D01*
X62552127Y-120800500D01*
X64347872Y-120800499D01*
X64407483Y-120794091D01*
X64542331Y-120743796D01*
X64657546Y-120657546D01*
X64743796Y-120542331D01*
X64794091Y-120407483D01*
X64800500Y-120347873D01*
X64800499Y-118552128D01*
X64794091Y-118492517D01*
X64785653Y-118469894D01*
X64743797Y-118357671D01*
X64743793Y-118357664D01*
X64657547Y-118242455D01*
X64657544Y-118242452D01*
X64542335Y-118156206D01*
X64542328Y-118156202D01*
X64407482Y-118105908D01*
X64407483Y-118105908D01*
X64347883Y-118099501D01*
X64347881Y-118099500D01*
X64347873Y-118099500D01*
X64347864Y-118099500D01*
X62552129Y-118099500D01*
X62552123Y-118099501D01*
X62492516Y-118105908D01*
X62357671Y-118156202D01*
X62357664Y-118156206D01*
X62242455Y-118242452D01*
X62242452Y-118242455D01*
X62156206Y-118357664D01*
X62156202Y-118357671D01*
X62105908Y-118492517D01*
X62099501Y-118552116D01*
X62099501Y-118552123D01*
X62099500Y-118552135D01*
X62099500Y-120347870D01*
X26500000Y-120347870D01*
X26500000Y-108900001D01*
X70524500Y-108900001D01*
X70524501Y-108900018D01*
X70535000Y-109002796D01*
X70535001Y-109002799D01*
X70590185Y-109169331D01*
X70590186Y-109169334D01*
X70682288Y-109318656D01*
X70806344Y-109442712D01*
X70955666Y-109534814D01*
X71122203Y-109589999D01*
X71224991Y-109600500D01*
X72775008Y-109600499D01*
X72877797Y-109589999D01*
X73044334Y-109534814D01*
X73193656Y-109442712D01*
X73317712Y-109318656D01*
X73409814Y-109169334D01*
X73464999Y-109002797D01*
X73475500Y-108900009D01*
X73475499Y-107599992D01*
X73464999Y-107497203D01*
X73409814Y-107330666D01*
X73317712Y-107181344D01*
X73193656Y-107057288D01*
X73044334Y-106965186D01*
X73044333Y-106965185D01*
X73038878Y-106961821D01*
X72992154Y-106909873D01*
X72980931Y-106840910D01*
X73008775Y-106776828D01*
X73016272Y-106768623D01*
X73155104Y-106629792D01*
X73280051Y-106457816D01*
X73376557Y-106268412D01*
X73442246Y-106066243D01*
X73475500Y-105856287D01*
X73475500Y-105643713D01*
X73442246Y-105433757D01*
X73376557Y-105231588D01*
X73280051Y-105042184D01*
X73280049Y-105042181D01*
X73280048Y-105042179D01*
X73155109Y-104870213D01*
X73004790Y-104719894D01*
X73004785Y-104719890D01*
X72839781Y-104600008D01*
X72797115Y-104544678D01*
X72791136Y-104475065D01*
X72823741Y-104413270D01*
X72839781Y-104399371D01*
X73004466Y-104279721D01*
X73154723Y-104129464D01*
X73154727Y-104129459D01*
X73279620Y-103957557D01*
X73376095Y-103768217D01*
X73441757Y-103566129D01*
X73441757Y-103566126D01*
X73452231Y-103500000D01*
X72404146Y-103500000D01*
X72442630Y-103433343D01*
X72475000Y-103312535D01*
X72475000Y-103187465D01*
X72442630Y-103066657D01*
X72404146Y-103000000D01*
X73452231Y-103000000D01*
X73441757Y-102933873D01*
X73441757Y-102933870D01*
X73376095Y-102731782D01*
X73279620Y-102542442D01*
X73154727Y-102370540D01*
X73154723Y-102370535D01*
X73004464Y-102220276D01*
X73004459Y-102220272D01*
X72832557Y-102095379D01*
X72643217Y-101998904D01*
X72441128Y-101933242D01*
X72250000Y-101902969D01*
X72250000Y-102845854D01*
X72183343Y-102807370D01*
X72062535Y-102775000D01*
X71937465Y-102775000D01*
X71816657Y-102807370D01*
X71750000Y-102845854D01*
X71750000Y-101902969D01*
X71558872Y-101933242D01*
X71558869Y-101933242D01*
X71356782Y-101998904D01*
X71167442Y-102095379D01*
X70995540Y-102220272D01*
X70995535Y-102220276D01*
X70845276Y-102370535D01*
X70845272Y-102370540D01*
X70720379Y-102542442D01*
X70623904Y-102731782D01*
X70558242Y-102933870D01*
X70558242Y-102933873D01*
X70547769Y-103000000D01*
X71595854Y-103000000D01*
X71557370Y-103066657D01*
X71525000Y-103187465D01*
X71525000Y-103312535D01*
X71557370Y-103433343D01*
X71595854Y-103500000D01*
X70547769Y-103500000D01*
X70558242Y-103566126D01*
X70558242Y-103566129D01*
X70623904Y-103768217D01*
X70720379Y-103957557D01*
X70845272Y-104129459D01*
X70845276Y-104129464D01*
X70995535Y-104279723D01*
X70995540Y-104279727D01*
X71160218Y-104399372D01*
X71202884Y-104454701D01*
X71208863Y-104524315D01*
X71176258Y-104586110D01*
X71160218Y-104600008D01*
X70995214Y-104719890D01*
X70995209Y-104719894D01*
X70844890Y-104870213D01*
X70719951Y-105042179D01*
X70623444Y-105231585D01*
X70557753Y-105433760D01*
X70524500Y-105643713D01*
X70524500Y-105856286D01*
X70557753Y-106066239D01*
X70623444Y-106268414D01*
X70719951Y-106457820D01*
X70844890Y-106629786D01*
X70983705Y-106768601D01*
X71017190Y-106829924D01*
X71012206Y-106899616D01*
X70970334Y-106955549D01*
X70961121Y-106961821D01*
X70806342Y-107057289D01*
X70682289Y-107181342D01*
X70590187Y-107330663D01*
X70590186Y-107330666D01*
X70535001Y-107497203D01*
X70535001Y-107497204D01*
X70535000Y-107497204D01*
X70524500Y-107599983D01*
X70524500Y-108900001D01*
X26500000Y-108900001D01*
X26500000Y-106647870D01*
X62149500Y-106647870D01*
X62149501Y-106647876D01*
X62155908Y-106707483D01*
X62206202Y-106842328D01*
X62206206Y-106842335D01*
X62292452Y-106957544D01*
X62292455Y-106957547D01*
X62407664Y-107043793D01*
X62407671Y-107043797D01*
X62542517Y-107094091D01*
X62542516Y-107094091D01*
X62549444Y-107094835D01*
X62602127Y-107100500D01*
X64397872Y-107100499D01*
X64457483Y-107094091D01*
X64592331Y-107043796D01*
X64707546Y-106957546D01*
X64793796Y-106842331D01*
X64844091Y-106707483D01*
X64850500Y-106647873D01*
X64850499Y-104852128D01*
X64844091Y-104792517D01*
X64817004Y-104719894D01*
X64793797Y-104657671D01*
X64793793Y-104657664D01*
X64707547Y-104542455D01*
X64707544Y-104542452D01*
X64592335Y-104456206D01*
X64592328Y-104456202D01*
X64457482Y-104405908D01*
X64457483Y-104405908D01*
X64397883Y-104399501D01*
X64397881Y-104399500D01*
X64397873Y-104399500D01*
X64397864Y-104399500D01*
X62602129Y-104399500D01*
X62602123Y-104399501D01*
X62542516Y-104405908D01*
X62407671Y-104456202D01*
X62407664Y-104456206D01*
X62292455Y-104542452D01*
X62292452Y-104542455D01*
X62206206Y-104657664D01*
X62206202Y-104657671D01*
X62155908Y-104792517D01*
X62149501Y-104852116D01*
X62149501Y-104852123D01*
X62149500Y-104852135D01*
X62149500Y-106647870D01*
X26500000Y-106647870D01*
X26500000Y-95400001D01*
X70524500Y-95400001D01*
X70524501Y-95400018D01*
X70535000Y-95502796D01*
X70535001Y-95502799D01*
X70590185Y-95669331D01*
X70590186Y-95669334D01*
X70682288Y-95818656D01*
X70806344Y-95942712D01*
X70955666Y-96034814D01*
X71122203Y-96089999D01*
X71224991Y-96100500D01*
X72775008Y-96100499D01*
X72877797Y-96089999D01*
X73044334Y-96034814D01*
X73193656Y-95942712D01*
X73317712Y-95818656D01*
X73409814Y-95669334D01*
X73464999Y-95502797D01*
X73475500Y-95400009D01*
X73475499Y-94099992D01*
X73464999Y-93997203D01*
X73409814Y-93830666D01*
X73317712Y-93681344D01*
X73193656Y-93557288D01*
X73044334Y-93465186D01*
X73044333Y-93465185D01*
X73038878Y-93461821D01*
X72992154Y-93409873D01*
X72980931Y-93340910D01*
X73008775Y-93276828D01*
X73016272Y-93268623D01*
X73155104Y-93129792D01*
X73280051Y-92957816D01*
X73376557Y-92768412D01*
X73442246Y-92566243D01*
X73475500Y-92356287D01*
X73475500Y-92143713D01*
X73442246Y-91933757D01*
X73376557Y-91731588D01*
X73280051Y-91542184D01*
X73280049Y-91542181D01*
X73280048Y-91542179D01*
X73155109Y-91370213D01*
X73004790Y-91219894D01*
X73004785Y-91219890D01*
X72839781Y-91100008D01*
X72797115Y-91044678D01*
X72791136Y-90975065D01*
X72823741Y-90913270D01*
X72839781Y-90899371D01*
X73004466Y-90779721D01*
X73154723Y-90629464D01*
X73154727Y-90629459D01*
X73279620Y-90457557D01*
X73376095Y-90268217D01*
X73441757Y-90066129D01*
X73441757Y-90066126D01*
X73452231Y-90000000D01*
X72404146Y-90000000D01*
X72442630Y-89933343D01*
X72475000Y-89812535D01*
X72475000Y-89687465D01*
X72442630Y-89566657D01*
X72404146Y-89500000D01*
X73452231Y-89500000D01*
X73441757Y-89433873D01*
X73441757Y-89433870D01*
X73376095Y-89231782D01*
X73279620Y-89042442D01*
X73154727Y-88870540D01*
X73154723Y-88870535D01*
X73004464Y-88720276D01*
X73004459Y-88720272D01*
X72832557Y-88595379D01*
X72643217Y-88498904D01*
X72441128Y-88433242D01*
X72250000Y-88402969D01*
X72250000Y-89345854D01*
X72183343Y-89307370D01*
X72062535Y-89275000D01*
X71937465Y-89275000D01*
X71816657Y-89307370D01*
X71750000Y-89345854D01*
X71750000Y-88402969D01*
X71558872Y-88433242D01*
X71558869Y-88433242D01*
X71356782Y-88498904D01*
X71167442Y-88595379D01*
X70995540Y-88720272D01*
X70995535Y-88720276D01*
X70845276Y-88870535D01*
X70845272Y-88870540D01*
X70720379Y-89042442D01*
X70623904Y-89231782D01*
X70558242Y-89433870D01*
X70558242Y-89433873D01*
X70547769Y-89500000D01*
X71595854Y-89500000D01*
X71557370Y-89566657D01*
X71525000Y-89687465D01*
X71525000Y-89812535D01*
X71557370Y-89933343D01*
X71595854Y-90000000D01*
X70547769Y-90000000D01*
X70558242Y-90066126D01*
X70558242Y-90066129D01*
X70623904Y-90268217D01*
X70720379Y-90457557D01*
X70845272Y-90629459D01*
X70845276Y-90629464D01*
X70995535Y-90779723D01*
X70995540Y-90779727D01*
X71160218Y-90899372D01*
X71202884Y-90954701D01*
X71208863Y-91024315D01*
X71176258Y-91086110D01*
X71160218Y-91100008D01*
X70995214Y-91219890D01*
X70995209Y-91219894D01*
X70844890Y-91370213D01*
X70719951Y-91542179D01*
X70623444Y-91731585D01*
X70557753Y-91933760D01*
X70524500Y-92143713D01*
X70524500Y-92356286D01*
X70557753Y-92566239D01*
X70623444Y-92768414D01*
X70719951Y-92957820D01*
X70844890Y-93129786D01*
X70983705Y-93268601D01*
X71017190Y-93329924D01*
X71012206Y-93399616D01*
X70970334Y-93455549D01*
X70961121Y-93461821D01*
X70806342Y-93557289D01*
X70682289Y-93681342D01*
X70590187Y-93830663D01*
X70590186Y-93830666D01*
X70535001Y-93997203D01*
X70535001Y-93997204D01*
X70535000Y-93997204D01*
X70524500Y-94099983D01*
X70524500Y-95400001D01*
X26500000Y-95400001D01*
X26500000Y-93247870D01*
X62149500Y-93247870D01*
X62149501Y-93247876D01*
X62155908Y-93307483D01*
X62206202Y-93442328D01*
X62206206Y-93442335D01*
X62292452Y-93557544D01*
X62292455Y-93557547D01*
X62407664Y-93643793D01*
X62407671Y-93643797D01*
X62542517Y-93694091D01*
X62542516Y-93694091D01*
X62549444Y-93694835D01*
X62602127Y-93700500D01*
X64397872Y-93700499D01*
X64457483Y-93694091D01*
X64592331Y-93643796D01*
X64707546Y-93557546D01*
X64793796Y-93442331D01*
X64844091Y-93307483D01*
X64850500Y-93247873D01*
X64850499Y-91452128D01*
X64844091Y-91392517D01*
X64835772Y-91370213D01*
X64793797Y-91257671D01*
X64793793Y-91257664D01*
X64707547Y-91142455D01*
X64707544Y-91142452D01*
X64592335Y-91056206D01*
X64592328Y-91056202D01*
X64457482Y-91005908D01*
X64457483Y-91005908D01*
X64397883Y-90999501D01*
X64397881Y-90999500D01*
X64397873Y-90999500D01*
X64397864Y-90999500D01*
X62602129Y-90999500D01*
X62602123Y-90999501D01*
X62542516Y-91005908D01*
X62407671Y-91056202D01*
X62407664Y-91056206D01*
X62292455Y-91142452D01*
X62292452Y-91142455D01*
X62206206Y-91257664D01*
X62206202Y-91257671D01*
X62155908Y-91392517D01*
X62149501Y-91452116D01*
X62149501Y-91452123D01*
X62149500Y-91452135D01*
X62149500Y-93247870D01*
X26500000Y-93247870D01*
X26500000Y-82400001D01*
X70574500Y-82400001D01*
X70574501Y-82400018D01*
X70585000Y-82502796D01*
X70585001Y-82502799D01*
X70640185Y-82669331D01*
X70640186Y-82669334D01*
X70732288Y-82818656D01*
X70856344Y-82942712D01*
X71005666Y-83034814D01*
X71172203Y-83089999D01*
X71274991Y-83100500D01*
X72825008Y-83100499D01*
X72927797Y-83089999D01*
X73094334Y-83034814D01*
X73243656Y-82942712D01*
X73367712Y-82818656D01*
X73459814Y-82669334D01*
X73514999Y-82502797D01*
X73525500Y-82400009D01*
X73525499Y-81099992D01*
X73514999Y-80997203D01*
X73459814Y-80830666D01*
X73367712Y-80681344D01*
X73243656Y-80557288D01*
X73094334Y-80465186D01*
X73094333Y-80465185D01*
X73088878Y-80461821D01*
X73042154Y-80409873D01*
X73030931Y-80340910D01*
X73058775Y-80276828D01*
X73066272Y-80268623D01*
X73205104Y-80129792D01*
X73330051Y-79957816D01*
X73426557Y-79768412D01*
X73492246Y-79566243D01*
X73525500Y-79356287D01*
X73525500Y-79143713D01*
X73492246Y-78933757D01*
X73426557Y-78731588D01*
X73330051Y-78542184D01*
X73330049Y-78542181D01*
X73330048Y-78542179D01*
X73205109Y-78370213D01*
X73054790Y-78219894D01*
X73054785Y-78219890D01*
X72889781Y-78100008D01*
X72847115Y-78044678D01*
X72841136Y-77975065D01*
X72873741Y-77913270D01*
X72889781Y-77899371D01*
X73054466Y-77779721D01*
X73204723Y-77629464D01*
X73204727Y-77629459D01*
X73329620Y-77457557D01*
X73426095Y-77268217D01*
X73491757Y-77066129D01*
X73491757Y-77066126D01*
X73502231Y-77000000D01*
X72454146Y-77000000D01*
X72492630Y-76933343D01*
X72525000Y-76812535D01*
X72525000Y-76687465D01*
X72492630Y-76566657D01*
X72454146Y-76500000D01*
X73502231Y-76500000D01*
X73491757Y-76433873D01*
X73491757Y-76433870D01*
X73426095Y-76231782D01*
X73329620Y-76042442D01*
X73204727Y-75870540D01*
X73204723Y-75870535D01*
X73054464Y-75720276D01*
X73054459Y-75720272D01*
X72882557Y-75595379D01*
X72693217Y-75498904D01*
X72491128Y-75433242D01*
X72300000Y-75402969D01*
X72300000Y-76345854D01*
X72233343Y-76307370D01*
X72112535Y-76275000D01*
X71987465Y-76275000D01*
X71866657Y-76307370D01*
X71800000Y-76345854D01*
X71800000Y-75402969D01*
X71608872Y-75433242D01*
X71608869Y-75433242D01*
X71406782Y-75498904D01*
X71217442Y-75595379D01*
X71045540Y-75720272D01*
X71045535Y-75720276D01*
X70895276Y-75870535D01*
X70895272Y-75870540D01*
X70770379Y-76042442D01*
X70673904Y-76231782D01*
X70608242Y-76433870D01*
X70608242Y-76433873D01*
X70597769Y-76500000D01*
X71645854Y-76500000D01*
X71607370Y-76566657D01*
X71575000Y-76687465D01*
X71575000Y-76812535D01*
X71607370Y-76933343D01*
X71645854Y-77000000D01*
X70597769Y-77000000D01*
X70608242Y-77066126D01*
X70608242Y-77066129D01*
X70673904Y-77268217D01*
X70770379Y-77457557D01*
X70895272Y-77629459D01*
X70895276Y-77629464D01*
X71045535Y-77779723D01*
X71045540Y-77779727D01*
X71210218Y-77899372D01*
X71252884Y-77954701D01*
X71258863Y-78024315D01*
X71226258Y-78086110D01*
X71210218Y-78100008D01*
X71045214Y-78219890D01*
X71045209Y-78219894D01*
X70894890Y-78370213D01*
X70769951Y-78542179D01*
X70673444Y-78731585D01*
X70607753Y-78933760D01*
X70574500Y-79143713D01*
X70574500Y-79356286D01*
X70607753Y-79566239D01*
X70673444Y-79768414D01*
X70769951Y-79957820D01*
X70894890Y-80129786D01*
X71033705Y-80268601D01*
X71067190Y-80329924D01*
X71062206Y-80399616D01*
X71020334Y-80455549D01*
X71011121Y-80461821D01*
X70856342Y-80557289D01*
X70732289Y-80681342D01*
X70640187Y-80830663D01*
X70640186Y-80830666D01*
X70585001Y-80997203D01*
X70585001Y-80997204D01*
X70585000Y-80997204D01*
X70574500Y-81099983D01*
X70574500Y-82400001D01*
X26500000Y-82400001D01*
X26500000Y-80147870D01*
X62149500Y-80147870D01*
X62149501Y-80147876D01*
X62155908Y-80207483D01*
X62206202Y-80342328D01*
X62206206Y-80342335D01*
X62292452Y-80457544D01*
X62292455Y-80457547D01*
X62407664Y-80543793D01*
X62407671Y-80543797D01*
X62542517Y-80594091D01*
X62542516Y-80594091D01*
X62549444Y-80594835D01*
X62602127Y-80600500D01*
X64397872Y-80600499D01*
X64457483Y-80594091D01*
X64592331Y-80543796D01*
X64707546Y-80457546D01*
X64793796Y-80342331D01*
X64844091Y-80207483D01*
X64850500Y-80147873D01*
X64850499Y-78352128D01*
X64844091Y-78292517D01*
X64817004Y-78219894D01*
X64793797Y-78157671D01*
X64793793Y-78157664D01*
X64707547Y-78042455D01*
X64707544Y-78042452D01*
X64592335Y-77956206D01*
X64592328Y-77956202D01*
X64457482Y-77905908D01*
X64457483Y-77905908D01*
X64397883Y-77899501D01*
X64397881Y-77899500D01*
X64397873Y-77899500D01*
X64397864Y-77899500D01*
X62602129Y-77899500D01*
X62602123Y-77899501D01*
X62542516Y-77905908D01*
X62407671Y-77956202D01*
X62407664Y-77956206D01*
X62292455Y-78042452D01*
X62292452Y-78042455D01*
X62206206Y-78157664D01*
X62206202Y-78157671D01*
X62155908Y-78292517D01*
X62149501Y-78352116D01*
X62149501Y-78352123D01*
X62149500Y-78352135D01*
X62149500Y-80147870D01*
X26500000Y-80147870D01*
X26500000Y-69650001D01*
X70524500Y-69650001D01*
X70524501Y-69650018D01*
X70535000Y-69752796D01*
X70535001Y-69752799D01*
X70590185Y-69919331D01*
X70590186Y-69919334D01*
X70682288Y-70068656D01*
X70806344Y-70192712D01*
X70955666Y-70284814D01*
X71122203Y-70339999D01*
X71224991Y-70350500D01*
X72775008Y-70350499D01*
X72877797Y-70339999D01*
X73044334Y-70284814D01*
X73193656Y-70192712D01*
X73317712Y-70068656D01*
X73409814Y-69919334D01*
X73464999Y-69752797D01*
X73475500Y-69650009D01*
X73475499Y-68349992D01*
X73464999Y-68247203D01*
X73409814Y-68080666D01*
X73317712Y-67931344D01*
X73193656Y-67807288D01*
X73044334Y-67715186D01*
X73044333Y-67715185D01*
X73038878Y-67711821D01*
X72992154Y-67659873D01*
X72980931Y-67590910D01*
X73008775Y-67526828D01*
X73016272Y-67518623D01*
X73155104Y-67379792D01*
X73280051Y-67207816D01*
X73376557Y-67018412D01*
X73442246Y-66816243D01*
X73475500Y-66606287D01*
X73475500Y-66393713D01*
X73442246Y-66183757D01*
X73376557Y-65981588D01*
X73280051Y-65792184D01*
X73280049Y-65792181D01*
X73280048Y-65792179D01*
X73155109Y-65620213D01*
X73004790Y-65469894D01*
X73004785Y-65469890D01*
X72839781Y-65350008D01*
X72797115Y-65294678D01*
X72791136Y-65225065D01*
X72823741Y-65163270D01*
X72839781Y-65149371D01*
X73004466Y-65029721D01*
X73154723Y-64879464D01*
X73154727Y-64879459D01*
X73279620Y-64707557D01*
X73376095Y-64518217D01*
X73441757Y-64316129D01*
X73441757Y-64316126D01*
X73452231Y-64250000D01*
X72404146Y-64250000D01*
X72442630Y-64183343D01*
X72475000Y-64062535D01*
X72475000Y-63937465D01*
X72442630Y-63816657D01*
X72404146Y-63750000D01*
X73452231Y-63750000D01*
X73441757Y-63683873D01*
X73441757Y-63683870D01*
X73376095Y-63481782D01*
X73279620Y-63292442D01*
X73154727Y-63120540D01*
X73154723Y-63120535D01*
X73004464Y-62970276D01*
X73004459Y-62970272D01*
X72832557Y-62845379D01*
X72643217Y-62748904D01*
X72441128Y-62683242D01*
X72250000Y-62652969D01*
X72250000Y-63595854D01*
X72183343Y-63557370D01*
X72062535Y-63525000D01*
X71937465Y-63525000D01*
X71816657Y-63557370D01*
X71750000Y-63595854D01*
X71750000Y-62652969D01*
X71558872Y-62683242D01*
X71558869Y-62683242D01*
X71356782Y-62748904D01*
X71167442Y-62845379D01*
X70995540Y-62970272D01*
X70995535Y-62970276D01*
X70845276Y-63120535D01*
X70845272Y-63120540D01*
X70720379Y-63292442D01*
X70623904Y-63481782D01*
X70558242Y-63683870D01*
X70558242Y-63683873D01*
X70547769Y-63750000D01*
X71595854Y-63750000D01*
X71557370Y-63816657D01*
X71525000Y-63937465D01*
X71525000Y-64062535D01*
X71557370Y-64183343D01*
X71595854Y-64250000D01*
X70547769Y-64250000D01*
X70558242Y-64316126D01*
X70558242Y-64316129D01*
X70623904Y-64518217D01*
X70720379Y-64707557D01*
X70845272Y-64879459D01*
X70845276Y-64879464D01*
X70995535Y-65029723D01*
X70995540Y-65029727D01*
X71160218Y-65149372D01*
X71202884Y-65204701D01*
X71208863Y-65274315D01*
X71176258Y-65336110D01*
X71160218Y-65350008D01*
X70995214Y-65469890D01*
X70995209Y-65469894D01*
X70844890Y-65620213D01*
X70719951Y-65792179D01*
X70623444Y-65981585D01*
X70557753Y-66183760D01*
X70524500Y-66393713D01*
X70524500Y-66606286D01*
X70557753Y-66816239D01*
X70623444Y-67018414D01*
X70719951Y-67207820D01*
X70844890Y-67379786D01*
X70983705Y-67518601D01*
X71017190Y-67579924D01*
X71012206Y-67649616D01*
X70970334Y-67705549D01*
X70961121Y-67711821D01*
X70806342Y-67807289D01*
X70682289Y-67931342D01*
X70590187Y-68080663D01*
X70590186Y-68080666D01*
X70535001Y-68247203D01*
X70535001Y-68247204D01*
X70535000Y-68247204D01*
X70524500Y-68349983D01*
X70524500Y-69650001D01*
X26500000Y-69650001D01*
X26500000Y-67347870D01*
X62124500Y-67347870D01*
X62124501Y-67347876D01*
X62130908Y-67407483D01*
X62181202Y-67542328D01*
X62181206Y-67542335D01*
X62267452Y-67657544D01*
X62267455Y-67657547D01*
X62382664Y-67743793D01*
X62382671Y-67743797D01*
X62517517Y-67794091D01*
X62517516Y-67794091D01*
X62524444Y-67794835D01*
X62577127Y-67800500D01*
X64372872Y-67800499D01*
X64432483Y-67794091D01*
X64567331Y-67743796D01*
X64682546Y-67657546D01*
X64768796Y-67542331D01*
X64819091Y-67407483D01*
X64825500Y-67347873D01*
X64825499Y-65552128D01*
X64819091Y-65492517D01*
X64810653Y-65469894D01*
X64768797Y-65357671D01*
X64768793Y-65357664D01*
X64682547Y-65242455D01*
X64682544Y-65242452D01*
X64567335Y-65156206D01*
X64567328Y-65156202D01*
X64432482Y-65105908D01*
X64432483Y-65105908D01*
X64372883Y-65099501D01*
X64372881Y-65099500D01*
X64372873Y-65099500D01*
X64372864Y-65099500D01*
X62577129Y-65099500D01*
X62577123Y-65099501D01*
X62517516Y-65105908D01*
X62382671Y-65156202D01*
X62382664Y-65156206D01*
X62267455Y-65242452D01*
X62267452Y-65242455D01*
X62181206Y-65357664D01*
X62181202Y-65357671D01*
X62130908Y-65492517D01*
X62124501Y-65552116D01*
X62124501Y-65552123D01*
X62124500Y-65552135D01*
X62124500Y-67347870D01*
X26500000Y-67347870D01*
X26500000Y-56400001D01*
X70524500Y-56400001D01*
X70524501Y-56400018D01*
X70535000Y-56502796D01*
X70535001Y-56502799D01*
X70590185Y-56669331D01*
X70590186Y-56669334D01*
X70682288Y-56818656D01*
X70806344Y-56942712D01*
X70955666Y-57034814D01*
X71122203Y-57089999D01*
X71224991Y-57100500D01*
X72775008Y-57100499D01*
X72877797Y-57089999D01*
X73044334Y-57034814D01*
X73193656Y-56942712D01*
X73317712Y-56818656D01*
X73409814Y-56669334D01*
X73464999Y-56502797D01*
X73475500Y-56400009D01*
X73475499Y-55099992D01*
X73464999Y-54997203D01*
X73409814Y-54830666D01*
X73317712Y-54681344D01*
X73193656Y-54557288D01*
X73044334Y-54465186D01*
X73044333Y-54465185D01*
X73038878Y-54461821D01*
X72992154Y-54409873D01*
X72980931Y-54340910D01*
X73008775Y-54276828D01*
X73016272Y-54268623D01*
X73155104Y-54129792D01*
X73280051Y-53957816D01*
X73376557Y-53768412D01*
X73442246Y-53566243D01*
X73475500Y-53356287D01*
X73475500Y-53143713D01*
X73442246Y-52933757D01*
X73376557Y-52731588D01*
X73280051Y-52542184D01*
X73280049Y-52542181D01*
X73280048Y-52542179D01*
X73155109Y-52370213D01*
X73004790Y-52219894D01*
X73004785Y-52219890D01*
X72839781Y-52100008D01*
X72797115Y-52044678D01*
X72791136Y-51975065D01*
X72823741Y-51913270D01*
X72839781Y-51899371D01*
X73004466Y-51779721D01*
X73154723Y-51629464D01*
X73154727Y-51629459D01*
X73279620Y-51457557D01*
X73376095Y-51268217D01*
X73441757Y-51066129D01*
X73441757Y-51066126D01*
X73452231Y-51000000D01*
X72404146Y-51000000D01*
X72442630Y-50933343D01*
X72475000Y-50812535D01*
X72475000Y-50687465D01*
X72442630Y-50566657D01*
X72404146Y-50500000D01*
X73452231Y-50500000D01*
X73441757Y-50433873D01*
X73441757Y-50433870D01*
X73376095Y-50231782D01*
X73279620Y-50042442D01*
X73154727Y-49870540D01*
X73154723Y-49870535D01*
X73004464Y-49720276D01*
X73004459Y-49720272D01*
X72832557Y-49595379D01*
X72643217Y-49498904D01*
X72441128Y-49433242D01*
X72250000Y-49402969D01*
X72250000Y-50345854D01*
X72183343Y-50307370D01*
X72062535Y-50275000D01*
X71937465Y-50275000D01*
X71816657Y-50307370D01*
X71750000Y-50345854D01*
X71750000Y-49402969D01*
X71558872Y-49433242D01*
X71558869Y-49433242D01*
X71356782Y-49498904D01*
X71167442Y-49595379D01*
X70995540Y-49720272D01*
X70995535Y-49720276D01*
X70845276Y-49870535D01*
X70845272Y-49870540D01*
X70720379Y-50042442D01*
X70623904Y-50231782D01*
X70558242Y-50433870D01*
X70558242Y-50433873D01*
X70547769Y-50500000D01*
X71595854Y-50500000D01*
X71557370Y-50566657D01*
X71525000Y-50687465D01*
X71525000Y-50812535D01*
X71557370Y-50933343D01*
X71595854Y-51000000D01*
X70547769Y-51000000D01*
X70558242Y-51066126D01*
X70558242Y-51066129D01*
X70623904Y-51268217D01*
X70720379Y-51457557D01*
X70845272Y-51629459D01*
X70845276Y-51629464D01*
X70995535Y-51779723D01*
X70995540Y-51779727D01*
X71160218Y-51899372D01*
X71202884Y-51954701D01*
X71208863Y-52024315D01*
X71176258Y-52086110D01*
X71160218Y-52100008D01*
X70995214Y-52219890D01*
X70995209Y-52219894D01*
X70844890Y-52370213D01*
X70719951Y-52542179D01*
X70623444Y-52731585D01*
X70557753Y-52933760D01*
X70524500Y-53143713D01*
X70524500Y-53356286D01*
X70557753Y-53566239D01*
X70623444Y-53768414D01*
X70719951Y-53957820D01*
X70844890Y-54129786D01*
X70983705Y-54268601D01*
X71017190Y-54329924D01*
X71012206Y-54399616D01*
X70970334Y-54455549D01*
X70961121Y-54461821D01*
X70806342Y-54557289D01*
X70682289Y-54681342D01*
X70590187Y-54830663D01*
X70590186Y-54830666D01*
X70535001Y-54997203D01*
X70535001Y-54997204D01*
X70535000Y-54997204D01*
X70524500Y-55099983D01*
X70524500Y-56400001D01*
X26500000Y-56400001D01*
X26500000Y-54497870D01*
X62149500Y-54497870D01*
X62149501Y-54497876D01*
X62155908Y-54557483D01*
X62206202Y-54692328D01*
X62206206Y-54692335D01*
X62292452Y-54807544D01*
X62292455Y-54807547D01*
X62407664Y-54893793D01*
X62407671Y-54893797D01*
X62542517Y-54944091D01*
X62542516Y-54944091D01*
X62549444Y-54944835D01*
X62602127Y-54950500D01*
X64397872Y-54950499D01*
X64457483Y-54944091D01*
X64592331Y-54893796D01*
X64707546Y-54807546D01*
X64793796Y-54692331D01*
X64844091Y-54557483D01*
X64850500Y-54497873D01*
X64850499Y-52702128D01*
X64844091Y-52642517D01*
X64806669Y-52542184D01*
X64793797Y-52507671D01*
X64793793Y-52507664D01*
X64707547Y-52392455D01*
X64707544Y-52392452D01*
X64592335Y-52306206D01*
X64592328Y-52306202D01*
X64457482Y-52255908D01*
X64457483Y-52255908D01*
X64397883Y-52249501D01*
X64397881Y-52249500D01*
X64397873Y-52249500D01*
X64397864Y-52249500D01*
X62602129Y-52249500D01*
X62602123Y-52249501D01*
X62542516Y-52255908D01*
X62407671Y-52306202D01*
X62407664Y-52306206D01*
X62292455Y-52392452D01*
X62292452Y-52392455D01*
X62206206Y-52507664D01*
X62206202Y-52507671D01*
X62155908Y-52642517D01*
X62149501Y-52702116D01*
X62149501Y-52702123D01*
X62149500Y-52702135D01*
X62149500Y-54497870D01*
X26500000Y-54497870D01*
X26500000Y-43150001D01*
X70524500Y-43150001D01*
X70524501Y-43150018D01*
X70535000Y-43252796D01*
X70535001Y-43252799D01*
X70590185Y-43419331D01*
X70590186Y-43419334D01*
X70682288Y-43568656D01*
X70806344Y-43692712D01*
X70955666Y-43784814D01*
X71122203Y-43839999D01*
X71224991Y-43850500D01*
X72775008Y-43850499D01*
X72877797Y-43839999D01*
X73044334Y-43784814D01*
X73193656Y-43692712D01*
X73317712Y-43568656D01*
X73409814Y-43419334D01*
X73464999Y-43252797D01*
X73475500Y-43150009D01*
X73475499Y-41849992D01*
X73464999Y-41747203D01*
X73409814Y-41580666D01*
X73317712Y-41431344D01*
X73193656Y-41307288D01*
X73044334Y-41215186D01*
X73044333Y-41215185D01*
X73038878Y-41211821D01*
X72992154Y-41159873D01*
X72980931Y-41090910D01*
X73008775Y-41026828D01*
X73016272Y-41018623D01*
X73155104Y-40879792D01*
X73280051Y-40707816D01*
X73376557Y-40518412D01*
X73442246Y-40316243D01*
X73475500Y-40106287D01*
X73475500Y-39893713D01*
X73442246Y-39683757D01*
X73376557Y-39481588D01*
X73280051Y-39292184D01*
X73280049Y-39292181D01*
X73280048Y-39292179D01*
X73155109Y-39120213D01*
X73004790Y-38969894D01*
X73004785Y-38969890D01*
X72839781Y-38850008D01*
X72797115Y-38794678D01*
X72791136Y-38725065D01*
X72823741Y-38663270D01*
X72839781Y-38649371D01*
X73004466Y-38529721D01*
X73154723Y-38379464D01*
X73154727Y-38379459D01*
X73279620Y-38207557D01*
X73376095Y-38018217D01*
X73441757Y-37816129D01*
X73441757Y-37816126D01*
X73452231Y-37750000D01*
X72404146Y-37750000D01*
X72442630Y-37683343D01*
X72475000Y-37562535D01*
X72475000Y-37437465D01*
X72442630Y-37316657D01*
X72404146Y-37250000D01*
X73452231Y-37250000D01*
X73441757Y-37183873D01*
X73441757Y-37183870D01*
X73376095Y-36981782D01*
X73279620Y-36792442D01*
X73154727Y-36620540D01*
X73154723Y-36620535D01*
X73004464Y-36470276D01*
X73004459Y-36470272D01*
X72832557Y-36345379D01*
X72643217Y-36248904D01*
X72441128Y-36183242D01*
X72250000Y-36152969D01*
X72250000Y-37095854D01*
X72183343Y-37057370D01*
X72062535Y-37025000D01*
X71937465Y-37025000D01*
X71816657Y-37057370D01*
X71750000Y-37095854D01*
X71750000Y-36152969D01*
X71558872Y-36183242D01*
X71558869Y-36183242D01*
X71356782Y-36248904D01*
X71167442Y-36345379D01*
X70995540Y-36470272D01*
X70995535Y-36470276D01*
X70845276Y-36620535D01*
X70845272Y-36620540D01*
X70720379Y-36792442D01*
X70623904Y-36981782D01*
X70558242Y-37183870D01*
X70558242Y-37183873D01*
X70547769Y-37250000D01*
X71595854Y-37250000D01*
X71557370Y-37316657D01*
X71525000Y-37437465D01*
X71525000Y-37562535D01*
X71557370Y-37683343D01*
X71595854Y-37750000D01*
X70547769Y-37750000D01*
X70558242Y-37816126D01*
X70558242Y-37816129D01*
X70623904Y-38018217D01*
X70720379Y-38207557D01*
X70845272Y-38379459D01*
X70845276Y-38379464D01*
X70995535Y-38529723D01*
X70995540Y-38529727D01*
X71160218Y-38649372D01*
X71202884Y-38704701D01*
X71208863Y-38774315D01*
X71176258Y-38836110D01*
X71160218Y-38850008D01*
X70995214Y-38969890D01*
X70995209Y-38969894D01*
X70844890Y-39120213D01*
X70719951Y-39292179D01*
X70623444Y-39481585D01*
X70557753Y-39683760D01*
X70524500Y-39893713D01*
X70524500Y-40106286D01*
X70557753Y-40316239D01*
X70623444Y-40518414D01*
X70719951Y-40707820D01*
X70844890Y-40879786D01*
X70983705Y-41018601D01*
X71017190Y-41079924D01*
X71012206Y-41149616D01*
X70970334Y-41205549D01*
X70961121Y-41211821D01*
X70806342Y-41307289D01*
X70682289Y-41431342D01*
X70590187Y-41580663D01*
X70590186Y-41580666D01*
X70535001Y-41747203D01*
X70535001Y-41747204D01*
X70535000Y-41747204D01*
X70524500Y-41849983D01*
X70524500Y-43150001D01*
X26500000Y-43150001D01*
X26500000Y-40897870D01*
X62149500Y-40897870D01*
X62149501Y-40897876D01*
X62155908Y-40957483D01*
X62206202Y-41092328D01*
X62206206Y-41092335D01*
X62292452Y-41207544D01*
X62292455Y-41207547D01*
X62407664Y-41293793D01*
X62407671Y-41293797D01*
X62542517Y-41344091D01*
X62542516Y-41344091D01*
X62549444Y-41344835D01*
X62602127Y-41350500D01*
X64397872Y-41350499D01*
X64457483Y-41344091D01*
X64592331Y-41293796D01*
X64707546Y-41207546D01*
X64793796Y-41092331D01*
X64844091Y-40957483D01*
X64850500Y-40897873D01*
X64850499Y-39102128D01*
X64844091Y-39042517D01*
X64817004Y-38969894D01*
X64793797Y-38907671D01*
X64793793Y-38907664D01*
X64707547Y-38792455D01*
X64707544Y-38792452D01*
X64592335Y-38706206D01*
X64592328Y-38706202D01*
X64457482Y-38655908D01*
X64457483Y-38655908D01*
X64397883Y-38649501D01*
X64397881Y-38649500D01*
X64397873Y-38649500D01*
X64397864Y-38649500D01*
X62602129Y-38649500D01*
X62602123Y-38649501D01*
X62542516Y-38655908D01*
X62407671Y-38706202D01*
X62407664Y-38706206D01*
X62292455Y-38792452D01*
X62292452Y-38792455D01*
X62206206Y-38907664D01*
X62206202Y-38907671D01*
X62155908Y-39042517D01*
X62149501Y-39102116D01*
X62149501Y-39102123D01*
X62149500Y-39102135D01*
X62149500Y-40897870D01*
X26500000Y-40897870D01*
X26500000Y-30397844D01*
X30400000Y-30397844D01*
X30406401Y-30457372D01*
X30406403Y-30457379D01*
X30456645Y-30592086D01*
X30456649Y-30592093D01*
X30542809Y-30707187D01*
X30542812Y-30707190D01*
X30657906Y-30793350D01*
X30657913Y-30793354D01*
X30792620Y-30843596D01*
X30792627Y-30843598D01*
X30852155Y-30849999D01*
X30852172Y-30850000D01*
X31500000Y-30850000D01*
X31500000Y-29933012D01*
X31557007Y-29965925D01*
X31684174Y-30000000D01*
X31815826Y-30000000D01*
X31942993Y-29965925D01*
X32000000Y-29933012D01*
X32000000Y-30850000D01*
X32647828Y-30850000D01*
X32647844Y-30849999D01*
X32707372Y-30843598D01*
X32707379Y-30843596D01*
X32842086Y-30793354D01*
X32842093Y-30793350D01*
X32957187Y-30707190D01*
X32957190Y-30707187D01*
X33043350Y-30592093D01*
X33043354Y-30592086D01*
X33093596Y-30457379D01*
X33093598Y-30457372D01*
X33099999Y-30397844D01*
X33100000Y-30397827D01*
X33100000Y-30150001D01*
X70524500Y-30150001D01*
X70524501Y-30150018D01*
X70535000Y-30252796D01*
X70535001Y-30252799D01*
X70583059Y-30397827D01*
X70590186Y-30419334D01*
X70682288Y-30568656D01*
X70806344Y-30692712D01*
X70955666Y-30784814D01*
X71122203Y-30839999D01*
X71224991Y-30850500D01*
X72775008Y-30850499D01*
X72877797Y-30839999D01*
X73044334Y-30784814D01*
X73193656Y-30692712D01*
X73317712Y-30568656D01*
X73409814Y-30419334D01*
X73464999Y-30252797D01*
X73475500Y-30150009D01*
X73475499Y-28849992D01*
X73464999Y-28747203D01*
X73409814Y-28580666D01*
X73317712Y-28431344D01*
X73193656Y-28307288D01*
X73044334Y-28215186D01*
X73044333Y-28215185D01*
X73038878Y-28211821D01*
X72992154Y-28159873D01*
X72980931Y-28090910D01*
X73008775Y-28026828D01*
X73016272Y-28018623D01*
X73155104Y-27879792D01*
X73280051Y-27707816D01*
X73376557Y-27518412D01*
X73442246Y-27316243D01*
X73475500Y-27106287D01*
X73475500Y-26893713D01*
X73442246Y-26683757D01*
X73376557Y-26481588D01*
X73280051Y-26292184D01*
X73280049Y-26292181D01*
X73280048Y-26292179D01*
X73155109Y-26120213D01*
X73004790Y-25969894D01*
X73004785Y-25969890D01*
X72839781Y-25850008D01*
X72797115Y-25794678D01*
X72791136Y-25725065D01*
X72823741Y-25663270D01*
X72839781Y-25649371D01*
X73004466Y-25529721D01*
X73154723Y-25379464D01*
X73154727Y-25379459D01*
X73279620Y-25207557D01*
X73376095Y-25018217D01*
X73441757Y-24816129D01*
X73441757Y-24816126D01*
X73452231Y-24750000D01*
X72404146Y-24750000D01*
X72442630Y-24683343D01*
X72475000Y-24562535D01*
X72475000Y-24437465D01*
X72442630Y-24316657D01*
X72404146Y-24250000D01*
X73452231Y-24250000D01*
X73441757Y-24183873D01*
X73441757Y-24183870D01*
X73376095Y-23981782D01*
X73279620Y-23792442D01*
X73154727Y-23620540D01*
X73154723Y-23620535D01*
X73004464Y-23470276D01*
X73004459Y-23470272D01*
X72832557Y-23345379D01*
X72643217Y-23248904D01*
X72441128Y-23183242D01*
X72250000Y-23152969D01*
X72250000Y-24095854D01*
X72183343Y-24057370D01*
X72062535Y-24025000D01*
X71937465Y-24025000D01*
X71816657Y-24057370D01*
X71750000Y-24095854D01*
X71750000Y-23152969D01*
X71558872Y-23183242D01*
X71558869Y-23183242D01*
X71356782Y-23248904D01*
X71167442Y-23345379D01*
X70995540Y-23470272D01*
X70995535Y-23470276D01*
X70845276Y-23620535D01*
X70845272Y-23620540D01*
X70720379Y-23792442D01*
X70623904Y-23981782D01*
X70558242Y-24183870D01*
X70558242Y-24183873D01*
X70547769Y-24250000D01*
X71595854Y-24250000D01*
X71557370Y-24316657D01*
X71525000Y-24437465D01*
X71525000Y-24562535D01*
X71557370Y-24683343D01*
X71595854Y-24750000D01*
X70547769Y-24750000D01*
X70558242Y-24816126D01*
X70558242Y-24816129D01*
X70623904Y-25018217D01*
X70720379Y-25207557D01*
X70845272Y-25379459D01*
X70845276Y-25379464D01*
X70995535Y-25529723D01*
X70995540Y-25529727D01*
X71160218Y-25649372D01*
X71202884Y-25704701D01*
X71208863Y-25774315D01*
X71176258Y-25836110D01*
X71160218Y-25850008D01*
X70995214Y-25969890D01*
X70995209Y-25969894D01*
X70844890Y-26120213D01*
X70719951Y-26292179D01*
X70623444Y-26481585D01*
X70557753Y-26683760D01*
X70524500Y-26893713D01*
X70524500Y-27106286D01*
X70557753Y-27316239D01*
X70623444Y-27518414D01*
X70719951Y-27707820D01*
X70844890Y-27879786D01*
X70983705Y-28018601D01*
X71017190Y-28079924D01*
X71012206Y-28149616D01*
X70970334Y-28205549D01*
X70961121Y-28211821D01*
X70806342Y-28307289D01*
X70682289Y-28431342D01*
X70590187Y-28580663D01*
X70590185Y-28580668D01*
X70562349Y-28664670D01*
X70535001Y-28747203D01*
X70535001Y-28747204D01*
X70535000Y-28747204D01*
X70524500Y-28849983D01*
X70524500Y-30150001D01*
X33100000Y-30150001D01*
X33100000Y-29750000D01*
X32183012Y-29750000D01*
X32215925Y-29692993D01*
X32250000Y-29565826D01*
X32250000Y-29434174D01*
X32215925Y-29307007D01*
X32183012Y-29250000D01*
X33100000Y-29250000D01*
X33100000Y-28602172D01*
X33099999Y-28602155D01*
X33093598Y-28542627D01*
X33093596Y-28542620D01*
X33043354Y-28407913D01*
X33043350Y-28407906D01*
X32957190Y-28292812D01*
X32957187Y-28292809D01*
X32842093Y-28206649D01*
X32842086Y-28206645D01*
X32707379Y-28156403D01*
X32707372Y-28156401D01*
X32647844Y-28150000D01*
X32000000Y-28150000D01*
X32000000Y-29066988D01*
X31942993Y-29034075D01*
X31815826Y-29000000D01*
X31684174Y-29000000D01*
X31557007Y-29034075D01*
X31500000Y-29066988D01*
X31500000Y-28150000D01*
X30852155Y-28150000D01*
X30792627Y-28156401D01*
X30792620Y-28156403D01*
X30657913Y-28206645D01*
X30657906Y-28206649D01*
X30542812Y-28292809D01*
X30542809Y-28292812D01*
X30456649Y-28407906D01*
X30456645Y-28407913D01*
X30406403Y-28542620D01*
X30406401Y-28542627D01*
X30400000Y-28602155D01*
X30400000Y-29250000D01*
X31316988Y-29250000D01*
X31284075Y-29307007D01*
X31250000Y-29434174D01*
X31250000Y-29565826D01*
X31284075Y-29692993D01*
X31316988Y-29750000D01*
X30400000Y-29750000D01*
X30400000Y-30397844D01*
X26500000Y-30397844D01*
X26500000Y-27897870D01*
X62149500Y-27897870D01*
X62149501Y-27897876D01*
X62155908Y-27957483D01*
X62206202Y-28092328D01*
X62206206Y-28092335D01*
X62292452Y-28207544D01*
X62292455Y-28207547D01*
X62407664Y-28293793D01*
X62407671Y-28293797D01*
X62542517Y-28344091D01*
X62542516Y-28344091D01*
X62549444Y-28344835D01*
X62602127Y-28350500D01*
X64397872Y-28350499D01*
X64457483Y-28344091D01*
X64592331Y-28293796D01*
X64707546Y-28207546D01*
X64793796Y-28092331D01*
X64844091Y-27957483D01*
X64850500Y-27897873D01*
X64850499Y-26102128D01*
X64844091Y-26042517D01*
X64817004Y-25969894D01*
X64793797Y-25907671D01*
X64793793Y-25907664D01*
X64707547Y-25792455D01*
X64707544Y-25792452D01*
X64592335Y-25706206D01*
X64592328Y-25706202D01*
X64457482Y-25655908D01*
X64457483Y-25655908D01*
X64397883Y-25649501D01*
X64397881Y-25649500D01*
X64397873Y-25649500D01*
X64397864Y-25649500D01*
X62602129Y-25649500D01*
X62602123Y-25649501D01*
X62542516Y-25655908D01*
X62407671Y-25706202D01*
X62407664Y-25706206D01*
X62292455Y-25792452D01*
X62292452Y-25792455D01*
X62206206Y-25907664D01*
X62206202Y-25907671D01*
X62155908Y-26042517D01*
X62149501Y-26102116D01*
X62149501Y-26102123D01*
X62149500Y-26102135D01*
X62149500Y-27897870D01*
X26500000Y-27897870D01*
X26500000Y-23897870D01*
X30399500Y-23897870D01*
X30399501Y-23897876D01*
X30405908Y-23957483D01*
X30456202Y-24092328D01*
X30456206Y-24092335D01*
X30542452Y-24207544D01*
X30542455Y-24207547D01*
X30657664Y-24293793D01*
X30657671Y-24293797D01*
X30792517Y-24344091D01*
X30792516Y-24344091D01*
X30799444Y-24344835D01*
X30852127Y-24350500D01*
X32647872Y-24350499D01*
X32707483Y-24344091D01*
X32842331Y-24293796D01*
X32957546Y-24207546D01*
X33043796Y-24092331D01*
X33094091Y-23957483D01*
X33100500Y-23897873D01*
X33100499Y-22102128D01*
X33094091Y-22042517D01*
X33043796Y-21907669D01*
X33043795Y-21907668D01*
X33043793Y-21907664D01*
X32957547Y-21792455D01*
X32957544Y-21792452D01*
X32842335Y-21706206D01*
X32842328Y-21706202D01*
X32707482Y-21655908D01*
X32707483Y-21655908D01*
X32647883Y-21649501D01*
X32647881Y-21649500D01*
X32647873Y-21649500D01*
X32647864Y-21649500D01*
X30852129Y-21649500D01*
X30852123Y-21649501D01*
X30792516Y-21655908D01*
X30657671Y-21706202D01*
X30657664Y-21706206D01*
X30542455Y-21792452D01*
X30542452Y-21792455D01*
X30456206Y-21907664D01*
X30456202Y-21907671D01*
X30405908Y-22042517D01*
X30399501Y-22102116D01*
X30399501Y-22102123D01*
X30399500Y-22102135D01*
X30399500Y-23897870D01*
X26500000Y-23897870D01*
X26500000Y-19124000D01*
X26519685Y-19056961D01*
X26572489Y-19011206D01*
X26624000Y-19000000D01*
X80126000Y-19000000D01*
X80193039Y-19019685D01*
G37*
%TD.AperFunction*%
%TD*%
M02*
