%TF.GenerationSoftware,KiCad,Pcbnew,8.0.1*%
%TF.CreationDate,2024-04-02T05:11:47+03:00*%
%TF.ProjectId,led connectors,6c656420-636f-46e6-9e65-63746f72732e,rev?*%
%TF.SameCoordinates,Original*%
%TF.FileFunction,Soldermask,Bot*%
%TF.FilePolarity,Negative*%
%FSLAX46Y46*%
G04 Gerber Fmt 4.6, Leading zero omitted, Abs format (unit mm)*
G04 Created by KiCad (PCBNEW 8.0.1) date 2024-04-02 05:11:47*
%MOMM*%
%LPD*%
G01*
G04 APERTURE LIST*
G04 Aperture macros list*
%AMRoundRect*
0 Rectangle with rounded corners*
0 $1 Rounding radius*
0 $2 $3 $4 $5 $6 $7 $8 $9 X,Y pos of 4 corners*
0 Add a 4 corners polygon primitive as box body*
4,1,4,$2,$3,$4,$5,$6,$7,$8,$9,$2,$3,0*
0 Add four circle primitives for the rounded corners*
1,1,$1+$1,$2,$3*
1,1,$1+$1,$4,$5*
1,1,$1+$1,$6,$7*
1,1,$1+$1,$8,$9*
0 Add four rect primitives between the rounded corners*
20,1,$1+$1,$2,$3,$4,$5,0*
20,1,$1+$1,$4,$5,$6,$7,0*
20,1,$1+$1,$6,$7,$8,$9,0*
20,1,$1+$1,$8,$9,$2,$3,0*%
G04 Aperture macros list end*
%ADD10R,1.700000X1.700000*%
%ADD11RoundRect,0.250000X0.725000X-0.600000X0.725000X0.600000X-0.725000X0.600000X-0.725000X-0.600000X0*%
%ADD12O,1.950000X1.700000*%
G04 APERTURE END LIST*
D10*
%TO.C,J48*%
X31750000Y-29500000D03*
%TD*%
%TO.C,J1*%
X31750000Y-23000000D03*
%TD*%
%TO.C,J33*%
X63500000Y-267000000D03*
%TD*%
D11*
%TO.C,J47*%
X72000000Y-321250000D03*
D12*
X72000000Y-318750000D03*
X72000000Y-316250000D03*
%TD*%
D10*
%TO.C,J31*%
X63500000Y-241000000D03*
%TD*%
%TO.C,J36*%
X63500000Y-305750000D03*
%TD*%
%TO.C,J13*%
X63500000Y-159250000D03*
%TD*%
%TO.C,J34*%
X63500000Y-279750000D03*
%TD*%
D11*
%TO.C,J16*%
X72000000Y-42500000D03*
D12*
X72000000Y-40000000D03*
X72000000Y-37500000D03*
%TD*%
D11*
%TO.C,J46*%
X72000000Y-308250000D03*
D12*
X72000000Y-305750000D03*
X72000000Y-303250000D03*
%TD*%
D11*
%TO.C,J18*%
X72000000Y-69000000D03*
D12*
X72000000Y-66500000D03*
X72000000Y-64000000D03*
%TD*%
D10*
%TO.C,J12*%
X63500000Y-145500000D03*
%TD*%
D11*
%TO.C,J19*%
X72050000Y-81750000D03*
D12*
X72050000Y-79250000D03*
X72050000Y-76750000D03*
%TD*%
D11*
%TO.C,J2*%
X72000000Y-29500000D03*
D12*
X72000000Y-27000000D03*
X72000000Y-24500000D03*
%TD*%
D10*
%TO.C,J6*%
X63475000Y-66450000D03*
%TD*%
D11*
%TO.C,J41*%
X72000000Y-243500000D03*
D12*
X72000000Y-241000000D03*
X72000000Y-238500000D03*
%TD*%
D11*
%TO.C,J21*%
X72000000Y-108250000D03*
D12*
X72000000Y-105750000D03*
X72000000Y-103250000D03*
%TD*%
D11*
%TO.C,J17*%
X72000000Y-55750000D03*
D12*
X72000000Y-53250000D03*
X72000000Y-50750000D03*
%TD*%
D10*
%TO.C,J7*%
X63500000Y-79250000D03*
%TD*%
%TO.C,J5*%
X63500000Y-53600000D03*
%TD*%
D11*
%TO.C,J22*%
X72000000Y-122000000D03*
D12*
X72000000Y-119500000D03*
X72000000Y-117000000D03*
%TD*%
D10*
%TO.C,J8*%
X63500000Y-92350000D03*
%TD*%
%TO.C,J3*%
X63500000Y-27000000D03*
%TD*%
D11*
%TO.C,J26*%
X72000000Y-174750000D03*
D12*
X72000000Y-172250000D03*
X72000000Y-169750000D03*
%TD*%
D10*
%TO.C,J28*%
X63500000Y-202000000D03*
%TD*%
D11*
%TO.C,J25*%
X72000000Y-161750000D03*
D12*
X72000000Y-159250000D03*
X72000000Y-156750000D03*
%TD*%
D11*
%TO.C,J45*%
X72000000Y-295500000D03*
D12*
X72000000Y-293000000D03*
X72000000Y-290500000D03*
%TD*%
D11*
%TO.C,J38*%
X72000000Y-204500000D03*
D12*
X72000000Y-202000000D03*
X72000000Y-199500000D03*
%TD*%
D10*
%TO.C,J29*%
X63500000Y-215250000D03*
%TD*%
%TO.C,J32*%
X63500000Y-254000000D03*
%TD*%
D11*
%TO.C,J39*%
X72000000Y-217750000D03*
D12*
X72000000Y-215250000D03*
X72000000Y-212750000D03*
%TD*%
D10*
%TO.C,J35*%
X63500000Y-293000000D03*
%TD*%
%TO.C,J14*%
X63500000Y-172250000D03*
%TD*%
%TO.C,J9*%
X63500000Y-105750000D03*
%TD*%
D11*
%TO.C,J44*%
X72000000Y-282250000D03*
D12*
X72000000Y-279750000D03*
X72000000Y-277250000D03*
%TD*%
D10*
%TO.C,J10*%
X63450000Y-119450000D03*
%TD*%
D11*
%TO.C,J40*%
X72000000Y-230750000D03*
D12*
X72000000Y-228250000D03*
X72000000Y-225750000D03*
%TD*%
D11*
%TO.C,J23*%
X72000000Y-135250000D03*
D12*
X72000000Y-132750000D03*
X72000000Y-130250000D03*
%TD*%
D11*
%TO.C,J43*%
X72000000Y-269500000D03*
D12*
X72000000Y-267000000D03*
X72000000Y-264500000D03*
%TD*%
D10*
%TO.C,J11*%
X63500000Y-132750000D03*
%TD*%
D11*
%TO.C,J24*%
X72000000Y-148000000D03*
D12*
X72000000Y-145500000D03*
X72000000Y-143000000D03*
%TD*%
D10*
%TO.C,J4*%
X63500000Y-40000000D03*
%TD*%
D11*
%TO.C,J42*%
X72000000Y-256500000D03*
D12*
X72000000Y-254000000D03*
X72000000Y-251500000D03*
%TD*%
D10*
%TO.C,J37*%
X63500000Y-318750000D03*
%TD*%
%TO.C,J30*%
X63500000Y-228250000D03*
%TD*%
D11*
%TO.C,J20*%
X72000000Y-94750000D03*
D12*
X72000000Y-92250000D03*
X72000000Y-89750000D03*
%TD*%
D11*
%TO.C,J27*%
X72000000Y-187750000D03*
D12*
X72000000Y-185250000D03*
X72000000Y-182750000D03*
%TD*%
D10*
%TO.C,J15*%
X63500000Y-185500000D03*
%TD*%
M02*
