M48
; DRILL file {KiCad 8.0.1} date 2024-04-02T05:11:50+0300
; FORMAT={-:-/ absolute / inch / decimal}
; #@! TF.CreationDate,2024-04-02T05:11:50+03:00
; #@! TF.GenerationSoftware,Kicad,Pcbnew,8.0.1
; #@! TF.FileFunction,Plated,1,2,PTH
FMAT,2
INCH
; #@! TA.AperFunction,Plated,PTH,ViaDrill
T1C0.0197
; #@! TA.AperFunction,Plated,PTH,ComponentDrill
T2C0.0374
; #@! TA.AperFunction,Plated,PTH,ComponentDrill
T3C0.0394
; #@! TA.AperFunction,Plated,PTH,ViaDrill
T4C0.0787
%
G90
G05
T1
X3.0118Y-0.9646
X3.0118Y-1.4764
X3.0118Y-1.998
X3.0118Y-2.5197
X3.0118Y-3.0217
X3.0118Y-3.5335
X3.0118Y-4.065
X3.0118Y-4.6063
X3.0118Y-5.128
X3.0118Y-5.6299
X3.0118Y-6.1713
X3.0118Y-6.6831
X3.0118Y-7.1949
X3.0118Y-7.8543
X3.0118Y-8.376
X3.0118Y-8.8878
X3.0118Y-9.3898
X3.0118Y-9.9016
X3.0118Y-10.4134
X3.0118Y-10.9154
X3.0118Y-11.437
X3.0118Y-11.939
X3.0118Y-12.4508
T2
X2.8346Y-0.9646
X2.8346Y-1.063
X2.8346Y-1.1614
X2.8346Y-1.4764
X2.8346Y-1.5748
X2.8346Y-1.6732
X2.8346Y-1.998
X2.8346Y-2.0965
X2.8346Y-2.1949
X2.8346Y-2.5197
X2.8346Y-2.6181
X2.8346Y-2.7165
X2.8346Y-3.5335
X2.8346Y-3.6319
X2.8346Y-3.7303
X2.8346Y-4.065
X2.8346Y-4.1634
X2.8346Y-4.2618
X2.8346Y-4.6063
X2.8346Y-4.7047
X2.8346Y-4.8031
X2.8346Y-5.128
X2.8346Y-5.2264
X2.8346Y-5.3248
X2.8346Y-5.6299
X2.8346Y-5.7283
X2.8346Y-5.8268
X2.8346Y-6.1713
X2.8346Y-6.2697
X2.8346Y-6.3681
X2.8346Y-6.6831
X2.8346Y-6.7815
X2.8346Y-6.8799
X2.8346Y-7.1949
X2.8346Y-7.2933
X2.8346Y-7.3917
X2.8346Y-7.8543
X2.8346Y-7.9528
X2.8346Y-8.0512
X2.8346Y-8.376
X2.8346Y-8.4744
X2.8346Y-8.5728
X2.8346Y-8.8878
X2.8346Y-8.9862
X2.8346Y-9.0846
X2.8346Y-9.3898
X2.8346Y-9.4882
X2.8346Y-9.5866
X2.8346Y-9.9016
X2.8346Y-10.0
X2.8346Y-10.0984
X2.8346Y-10.4134
X2.8346Y-10.5118
X2.8346Y-10.6102
X2.8346Y-10.9154
X2.8346Y-11.0138
X2.8346Y-11.1122
X2.8346Y-11.437
X2.8346Y-11.5354
X2.8346Y-11.6339
X2.8346Y-11.939
X2.8346Y-12.0374
X2.8346Y-12.1358
X2.8346Y-12.4508
X2.8346Y-12.5492
X2.8346Y-12.6476
X2.8366Y-3.0217
X2.8366Y-3.1201
X2.8366Y-3.2185
T3
X1.25Y-0.9055
X1.25Y-1.1614
X2.498Y-4.7028
X2.499Y-2.6161
X2.5Y-1.063
X2.5Y-1.5748
X2.5Y-2.1102
X2.5Y-3.1201
X2.5Y-3.6358
X2.5Y-4.1634
X2.5Y-5.2264
X2.5Y-5.7283
X2.5Y-6.2697
X2.5Y-6.7815
X2.5Y-7.3031
X2.5Y-7.9528
X2.5Y-8.4744
X2.5Y-8.9862
X2.5Y-9.4882
X2.5Y-10.0
X2.5Y-10.5118
X2.5Y-11.0138
X2.5Y-11.5354
X2.5Y-12.0374
X2.5Y-12.5492
T4
X1.4764Y-1.1614
M30
